<svg width="391" height="31" viewBox="0 0 391 31" fill="none" xmlns="http://www.w3.org/2000/svg">
<path d="M23.298 10.27V20H21.702V13.336L18.734 20H17.628L14.646 13.336V20H13.05V10.27H14.772L18.188 17.9L21.59 10.27H23.298ZM26.4877 11.264C26.1984 11.264 25.9557 11.166 25.7597 10.97C25.5637 10.774 25.4657 10.5313 25.4657 10.242C25.4657 9.95267 25.5637 9.71 25.7597 9.514C25.9557 9.318 26.1984 9.22 26.4877 9.22C26.7677 9.22 27.0057 9.318 27.2017 9.514C27.3977 9.71 27.4957 9.95267 27.4957 10.242C27.4957 10.5313 27.3977 10.774 27.2017 10.97C27.0057 11.166 26.7677 11.264 26.4877 11.264ZM27.2717 12.286V20H25.6757V12.286H27.2717ZM32.4471 20.126C31.8404 20.126 31.2944 20.0187 30.8091 19.804C30.3331 19.58 29.9551 19.2813 29.6751 18.908C29.3951 18.5253 29.2458 18.1007 29.2271 17.634H30.8791C30.9071 17.9607 31.0611 18.236 31.3411 18.46C31.6304 18.6747 31.9898 18.782 32.4191 18.782C32.8671 18.782 33.2124 18.698 33.4551 18.53C33.7071 18.3527 33.8331 18.1287 33.8331 17.858C33.8331 17.5687 33.6931 17.354 33.4131 17.214C33.1424 17.074 32.7084 16.92 32.1111 16.752C31.5324 16.5933 31.0611 16.4393 30.6971 16.29C30.3331 16.1407 30.0158 15.912 29.7451 15.604C29.4838 15.296 29.3531 14.89 29.3531 14.386C29.3531 13.9753 29.4744 13.602 29.7171 13.266C29.9598 12.9207 30.3051 12.65 30.7531 12.454C31.2104 12.258 31.7331 12.16 32.3211 12.16C33.1984 12.16 33.9031 12.384 34.4351 12.832C34.9764 13.2707 35.2658 13.8727 35.3031 14.638H33.7071C33.6791 14.2927 33.5391 14.0173 33.2871 13.812C33.0351 13.6067 32.6944 13.504 32.2651 13.504C31.8451 13.504 31.5231 13.5833 31.2991 13.742C31.0751 13.9007 30.9631 14.1107 30.9631 14.372C30.9631 14.5773 31.0378 14.75 31.1871 14.89C31.3364 15.03 31.5184 15.142 31.7331 15.226C31.9478 15.3007 32.2651 15.3987 32.6851 15.52C33.2451 15.6693 33.7024 15.8233 34.0571 15.982C34.4211 16.1313 34.7338 16.3553 34.9951 16.654C35.2564 16.9527 35.3918 17.3493 35.4011 17.844C35.4011 18.2827 35.2798 18.6747 35.0371 19.02C34.7944 19.3653 34.4491 19.636 34.0011 19.832C33.5624 20.028 33.0444 20.126 32.4471 20.126ZM40.2056 20.126C39.599 20.126 39.053 20.0187 38.5676 19.804C38.0916 19.58 37.7136 19.2813 37.4336 18.908C37.1536 18.5253 37.0043 18.1007 36.9856 17.634H38.6376C38.6656 17.9607 38.8196 18.236 39.0996 18.46C39.389 18.6747 39.7483 18.782 40.1776 18.782C40.6256 18.782 40.971 18.698 41.2136 18.53C41.4656 18.3527 41.5916 18.1287 41.5916 17.858C41.5916 17.5687 41.4516 17.354 41.1716 17.214C40.901 17.074 40.467 16.92 39.8696 16.752C39.291 16.5933 38.8196 16.4393 38.4556 16.29C38.0916 16.1407 37.7743 15.912 37.5036 15.604C37.2423 15.296 37.1116 14.89 37.1116 14.386C37.1116 13.9753 37.233 13.602 37.4756 13.266C37.7183 12.9207 38.0636 12.65 38.5116 12.454C38.969 12.258 39.4916 12.16 40.0796 12.16C40.957 12.16 41.6616 12.384 42.1936 12.832C42.735 13.2707 43.0243 13.8727 43.0616 14.638H41.4656C41.4376 14.2927 41.2976 14.0173 41.0456 13.812C40.7936 13.6067 40.453 13.504 40.0236 13.504C39.6036 13.504 39.2816 13.5833 39.0576 13.742C38.8336 13.9007 38.7216 14.1107 38.7216 14.372C38.7216 14.5773 38.7963 14.75 38.9456 14.89C39.095 15.03 39.277 15.142 39.4916 15.226C39.7063 15.3007 40.0236 15.3987 40.4436 15.52C41.0036 15.6693 41.461 15.8233 41.8156 15.982C42.1796 16.1313 42.4923 16.3553 42.7536 16.654C43.015 16.9527 43.1503 17.3493 43.1596 17.844C43.1596 18.2827 43.0383 18.6747 42.7956 19.02C42.553 19.3653 42.2076 19.636 41.7596 19.832C41.321 20.028 40.803 20.126 40.2056 20.126ZM48.5101 20.126C47.7821 20.126 47.1241 19.9627 46.5361 19.636C45.9481 19.3 45.4861 18.8333 45.1501 18.236C44.8141 17.6293 44.6461 16.9293 44.6461 16.136C44.6461 15.352 44.8188 14.6567 45.1641 14.05C45.5095 13.4433 45.9808 12.9767 46.5781 12.65C47.1755 12.3233 47.8428 12.16 48.5801 12.16C49.3175 12.16 49.9848 12.3233 50.5821 12.65C51.1795 12.9767 51.6508 13.4433 51.9961 14.05C52.3415 14.6567 52.5141 15.352 52.5141 16.136C52.5141 16.92 52.3368 17.6153 51.9821 18.222C51.6275 18.8287 51.1421 19.3 50.5261 19.636C49.9195 19.9627 49.2475 20.126 48.5101 20.126ZM48.5101 18.74C48.9208 18.74 49.3035 18.642 49.6581 18.446C50.0221 18.25 50.3161 17.956 50.5401 17.564C50.7641 17.172 50.8761 16.696 50.8761 16.136C50.8761 15.576 50.7688 15.1047 50.5541 14.722C50.3395 14.33 50.0548 14.036 49.7001 13.84C49.3455 13.644 48.9628 13.546 48.5521 13.546C48.1415 13.546 47.7588 13.644 47.4041 13.84C47.0588 14.036 46.7835 14.33 46.5781 14.722C46.3728 15.1047 46.2701 15.576 46.2701 16.136C46.2701 16.9667 46.4801 17.6107 46.9001 18.068C47.3295 18.516 47.8661 18.74 48.5101 18.74ZM55.9679 13.406C56.2012 13.014 56.5092 12.7107 56.8919 12.496C57.2839 12.272 57.7459 12.16 58.2779 12.16V13.812H57.8719C57.2465 13.812 56.7705 13.9707 56.4439 14.288C56.1265 14.6053 55.9679 15.156 55.9679 15.94V20H54.3719V12.286H55.9679V13.406ZM61.8869 13.588V17.858C61.8869 18.1473 61.9523 18.3573 62.0829 18.488C62.2229 18.6093 62.4563 18.67 62.7829 18.67H63.7629V20H62.5029C61.7843 20 61.2336 19.832 60.8509 19.496C60.4683 19.16 60.2769 18.614 60.2769 17.858V13.588H59.3669V12.286H60.2769V10.368H61.8869V12.286H63.7629V13.588H61.8869Z" fill="#004EDA"/>
<path d="M85.875 11.125L77.125 19.875L72.75 15.5" stroke="#004EDA" stroke-width="2" stroke-linecap="round" stroke-linejoin="round"/>
<rect x="0.5" y="0.5" width="94" height="30" rx="15" stroke="#004EDA"/>
<path d="M256.488 20.098C255.583 20.098 254.747 19.888 253.982 19.468C253.226 19.0387 252.624 18.446 252.176 17.69C251.737 16.9247 251.518 16.066 251.518 15.114C251.518 14.162 251.737 13.308 252.176 12.552C252.624 11.796 253.226 11.208 253.982 10.788C254.747 10.3587 255.583 10.144 256.488 10.144C257.403 10.144 258.238 10.3587 258.994 10.788C259.759 11.208 260.361 11.796 260.8 12.552C261.239 13.308 261.458 14.162 261.458 15.114C261.458 16.066 261.239 16.9247 260.8 17.69C260.361 18.446 259.759 19.0387 258.994 19.468C258.238 19.888 257.403 20.098 256.488 20.098ZM256.488 18.712C257.132 18.712 257.706 18.5673 258.21 18.278C258.714 17.9793 259.106 17.5593 259.386 17.018C259.675 16.4673 259.82 15.8327 259.82 15.114C259.82 14.3953 259.675 13.7653 259.386 13.224C259.106 12.6827 258.714 12.2673 258.21 11.978C257.706 11.6887 257.132 11.544 256.488 11.544C255.844 11.544 255.27 11.6887 254.766 11.978C254.262 12.2673 253.865 12.6827 253.576 13.224C253.296 13.7653 253.156 14.3953 253.156 15.114C253.156 15.8327 253.296 16.4673 253.576 17.018C253.865 17.5593 254.262 17.9793 254.766 18.278C255.27 18.5673 255.844 18.712 256.488 18.712ZM264.905 11.558V14.414H268.265V15.716H264.905V18.698H268.685V20H263.309V10.256H268.685V11.558H264.905ZM270.398 15.114C270.398 14.162 270.618 13.308 271.056 12.552C271.504 11.796 272.106 11.208 272.862 10.788C273.628 10.3587 274.463 10.144 275.368 10.144C276.404 10.144 277.324 10.4007 278.126 10.914C278.938 11.418 279.526 12.1367 279.89 13.07H277.972C277.72 12.5567 277.37 12.174 276.922 11.922C276.474 11.67 275.956 11.544 275.368 11.544C274.724 11.544 274.15 11.6887 273.646 11.978C273.142 12.2673 272.746 12.6827 272.456 13.224C272.176 13.7653 272.036 14.3953 272.036 15.114C272.036 15.8327 272.176 16.4627 272.456 17.004C272.746 17.5453 273.142 17.9653 273.646 18.264C274.15 18.5533 274.724 18.698 275.368 18.698C275.956 18.698 276.474 18.572 276.922 18.32C277.37 18.068 277.72 17.6853 277.972 17.172H279.89C279.526 18.1053 278.938 18.824 278.126 19.328C277.324 19.832 276.404 20.084 275.368 20.084C274.454 20.084 273.618 19.874 272.862 19.454C272.106 19.0247 271.504 18.432 271.056 17.676C270.618 16.92 270.398 16.066 270.398 15.114ZM291.163 15.002C291.686 15.0953 292.129 15.3707 292.493 15.828C292.857 16.2853 293.039 16.8033 293.039 17.382C293.039 17.8767 292.908 18.3247 292.647 18.726C292.395 19.118 292.026 19.4307 291.541 19.664C291.056 19.888 290.491 20 289.847 20H285.955V10.27H289.665C290.328 10.27 290.897 10.382 291.373 10.606C291.849 10.83 292.208 11.1333 292.451 11.516C292.694 11.8893 292.815 12.3093 292.815 12.776C292.815 13.336 292.666 13.8027 292.367 14.176C292.068 14.5493 291.667 14.8247 291.163 15.002ZM287.551 14.358H289.525C290.048 14.358 290.454 14.2413 290.743 14.008C291.042 13.7653 291.191 13.42 291.191 12.972C291.191 12.5333 291.042 12.1927 290.743 11.95C290.454 11.698 290.048 11.572 289.525 11.572H287.551V14.358ZM289.707 18.698C290.248 18.698 290.673 18.5673 290.981 18.306C291.289 18.0447 291.443 17.6807 291.443 17.214C291.443 16.738 291.28 16.36 290.953 16.08C290.626 15.8 290.192 15.66 289.651 15.66H287.551V18.698H289.707ZM302.124 15.954C302.124 16.2433 302.105 16.5047 302.068 16.738H296.174C296.22 17.354 296.449 17.8487 296.86 18.222C297.27 18.5953 297.774 18.782 298.372 18.782C299.23 18.782 299.837 18.4227 300.192 17.704H301.914C301.68 18.4133 301.256 18.9967 300.64 19.454C300.033 19.902 299.277 20.126 298.372 20.126C297.634 20.126 296.972 19.9627 296.384 19.636C295.805 19.3 295.348 18.8333 295.012 18.236C294.685 17.6293 294.522 16.9293 294.522 16.136C294.522 15.3427 294.68 14.6473 294.998 14.05C295.324 13.4433 295.777 12.9767 296.356 12.65C296.944 12.3233 297.616 12.16 298.372 12.16C299.1 12.16 299.748 12.3187 300.318 12.636C300.887 12.9533 301.33 13.4013 301.648 13.98C301.965 14.5493 302.124 15.2073 302.124 15.954ZM300.458 15.45C300.448 14.862 300.238 14.3907 299.828 14.036C299.417 13.6813 298.908 13.504 298.302 13.504C297.751 13.504 297.28 13.6813 296.888 14.036C296.496 14.3813 296.262 14.8527 296.188 15.45H300.458ZM307.208 13.588H305.78V20H304.17V13.588H303.26V12.286H304.17V11.74C304.17 10.8533 304.403 10.2093 304.87 9.808C305.346 9.39733 306.088 9.192 307.096 9.192V10.522C306.611 10.522 306.27 10.6153 306.074 10.802C305.878 10.9793 305.78 11.292 305.78 11.74V12.286H307.208V13.588ZM312.249 20.126C311.521 20.126 310.863 19.9627 310.275 19.636C309.687 19.3 309.225 18.8333 308.889 18.236C308.553 17.6293 308.385 16.9293 308.385 16.136C308.385 15.352 308.557 14.6567 308.903 14.05C309.248 13.4433 309.719 12.9767 310.317 12.65C310.914 12.3233 311.581 12.16 312.319 12.16C313.056 12.16 313.723 12.3233 314.321 12.65C314.918 12.9767 315.389 13.4433 315.735 14.05C316.08 14.6567 316.253 15.352 316.253 16.136C316.253 16.92 316.075 17.6153 315.721 18.222C315.366 18.8287 314.881 19.3 314.265 19.636C313.658 19.9627 312.986 20.126 312.249 20.126ZM312.249 18.74C312.659 18.74 313.042 18.642 313.397 18.446C313.761 18.25 314.055 17.956 314.279 17.564C314.503 17.172 314.615 16.696 314.615 16.136C314.615 15.576 314.507 15.1047 314.293 14.722C314.078 14.33 313.793 14.036 313.439 13.84C313.084 13.644 312.701 13.546 312.291 13.546C311.88 13.546 311.497 13.644 311.143 13.84C310.797 14.036 310.522 14.33 310.317 14.722C310.111 15.1047 310.009 15.576 310.009 16.136C310.009 16.9667 310.219 17.6107 310.639 18.068C311.068 18.516 311.605 18.74 312.249 18.74ZM319.706 13.406C319.94 13.014 320.248 12.7107 320.63 12.496C321.022 12.272 321.484 12.16 322.016 12.16V13.812H321.61C320.985 13.812 320.509 13.9707 320.182 14.288C319.865 14.6053 319.706 15.156 319.706 15.94V20H318.11V12.286H319.706V13.406ZM330.833 15.954C330.833 16.2433 330.815 16.5047 330.777 16.738H324.883C324.93 17.354 325.159 17.8487 325.569 18.222C325.98 18.5953 326.484 18.782 327.081 18.782C327.94 18.782 328.547 18.4227 328.901 17.704H330.623C330.39 18.4133 329.965 18.9967 329.349 19.454C328.743 19.902 327.987 20.126 327.081 20.126C326.344 20.126 325.681 19.9627 325.093 19.636C324.515 19.3 324.057 18.8333 323.721 18.236C323.395 17.6293 323.231 16.9293 323.231 16.136C323.231 15.3427 323.39 14.6473 323.707 14.05C324.034 13.4433 324.487 12.9767 325.065 12.65C325.653 12.3233 326.325 12.16 327.081 12.16C327.809 12.16 328.458 12.3187 329.027 12.636C329.597 12.9533 330.04 13.4013 330.357 13.98C330.675 14.5493 330.833 15.2073 330.833 15.954ZM329.167 15.45C329.158 14.862 328.948 14.3907 328.537 14.036C328.127 13.6813 327.618 13.504 327.011 13.504C326.461 13.504 325.989 13.6813 325.597 14.036C325.205 14.3813 324.972 14.8527 324.897 15.45H329.167ZM339.807 20.098C339.153 20.098 338.565 19.986 338.043 19.762C337.52 19.5287 337.109 19.202 336.811 18.782C336.512 18.362 336.363 17.872 336.363 17.312H338.071C338.108 17.732 338.271 18.0773 338.561 18.348C338.859 18.6187 339.275 18.754 339.807 18.754C340.357 18.754 340.787 18.6233 341.095 18.362C341.403 18.0913 341.557 17.746 341.557 17.326C341.557 16.9993 341.459 16.7333 341.263 16.528C341.076 16.3227 340.838 16.164 340.549 16.052C340.269 15.94 339.877 15.8187 339.373 15.688C338.738 15.52 338.22 15.352 337.819 15.184C337.427 15.0067 337.091 14.736 336.811 14.372C336.531 14.008 336.391 13.5227 336.391 12.916C336.391 12.356 336.531 11.866 336.811 11.446C337.091 11.026 337.483 10.704 337.987 10.48C338.491 10.256 339.074 10.144 339.737 10.144C340.679 10.144 341.449 10.382 342.047 10.858C342.653 11.3247 342.989 11.9687 343.055 12.79H341.291C341.263 12.4353 341.095 12.132 340.787 11.88C340.479 11.628 340.073 11.502 339.569 11.502C339.111 11.502 338.738 11.6187 338.449 11.852C338.159 12.0853 338.015 12.4213 338.015 12.86C338.015 13.1587 338.103 13.406 338.281 13.602C338.467 13.7887 338.701 13.938 338.981 14.05C339.261 14.162 339.643 14.2833 340.129 14.414C340.773 14.5913 341.295 14.7687 341.697 14.946C342.107 15.1233 342.453 15.3987 342.733 15.772C343.022 16.136 343.167 16.626 343.167 17.242C343.167 17.7367 343.031 18.2033 342.761 18.642C342.499 19.0807 342.112 19.4353 341.599 19.706C341.095 19.9673 340.497 20.098 339.807 20.098ZM351.616 10.27V11.572H349.026V20H347.43V11.572H344.826V10.27H351.616ZM356.718 20.098C356.065 20.098 355.477 19.986 354.954 19.762C354.432 19.5287 354.021 19.202 353.722 18.782C353.424 18.362 353.274 17.872 353.274 17.312H354.982C355.02 17.732 355.183 18.0773 355.472 18.348C355.771 18.6187 356.186 18.754 356.718 18.754C357.269 18.754 357.698 18.6233 358.006 18.362C358.314 18.0913 358.468 17.746 358.468 17.326C358.468 16.9993 358.37 16.7333 358.174 16.528C357.988 16.3227 357.75 16.164 357.46 16.052C357.18 15.94 356.788 15.8187 356.284 15.688C355.65 15.52 355.132 15.352 354.73 15.184C354.338 15.0067 354.002 14.736 353.722 14.372C353.442 14.008 353.302 13.5227 353.302 12.916C353.302 12.356 353.442 11.866 353.722 11.446C354.002 11.026 354.394 10.704 354.898 10.48C355.402 10.256 355.986 10.144 356.648 10.144C357.591 10.144 358.361 10.382 358.958 10.858C359.565 11.3247 359.901 11.9687 359.966 12.79H358.202C358.174 12.4353 358.006 12.132 357.698 11.88C357.39 11.628 356.984 11.502 356.48 11.502C356.023 11.502 355.65 11.6187 355.36 11.852C355.071 12.0853 354.926 12.4213 354.926 12.86C354.926 13.1587 355.015 13.406 355.192 13.602C355.379 13.7887 355.612 13.938 355.892 14.05C356.172 14.162 356.555 14.2833 357.04 14.414C357.684 14.5913 358.207 14.7687 358.608 14.946C359.019 15.1233 359.364 15.3987 359.644 15.772C359.934 16.136 360.078 16.626 360.078 17.242C360.078 17.7367 359.943 18.2033 359.672 18.642C359.411 19.0807 359.024 19.4353 358.51 19.706C358.006 19.9673 357.409 20.098 356.718 20.098Z" fill="#004EDA"/>
<path d="M381.875 11.125L373.125 19.875L368.75 15.5" stroke="#004EDA" stroke-width="2" stroke-linecap="round" stroke-linejoin="round"/>
<rect x="239.5" y="0.5" width="151" height="30" rx="15" stroke="#004EDA"/>
<path d="M132.044 20H130.448L125.646 12.734V20H124.05V10.256H125.646L130.448 17.508V10.256H132.044V20ZM137.766 20.126C137.038 20.126 136.38 19.9627 135.792 19.636C135.204 19.3 134.742 18.8333 134.406 18.236C134.07 17.6293 133.902 16.9293 133.902 16.136C133.902 15.352 134.075 14.6567 134.42 14.05C134.765 13.4433 135.237 12.9767 135.834 12.65C136.431 12.3233 137.099 12.16 137.836 12.16C138.573 12.16 139.241 12.3233 139.838 12.65C140.435 12.9767 140.907 13.4433 141.252 14.05C141.597 14.6567 141.77 15.352 141.77 16.136C141.77 16.92 141.593 17.6153 141.238 18.222C140.883 18.8287 140.398 19.3 139.782 19.636C139.175 19.9627 138.503 20.126 137.766 20.126ZM137.766 18.74C138.177 18.74 138.559 18.642 138.914 18.446C139.278 18.25 139.572 17.956 139.796 17.564C140.02 17.172 140.132 16.696 140.132 16.136C140.132 15.576 140.025 15.1047 139.81 14.722C139.595 14.33 139.311 14.036 138.956 13.84C138.601 13.644 138.219 13.546 137.808 13.546C137.397 13.546 137.015 13.644 136.66 13.84C136.315 14.036 136.039 14.33 135.834 14.722C135.629 15.1047 135.526 15.576 135.526 16.136C135.526 16.9667 135.736 17.6107 136.156 18.068C136.585 18.516 137.122 18.74 137.766 18.74ZM157.792 10.27V20H156.196V13.336L153.228 20H152.122L149.14 13.336V20H147.544V10.27H149.266L152.682 17.9L156.084 10.27H157.792ZM159.638 16.108C159.638 15.3333 159.797 14.6473 160.114 14.05C160.441 13.4527 160.879 12.9907 161.43 12.664C161.99 12.328 162.606 12.16 163.278 12.16C163.885 12.16 164.412 12.2813 164.86 12.524C165.317 12.7573 165.681 13.0513 165.952 13.406V12.286H167.562V20H165.952V18.852C165.681 19.216 165.313 19.5193 164.846 19.762C164.379 20.0047 163.847 20.126 163.25 20.126C162.587 20.126 161.981 19.958 161.43 19.622C160.879 19.2767 160.441 18.8007 160.114 18.194C159.797 17.578 159.638 16.8827 159.638 16.108ZM165.952 16.136C165.952 15.604 165.84 15.142 165.616 14.75C165.401 14.358 165.117 14.0593 164.762 13.854C164.407 13.6487 164.025 13.546 163.614 13.546C163.203 13.546 162.821 13.6487 162.466 13.854C162.111 14.05 161.822 14.344 161.598 14.736C161.383 15.1187 161.276 15.576 161.276 16.108C161.276 16.64 161.383 17.1067 161.598 17.508C161.822 17.9093 162.111 18.2173 162.466 18.432C162.83 18.6373 163.213 18.74 163.614 18.74C164.025 18.74 164.407 18.6373 164.762 18.432C165.117 18.2267 165.401 17.928 165.616 17.536C165.84 17.1347 165.952 16.668 165.952 16.136ZM171.8 13.588V17.858C171.8 18.1473 171.866 18.3573 171.996 18.488C172.136 18.6093 172.37 18.67 172.696 18.67H173.676V20H172.416C171.698 20 171.147 19.832 170.764 19.496C170.382 19.16 170.19 18.614 170.19 17.858V13.588H169.28V12.286H170.19V10.368H171.8V12.286H173.676V13.588H171.8ZM174.895 16.136C174.895 15.3427 175.054 14.6473 175.371 14.05C175.698 13.4433 176.146 12.9767 176.715 12.65C177.285 12.3233 177.938 12.16 178.675 12.16C179.609 12.16 180.379 12.384 180.985 12.832C181.601 13.2707 182.017 13.9007 182.231 14.722H180.509C180.369 14.3393 180.145 14.0407 179.837 13.826C179.529 13.6113 179.142 13.504 178.675 13.504C178.022 13.504 177.499 13.7373 177.107 14.204C176.725 14.6613 176.533 15.3053 176.533 16.136C176.533 16.9667 176.725 17.6153 177.107 18.082C177.499 18.5487 178.022 18.782 178.675 18.782C179.599 18.782 180.211 18.376 180.509 17.564H182.231C182.007 18.348 181.587 18.9733 180.971 19.44C180.355 19.8973 179.59 20.126 178.675 20.126C177.938 20.126 177.285 19.9627 176.715 19.636C176.146 19.3 175.698 18.8333 175.371 18.236C175.054 17.6293 174.895 16.9293 174.895 16.136ZM188.092 12.16C188.68 12.16 189.202 12.286 189.66 12.538C190.126 12.79 190.49 13.1633 190.752 13.658C191.022 14.1527 191.158 14.75 191.158 15.45V20H189.576V15.688C189.576 14.9973 189.403 14.47 189.058 14.106C188.712 13.7327 188.241 13.546 187.644 13.546C187.046 13.546 186.57 13.7327 186.216 14.106C185.87 14.47 185.698 14.9973 185.698 15.688V20H184.102V9.64H185.698V13.182C185.968 12.8553 186.309 12.6033 186.72 12.426C187.14 12.2487 187.597 12.16 188.092 12.16Z" fill="#004EDA"/>
<path d="M213.875 11.125L205.125 19.875L200.75 15.5" stroke="#004EDA" stroke-width="2" stroke-linecap="round" stroke-linejoin="round"/>
<rect x="111.5" y="0.5" width="111" height="30" rx="15" stroke="#004EDA"/>
</svg>
