<svg width="612" height="329" viewBox="0 0 612 329" fill="none" xmlns="http://www.w3.org/2000/svg">
<g clip-path="url(#clip0_505_407)">
<g filter="url(#filter0_d_505_407)">
<rect x="37" width="542" height="329" rx="4" fill="white"/>
</g>
<mask id="path-2-inside-1_505_407" fill="white">
<path d="M217 12H397V52H217V12Z"/>
</mask>
<path d="M217 12H397V52H217V12Z" fill="white"/>
<path d="M240.904 35.228H236.248L235.448 37.5H233.544L237.528 26.364H239.64L243.624 37.5H241.704L240.904 35.228ZM240.392 33.74L238.584 28.572L236.76 33.74H240.392ZM249.804 28.54C250.498 28.54 251.116 28.684 251.66 28.972C252.215 29.26 252.647 29.6867 252.956 30.252C253.266 30.8173 253.42 31.5 253.42 32.3V37.5H251.612V32.572C251.612 31.7827 251.415 31.18 251.02 30.764C250.626 30.3373 250.087 30.124 249.404 30.124C248.722 30.124 248.178 30.3373 247.772 30.764C247.378 31.18 247.18 31.7827 247.18 32.572V37.5H245.356V28.684H247.18V29.692C247.479 29.3293 247.858 29.0467 248.316 28.844C248.786 28.6413 249.282 28.54 249.804 28.54ZM260.195 28.54C260.888 28.54 261.507 28.684 262.051 28.972C262.606 29.26 263.038 29.6867 263.347 30.252C263.656 30.8173 263.811 31.5 263.811 32.3V37.5H262.003V32.572C262.003 31.7827 261.806 31.18 261.411 30.764C261.016 30.3373 260.478 30.124 259.795 30.124C259.112 30.124 258.568 30.3373 258.163 30.764C257.768 31.18 257.571 31.7827 257.571 32.572V37.5H255.747V28.684H257.571V29.692C257.87 29.3293 258.248 29.0467 258.707 28.844C259.176 28.6413 259.672 28.54 260.195 28.54ZM269.962 37.644C269.13 37.644 268.378 37.4573 267.706 37.084C267.034 36.7 266.506 36.1667 266.122 35.484C265.738 34.7907 265.546 33.9907 265.546 33.084C265.546 32.188 265.743 31.3933 266.138 30.7C266.532 30.0067 267.071 29.4733 267.754 29.1C268.436 28.7267 269.199 28.54 270.042 28.54C270.884 28.54 271.647 28.7267 272.33 29.1C273.012 29.4733 273.551 30.0067 273.946 30.7C274.34 31.3933 274.538 32.188 274.538 33.084C274.538 33.98 274.335 34.7747 273.93 35.468C273.524 36.1613 272.97 36.7 272.266 37.084C271.572 37.4573 270.804 37.644 269.962 37.644ZM269.962 36.06C270.431 36.06 270.868 35.948 271.274 35.724C271.69 35.5 272.026 35.164 272.282 34.716C272.538 34.268 272.666 33.724 272.666 33.084C272.666 32.444 272.543 31.9053 272.298 31.468C272.052 31.02 271.727 30.684 271.322 30.46C270.916 30.236 270.479 30.124 270.01 30.124C269.54 30.124 269.103 30.236 268.698 30.46C268.303 30.684 267.988 31.02 267.754 31.468C267.519 31.9053 267.402 32.444 267.402 33.084C267.402 34.0333 267.642 34.7693 268.122 35.292C268.612 35.804 269.226 36.06 269.962 36.06ZM284.325 28.684V37.5H282.501V36.46C282.213 36.8227 281.834 37.1107 281.365 37.324C280.906 37.5267 280.415 37.628 279.893 37.628C279.199 37.628 278.575 37.484 278.021 37.196C277.477 36.908 277.045 36.4813 276.725 35.916C276.415 35.3507 276.261 34.668 276.261 33.868V28.684H278.069V33.596C278.069 34.3853 278.266 34.9933 278.661 35.42C279.055 35.836 279.594 36.044 280.277 36.044C280.959 36.044 281.498 35.836 281.893 35.42C282.298 34.9933 282.501 34.3853 282.501 33.596V28.684H284.325ZM291.179 28.54C291.873 28.54 292.491 28.684 293.035 28.972C293.59 29.26 294.022 29.6867 294.331 30.252C294.641 30.8173 294.795 31.5 294.795 32.3V37.5H292.987V32.572C292.987 31.7827 292.79 31.18 292.395 30.764C292.001 30.3373 291.462 30.124 290.779 30.124C290.097 30.124 289.553 30.3373 289.147 30.764C288.753 31.18 288.555 31.7827 288.555 32.572V37.5H286.731V28.684H288.555V29.692C288.854 29.3293 289.233 29.0467 289.691 28.844C290.161 28.6413 290.657 28.54 291.179 28.54ZM296.514 33.084C296.514 32.1773 296.695 31.3827 297.058 30.7C297.431 30.0067 297.943 29.4733 298.594 29.1C299.245 28.7267 299.991 28.54 300.834 28.54C301.901 28.54 302.781 28.796 303.474 29.308C304.178 29.8093 304.653 30.5293 304.898 31.468H302.93C302.77 31.0307 302.514 30.6893 302.162 30.444C301.81 30.1987 301.367 30.076 300.834 30.076C300.087 30.076 299.49 30.3427 299.042 30.876C298.605 31.3987 298.386 32.1347 298.386 33.084C298.386 34.0333 298.605 34.7747 299.042 35.308C299.49 35.8413 300.087 36.108 300.834 36.108C301.89 36.108 302.589 35.644 302.93 34.716H304.898C304.642 35.612 304.162 36.3267 303.458 36.86C302.754 37.3827 301.879 37.644 300.834 37.644C299.991 37.644 299.245 37.4573 298.594 37.084C297.943 36.7 297.431 36.1667 297.058 35.484C296.695 34.7907 296.514 33.9907 296.514 33.084ZM314.796 32.876C314.796 33.2067 314.774 33.5053 314.732 33.772H307.996C308.049 34.476 308.31 35.0413 308.78 35.468C309.249 35.8947 309.825 36.108 310.508 36.108C311.489 36.108 312.182 35.6973 312.588 34.876H314.556C314.289 35.6867 313.804 36.3533 313.1 36.876C312.406 37.388 311.542 37.644 310.508 37.644C309.665 37.644 308.908 37.4573 308.236 37.084C307.574 36.7 307.052 36.1667 306.668 35.484C306.294 34.7907 306.108 33.9907 306.108 33.084C306.108 32.1773 306.289 31.3827 306.652 30.7C307.025 30.0067 307.542 29.4733 308.204 29.1C308.876 28.7267 309.644 28.54 310.508 28.54C311.34 28.54 312.081 28.7213 312.732 29.084C313.382 29.4467 313.889 29.9587 314.252 30.62C314.614 31.2707 314.796 32.0227 314.796 32.876ZM312.892 32.3C312.881 31.628 312.641 31.0893 312.172 30.684C311.702 30.2787 311.121 30.076 310.428 30.076C309.798 30.076 309.26 30.2787 308.812 30.684C308.364 31.0787 308.097 31.6173 308.012 32.3H312.892ZM315.983 33.052C315.983 32.1667 316.164 31.3827 316.527 30.7C316.9 30.0173 317.401 29.4893 318.031 29.116C318.671 28.732 319.38 28.54 320.159 28.54C320.735 28.54 321.3 28.668 321.855 28.924C322.42 29.1693 322.868 29.5 323.199 29.916V25.66H325.039V37.5H323.199V36.172C322.9 36.5987 322.484 36.9507 321.951 37.228C321.428 37.5053 320.825 37.644 320.143 37.644C319.375 37.644 318.671 37.452 318.031 37.068C317.401 36.6733 316.9 36.1293 316.527 35.436C316.164 34.732 315.983 33.9373 315.983 33.052ZM323.199 33.084C323.199 32.476 323.071 31.948 322.815 31.5C322.569 31.052 322.244 30.7107 321.839 30.476C321.433 30.2413 320.996 30.124 320.527 30.124C320.057 30.124 319.62 30.2413 319.215 30.476C318.809 30.7 318.479 31.036 318.223 31.484C317.977 31.9213 317.855 32.444 317.855 33.052C317.855 33.66 317.977 34.1933 318.223 34.652C318.479 35.1107 318.809 35.4627 319.215 35.708C319.631 35.9427 320.068 36.06 320.527 36.06C320.996 36.06 321.433 35.9427 321.839 35.708C322.244 35.4733 322.569 35.132 322.815 34.684C323.071 34.2253 323.199 33.692 323.199 33.084ZM338.775 26.38V27.868H335.815V37.5H333.991V27.868H331.015V26.38H338.775ZM344.446 37.644C343.614 37.644 342.862 37.4573 342.19 37.084C341.518 36.7 340.99 36.1667 340.606 35.484C340.222 34.7907 340.03 33.9907 340.03 33.084C340.03 32.188 340.227 31.3933 340.622 30.7C341.017 30.0067 341.555 29.4733 342.238 29.1C342.921 28.7267 343.683 28.54 344.526 28.54C345.369 28.54 346.131 28.7267 346.814 29.1C347.497 29.4733 348.035 30.0067 348.43 30.7C348.825 31.3933 349.022 32.188 349.022 33.084C349.022 33.98 348.819 34.7747 348.414 35.468C348.009 36.1613 347.454 36.7 346.75 37.084C346.057 37.4573 345.289 37.644 344.446 37.644ZM344.446 36.06C344.915 36.06 345.353 35.948 345.758 35.724C346.174 35.5 346.51 35.164 346.766 34.716C347.022 34.268 347.15 33.724 347.15 33.084C347.15 32.444 347.027 31.9053 346.782 31.468C346.537 31.02 346.211 30.684 345.806 30.46C345.401 30.236 344.963 30.124 344.494 30.124C344.025 30.124 343.587 30.236 343.182 30.46C342.787 30.684 342.473 31.02 342.238 31.468C342.003 31.9053 341.886 32.444 341.886 33.084C341.886 34.0333 342.126 34.7693 342.606 35.292C343.097 35.804 343.71 36.06 344.446 36.06ZM350.217 33.052C350.217 32.1667 350.398 31.3827 350.761 30.7C351.134 30.0173 351.636 29.4893 352.265 29.116C352.905 28.732 353.614 28.54 354.393 28.54C354.969 28.54 355.534 28.668 356.089 28.924C356.654 29.1693 357.102 29.5 357.433 29.916V25.66H359.273V37.5H357.433V36.172C357.134 36.5987 356.718 36.9507 356.185 37.228C355.662 37.5053 355.06 37.644 354.377 37.644C353.609 37.644 352.905 37.452 352.265 37.068C351.636 36.6733 351.134 36.1293 350.761 35.436C350.398 34.732 350.217 33.9373 350.217 33.052ZM357.433 33.084C357.433 32.476 357.305 31.948 357.049 31.5C356.804 31.052 356.478 30.7107 356.073 30.476C355.668 30.2413 355.23 30.124 354.761 30.124C354.292 30.124 353.854 30.2413 353.449 30.476C353.044 30.7 352.713 31.036 352.457 31.484C352.212 31.9213 352.089 32.444 352.089 33.052C352.089 33.66 352.212 34.1933 352.457 34.652C352.713 35.1107 353.044 35.4627 353.449 35.708C353.865 35.9427 354.302 36.06 354.761 36.06C355.23 36.06 355.668 35.9427 356.073 35.708C356.478 35.4733 356.804 35.132 357.049 34.684C357.305 34.2253 357.433 33.692 357.433 33.084ZM361.061 33.052C361.061 32.1667 361.242 31.3827 361.605 30.7C361.978 30.0173 362.479 29.4893 363.109 29.116C363.749 28.732 364.453 28.54 365.221 28.54C365.914 28.54 366.517 28.6787 367.029 28.956C367.551 29.2227 367.967 29.5587 368.277 29.964V28.684H370.117V37.5H368.277V36.188C367.967 36.604 367.546 36.9507 367.013 37.228C366.479 37.5053 365.871 37.644 365.189 37.644C364.431 37.644 363.738 37.452 363.109 37.068C362.479 36.6733 361.978 36.1293 361.605 35.436C361.242 34.732 361.061 33.9373 361.061 33.052ZM368.277 33.084C368.277 32.476 368.149 31.948 367.893 31.5C367.647 31.052 367.322 30.7107 366.917 30.476C366.511 30.2413 366.074 30.124 365.605 30.124C365.135 30.124 364.698 30.2413 364.293 30.476C363.887 30.7 363.557 31.036 363.301 31.484C363.055 31.9213 362.933 32.444 362.933 33.052C362.933 33.66 363.055 34.1933 363.301 34.652C363.557 35.1107 363.887 35.4627 364.293 35.708C364.709 35.9427 365.146 36.06 365.605 36.06C366.074 36.06 366.511 35.9427 366.917 35.708C367.322 35.4733 367.647 35.132 367.893 34.684C368.149 34.2253 368.277 33.692 368.277 33.084ZM380.449 28.684L375.041 41.644H373.153L374.945 37.356L371.473 28.684H373.505L375.985 35.404L378.561 28.684H380.449Z" fill="#004EDA"/>
<path d="M397 50H217V54H397V50Z" fill="#004EDA" mask="url(#path-2-inside-1_505_407)"/>
<path d="M469 41C473.971 41 478 36.9706 478 32C478 27.0294 473.971 23 469 23C464.029 23 460 27.0294 460 32C460 36.9706 464.029 41 469 41Z" stroke="#5A5A5F" stroke-width="2" stroke-miterlimit="10"/>
<path d="M465.25 32H472.75" stroke="#5A5A5F" stroke-width="2" stroke-linecap="round" stroke-linejoin="round"/>
<path d="M469 28.25V35.75" stroke="#5A5A5F" stroke-width="2" stroke-linecap="round" stroke-linejoin="round"/>
<path d="M509 41C513.971 41 518 36.9706 518 32C518 27.0294 513.971 23 509 23C504.029 23 500 27.0294 500 32C500 36.9706 504.029 41 509 41Z" stroke="#5A5A5F" stroke-width="2" stroke-miterlimit="10"/>
<path d="M505.25 32H512.75" stroke="#5A5A5F" stroke-width="2" stroke-linecap="round" stroke-linejoin="round"/>
<path d="M552.75 31.25V26.375C552.75 25.8777 552.948 25.4008 553.3 25.0492C553.651 24.6975 554.128 24.5 554.625 24.5C555.123 24.5 555.6 24.6975 555.951 25.0492C556.303 25.4008 556.5 25.8777 556.5 26.375V34.25C556.5 35.2349 556.306 36.2102 555.93 37.1201C555.553 38.0301 555 38.8569 554.304 39.5533C553.607 40.2497 552.781 40.8022 551.871 41.1791C550.961 41.556 549.985 41.75 549 41.75C544.857 41.75 543 39.5 539.944 33.0594C539.696 32.628 539.628 32.1155 539.758 31.6346C539.887 31.1538 540.202 30.744 540.633 30.4953C541.065 30.2467 541.577 30.1796 542.058 30.3088C542.539 30.438 542.949 30.753 543.197 31.1844L545.25 34.7469V24.875C545.25 24.3777 545.448 23.9008 545.8 23.5492C546.151 23.1975 546.628 23 547.125 23C547.623 23 548.1 23.1975 548.451 23.5492C548.803 23.9008 549 24.3777 549 24.875V31.25" stroke="#5A5A5F" stroke-width="2" stroke-linecap="round" stroke-linejoin="round"/>
<path d="M552.75 26.375V23.375C552.75 22.8777 552.552 22.4008 552.201 22.0492C551.849 21.6975 551.372 21.5 550.875 21.5C550.378 21.5 549.901 21.6975 549.549 22.0492C549.198 22.4008 549 22.8777 549 23.375V24.875" stroke="#5A5A5F" stroke-width="2" stroke-linecap="round" stroke-linejoin="round"/>
<path d="M432.75 24.5H436.5V28.25" stroke="#5A5A5F" stroke-width="2" stroke-linecap="round" stroke-linejoin="round"/>
<path d="M431.25 29.75L436.5 24.5" stroke="#5A5A5F" stroke-width="2" stroke-linecap="round" stroke-linejoin="round"/>
<path d="M425.25 39.5H421.5V35.75" stroke="#5A5A5F" stroke-width="2" stroke-linecap="round" stroke-linejoin="round"/>
<path d="M426.75 34.25L421.5 39.5" stroke="#5A5A5F" stroke-width="2" stroke-linecap="round" stroke-linejoin="round"/>
<path d="M436.5 35.75V39.5H432.75" stroke="#5A5A5F" stroke-width="2" stroke-linecap="round" stroke-linejoin="round"/>
<path d="M431.25 34.25L436.5 39.5" stroke="#5A5A5F" stroke-width="2" stroke-linecap="round" stroke-linejoin="round"/>
<path d="M421.5 28.25V24.5H425.25" stroke="#5A5A5F" stroke-width="2" stroke-linecap="round" stroke-linejoin="round"/>
<path d="M426.75 29.75L421.5 24.5" stroke="#5A5A5F" stroke-width="2" stroke-linecap="round" stroke-linejoin="round"/>
<g clip-path="url(#clip1_505_407)">
<path d="M79.3035 249.246H555.023" stroke="black"/>
<path d="M79.3035 255.546V249.246" stroke="black"/>
<path d="M79.3032 267.662C78.6611 267.662 78.1142 267.488 77.6625 267.138C77.2108 266.786 76.8657 266.276 76.627 265.608C76.3884 264.938 76.2691 264.128 76.2691 263.179C76.2691 262.236 76.3884 261.431 76.627 260.763C76.8685 260.093 77.2151 259.581 77.6668 259.229C78.1213 258.874 78.6668 258.696 79.3032 258.696C79.9395 258.696 80.4836 258.874 80.9353 259.229C81.3898 259.581 81.7364 260.093 81.975 260.763C82.2165 261.431 82.3373 262.236 82.3373 263.179C82.3373 264.128 82.2179 264.938 81.9793 265.608C81.7407 266.276 81.3955 266.786 80.9438 267.138C80.4921 267.488 79.9452 267.662 79.3032 267.662ZM79.3032 266.725C79.9395 266.725 80.4338 266.418 80.7861 265.804C81.1384 265.191 81.3145 264.316 81.3145 263.179C81.3145 262.424 81.2336 261.78 81.0716 261.249C80.9125 260.718 80.6824 260.313 80.3813 260.034C80.083 259.756 79.7236 259.617 79.3032 259.617C78.6725 259.617 78.1796 259.928 77.8245 260.55C77.4694 261.169 77.2918 262.046 77.2918 263.179C77.2918 263.935 77.3713 264.577 77.5304 265.105C77.6895 265.634 77.9182 266.036 78.2165 266.311C78.5177 266.587 78.8799 266.725 79.3032 266.725Z" fill="black"/>
<path d="M174.447 255.546V249.246" stroke="black"/>
<path d="M175.63 258.816V267.543H174.573V259.924H174.522L172.391 261.338V260.265L174.573 258.816H175.63Z" fill="black"/>
<path d="M269.591 255.546V249.246" stroke="black"/>
<path d="M266.862 267.543V266.776L269.742 263.623C270.08 263.253 270.359 262.932 270.578 262.659C270.796 262.384 270.958 262.125 271.063 261.884C271.171 261.64 271.225 261.384 271.225 261.117C271.225 260.81 271.151 260.544 271.004 260.32C270.859 260.096 270.66 259.922 270.407 259.8C270.154 259.678 269.87 259.617 269.555 259.617C269.22 259.617 268.927 259.686 268.677 259.826C268.43 259.962 268.238 260.154 268.102 260.401C267.968 260.648 267.901 260.938 267.901 261.27H266.896C266.896 260.759 267.014 260.31 267.249 259.924C267.485 259.537 267.806 259.236 268.212 259.02C268.622 258.804 269.08 258.696 269.589 258.696C270.1 258.696 270.553 258.804 270.948 259.02C271.343 259.236 271.653 259.527 271.877 259.894C272.102 260.26 272.214 260.668 272.214 261.117C272.214 261.438 272.156 261.752 272.039 262.059C271.926 262.363 271.727 262.702 271.443 263.077C271.161 263.449 270.771 263.904 270.271 264.441L268.31 266.537V266.605H272.367V267.543H266.862Z" fill="black"/>
<path d="M364.735 255.546V249.246" stroke="black"/>
<path d="M364.767 267.662C364.204 267.662 363.703 267.566 363.263 267.373C362.825 267.179 362.477 266.911 362.218 266.567C361.963 266.221 361.824 265.819 361.801 265.361H362.875C362.897 265.642 362.994 265.885 363.164 266.09C363.335 266.292 363.558 266.448 363.834 266.559C364.109 266.669 364.414 266.725 364.75 266.725C365.125 266.725 365.457 266.659 365.747 266.529C366.037 266.398 366.264 266.216 366.429 265.983C366.593 265.75 366.676 265.48 366.676 265.174C366.676 264.853 366.596 264.57 366.437 264.326C366.278 264.078 366.045 263.885 365.738 263.746C365.432 263.607 365.057 263.537 364.613 263.537H363.914V262.6H364.613C364.96 262.6 365.264 262.537 365.525 262.412C365.789 262.287 365.995 262.111 366.143 261.884C366.294 261.657 366.369 261.39 366.369 261.083C366.369 260.787 366.304 260.53 366.173 260.311C366.042 260.093 365.858 259.922 365.619 259.8C365.383 259.678 365.105 259.617 364.784 259.617C364.483 259.617 364.199 259.672 363.932 259.783C363.667 259.891 363.451 260.049 363.284 260.256C363.116 260.461 363.025 260.708 363.011 260.998H361.988C362.005 260.54 362.143 260.14 362.402 259.796C362.66 259.449 362.998 259.179 363.416 258.986C363.836 258.793 364.298 258.696 364.801 258.696C365.341 258.696 365.804 258.806 366.19 259.025C366.576 259.24 366.873 259.526 367.081 259.881C367.288 260.236 367.392 260.62 367.392 261.032C367.392 261.523 367.263 261.942 367.004 262.289C366.748 262.635 366.4 262.875 365.96 263.009V263.077C366.511 263.168 366.941 263.402 367.251 263.78C367.561 264.155 367.716 264.62 367.716 265.174C367.716 265.648 367.586 266.074 367.328 266.452C367.072 266.827 366.723 267.123 366.28 267.338C365.836 267.554 365.332 267.662 364.767 267.662Z" fill="black"/>
<path d="M459.88 255.546V249.246" stroke="black"/>
<path d="M456.729 265.753V264.884L460.564 258.816H461.195V260.162H460.768L457.871 264.748V264.816H463.035V265.753H456.729ZM460.837 267.543V265.489V265.084V258.816H461.842V267.543H460.837Z" fill="black"/>
<path d="M555.022 255.546V249.246" stroke="black"/>
<path d="M555.002 267.662C554.502 267.662 554.052 267.563 553.651 267.364C553.251 267.165 552.93 266.892 552.688 266.546C552.447 266.199 552.315 265.804 552.292 265.361H553.315C553.354 265.756 553.533 266.083 553.852 266.341C554.173 266.597 554.556 266.725 555.002 266.725C555.36 266.725 555.678 266.641 555.957 266.473C556.238 266.306 556.458 266.076 556.617 265.783C556.779 265.488 556.86 265.154 556.86 264.782C556.86 264.401 556.776 264.061 556.609 263.763C556.444 263.462 556.217 263.225 555.927 263.051C555.637 262.878 555.306 262.79 554.934 262.787C554.667 262.784 554.393 262.826 554.112 262.911C553.83 262.993 553.599 263.1 553.417 263.23L552.428 263.111L552.957 258.816H557.491V259.753H553.843L553.536 262.327H553.587C553.766 262.185 553.991 262.067 554.261 261.973C554.531 261.88 554.812 261.833 555.104 261.833C555.639 261.833 556.114 261.961 556.532 262.216C556.952 262.469 557.282 262.816 557.521 263.256C557.762 263.696 557.883 264.199 557.883 264.765C557.883 265.321 557.758 265.819 557.508 266.256C557.261 266.691 556.92 267.034 556.485 267.287C556.051 267.537 555.556 267.662 555.002 267.662Z" fill="black"/>
<path d="M79.3036 81.25V249.25" stroke="black"/>
<path d="M74.5302 249.254H79.3033" stroke="black"/>
<path d="M66.8025 248.772C66.1605 248.772 65.6136 248.597 65.1619 248.248C64.7102 247.895 64.365 247.385 64.1264 246.718C63.8877 246.047 63.7684 245.238 63.7684 244.289C63.7684 243.346 63.8877 242.54 64.1264 241.873C64.3678 241.202 64.7144 240.691 65.1661 240.338C65.6207 239.983 66.1661 239.806 66.8025 239.806C67.4389 239.806 67.9829 239.983 68.4346 240.338C68.8891 240.691 69.2357 241.202 69.4744 241.873C69.7158 242.54 69.8366 243.346 69.8366 244.289C69.8366 245.238 69.7173 246.047 69.4786 246.718C69.24 247.385 68.8948 247.895 68.4431 248.248C67.9914 248.597 67.4445 248.772 66.8025 248.772ZM66.8025 247.834C67.4389 247.834 67.9332 247.527 68.2855 246.914C68.6377 246.3 68.8139 245.425 68.8139 244.289C68.8139 243.533 68.7329 242.89 68.571 242.358C68.4119 241.827 68.1818 241.422 67.8806 241.144C67.5823 240.865 67.223 240.726 66.8025 240.726C66.1718 240.726 65.6789 241.037 65.3238 241.659C64.9687 242.279 64.7911 243.155 64.7911 244.289C64.7911 245.044 64.8707 245.686 65.0298 246.215C65.1889 246.743 65.4176 247.145 65.7158 247.421C66.017 247.696 66.3792 247.834 66.8025 247.834Z" fill="black"/>
<path d="M74.5302 207.25H79.3033" stroke="black"/>
<path d="M64.1903 206.648V205.881L67.071 202.728C67.409 202.359 67.6874 202.038 67.9062 201.765C68.1249 201.489 68.2869 201.231 68.392 200.989C68.4999 200.745 68.5539 200.489 68.5539 200.222C68.5539 199.915 68.4801 199.65 68.3323 199.425C68.1874 199.201 67.9886 199.028 67.7357 198.906C67.4829 198.783 67.1988 198.722 66.8835 198.722C66.5482 198.722 66.2556 198.792 66.0056 198.931C65.7585 199.067 65.5667 199.259 65.4303 199.506C65.2968 199.754 65.2301 200.043 65.2301 200.376H64.2244C64.2244 199.864 64.3423 199.415 64.5781 199.029C64.8139 198.643 65.1349 198.342 65.5411 198.126C65.9502 197.91 66.409 197.802 66.9176 197.802C67.4289 197.802 67.882 197.91 68.2769 198.126C68.6718 198.342 68.9815 198.633 69.2059 198.999C69.4303 199.366 69.5426 199.773 69.5426 200.222C69.5426 200.543 69.4843 200.857 69.3678 201.164C69.2542 201.468 69.0553 201.808 68.7712 202.183C68.49 202.555 68.0994 203.009 67.5994 203.546L65.6391 205.643V205.711H69.696V206.648H64.1903Z" fill="black"/>
<path d="M74.5302 165.254H79.3033" stroke="black"/>
<path d="M63.5521 162.863V161.993L67.3874 155.925H68.0181V157.272H67.5919L64.6942 161.857V161.925H69.859V162.863H63.5521ZM67.6601 164.652V162.598V162.194V155.925H68.6658V164.652H67.6601Z" fill="black"/>
<path d="M74.5302 123.254H79.3033" stroke="black"/>
<path d="M66.8654 122.772C66.5074 122.766 66.1494 122.698 65.7915 122.567C65.4335 122.436 65.1068 122.216 64.8114 121.907C64.5159 121.594 64.2787 121.172 64.0997 120.641C63.9207 120.107 63.8313 119.436 63.8313 118.63C63.8313 117.857 63.9037 117.172 64.0486 116.576C64.1935 115.976 64.4037 115.472 64.6793 115.063C64.9548 114.651 65.2872 114.338 65.6764 114.125C66.0685 113.912 66.5102 113.806 67.0017 113.806C67.4904 113.806 67.925 113.904 68.3057 114.1C68.6892 114.293 69.0017 114.563 69.2432 114.909C69.4847 115.256 69.6409 115.655 69.7119 116.107H68.6722C68.5756 115.715 68.3881 115.39 68.1097 115.131C67.8313 114.873 67.4619 114.743 67.0017 114.743C66.3256 114.743 65.7929 115.037 65.4037 115.625C65.0173 116.213 64.8227 117.039 64.8199 118.101H64.8881C65.0472 117.86 65.2361 117.654 65.4548 117.483C65.6764 117.31 65.9207 117.176 66.1878 117.083C66.4548 116.989 66.7375 116.942 67.0358 116.942C67.5358 116.942 67.9932 117.067 68.408 117.317C68.8227 117.564 69.1551 117.907 69.4051 118.344C69.6551 118.779 69.7801 119.277 69.7801 119.84C69.7801 120.38 69.6594 120.874 69.4179 121.323C69.1764 121.769 68.8369 122.124 68.3994 122.388C67.9648 122.65 67.4534 122.777 66.8654 122.772ZM66.8654 121.834C67.2233 121.834 67.5443 121.745 67.8284 121.566C68.1154 121.387 68.3412 121.147 68.506 120.846C68.6736 120.544 68.7574 120.209 68.7574 119.84C68.7574 119.479 68.6764 119.151 68.5145 118.855C68.3554 118.557 68.1352 118.32 67.854 118.144C67.5756 117.968 67.2574 117.88 66.8994 117.88C66.6296 117.88 66.3781 117.934 66.1452 118.042C65.9122 118.147 65.7077 118.292 65.5315 118.476C65.3582 118.661 65.2219 118.873 65.1225 119.111C65.023 119.347 64.9733 119.596 64.9733 119.857C64.9733 120.203 65.0543 120.527 65.2162 120.828C65.381 121.13 65.6054 121.373 65.8895 121.557C66.1764 121.742 66.5017 121.834 66.8654 121.834Z" fill="black"/>
<path d="M74.5302 81.25H79.3033" stroke="black"/>
<path d="M66.8568 85.1779C66.2716 85.1779 65.7546 85.0742 65.3057 84.8668C64.8597 84.6566 64.5117 84.3683 64.2617 84.0018C64.0117 83.6325 63.8881 83.212 63.8909 82.7404C63.8881 82.3711 63.9605 82.0302 64.1082 81.7177C64.256 81.4023 64.4577 81.1396 64.7134 80.9293C64.9719 80.7163 65.2602 80.5813 65.5784 80.5245V80.4734C65.1608 80.3654 64.8284 80.131 64.5813 79.7702C64.3341 79.4066 64.2119 78.9933 64.2148 78.5302C64.2119 78.087 64.3242 77.6907 64.5514 77.3413C64.7787 76.9918 65.0912 76.7163 65.4889 76.5146C65.8895 76.3129 66.3455 76.212 66.8568 76.212C67.3625 76.212 67.8142 76.3129 68.2119 76.5146C68.6097 76.7163 68.9222 76.9918 69.1494 77.3413C69.3796 77.6907 69.496 78.087 69.4989 78.5302C69.496 78.9933 69.3696 79.4066 69.1196 79.7702C68.8725 80.131 68.5443 80.3654 68.1352 80.4734V80.5245C68.4506 80.5813 68.7347 80.7163 68.9875 80.9293C69.2404 81.1396 69.4421 81.4023 69.5926 81.7177C69.7432 82.0302 69.8199 82.3711 69.8227 82.7404C69.8199 83.212 69.6921 83.6325 69.4392 84.0018C69.1892 84.3683 68.8412 84.6566 68.3952 84.8668C67.952 85.0742 67.4392 85.1779 66.8568 85.1779ZM66.8568 84.2404C67.2517 84.2404 67.5926 84.1765 67.8796 84.0487C68.1665 83.9208 68.3881 83.7404 68.5443 83.5075C68.7006 83.2745 68.7801 83.0018 68.783 82.6893C68.7801 82.3597 68.6949 82.0685 68.5273 81.8157C68.3597 81.5629 68.131 81.364 67.8412 81.2191C67.5543 81.0742 67.2261 81.0018 66.8568 81.0018C66.4847 81.0018 66.1523 81.0742 65.8597 81.2191C65.5699 81.364 65.3412 81.5629 65.1736 81.8157C65.0088 82.0685 64.9279 82.3597 64.9307 82.6893C64.9279 83.0018 65.0031 83.2745 65.1565 83.5075C65.3128 83.7404 65.5358 83.9208 65.8256 84.0487C66.1154 84.1765 66.4591 84.2404 66.8568 84.2404ZM66.8568 80.0984C67.1693 80.0984 67.4463 80.0359 67.6878 79.9109C67.9321 79.7859 68.1239 79.6112 68.2631 79.3867C68.4023 79.1623 68.4733 78.8995 68.4761 78.5984C68.4733 78.3029 68.4037 78.0458 68.2673 77.8271C68.131 77.6055 67.9421 77.435 67.7006 77.3157C67.4591 77.1935 67.1779 77.1325 66.8568 77.1325C66.5301 77.1325 66.2446 77.1935 66.0003 77.3157C65.756 77.435 65.5671 77.6055 65.4335 77.8271C65.3 78.0458 65.2347 78.3029 65.2375 78.5984C65.2347 78.8995 65.3014 79.1623 65.4378 79.3867C65.577 79.6112 65.7688 79.7859 66.0131 79.9109C66.2574 80.0359 66.5386 80.0984 66.8568 80.0984Z" fill="black"/>
<path d="M79.3027 249.254H555.022" stroke="#CCCCCC"/>
<path d="M79.3027 207.25H555.022" stroke="#CCCCCC"/>
<path d="M79.3027 165.25H555.022" stroke="#CCCCCC"/>
<path d="M79.3027 123.246H555.022" stroke="#CCCCCC"/>
<path d="M79.3027 81.25H555.022" stroke="#CCCCCC"/>
<path d="M79.3027 81.25V249.25" stroke="#CCCCCC"/>
<path d="M174.447 81.25V249.25" stroke="#CCCCCC"/>
<path d="M269.591 81.25V249.25" stroke="#CCCCCC"/>
<path d="M364.734 81.25V249.25" stroke="#CCCCCC"/>
<path d="M459.879 81.25V249.25" stroke="#CCCCCC"/>
<path d="M555.021 81.25V249.25" stroke="#CCCCCC"/>
<path d="M79.3027 102.25L174.447 165.25L269.591 207.25L364.734 228.25L459.878 102.25L555.022 165.25" stroke="#71589F"/>
<path d="M79.3026 105.398C80.6206 105.398 81.6891 103.987 81.6891 102.248C81.6891 100.508 80.6206 99.0977 79.3026 99.0977C77.9845 99.0977 76.916 100.508 76.916 102.248C76.916 103.987 77.9845 105.398 79.3026 105.398Z" fill="white" stroke="#71589F"/>
<path d="M174.446 168.402C175.764 168.402 176.833 166.991 176.833 165.252C176.833 163.512 175.764 162.102 174.446 162.102C173.128 162.102 172.06 163.512 172.06 165.252C172.06 166.991 173.128 168.402 174.446 168.402Z" fill="white" stroke="#71589F"/>
<path d="M269.59 210.398C270.908 210.398 271.977 208.987 271.977 207.248C271.977 205.508 270.908 204.098 269.59 204.098C268.272 204.098 267.204 205.508 267.204 207.248C267.204 208.987 268.272 210.398 269.59 210.398Z" fill="white" stroke="#71589F"/>
<path d="M364.734 231.398C366.052 231.398 367.121 229.987 367.121 228.248C367.121 226.508 366.052 225.098 364.734 225.098C363.416 225.098 362.348 226.508 362.348 228.248C362.348 229.987 363.416 231.398 364.734 231.398Z" fill="white" stroke="#71589F"/>
<path d="M459.879 105.398C461.197 105.398 462.265 103.987 462.265 102.248C462.265 100.508 461.197 99.0977 459.879 99.0977C458.561 99.0977 457.492 100.508 457.492 102.248C457.492 103.987 458.561 105.398 459.879 105.398Z" fill="white" stroke="#71589F"/>
<path d="M555.021 168.402C556.339 168.402 557.408 166.991 557.408 165.252C557.408 163.512 556.339 162.102 555.021 162.102C553.703 162.102 552.635 163.512 552.635 165.252C552.635 166.991 553.703 168.402 555.021 168.402Z" fill="white" stroke="#71589F"/>
<path d="M79.3027 144.25L174.447 102.25H269.591L364.734 186.25L459.878 123.25L555.022 165.25" stroke="#9A8053"/>
<path d="M79.3026 147.394C80.6206 147.394 81.6891 145.983 81.6891 144.244C81.6891 142.504 80.6206 141.094 79.3026 141.094C77.9845 141.094 76.916 142.504 76.916 144.244C76.916 145.983 77.9845 147.394 79.3026 147.394Z" fill="white" stroke="#9A8053"/>
<path d="M174.446 105.398C175.764 105.398 176.833 103.987 176.833 102.248C176.833 100.508 175.764 99.0977 174.446 99.0977C173.128 99.0977 172.059 100.508 172.059 102.248C172.059 103.987 173.128 105.398 174.446 105.398Z" fill="white" stroke="#9A8053"/>
<path d="M269.59 105.398C270.908 105.398 271.977 103.987 271.977 102.248C271.977 100.508 270.908 99.0977 269.59 99.0977C268.272 99.0977 267.204 100.508 267.204 102.248C267.204 103.987 268.272 105.398 269.59 105.398Z" fill="white" stroke="#9A8053"/>
<path d="M364.734 189.398C366.052 189.398 367.121 187.987 367.121 186.248C367.121 184.508 366.052 183.098 364.734 183.098C363.416 183.098 362.348 184.508 362.348 186.248C362.348 187.987 363.416 189.398 364.734 189.398Z" fill="white" stroke="#9A8053"/>
<path d="M459.879 126.398C461.197 126.398 462.265 124.987 462.265 123.248C462.265 121.508 461.197 120.098 459.879 120.098C458.561 120.098 457.492 121.508 457.492 123.248C457.492 124.987 458.561 126.398 459.879 126.398Z" fill="white" stroke="#9A8053"/>
<path d="M555.021 168.402C556.339 168.402 557.408 166.991 557.408 165.252C557.408 163.512 556.339 162.102 555.021 162.102C553.703 162.102 552.635 163.512 552.635 165.252C552.635 166.991 553.703 168.402 555.021 168.402Z" fill="white" stroke="#9A8053"/>
<path d="M79.3027 207.25L174.447 123.25L269.591 144.25L364.734 102.25L459.878 186.25L555.022 102.25" stroke="#E0712F"/>
<path d="M79.3026 210.398C80.6206 210.398 81.6891 208.987 81.6891 207.248C81.6891 205.508 80.6206 204.098 79.3026 204.098C77.9845 204.098 76.916 205.508 76.916 207.248C76.916 208.987 77.9845 210.398 79.3026 210.398Z" fill="white" stroke="#E0712F"/>
<path d="M174.446 126.398C175.764 126.398 176.833 124.987 176.833 123.248C176.833 121.508 175.764 120.098 174.446 120.098C173.128 120.098 172.06 121.508 172.06 123.248C172.06 124.987 173.128 126.398 174.446 126.398Z" fill="white" stroke="#E0712F"/>
<path d="M269.591 147.394C270.909 147.394 271.977 145.983 271.977 144.244C271.977 142.504 270.909 141.094 269.591 141.094C268.273 141.094 267.204 142.504 267.204 144.244C267.204 145.983 268.273 147.394 269.591 147.394Z" fill="white" stroke="#E0712F"/>
<path d="M364.734 105.398C366.052 105.398 367.121 103.987 367.121 102.248C367.121 100.508 366.052 99.0977 364.734 99.0977C363.416 99.0977 362.348 100.508 362.348 102.248C362.348 103.987 363.416 105.398 364.734 105.398Z" fill="white" stroke="#E0712F"/>
<path d="M459.879 189.398C461.197 189.398 462.265 187.987 462.265 186.248C462.265 184.508 461.197 183.098 459.879 183.098C458.561 183.098 457.492 184.508 457.492 186.248C457.492 187.987 458.561 189.398 459.879 189.398Z" fill="white" stroke="#E0712F"/>
<path d="M555.021 105.398C556.339 105.398 557.408 103.987 557.408 102.248C557.408 100.508 556.339 99.0977 555.021 99.0977C553.703 99.0977 552.635 100.508 552.635 102.248C552.635 103.987 553.703 105.398 555.021 105.398Z" fill="white" stroke="#E0712F"/>
</g>
<path d="M183.67 301.98V303.35H181.81V309H180.1V303.35H178.24V301.98H183.67ZM187.268 309.08C186.722 309.08 186.228 308.963 185.788 308.73C185.355 308.497 185.012 308.163 184.758 307.73C184.512 307.297 184.388 306.79 184.388 306.21C184.388 305.637 184.515 305.133 184.768 304.7C185.022 304.26 185.368 303.923 185.808 303.69C186.248 303.457 186.742 303.34 187.288 303.34C187.835 303.34 188.328 303.457 188.768 303.69C189.208 303.923 189.555 304.26 189.808 304.7C190.062 305.133 190.188 305.637 190.188 306.21C190.188 306.783 190.058 307.29 189.798 307.73C189.545 308.163 189.195 308.497 188.748 308.73C188.308 308.963 187.815 309.08 187.268 309.08ZM187.268 307.6C187.595 307.6 187.872 307.48 188.098 307.24C188.332 307 188.448 306.657 188.448 306.21C188.448 305.763 188.335 305.42 188.108 305.18C187.888 304.94 187.615 304.82 187.288 304.82C186.955 304.82 186.678 304.94 186.458 305.18C186.238 305.413 186.128 305.757 186.128 306.21C186.128 306.657 186.235 307 186.448 307.24C186.668 307.48 186.942 307.6 187.268 307.6ZM190.955 306.2C190.955 305.627 191.062 305.123 191.275 304.69C191.495 304.257 191.792 303.923 192.165 303.69C192.539 303.457 192.955 303.34 193.415 303.34C193.782 303.34 194.115 303.417 194.415 303.57C194.722 303.723 194.962 303.93 195.135 304.19V301.6H196.845V309H195.135V308.2C194.975 308.467 194.745 308.68 194.445 308.84C194.152 309 193.809 309.08 193.415 309.08C192.955 309.08 192.539 308.963 192.165 308.73C191.792 308.49 191.495 308.153 191.275 307.72C191.062 307.28 190.955 306.773 190.955 306.2ZM195.135 306.21C195.135 305.783 195.015 305.447 194.775 305.2C194.542 304.953 194.255 304.83 193.915 304.83C193.575 304.83 193.285 304.953 193.045 305.2C192.812 305.44 192.695 305.773 192.695 306.2C192.695 306.627 192.812 306.967 193.045 307.22C193.285 307.467 193.575 307.59 193.915 307.59C194.255 307.59 194.542 307.467 194.775 307.22C195.015 306.973 195.135 306.637 195.135 306.21ZM197.943 306.2C197.943 305.627 198.049 305.123 198.263 304.69C198.483 304.257 198.779 303.923 199.153 303.69C199.526 303.457 199.943 303.34 200.403 303.34C200.796 303.34 201.139 303.42 201.433 303.58C201.733 303.74 201.963 303.95 202.123 304.21V303.42H203.833V309H202.123V308.21C201.956 308.47 201.723 308.68 201.423 308.84C201.129 309 200.786 309.08 200.393 309.08C199.939 309.08 199.526 308.963 199.153 308.73C198.779 308.49 198.483 308.153 198.263 307.72C198.049 307.28 197.943 306.773 197.943 306.2ZM202.123 306.21C202.123 305.783 202.003 305.447 201.763 305.2C201.529 304.953 201.243 304.83 200.903 304.83C200.563 304.83 200.273 304.953 200.033 305.2C199.799 305.44 199.683 305.773 199.683 306.2C199.683 306.627 199.799 306.967 200.033 307.22C200.273 307.467 200.563 307.59 200.903 307.59C201.243 307.59 201.529 307.467 201.763 307.22C202.003 306.973 202.123 306.637 202.123 306.21ZM210.97 303.42L207.47 311.65H205.63L206.91 308.81L204.64 303.42H206.55L207.84 306.91L209.12 303.42H210.97Z" fill="#5A5A5F"/>
<path d="M256.67 301.98V303.35H254.81V309H253.1V303.35H251.24V301.98H256.67ZM260.268 309.08C259.722 309.08 259.228 308.963 258.788 308.73C258.355 308.497 258.012 308.163 257.758 307.73C257.512 307.297 257.388 306.79 257.388 306.21C257.388 305.637 257.515 305.133 257.768 304.7C258.022 304.26 258.368 303.923 258.808 303.69C259.248 303.457 259.742 303.34 260.288 303.34C260.835 303.34 261.328 303.457 261.768 303.69C262.208 303.923 262.555 304.26 262.808 304.7C263.062 305.133 263.188 305.637 263.188 306.21C263.188 306.783 263.058 307.29 262.798 307.73C262.545 308.163 262.195 308.497 261.748 308.73C261.308 308.963 260.815 309.08 260.268 309.08ZM260.268 307.6C260.595 307.6 260.872 307.48 261.098 307.24C261.332 307 261.448 306.657 261.448 306.21C261.448 305.763 261.335 305.42 261.108 305.18C260.888 304.94 260.615 304.82 260.288 304.82C259.955 304.82 259.678 304.94 259.458 305.18C259.238 305.413 259.128 305.757 259.128 306.21C259.128 306.657 259.235 307 259.448 307.24C259.668 307.48 259.942 307.6 260.268 307.6ZM271.415 303.36C272.109 303.36 272.659 303.57 273.065 303.99C273.479 304.41 273.685 304.993 273.685 305.74V309H271.985V305.97C271.985 305.61 271.889 305.333 271.695 305.14C271.509 304.94 271.249 304.84 270.915 304.84C270.582 304.84 270.319 304.94 270.125 305.14C269.939 305.333 269.845 305.61 269.845 305.97V309H268.145V305.97C268.145 305.61 268.049 305.333 267.855 305.14C267.669 304.94 267.409 304.84 267.075 304.84C266.742 304.84 266.479 304.94 266.285 305.14C266.099 305.333 266.005 305.61 266.005 305.97V309H264.295V303.42H266.005V304.12C266.179 303.887 266.405 303.703 266.685 303.57C266.965 303.43 267.282 303.36 267.635 303.36C268.055 303.36 268.429 303.45 268.755 303.63C269.089 303.81 269.349 304.067 269.535 304.4C269.729 304.093 269.992 303.843 270.325 303.65C270.659 303.457 271.022 303.36 271.415 303.36ZM277.621 309.08C277.075 309.08 276.581 308.963 276.141 308.73C275.708 308.497 275.365 308.163 275.111 307.73C274.865 307.297 274.741 306.79 274.741 306.21C274.741 305.637 274.868 305.133 275.121 304.7C275.375 304.26 275.721 303.923 276.161 303.69C276.601 303.457 277.095 303.34 277.641 303.34C278.188 303.34 278.681 303.457 279.121 303.69C279.561 303.923 279.908 304.26 280.161 304.7C280.415 305.133 280.541 305.637 280.541 306.21C280.541 306.783 280.411 307.29 280.151 307.73C279.898 308.163 279.548 308.497 279.101 308.73C278.661 308.963 278.168 309.08 277.621 309.08ZM277.621 307.6C277.948 307.6 278.225 307.48 278.451 307.24C278.685 307 278.801 306.657 278.801 306.21C278.801 305.763 278.688 305.42 278.461 305.18C278.241 304.94 277.968 304.82 277.641 304.82C277.308 304.82 277.031 304.94 276.811 305.18C276.591 305.413 276.481 305.757 276.481 306.21C276.481 306.657 276.588 307 276.801 307.24C277.021 307.48 277.295 307.6 277.621 307.6ZM283.359 304.35C283.559 304.043 283.809 303.803 284.109 303.63C284.409 303.45 284.742 303.36 285.109 303.36V305.17H284.639C284.212 305.17 283.892 305.263 283.679 305.45C283.465 305.63 283.359 305.95 283.359 306.41V309H281.649V303.42H283.359V304.35ZM287.836 304.35C288.036 304.043 288.286 303.803 288.586 303.63C288.886 303.45 289.219 303.36 289.586 303.36V305.17H289.116C288.689 305.17 288.369 305.263 288.156 305.45C287.943 305.63 287.836 305.95 287.836 306.41V309H286.126V303.42H287.836V304.35ZM293.143 309.08C292.597 309.08 292.103 308.963 291.663 308.73C291.23 308.497 290.887 308.163 290.633 307.73C290.387 307.297 290.263 306.79 290.263 306.21C290.263 305.637 290.39 305.133 290.643 304.7C290.897 304.26 291.243 303.923 291.683 303.69C292.123 303.457 292.617 303.34 293.163 303.34C293.71 303.34 294.203 303.457 294.643 303.69C295.083 303.923 295.43 304.26 295.683 304.7C295.937 305.133 296.063 305.637 296.063 306.21C296.063 306.783 295.933 307.29 295.673 307.73C295.42 308.163 295.07 308.497 294.623 308.73C294.183 308.963 293.69 309.08 293.143 309.08ZM293.143 307.6C293.47 307.6 293.747 307.48 293.973 307.24C294.207 307 294.323 306.657 294.323 306.21C294.323 305.763 294.21 305.42 293.983 305.18C293.763 304.94 293.49 304.82 293.163 304.82C292.83 304.82 292.553 304.94 292.333 305.18C292.113 305.413 292.003 305.757 292.003 306.21C292.003 306.657 292.11 307 292.323 307.24C292.543 307.48 292.817 307.6 293.143 307.6ZM305.18 303.42L303.67 309H301.78L300.9 305.38L299.99 309H298.11L296.59 303.42H298.3L299.09 307.41L300.03 303.42H301.84L302.79 307.39L303.57 303.42H305.18Z" fill="#5A5A5F"/>
<path d="M349.16 309.07C348.647 309.07 348.187 308.987 347.78 308.82C347.373 308.653 347.047 308.407 346.8 308.08C346.56 307.753 346.433 307.36 346.42 306.9H348.24C348.267 307.16 348.357 307.36 348.51 307.5C348.663 307.633 348.863 307.7 349.11 307.7C349.363 307.7 349.563 307.643 349.71 307.53C349.857 307.41 349.93 307.247 349.93 307.04C349.93 306.867 349.87 306.723 349.75 306.61C349.637 306.497 349.493 306.403 349.32 306.33C349.153 306.257 348.913 306.173 348.6 306.08C348.147 305.94 347.777 305.8 347.49 305.66C347.203 305.52 346.957 305.313 346.75 305.04C346.543 304.767 346.44 304.41 346.44 303.97C346.44 303.317 346.677 302.807 347.15 302.44C347.623 302.067 348.24 301.88 349 301.88C349.773 301.88 350.397 302.067 350.87 302.44C351.343 302.807 351.597 303.32 351.63 303.98H349.78C349.767 303.753 349.683 303.577 349.53 303.45C349.377 303.317 349.18 303.25 348.94 303.25C348.733 303.25 348.567 303.307 348.44 303.42C348.313 303.527 348.25 303.683 348.25 303.89C348.25 304.117 348.357 304.293 348.57 304.42C348.783 304.547 349.117 304.683 349.57 304.83C350.023 304.983 350.39 305.13 350.67 305.27C350.957 305.41 351.203 305.613 351.41 305.88C351.617 306.147 351.72 306.49 351.72 306.91C351.72 307.31 351.617 307.673 351.41 308C351.21 308.327 350.917 308.587 350.53 308.78C350.143 308.973 349.687 309.07 349.16 309.07ZM352.632 306.2C352.632 305.627 352.739 305.123 352.952 304.69C353.172 304.257 353.469 303.923 353.842 303.69C354.216 303.457 354.632 303.34 355.092 303.34C355.486 303.34 355.829 303.42 356.122 303.58C356.422 303.74 356.652 303.95 356.812 304.21V303.42H358.522V309H356.812V308.21C356.646 308.47 356.412 308.68 356.112 308.84C355.819 309 355.476 309.08 355.082 309.08C354.629 309.08 354.216 308.963 353.842 308.73C353.469 308.49 353.172 308.153 352.952 307.72C352.739 307.28 352.632 306.773 352.632 306.2ZM356.812 306.21C356.812 305.783 356.692 305.447 356.452 305.2C356.219 304.953 355.932 304.83 355.592 304.83C355.252 304.83 354.962 304.953 354.722 305.2C354.489 305.44 354.372 305.773 354.372 306.2C354.372 306.627 354.489 306.967 354.722 307.22C354.962 307.467 355.252 307.59 355.592 307.59C355.932 307.59 356.219 307.467 356.452 307.22C356.692 306.973 356.812 306.637 356.812 306.21ZM367.079 303.36C367.773 303.36 368.323 303.57 368.729 303.99C369.143 304.41 369.349 304.993 369.349 305.74V309H367.649V305.97C367.649 305.61 367.553 305.333 367.359 305.14C367.173 304.94 366.913 304.84 366.579 304.84C366.246 304.84 365.983 304.94 365.789 305.14C365.603 305.333 365.509 305.61 365.509 305.97V309H363.809V305.97C363.809 305.61 363.713 305.333 363.519 305.14C363.333 304.94 363.073 304.84 362.739 304.84C362.406 304.84 362.143 304.94 361.949 305.14C361.763 305.333 361.669 305.61 361.669 305.97V309H359.959V303.42H361.669V304.12C361.843 303.887 362.069 303.703 362.349 303.57C362.629 303.43 362.946 303.36 363.299 303.36C363.719 303.36 364.093 303.45 364.419 303.63C364.753 303.81 365.013 304.067 365.199 304.4C365.393 304.093 365.656 303.843 365.989 303.65C366.323 303.457 366.686 303.36 367.079 303.36ZM376.005 306.12C376.005 306.28 375.995 306.447 375.975 306.62H372.105C372.132 306.967 372.242 307.233 372.435 307.42C372.635 307.6 372.879 307.69 373.165 307.69C373.592 307.69 373.889 307.51 374.055 307.15H375.875C375.782 307.517 375.612 307.847 375.365 308.14C375.125 308.433 374.822 308.663 374.455 308.83C374.089 308.997 373.679 309.08 373.225 309.08C372.679 309.08 372.192 308.963 371.765 308.73C371.339 308.497 371.005 308.163 370.765 307.73C370.525 307.297 370.405 306.79 370.405 306.21C370.405 305.63 370.522 305.123 370.755 304.69C370.995 304.257 371.329 303.923 371.755 303.69C372.182 303.457 372.672 303.34 373.225 303.34C373.765 303.34 374.245 303.453 374.665 303.68C375.085 303.907 375.412 304.23 375.645 304.65C375.885 305.07 376.005 305.56 376.005 306.12ZM374.255 305.67C374.255 305.377 374.155 305.143 373.955 304.97C373.755 304.797 373.505 304.71 373.205 304.71C372.919 304.71 372.675 304.793 372.475 304.96C372.282 305.127 372.162 305.363 372.115 305.67H374.255ZM382.057 301.98C382.797 301.98 383.443 302.127 383.997 302.42C384.55 302.713 384.977 303.127 385.277 303.66C385.583 304.187 385.737 304.797 385.737 305.49C385.737 306.177 385.583 306.787 385.277 307.32C384.977 307.853 384.547 308.267 383.987 308.56C383.433 308.853 382.79 309 382.057 309H379.427V301.98H382.057ZM381.947 307.52C382.593 307.52 383.097 307.343 383.457 306.99C383.817 306.637 383.997 306.137 383.997 305.49C383.997 304.843 383.817 304.34 383.457 303.98C383.097 303.62 382.593 303.44 381.947 303.44H381.137V307.52H381.947ZM386.552 306.2C386.552 305.627 386.659 305.123 386.872 304.69C387.092 304.257 387.389 303.923 387.762 303.69C388.136 303.457 388.552 303.34 389.012 303.34C389.406 303.34 389.749 303.42 390.042 303.58C390.342 303.74 390.572 303.95 390.732 304.21V303.42H392.442V309H390.732V308.21C390.566 308.47 390.332 308.68 390.032 308.84C389.739 309 389.396 309.08 389.002 309.08C388.549 309.08 388.136 308.963 387.762 308.73C387.389 308.49 387.092 308.153 386.872 307.72C386.659 307.28 386.552 306.773 386.552 306.2ZM390.732 306.21C390.732 305.783 390.612 305.447 390.372 305.2C390.139 304.953 389.852 304.83 389.512 304.83C389.172 304.83 388.882 304.953 388.642 305.2C388.409 305.44 388.292 305.773 388.292 306.2C388.292 306.627 388.409 306.967 388.642 307.22C388.882 307.467 389.172 307.59 389.512 307.59C389.852 307.59 390.139 307.467 390.372 307.22C390.612 306.973 390.732 306.637 390.732 306.21ZM399.579 303.42L396.079 311.65H394.239L395.519 308.81L393.249 303.42H395.159L396.449 306.91L397.729 303.42H399.579ZM404.427 307.68H406.667V309H402.717V301.98H404.427V307.68ZM407.343 306.2C407.343 305.627 407.449 305.123 407.663 304.69C407.883 304.257 408.179 303.923 408.553 303.69C408.926 303.457 409.343 303.34 409.803 303.34C410.196 303.34 410.539 303.42 410.833 303.58C411.133 303.74 411.363 303.95 411.523 304.21V303.42H413.233V309H411.523V308.21C411.356 308.47 411.123 308.68 410.823 308.84C410.529 309 410.186 309.08 409.793 309.08C409.339 309.08 408.926 308.963 408.553 308.73C408.179 308.49 407.883 308.153 407.663 307.72C407.449 307.28 407.343 306.773 407.343 306.2ZM411.523 306.21C411.523 305.783 411.403 305.447 411.163 305.2C410.929 304.953 410.643 304.83 410.303 304.83C409.963 304.83 409.673 304.953 409.433 305.2C409.199 305.44 409.083 305.773 409.083 306.2C409.083 306.627 409.199 306.967 409.433 307.22C409.673 307.467 409.963 307.59 410.303 307.59C410.643 307.59 410.929 307.467 411.163 307.22C411.403 306.973 411.523 306.637 411.523 306.21ZM416.94 309.08C416.453 309.08 416.02 308.997 415.64 308.83C415.26 308.663 414.96 308.437 414.74 308.15C414.52 307.857 414.396 307.53 414.37 307.17H416.06C416.08 307.363 416.17 307.52 416.33 307.64C416.49 307.76 416.686 307.82 416.92 307.82C417.133 307.82 417.296 307.78 417.41 307.7C417.53 307.613 417.59 307.503 417.59 307.37C417.59 307.21 417.506 307.093 417.34 307.02C417.173 306.94 416.903 306.853 416.53 306.76C416.13 306.667 415.796 306.57 415.53 306.47C415.263 306.363 415.033 306.2 414.84 305.98C414.646 305.753 414.55 305.45 414.55 305.07C414.55 304.75 414.636 304.46 414.81 304.2C414.99 303.933 415.25 303.723 415.59 303.57C415.936 303.417 416.346 303.34 416.82 303.34C417.52 303.34 418.07 303.513 418.47 303.86C418.876 304.207 419.11 304.667 419.17 305.24H417.59C417.563 305.047 417.476 304.893 417.33 304.78C417.19 304.667 417.003 304.61 416.77 304.61C416.57 304.61 416.416 304.65 416.31 304.73C416.203 304.803 416.15 304.907 416.15 305.04C416.15 305.2 416.233 305.32 416.4 305.4C416.573 305.48 416.84 305.56 417.2 305.64C417.613 305.747 417.95 305.853 418.21 305.96C418.47 306.06 418.696 306.227 418.89 306.46C419.09 306.687 419.193 306.993 419.2 307.38C419.2 307.707 419.106 308 418.92 308.26C418.74 308.513 418.476 308.713 418.13 308.86C417.79 309.007 417.393 309.08 416.94 309.08ZM423.556 307.55V309H422.686C422.066 309 421.582 308.85 421.236 308.55C420.889 308.243 420.716 307.747 420.716 307.06V304.84H420.036V303.42H420.716V302.06H422.426V303.42H423.546V304.84H422.426V307.08C422.426 307.247 422.466 307.367 422.546 307.44C422.626 307.513 422.759 307.55 422.946 307.55H423.556ZM436.687 301.98L434.857 309H432.787L431.667 304.38L430.507 309H428.437L426.657 301.98H428.487L429.497 307.09L430.747 301.98H432.627L433.827 307.09L434.847 301.98H436.687ZM443.005 306.12C443.005 306.28 442.995 306.447 442.975 306.62H439.105C439.132 306.967 439.242 307.233 439.435 307.42C439.635 307.6 439.878 307.69 440.165 307.69C440.592 307.69 440.888 307.51 441.055 307.15H442.875C442.782 307.517 442.612 307.847 442.365 308.14C442.125 308.433 441.822 308.663 441.455 308.83C441.088 308.997 440.678 309.08 440.225 309.08C439.678 309.08 439.192 308.963 438.765 308.73C438.338 308.497 438.005 308.163 437.765 307.73C437.525 307.297 437.405 306.79 437.405 306.21C437.405 305.63 437.522 305.123 437.755 304.69C437.995 304.257 438.328 303.923 438.755 303.69C439.182 303.457 439.672 303.34 440.225 303.34C440.765 303.34 441.245 303.453 441.665 303.68C442.085 303.907 442.412 304.23 442.645 304.65C442.885 305.07 443.005 305.56 443.005 306.12ZM441.255 305.67C441.255 305.377 441.155 305.143 440.955 304.97C440.755 304.797 440.505 304.71 440.205 304.71C439.918 304.71 439.675 304.793 439.475 304.96C439.282 305.127 439.162 305.363 439.115 305.67H441.255ZM449.367 306.12C449.367 306.28 449.357 306.447 449.337 306.62H445.467C445.494 306.967 445.604 307.233 445.797 307.42C445.997 307.6 446.24 307.69 446.527 307.69C446.954 307.69 447.25 307.51 447.417 307.15H449.237C449.144 307.517 448.974 307.847 448.727 308.14C448.487 308.433 448.184 308.663 447.817 308.83C447.45 308.997 447.04 309.08 446.587 309.08C446.04 309.08 445.554 308.963 445.127 308.73C444.7 308.497 444.367 308.163 444.127 307.73C443.887 307.297 443.767 306.79 443.767 306.21C443.767 305.63 443.884 305.123 444.117 304.69C444.357 304.257 444.69 303.923 445.117 303.69C445.544 303.457 446.034 303.34 446.587 303.34C447.127 303.34 447.607 303.453 448.027 303.68C448.447 303.907 448.774 304.23 449.007 304.65C449.247 305.07 449.367 305.56 449.367 306.12ZM447.617 305.67C447.617 305.377 447.517 305.143 447.317 304.97C447.117 304.797 446.867 304.71 446.567 304.71C446.28 304.71 446.037 304.793 445.837 304.96C445.644 305.127 445.524 305.363 445.477 305.67H447.617ZM453.879 309L452.179 306.66V309H450.469V301.6H452.179V305.69L453.869 303.42H455.979L453.659 306.22L455.999 309H453.879Z" fill="#5A5A5F"/>
<circle cx="164" cy="306" r="6" fill="#71589F"/>
<circle cx="237" cy="306" r="6" fill="#E0712F"/>
<circle cx="332" cy="306" r="6" fill="#9A8053"/>
</g>
<defs>
<filter id="filter0_d_505_407" x="29" y="-6" width="558" height="345" filterUnits="userSpaceOnUse" color-interpolation-filters="sRGB">
<feFlood flood-opacity="0" result="BackgroundImageFix"/>
<feColorMatrix in="SourceAlpha" type="matrix" values="0 0 0 0 0 0 0 0 0 0 0 0 0 0 0 0 0 0 127 0" result="hardAlpha"/>
<feOffset dy="2"/>
<feGaussianBlur stdDeviation="4"/>
<feComposite in2="hardAlpha" operator="out"/>
<feColorMatrix type="matrix" values="0 0 0 0 0 0 0 0 0 0 0 0 0 0 0 0 0 0 0.2 0"/>
<feBlend mode="normal" in2="BackgroundImageFix" result="effect1_dropShadow_505_407"/>
<feBlend mode="normal" in="SourceGraphic" in2="effect1_dropShadow_505_407" result="shape"/>
</filter>
<clipPath id="clip0_505_407">
<rect width="612" height="329" fill="white"/>
</clipPath>
<clipPath id="clip1_505_407">
<rect width="502" height="210" fill="white" transform="translate(57 76)"/>
</clipPath>
</defs>
</svg>
