<svg width="596" height="345" viewBox="0 0 596 345" fill="none" xmlns="http://www.w3.org/2000/svg">
<g filter="url(#filter0_d_504_405)">
<rect x="8" y="6" width="542" height="329" rx="4" fill="white"/>
</g>
<path d="M208.832 32.38C210.016 32.38 211.051 32.6093 211.936 33.068C212.832 33.516 213.52 34.1667 214 35.02C214.491 35.8627 214.736 36.8493 214.736 37.98C214.736 39.1107 214.491 40.092 214 40.924C213.52 41.756 212.832 42.396 211.936 42.844C211.051 43.2813 210.016 43.5 208.832 43.5H205.2V32.38H208.832ZM208.832 42.012C210.133 42.012 211.131 41.66 211.824 40.956C212.517 40.252 212.864 39.26 212.864 37.98C212.864 36.6893 212.517 35.6813 211.824 34.956C211.131 34.2307 210.133 33.868 208.832 33.868H207.024V42.012H208.832ZM217.472 33.516C217.141 33.516 216.864 33.404 216.64 33.18C216.416 32.956 216.304 32.6787 216.304 32.348C216.304 32.0173 216.416 31.74 216.64 31.516C216.864 31.292 217.141 31.18 217.472 31.18C217.792 31.18 218.064 31.292 218.288 31.516C218.512 31.74 218.624 32.0173 218.624 32.348C218.624 32.6787 218.512 32.956 218.288 33.18C218.064 33.404 217.792 33.516 217.472 33.516ZM218.368 34.684V43.5H216.544V34.684H218.368ZM223.963 43.644C223.269 43.644 222.645 43.5213 222.091 43.276C221.547 43.02 221.115 42.6787 220.795 42.252C220.475 41.8147 220.304 41.3293 220.283 40.796H222.171C222.203 41.1693 222.379 41.484 222.699 41.74C223.029 41.9853 223.44 42.108 223.931 42.108C224.443 42.108 224.837 42.012 225.115 41.82C225.403 41.6173 225.547 41.3613 225.547 41.052C225.547 40.7213 225.387 40.476 225.067 40.316C224.757 40.156 224.261 39.98 223.579 39.788C222.917 39.6067 222.379 39.4307 221.963 39.26C221.547 39.0893 221.184 38.828 220.875 38.476C220.576 38.124 220.427 37.66 220.427 37.084C220.427 36.6147 220.565 36.188 220.843 35.804C221.12 35.4093 221.515 35.1 222.027 34.876C222.549 34.652 223.147 34.54 223.819 34.54C224.821 34.54 225.627 34.796 226.235 35.308C226.853 35.8093 227.184 36.4973 227.227 37.372H225.403C225.371 36.9773 225.211 36.6627 224.923 36.428C224.635 36.1933 224.245 36.076 223.755 36.076C223.275 36.076 222.907 36.1667 222.651 36.348C222.395 36.5293 222.267 36.7693 222.267 37.068C222.267 37.3027 222.352 37.5 222.523 37.66C222.693 37.82 222.901 37.948 223.147 38.044C223.392 38.1293 223.755 38.2413 224.235 38.38C224.875 38.5507 225.397 38.7267 225.803 38.908C226.219 39.0787 226.576 39.3347 226.875 39.676C227.173 40.0173 227.328 40.4707 227.339 41.036C227.339 41.5373 227.2 41.9853 226.923 42.38C226.645 42.7747 226.251 43.084 225.739 43.308C225.237 43.532 224.645 43.644 223.963 43.644ZM231.437 36.172V41.052C231.437 41.3827 231.512 41.6227 231.661 41.772C231.821 41.9107 232.088 41.98 232.461 41.98H233.581V43.5H232.141C231.32 43.5 230.691 43.308 230.253 42.924C229.816 42.54 229.597 41.916 229.597 41.052V36.172H228.557V34.684H229.597V32.492H231.437V34.684H233.581V36.172H231.437ZM237.087 35.964C237.353 35.516 237.705 35.1693 238.143 34.924C238.591 34.668 239.119 34.54 239.727 34.54V36.428H239.263C238.548 36.428 238.004 36.6093 237.631 36.972C237.268 37.3347 237.087 37.964 237.087 38.86V43.5H235.263V34.684H237.087V35.964ZM242.331 33.516C242 33.516 241.723 33.404 241.499 33.18C241.275 32.956 241.163 32.6787 241.163 32.348C241.163 32.0173 241.275 31.74 241.499 31.516C241.723 31.292 242 31.18 242.331 31.18C242.651 31.18 242.923 31.292 243.147 31.516C243.371 31.74 243.483 32.0173 243.483 32.348C243.483 32.6787 243.371 32.956 243.147 33.18C242.923 33.404 242.651 33.516 242.331 33.516ZM243.227 34.684V43.5H241.403V34.684H243.227ZM247.446 35.996C247.755 35.5693 248.177 35.2227 248.71 34.956C249.254 34.6787 249.857 34.54 250.518 34.54C251.297 34.54 252.001 34.7267 252.63 35.1C253.259 35.4733 253.755 36.0067 254.118 36.7C254.481 37.3827 254.662 38.1667 254.662 39.052C254.662 39.9373 254.481 40.732 254.118 41.436C253.755 42.1293 253.254 42.6733 252.614 43.068C251.985 43.452 251.286 43.644 250.518 43.644C249.835 43.644 249.227 43.5107 248.694 43.244C248.171 42.9773 247.755 42.636 247.446 42.22V43.5H245.622V31.66H247.446V35.996ZM252.806 39.052C252.806 38.444 252.678 37.9213 252.422 37.484C252.177 37.036 251.846 36.7 251.43 36.476C251.025 36.2413 250.587 36.124 250.118 36.124C249.659 36.124 249.222 36.2413 248.806 36.476C248.401 36.7107 248.07 37.052 247.814 37.5C247.569 37.948 247.446 38.476 247.446 39.084C247.446 39.692 247.569 40.2253 247.814 40.684C248.07 41.132 248.401 41.4733 248.806 41.708C249.222 41.9427 249.659 42.06 250.118 42.06C250.587 42.06 251.025 41.9427 251.43 41.708C251.846 41.4627 252.177 41.1107 252.422 40.652C252.678 40.1933 252.806 39.66 252.806 39.052ZM264.45 34.684V43.5H262.626V42.46C262.338 42.8227 261.959 43.1107 261.49 43.324C261.031 43.5267 260.54 43.628 260.018 43.628C259.324 43.628 258.7 43.484 258.146 43.196C257.602 42.908 257.17 42.4813 256.85 41.916C256.54 41.3507 256.386 40.668 256.386 39.868V34.684H258.194V39.596C258.194 40.3853 258.391 40.9933 258.786 41.42C259.18 41.836 259.719 42.044 260.402 42.044C261.084 42.044 261.623 41.836 262.018 41.42C262.423 40.9933 262.626 40.3853 262.626 39.596V34.684H264.45ZM268.984 36.172V41.052C268.984 41.3827 269.059 41.6227 269.208 41.772C269.368 41.9107 269.635 41.98 270.008 41.98H271.128V43.5H269.688C268.867 43.5 268.238 43.308 267.8 42.924C267.363 42.54 267.144 41.916 267.144 41.052V36.172H266.104V34.684H267.144V32.492H268.984V34.684H271.128V36.172H268.984ZM280.889 38.876C280.889 39.2067 280.868 39.5053 280.825 39.772H274.089C274.143 40.476 274.404 41.0413 274.873 41.468C275.343 41.8947 275.919 42.108 276.601 42.108C277.583 42.108 278.276 41.6973 278.681 40.876H280.649C280.383 41.6867 279.897 42.3533 279.193 42.876C278.5 43.388 277.636 43.644 276.601 43.644C275.759 43.644 275.001 43.4573 274.329 43.084C273.668 42.7 273.145 42.1667 272.761 41.484C272.388 40.7907 272.201 39.9907 272.201 39.084C272.201 38.1773 272.383 37.3827 272.745 36.7C273.119 36.0067 273.636 35.4733 274.297 35.1C274.969 34.7267 275.737 34.54 276.601 34.54C277.433 34.54 278.175 34.7213 278.825 35.084C279.476 35.4467 279.983 35.9587 280.345 36.62C280.708 37.2707 280.889 38.0227 280.889 38.876ZM278.985 38.3C278.975 37.628 278.735 37.0893 278.265 36.684C277.796 36.2787 277.215 36.076 276.521 36.076C275.892 36.076 275.353 36.2787 274.905 36.684C274.457 37.0787 274.191 37.6173 274.105 38.3H278.985ZM282.076 39.052C282.076 38.1667 282.258 37.3827 282.62 36.7C282.994 36.0173 283.495 35.4893 284.124 35.116C284.764 34.732 285.474 34.54 286.252 34.54C286.828 34.54 287.394 34.668 287.948 34.924C288.514 35.1693 288.962 35.5 289.292 35.916V31.66H291.132V43.5H289.292V42.172C288.994 42.5987 288.578 42.9507 288.044 43.228C287.522 43.5053 286.919 43.644 286.236 43.644C285.468 43.644 284.764 43.452 284.124 43.068C283.495 42.6733 282.994 42.1293 282.62 41.436C282.258 40.732 282.076 39.9373 282.076 39.052ZM289.292 39.084C289.292 38.476 289.164 37.948 288.908 37.5C288.663 37.052 288.338 36.7107 287.932 36.476C287.527 36.2413 287.09 36.124 286.62 36.124C286.151 36.124 285.714 36.2413 285.308 36.476C284.903 36.7 284.572 37.036 284.316 37.484C284.071 37.9213 283.948 38.444 283.948 39.052C283.948 39.66 284.071 40.1933 284.316 40.652C284.572 41.1107 284.903 41.4627 285.308 41.708C285.724 41.9427 286.162 42.06 286.62 42.06C287.09 42.06 287.527 41.9427 287.932 41.708C288.338 41.4733 288.663 41.132 288.908 40.684C289.164 40.2253 289.292 39.692 289.292 39.084ZM304.868 32.38V33.868H301.908V43.5H300.084V33.868H297.108V32.38H304.868ZM310.54 43.644C309.708 43.644 308.956 43.4573 308.284 43.084C307.612 42.7 307.084 42.1667 306.7 41.484C306.316 40.7907 306.124 39.9907 306.124 39.084C306.124 38.188 306.321 37.3933 306.716 36.7C307.11 36.0067 307.649 35.4733 308.332 35.1C309.014 34.7267 309.777 34.54 310.62 34.54C311.462 34.54 312.225 34.7267 312.908 35.1C313.59 35.4733 314.129 36.0067 314.524 36.7C314.918 37.3933 315.116 38.188 315.116 39.084C315.116 39.98 314.913 40.7747 314.508 41.468C314.102 42.1613 313.548 42.7 312.844 43.084C312.15 43.4573 311.382 43.644 310.54 43.644ZM310.54 42.06C311.009 42.06 311.446 41.948 311.852 41.724C312.268 41.5 312.604 41.164 312.86 40.716C313.116 40.268 313.244 39.724 313.244 39.084C313.244 38.444 313.121 37.9053 312.876 37.468C312.63 37.02 312.305 36.684 311.9 36.46C311.494 36.236 311.057 36.124 310.588 36.124C310.118 36.124 309.681 36.236 309.276 36.46C308.881 36.684 308.566 37.02 308.332 37.468C308.097 37.9053 307.98 38.444 307.98 39.084C307.98 40.0333 308.22 40.7693 308.7 41.292C309.19 41.804 309.804 42.06 310.54 42.06ZM316.311 39.052C316.311 38.1667 316.492 37.3827 316.855 36.7C317.228 36.0173 317.729 35.4893 318.359 35.116C318.999 34.732 319.708 34.54 320.487 34.54C321.063 34.54 321.628 34.668 322.183 34.924C322.748 35.1693 323.196 35.5 323.527 35.916V31.66H325.367V43.5H323.527V42.172C323.228 42.5987 322.812 42.9507 322.279 43.228C321.756 43.5053 321.153 43.644 320.471 43.644C319.703 43.644 318.999 43.452 318.359 43.068C317.729 42.6733 317.228 42.1293 316.855 41.436C316.492 40.732 316.311 39.9373 316.311 39.052ZM323.527 39.084C323.527 38.476 323.399 37.948 323.143 37.5C322.897 37.052 322.572 36.7107 322.167 36.476C321.761 36.2413 321.324 36.124 320.855 36.124C320.385 36.124 319.948 36.2413 319.543 36.476C319.137 36.7 318.807 37.036 318.551 37.484C318.305 37.9213 318.183 38.444 318.183 39.052C318.183 39.66 318.305 40.1933 318.551 40.652C318.807 41.1107 319.137 41.4627 319.543 41.708C319.959 41.9427 320.396 42.06 320.855 42.06C321.324 42.06 321.761 41.9427 322.167 41.708C322.572 41.4733 322.897 41.132 323.143 40.684C323.399 40.2253 323.527 39.692 323.527 39.084ZM327.155 39.052C327.155 38.1667 327.336 37.3827 327.699 36.7C328.072 36.0173 328.573 35.4893 329.203 35.116C329.843 34.732 330.547 34.54 331.315 34.54C332.008 34.54 332.611 34.6787 333.123 34.956C333.645 35.2227 334.061 35.5587 334.371 35.964V34.684H336.211V43.5H334.371V42.188C334.061 42.604 333.64 42.9507 333.107 43.228C332.573 43.5053 331.965 43.644 331.283 43.644C330.525 43.644 329.832 43.452 329.203 43.068C328.573 42.6733 328.072 42.1293 327.699 41.436C327.336 40.732 327.155 39.9373 327.155 39.052ZM334.371 39.084C334.371 38.476 334.243 37.948 333.987 37.5C333.741 37.052 333.416 36.7107 333.011 36.476C332.605 36.2413 332.168 36.124 331.699 36.124C331.229 36.124 330.792 36.2413 330.387 36.476C329.981 36.7 329.651 37.036 329.395 37.484C329.149 37.9213 329.027 38.444 329.027 39.052C329.027 39.66 329.149 40.1933 329.395 40.652C329.651 41.1107 329.981 41.4627 330.387 41.708C330.803 41.9427 331.24 42.06 331.699 42.06C332.168 42.06 332.605 41.9427 333.011 41.708C333.416 41.4733 333.741 41.132 333.987 40.684C334.243 40.2253 334.371 39.692 334.371 39.084ZM346.542 34.684L341.134 47.644H339.246L341.038 43.356L337.566 34.684H339.598L342.078 41.404L344.654 34.684H346.542Z" fill="#004EDA"/>
<path d="M363 56H188V60H363V56Z" fill="#004EDA" mask="url(#path-2-inside-1_504_405)"/>
<path d="M440 47C444.971 47 449 42.9706 449 38C449 33.0294 444.971 29 440 29C435.029 29 431 33.0294 431 38C431 42.9706 435.029 47 440 47Z" stroke="#5A5A5F" stroke-width="2" stroke-miterlimit="10"/>
<path d="M436.25 38H443.75" stroke="#5A5A5F" stroke-width="2" stroke-linecap="round" stroke-linejoin="round"/>
<path d="M440 34.25V41.75" stroke="#5A5A5F" stroke-width="2" stroke-linecap="round" stroke-linejoin="round"/>
<path d="M480 47C484.971 47 489 42.9706 489 38C489 33.0294 484.971 29 480 29C475.029 29 471 33.0294 471 38C471 42.9706 475.029 47 480 47Z" stroke="#5A5A5F" stroke-width="2" stroke-miterlimit="10"/>
<path d="M476.25 38H483.75" stroke="#5A5A5F" stroke-width="2" stroke-linecap="round" stroke-linejoin="round"/>
<path d="M523.75 37.25V32.375C523.75 31.8777 523.948 31.4008 524.3 31.0492C524.651 30.6975 525.128 30.5 525.625 30.5C526.123 30.5 526.6 30.6975 526.951 31.0492C527.303 31.4008 527.5 31.8777 527.5 32.375V40.25C527.5 41.2349 527.306 42.2102 526.93 43.1201C526.553 44.0301 526 44.8569 525.304 45.5533C524.607 46.2497 523.781 46.8022 522.871 47.1791C521.961 47.556 520.985 47.75 520 47.75C515.857 47.75 514 45.5 510.944 39.0594C510.696 38.628 510.628 38.1155 510.758 37.6346C510.887 37.1538 511.202 36.744 511.633 36.4953C512.065 36.2467 512.577 36.1796 513.058 36.3088C513.539 36.438 513.949 36.753 514.197 37.1844L516.25 40.7469V30.875C516.25 30.3777 516.448 29.9008 516.8 29.5492C517.151 29.1975 517.628 29 518.125 29C518.623 29 519.1 29.1975 519.451 29.5492C519.803 29.9008 520 30.3777 520 30.875V37.25" stroke="#5A5A5F" stroke-width="2" stroke-linecap="round" stroke-linejoin="round"/>
<path d="M523.75 32.375V29.375C523.75 28.8777 523.552 28.4008 523.201 28.0492C522.849 27.6975 522.372 27.5 521.875 27.5C521.378 27.5 520.901 27.6975 520.549 28.0492C520.198 28.4008 520 28.8777 520 29.375V30.875" stroke="#5A5A5F" stroke-width="2" stroke-linecap="round" stroke-linejoin="round"/>
<path d="M403.75 30.5H407.5V34.25" stroke="#5A5A5F" stroke-width="2" stroke-linecap="round" stroke-linejoin="round"/>
<path d="M402.25 35.75L407.5 30.5" stroke="#5A5A5F" stroke-width="2" stroke-linecap="round" stroke-linejoin="round"/>
<path d="M396.25 45.5H392.5V41.75" stroke="#5A5A5F" stroke-width="2" stroke-linecap="round" stroke-linejoin="round"/>
<path d="M397.75 40.25L392.5 45.5" stroke="#5A5A5F" stroke-width="2" stroke-linecap="round" stroke-linejoin="round"/>
<path d="M407.5 41.75V45.5H403.75" stroke="#5A5A5F" stroke-width="2" stroke-linecap="round" stroke-linejoin="round"/>
<path d="M402.25 40.25L407.5 45.5" stroke="#5A5A5F" stroke-width="2" stroke-linecap="round" stroke-linejoin="round"/>
<path d="M392.5 34.25V30.5H396.25" stroke="#5A5A5F" stroke-width="2" stroke-linecap="round" stroke-linejoin="round"/>
<path d="M397.75 35.75L392.5 30.5" stroke="#5A5A5F" stroke-width="2" stroke-linecap="round" stroke-linejoin="round"/>
<g clip-path="url(#clip0_504_405)">
<path d="M50.3035 255.246H526.023" stroke="black"/>
<path d="M50.3035 261.546V255.246" stroke="black"/>
<path d="M50.3032 273.662C49.6611 273.662 49.1142 273.488 48.6625 273.138C48.2108 272.786 47.8657 272.276 47.627 271.608C47.3884 270.938 47.2691 270.128 47.2691 269.179C47.2691 268.236 47.3884 267.431 47.627 266.763C47.8685 266.093 48.2151 265.581 48.6668 265.229C49.1213 264.874 49.6668 264.696 50.3032 264.696C50.9395 264.696 51.4836 264.874 51.9353 265.229C52.3898 265.581 52.7364 266.093 52.975 266.763C53.2165 267.431 53.3373 268.236 53.3373 269.179C53.3373 270.128 53.2179 270.938 52.9793 271.608C52.7407 272.276 52.3955 272.786 51.9438 273.138C51.4921 273.488 50.9452 273.662 50.3032 273.662ZM50.3032 272.725C50.9395 272.725 51.4338 272.418 51.7861 271.804C52.1384 271.191 52.3145 270.316 52.3145 269.179C52.3145 268.424 52.2336 267.78 52.0716 267.249C51.9125 266.718 51.6824 266.313 51.3813 266.034C51.083 265.756 50.7236 265.617 50.3032 265.617C49.6725 265.617 49.1796 265.928 48.8245 266.55C48.4694 267.169 48.2918 268.046 48.2918 269.179C48.2918 269.935 48.3713 270.577 48.5304 271.105C48.6895 271.634 48.9182 272.036 49.2165 272.311C49.5177 272.587 49.8799 272.725 50.3032 272.725Z" fill="black"/>
<path d="M145.447 261.546V255.246" stroke="black"/>
<path d="M146.63 264.816V273.543H145.573V265.924H145.522L143.391 267.338V266.265L145.573 264.816H146.63Z" fill="black"/>
<path d="M240.591 261.546V255.246" stroke="black"/>
<path d="M237.862 273.543V272.776L240.742 269.623C241.08 269.253 241.359 268.932 241.578 268.659C241.796 268.384 241.958 268.125 242.063 267.884C242.171 267.64 242.225 267.384 242.225 267.117C242.225 266.81 242.151 266.544 242.004 266.32C241.859 266.096 241.66 265.922 241.407 265.8C241.154 265.678 240.87 265.617 240.555 265.617C240.22 265.617 239.927 265.686 239.677 265.826C239.43 265.962 239.238 266.154 239.102 266.401C238.968 266.648 238.901 266.938 238.901 267.27H237.896C237.896 266.759 238.014 266.31 238.249 265.924C238.485 265.537 238.806 265.236 239.212 265.02C239.622 264.804 240.08 264.696 240.589 264.696C241.1 264.696 241.553 264.804 241.948 265.02C242.343 265.236 242.653 265.527 242.877 265.894C243.102 266.26 243.214 266.668 243.214 267.117C243.214 267.438 243.156 267.752 243.039 268.059C242.926 268.363 242.727 268.702 242.443 269.077C242.161 269.449 241.771 269.904 241.271 270.441L239.31 272.537V272.605H243.367V273.543H237.862Z" fill="black"/>
<path d="M335.735 261.546V255.246" stroke="black"/>
<path d="M335.767 273.662C335.204 273.662 334.703 273.566 334.263 273.373C333.825 273.179 333.477 272.911 333.218 272.567C332.963 272.221 332.824 271.819 332.801 271.361H333.875C333.897 271.642 333.994 271.885 334.164 272.09C334.335 272.292 334.558 272.448 334.834 272.559C335.109 272.669 335.414 272.725 335.75 272.725C336.125 272.725 336.457 272.659 336.747 272.529C337.037 272.398 337.264 272.216 337.429 271.983C337.593 271.75 337.676 271.48 337.676 271.174C337.676 270.853 337.596 270.57 337.437 270.326C337.278 270.078 337.045 269.885 336.738 269.746C336.432 269.607 336.057 269.537 335.613 269.537H334.914V268.6H335.613C335.96 268.6 336.264 268.537 336.525 268.412C336.789 268.287 336.995 268.111 337.143 267.884C337.294 267.657 337.369 267.39 337.369 267.083C337.369 266.787 337.304 266.53 337.173 266.311C337.042 266.093 336.858 265.922 336.619 265.8C336.383 265.678 336.105 265.617 335.784 265.617C335.483 265.617 335.199 265.672 334.932 265.783C334.667 265.891 334.451 266.049 334.284 266.256C334.116 266.461 334.025 266.708 334.011 266.998H332.988C333.005 266.54 333.143 266.14 333.402 265.796C333.66 265.449 333.998 265.179 334.416 264.986C334.836 264.793 335.298 264.696 335.801 264.696C336.341 264.696 336.804 264.806 337.19 265.025C337.576 265.24 337.873 265.526 338.081 265.881C338.288 266.236 338.392 266.62 338.392 267.032C338.392 267.523 338.263 267.942 338.004 268.289C337.748 268.635 337.4 268.875 336.96 269.009V269.077C337.511 269.168 337.941 269.402 338.251 269.78C338.561 270.155 338.716 270.62 338.716 271.174C338.716 271.648 338.586 272.074 338.328 272.452C338.072 272.827 337.723 273.123 337.28 273.338C336.836 273.554 336.332 273.662 335.767 273.662Z" fill="black"/>
<path d="M430.88 261.546V255.246" stroke="black"/>
<path d="M427.729 271.753V270.884L431.564 264.816H432.195V266.162H431.768L428.871 270.748V270.816H434.035V271.753H427.729ZM431.837 273.543V271.489V271.084V264.816H432.842V273.543H431.837Z" fill="black"/>
<path d="M526.022 261.546V255.246" stroke="black"/>
<path d="M526.002 273.662C525.502 273.662 525.052 273.563 524.651 273.364C524.251 273.165 523.93 272.892 523.688 272.546C523.447 272.199 523.315 271.804 523.292 271.361H524.315C524.354 271.756 524.533 272.083 524.852 272.341C525.173 272.597 525.556 272.725 526.002 272.725C526.36 272.725 526.678 272.641 526.957 272.473C527.238 272.306 527.458 272.076 527.617 271.783C527.779 271.488 527.86 271.154 527.86 270.782C527.86 270.401 527.776 270.061 527.609 269.763C527.444 269.462 527.217 269.225 526.927 269.051C526.637 268.878 526.306 268.79 525.934 268.787C525.667 268.784 525.393 268.826 525.112 268.911C524.83 268.993 524.599 269.1 524.417 269.23L523.428 269.111L523.957 264.816H528.491V265.753H524.843L524.536 268.327H524.587C524.766 268.185 524.991 268.067 525.261 267.973C525.531 267.88 525.812 267.833 526.104 267.833C526.639 267.833 527.114 267.961 527.532 268.216C527.952 268.469 528.282 268.816 528.521 269.256C528.762 269.696 528.883 270.199 528.883 270.765C528.883 271.321 528.758 271.819 528.508 272.256C528.261 272.691 527.92 273.034 527.485 273.287C527.051 273.537 526.556 273.662 526.002 273.662Z" fill="black"/>
<path d="M50.3037 87.25V255.25" stroke="black"/>
<path d="M45.5303 255.254H50.3034" stroke="black"/>
<path d="M37.8025 254.772C37.1605 254.772 36.6136 254.597 36.1619 254.248C35.7102 253.895 35.365 253.385 35.1264 252.718C34.8877 252.047 34.7684 251.238 34.7684 250.289C34.7684 249.346 34.8877 248.54 35.1264 247.873C35.3678 247.202 35.7144 246.691 36.1661 246.338C36.6207 245.983 37.1661 245.806 37.8025 245.806C38.4389 245.806 38.9829 245.983 39.4346 246.338C39.8891 246.691 40.2357 247.202 40.4744 247.873C40.7158 248.54 40.8366 249.346 40.8366 250.289C40.8366 251.238 40.7173 252.047 40.4786 252.718C40.24 253.385 39.8948 253.895 39.4431 254.248C38.9914 254.597 38.4445 254.772 37.8025 254.772ZM37.8025 253.834C38.4389 253.834 38.9332 253.527 39.2855 252.914C39.6377 252.3 39.8139 251.425 39.8139 250.289C39.8139 249.533 39.7329 248.89 39.571 248.358C39.4119 247.827 39.1818 247.422 38.8806 247.144C38.5823 246.865 38.223 246.726 37.8025 246.726C37.1718 246.726 36.6789 247.037 36.3238 247.659C35.9687 248.279 35.7911 249.155 35.7911 250.289C35.7911 251.044 35.8707 251.686 36.0298 252.215C36.1889 252.743 36.4176 253.145 36.7158 253.421C37.017 253.696 37.3792 253.834 37.8025 253.834Z" fill="black"/>
<path d="M45.5303 213.25H50.3034" stroke="black"/>
<path d="M35.1903 212.648V211.881L38.071 208.728C38.409 208.359 38.6874 208.038 38.9062 207.765C39.1249 207.489 39.2869 207.231 39.392 206.989C39.4999 206.745 39.5539 206.489 39.5539 206.222C39.5539 205.915 39.4801 205.65 39.3323 205.425C39.1874 205.201 38.9886 205.028 38.7357 204.906C38.4829 204.783 38.1988 204.722 37.8835 204.722C37.5482 204.722 37.2556 204.792 37.0056 204.931C36.7585 205.067 36.5667 205.259 36.4303 205.506C36.2968 205.754 36.2301 206.043 36.2301 206.376H35.2244C35.2244 205.864 35.3423 205.415 35.5781 205.029C35.8139 204.643 36.1349 204.342 36.5411 204.126C36.9502 203.91 37.409 203.802 37.9176 203.802C38.4289 203.802 38.882 203.91 39.2769 204.126C39.6718 204.342 39.9815 204.633 40.2059 204.999C40.4303 205.366 40.5426 205.773 40.5426 206.222C40.5426 206.543 40.4843 206.857 40.3678 207.164C40.2542 207.468 40.0553 207.808 39.7712 208.183C39.49 208.555 39.0994 209.009 38.5994 209.546L36.6391 211.643V211.711H40.696V212.648H35.1903Z" fill="black"/>
<path d="M45.5303 171.254H50.3034" stroke="black"/>
<path d="M34.5521 168.863V167.993L38.3874 161.925H39.0181V163.272H38.5919L35.6942 167.857V167.925H40.859V168.863H34.5521ZM38.6601 170.652V168.598V168.194V161.925H39.6658V170.652H38.6601Z" fill="black"/>
<path d="M45.5303 129.254H50.3034" stroke="black"/>
<path d="M37.8654 128.772C37.5074 128.766 37.1494 128.698 36.7915 128.567C36.4335 128.436 36.1068 128.216 35.8114 127.907C35.5159 127.594 35.2787 127.172 35.0997 126.641C34.9207 126.107 34.8313 125.436 34.8313 124.63C34.8313 123.857 34.9037 123.172 35.0486 122.576C35.1935 121.976 35.4037 121.472 35.6793 121.063C35.9548 120.651 36.2872 120.338 36.6764 120.125C37.0685 119.912 37.5102 119.806 38.0017 119.806C38.4904 119.806 38.925 119.904 39.3057 120.1C39.6892 120.293 40.0017 120.563 40.2432 120.909C40.4847 121.256 40.6409 121.655 40.7119 122.107H39.6722C39.5756 121.715 39.3881 121.39 39.1097 121.131C38.8313 120.873 38.4619 120.743 38.0017 120.743C37.3256 120.743 36.7929 121.037 36.4037 121.625C36.0173 122.213 35.8227 123.039 35.8199 124.101H35.8881C36.0472 123.86 36.2361 123.654 36.4548 123.483C36.6764 123.31 36.9207 123.176 37.1878 123.083C37.4548 122.989 37.7375 122.942 38.0358 122.942C38.5358 122.942 38.9932 123.067 39.408 123.317C39.8227 123.564 40.1551 123.907 40.4051 124.344C40.6551 124.779 40.7801 125.277 40.7801 125.84C40.7801 126.38 40.6594 126.874 40.4179 127.323C40.1764 127.769 39.8369 128.124 39.3994 128.388C38.9648 128.65 38.4534 128.777 37.8654 128.772ZM37.8654 127.834C38.2233 127.834 38.5443 127.745 38.8284 127.566C39.1154 127.387 39.3412 127.147 39.506 126.846C39.6736 126.544 39.7574 126.209 39.7574 125.84C39.7574 125.479 39.6764 125.151 39.5145 124.855C39.3554 124.557 39.1352 124.32 38.854 124.144C38.5756 123.968 38.2574 123.88 37.8994 123.88C37.6296 123.88 37.3781 123.934 37.1452 124.042C36.9122 124.147 36.7077 124.292 36.5315 124.476C36.3582 124.661 36.2219 124.873 36.1225 125.111C36.023 125.347 35.9733 125.596 35.9733 125.857C35.9733 126.203 36.0543 126.527 36.2162 126.828C36.381 127.13 36.6054 127.373 36.8895 127.557C37.1764 127.742 37.5017 127.834 37.8654 127.834Z" fill="black"/>
<path d="M45.5303 87.25H50.3034" stroke="black"/>
<path d="M37.8568 91.1779C37.2716 91.1779 36.7546 91.0742 36.3057 90.8668C35.8597 90.6566 35.5117 90.3683 35.2617 90.0018C35.0117 89.6325 34.8881 89.212 34.8909 88.7404C34.8881 88.3711 34.9605 88.0302 35.1082 87.7177C35.256 87.4023 35.4577 87.1396 35.7134 86.9293C35.9719 86.7163 36.2602 86.5813 36.5784 86.5245V86.4734C36.1608 86.3654 35.8284 86.131 35.5813 85.7702C35.3341 85.4066 35.2119 84.9933 35.2148 84.5302C35.2119 84.087 35.3242 83.6907 35.5514 83.3413C35.7787 82.9918 36.0912 82.7163 36.4889 82.5146C36.8895 82.3129 37.3455 82.212 37.8568 82.212C38.3625 82.212 38.8142 82.3129 39.2119 82.5146C39.6097 82.7163 39.9222 82.9918 40.1494 83.3413C40.3796 83.6907 40.496 84.087 40.4989 84.5302C40.496 84.9933 40.3696 85.4066 40.1196 85.7702C39.8725 86.131 39.5443 86.3654 39.1352 86.4734V86.5245C39.4506 86.5813 39.7347 86.7163 39.9875 86.9293C40.2404 87.1396 40.4421 87.4023 40.5926 87.7177C40.7432 88.0302 40.8199 88.3711 40.8227 88.7404C40.8199 89.212 40.6921 89.6325 40.4392 90.0018C40.1892 90.3683 39.8412 90.6566 39.3952 90.8668C38.952 91.0742 38.4392 91.1779 37.8568 91.1779ZM37.8568 90.2404C38.2517 90.2404 38.5926 90.1765 38.8796 90.0487C39.1665 89.9208 39.3881 89.7404 39.5443 89.5075C39.7006 89.2745 39.7801 89.0018 39.783 88.6893C39.7801 88.3597 39.6949 88.0685 39.5273 87.8157C39.3597 87.5629 39.131 87.364 38.8412 87.2191C38.5543 87.0742 38.2261 87.0018 37.8568 87.0018C37.4847 87.0018 37.1523 87.0742 36.8597 87.2191C36.5699 87.364 36.3412 87.5629 36.1736 87.8157C36.0088 88.0685 35.9279 88.3597 35.9307 88.6893C35.9279 89.0018 36.0031 89.2745 36.1565 89.5075C36.3128 89.7404 36.5358 89.9208 36.8256 90.0487C37.1154 90.1765 37.4591 90.2404 37.8568 90.2404ZM37.8568 86.0984C38.1693 86.0984 38.4463 86.0359 38.6878 85.9109C38.9321 85.7859 39.1239 85.6112 39.2631 85.3867C39.4023 85.1623 39.4733 84.8995 39.4761 84.5984C39.4733 84.3029 39.4037 84.0458 39.2673 83.8271C39.131 83.6055 38.9421 83.435 38.7006 83.3157C38.4591 83.1935 38.1779 83.1325 37.8568 83.1325C37.5301 83.1325 37.2446 83.1935 37.0003 83.3157C36.756 83.435 36.5671 83.6055 36.4335 83.8271C36.3 84.0458 36.2347 84.3029 36.2375 84.5984C36.2347 84.8995 36.3014 85.1623 36.4378 85.3867C36.577 85.6112 36.7688 85.7859 37.0131 85.9109C37.2574 86.0359 37.5386 86.0984 37.8568 86.0984Z" fill="black"/>
<path d="M50.3027 255.254H526.022" stroke="#CCCCCC"/>
<path d="M50.3027 213.25H526.022" stroke="#CCCCCC"/>
<path d="M50.3027 171.25H526.022" stroke="#CCCCCC"/>
<path d="M50.3027 129.246H526.022" stroke="#CCCCCC"/>
<path d="M50.3027 87.25H526.022" stroke="#CCCCCC"/>
<path d="M50.3027 87.25V255.25" stroke="#CCCCCC"/>
<path d="M145.447 87.25V255.25" stroke="#CCCCCC"/>
<path d="M240.591 87.25V255.25" stroke="#CCCCCC"/>
<path d="M335.734 87.25V255.25" stroke="#CCCCCC"/>
<path d="M430.879 87.25V255.25" stroke="#CCCCCC"/>
<path d="M526.021 87.25V255.25" stroke="#CCCCCC"/>
<path d="M526.021 108.25L430.878 171.25L335.734 213.25L240.59 234.25L145.446 108.25L50.3019 171.25" stroke="#71589F"/>
<path d="M526.022 111.398C524.704 111.398 523.635 109.987 523.635 108.248C523.635 106.508 524.704 105.098 526.022 105.098C527.34 105.098 528.408 106.508 528.408 108.248C528.408 109.987 527.34 111.398 526.022 111.398Z" fill="white" stroke="#71589F"/>
<path d="M430.878 174.402C429.56 174.402 428.492 172.991 428.492 171.252C428.492 169.512 429.56 168.102 430.878 168.102C432.196 168.102 433.265 169.512 433.265 171.252C433.265 172.991 432.196 174.402 430.878 174.402Z" fill="white" stroke="#71589F"/>
<path d="M335.734 216.398C334.416 216.398 333.347 214.987 333.347 213.248C333.347 211.508 334.416 210.098 335.734 210.098C337.052 210.098 338.12 211.508 338.12 213.248C338.12 214.987 337.052 216.398 335.734 216.398Z" fill="white" stroke="#71589F"/>
<path d="M240.59 237.398C239.272 237.398 238.203 235.987 238.203 234.248C238.203 232.508 239.272 231.098 240.59 231.098C241.908 231.098 242.977 232.508 242.977 234.248C242.977 235.987 241.908 237.398 240.59 237.398Z" fill="white" stroke="#71589F"/>
<path d="M145.445 111.398C144.127 111.398 143.059 109.987 143.059 108.248C143.059 106.508 144.127 105.098 145.445 105.098C146.764 105.098 147.832 106.508 147.832 108.248C147.832 109.987 146.764 111.398 145.445 111.398Z" fill="white" stroke="#71589F"/>
<path d="M50.3029 174.402C48.9848 174.402 47.9163 172.991 47.9163 171.252C47.9163 169.512 48.9848 168.102 50.3029 168.102C51.621 168.102 52.6895 169.512 52.6895 171.252C52.6895 172.991 51.621 174.402 50.3029 174.402Z" fill="white" stroke="#71589F"/>
<path d="M50.3027 150.25L145.447 108.25H240.591L335.734 192.25L430.878 129.25L526.022 171.25" stroke="#9A8053"/>
<path d="M50.3026 153.394C51.6206 153.394 52.6891 151.983 52.6891 150.244C52.6891 148.504 51.6206 147.094 50.3026 147.094C48.9845 147.094 47.916 148.504 47.916 150.244C47.916 151.983 48.9845 153.394 50.3026 153.394Z" fill="white" stroke="#9A8053"/>
<path d="M145.446 111.398C146.764 111.398 147.832 109.987 147.832 108.248C147.832 106.508 146.764 105.098 145.446 105.098C144.128 105.098 143.059 106.508 143.059 108.248C143.059 109.987 144.128 111.398 145.446 111.398Z" fill="white" stroke="#9A8053"/>
<path d="M240.59 111.398C241.908 111.398 242.977 109.987 242.977 108.248C242.977 106.508 241.908 105.098 240.59 105.098C239.272 105.098 238.204 106.508 238.204 108.248C238.204 109.987 239.272 111.398 240.59 111.398Z" fill="white" stroke="#9A8053"/>
<path d="M335.734 195.398C337.052 195.398 338.121 193.987 338.121 192.248C338.121 190.508 337.052 189.098 335.734 189.098C334.416 189.098 333.348 190.508 333.348 192.248C333.348 193.987 334.416 195.398 335.734 195.398Z" fill="white" stroke="#9A8053"/>
<path d="M430.879 132.398C432.197 132.398 433.265 130.987 433.265 129.248C433.265 127.508 432.197 126.098 430.879 126.098C429.561 126.098 428.492 127.508 428.492 129.248C428.492 130.987 429.561 132.398 430.879 132.398Z" fill="white" stroke="#9A8053"/>
<path d="M526.021 174.402C527.339 174.402 528.408 172.991 528.408 171.252C528.408 169.512 527.339 168.102 526.021 168.102C524.703 168.102 523.635 169.512 523.635 171.252C523.635 172.991 524.703 174.402 526.021 174.402Z" fill="white" stroke="#9A8053"/>
<path d="M50.3027 213.25L145.447 129.25L240.591 150.25L335.734 108.25L430.878 192.25L526.022 108.25" stroke="#E0712F"/>
<path d="M50.3026 216.398C51.6206 216.398 52.6891 214.987 52.6891 213.248C52.6891 211.508 51.6206 210.098 50.3026 210.098C48.9845 210.098 47.916 211.508 47.916 213.248C47.916 214.987 48.9845 216.398 50.3026 216.398Z" fill="white" stroke="#E0712F"/>
<path d="M145.446 132.398C146.764 132.398 147.833 130.987 147.833 129.248C147.833 127.508 146.764 126.098 145.446 126.098C144.128 126.098 143.06 127.508 143.06 129.248C143.06 130.987 144.128 132.398 145.446 132.398Z" fill="white" stroke="#E0712F"/>
<path d="M240.591 153.394C241.909 153.394 242.977 151.983 242.977 150.244C242.977 148.504 241.909 147.094 240.591 147.094C239.273 147.094 238.204 148.504 238.204 150.244C238.204 151.983 239.273 153.394 240.591 153.394Z" fill="white" stroke="#E0712F"/>
<path d="M335.734 111.398C337.052 111.398 338.121 109.987 338.121 108.248C338.121 106.508 337.052 105.098 335.734 105.098C334.416 105.098 333.348 106.508 333.348 108.248C333.348 109.987 334.416 111.398 335.734 111.398Z" fill="white" stroke="#E0712F"/>
<path d="M430.879 195.398C432.197 195.398 433.265 193.987 433.265 192.248C433.265 190.508 432.197 189.098 430.879 189.098C429.561 189.098 428.492 190.508 428.492 192.248C428.492 193.987 429.561 195.398 430.879 195.398Z" fill="white" stroke="#E0712F"/>
<path d="M526.021 111.398C527.339 111.398 528.408 109.987 528.408 108.248C528.408 106.508 527.339 105.098 526.021 105.098C524.703 105.098 523.635 106.508 523.635 108.248C523.635 109.987 524.703 111.398 526.021 111.398Z" fill="white" stroke="#E0712F"/>
</g>
<path d="M154.67 307.98V309.35H152.81V315H151.1V309.35H149.24V307.98H154.67ZM158.268 315.08C157.722 315.08 157.228 314.963 156.788 314.73C156.355 314.497 156.012 314.163 155.758 313.73C155.512 313.297 155.388 312.79 155.388 312.21C155.388 311.637 155.515 311.133 155.768 310.7C156.022 310.26 156.368 309.923 156.808 309.69C157.248 309.457 157.742 309.34 158.288 309.34C158.835 309.34 159.328 309.457 159.768 309.69C160.208 309.923 160.555 310.26 160.808 310.7C161.062 311.133 161.188 311.637 161.188 312.21C161.188 312.783 161.058 313.29 160.798 313.73C160.545 314.163 160.195 314.497 159.748 314.73C159.308 314.963 158.815 315.08 158.268 315.08ZM158.268 313.6C158.595 313.6 158.872 313.48 159.098 313.24C159.332 313 159.448 312.657 159.448 312.21C159.448 311.763 159.335 311.42 159.108 311.18C158.888 310.94 158.615 310.82 158.288 310.82C157.955 310.82 157.678 310.94 157.458 311.18C157.238 311.413 157.128 311.757 157.128 312.21C157.128 312.657 157.235 313 157.448 313.24C157.668 313.48 157.942 313.6 158.268 313.6ZM161.955 312.2C161.955 311.627 162.062 311.123 162.275 310.69C162.495 310.257 162.792 309.923 163.165 309.69C163.539 309.457 163.955 309.34 164.415 309.34C164.782 309.34 165.115 309.417 165.415 309.57C165.722 309.723 165.962 309.93 166.135 310.19V307.6H167.845V315H166.135V314.2C165.975 314.467 165.745 314.68 165.445 314.84C165.152 315 164.809 315.08 164.415 315.08C163.955 315.08 163.539 314.963 163.165 314.73C162.792 314.49 162.495 314.153 162.275 313.72C162.062 313.28 161.955 312.773 161.955 312.2ZM166.135 312.21C166.135 311.783 166.015 311.447 165.775 311.2C165.542 310.953 165.255 310.83 164.915 310.83C164.575 310.83 164.285 310.953 164.045 311.2C163.812 311.44 163.695 311.773 163.695 312.2C163.695 312.627 163.812 312.967 164.045 313.22C164.285 313.467 164.575 313.59 164.915 313.59C165.255 313.59 165.542 313.467 165.775 313.22C166.015 312.973 166.135 312.637 166.135 312.21ZM168.943 312.2C168.943 311.627 169.049 311.123 169.263 310.69C169.483 310.257 169.779 309.923 170.153 309.69C170.526 309.457 170.943 309.34 171.403 309.34C171.796 309.34 172.139 309.42 172.433 309.58C172.733 309.74 172.963 309.95 173.123 310.21V309.42H174.833V315H173.123V314.21C172.956 314.47 172.723 314.68 172.423 314.84C172.129 315 171.786 315.08 171.393 315.08C170.939 315.08 170.526 314.963 170.153 314.73C169.779 314.49 169.483 314.153 169.263 313.72C169.049 313.28 168.943 312.773 168.943 312.2ZM173.123 312.21C173.123 311.783 173.003 311.447 172.763 311.2C172.529 310.953 172.243 310.83 171.903 310.83C171.563 310.83 171.273 310.953 171.033 311.2C170.799 311.44 170.683 311.773 170.683 312.2C170.683 312.627 170.799 312.967 171.033 313.22C171.273 313.467 171.563 313.59 171.903 313.59C172.243 313.59 172.529 313.467 172.763 313.22C173.003 312.973 173.123 312.637 173.123 312.21ZM181.97 309.42L178.47 317.65H176.63L177.91 314.81L175.64 309.42H177.55L178.84 312.91L180.12 309.42H181.97Z" fill="#5A5A5F"/>
<path d="M227.67 307.98V309.35H225.81V315H224.1V309.35H222.24V307.98H227.67ZM231.268 315.08C230.722 315.08 230.228 314.963 229.788 314.73C229.355 314.497 229.012 314.163 228.758 313.73C228.512 313.297 228.388 312.79 228.388 312.21C228.388 311.637 228.515 311.133 228.768 310.7C229.022 310.26 229.368 309.923 229.808 309.69C230.248 309.457 230.742 309.34 231.288 309.34C231.835 309.34 232.328 309.457 232.768 309.69C233.208 309.923 233.555 310.26 233.808 310.7C234.062 311.133 234.188 311.637 234.188 312.21C234.188 312.783 234.058 313.29 233.798 313.73C233.545 314.163 233.195 314.497 232.748 314.73C232.308 314.963 231.815 315.08 231.268 315.08ZM231.268 313.6C231.595 313.6 231.872 313.48 232.098 313.24C232.332 313 232.448 312.657 232.448 312.21C232.448 311.763 232.335 311.42 232.108 311.18C231.888 310.94 231.615 310.82 231.288 310.82C230.955 310.82 230.678 310.94 230.458 311.18C230.238 311.413 230.128 311.757 230.128 312.21C230.128 312.657 230.235 313 230.448 313.24C230.668 313.48 230.942 313.6 231.268 313.6ZM242.415 309.36C243.109 309.36 243.659 309.57 244.065 309.99C244.479 310.41 244.685 310.993 244.685 311.74V315H242.985V311.97C242.985 311.61 242.889 311.333 242.695 311.14C242.509 310.94 242.249 310.84 241.915 310.84C241.582 310.84 241.319 310.94 241.125 311.14C240.939 311.333 240.845 311.61 240.845 311.97V315H239.145V311.97C239.145 311.61 239.049 311.333 238.855 311.14C238.669 310.94 238.409 310.84 238.075 310.84C237.742 310.84 237.479 310.94 237.285 311.14C237.099 311.333 237.005 311.61 237.005 311.97V315H235.295V309.42H237.005V310.12C237.179 309.887 237.405 309.703 237.685 309.57C237.965 309.43 238.282 309.36 238.635 309.36C239.055 309.36 239.429 309.45 239.755 309.63C240.089 309.81 240.349 310.067 240.535 310.4C240.729 310.093 240.992 309.843 241.325 309.65C241.659 309.457 242.022 309.36 242.415 309.36ZM248.621 315.08C248.075 315.08 247.581 314.963 247.141 314.73C246.708 314.497 246.365 314.163 246.111 313.73C245.865 313.297 245.741 312.79 245.741 312.21C245.741 311.637 245.868 311.133 246.121 310.7C246.375 310.26 246.721 309.923 247.161 309.69C247.601 309.457 248.095 309.34 248.641 309.34C249.188 309.34 249.681 309.457 250.121 309.69C250.561 309.923 250.908 310.26 251.161 310.7C251.415 311.133 251.541 311.637 251.541 312.21C251.541 312.783 251.411 313.29 251.151 313.73C250.898 314.163 250.548 314.497 250.101 314.73C249.661 314.963 249.168 315.08 248.621 315.08ZM248.621 313.6C248.948 313.6 249.225 313.48 249.451 313.24C249.685 313 249.801 312.657 249.801 312.21C249.801 311.763 249.688 311.42 249.461 311.18C249.241 310.94 248.968 310.82 248.641 310.82C248.308 310.82 248.031 310.94 247.811 311.18C247.591 311.413 247.481 311.757 247.481 312.21C247.481 312.657 247.588 313 247.801 313.24C248.021 313.48 248.295 313.6 248.621 313.6ZM254.359 310.35C254.559 310.043 254.809 309.803 255.109 309.63C255.409 309.45 255.742 309.36 256.109 309.36V311.17H255.639C255.212 311.17 254.892 311.263 254.679 311.45C254.465 311.63 254.359 311.95 254.359 312.41V315H252.649V309.42H254.359V310.35ZM258.836 310.35C259.036 310.043 259.286 309.803 259.586 309.63C259.886 309.45 260.219 309.36 260.586 309.36V311.17H260.116C259.689 311.17 259.369 311.263 259.156 311.45C258.943 311.63 258.836 311.95 258.836 312.41V315H257.126V309.42H258.836V310.35ZM264.143 315.08C263.597 315.08 263.103 314.963 262.663 314.73C262.23 314.497 261.887 314.163 261.633 313.73C261.387 313.297 261.263 312.79 261.263 312.21C261.263 311.637 261.39 311.133 261.643 310.7C261.897 310.26 262.243 309.923 262.683 309.69C263.123 309.457 263.617 309.34 264.163 309.34C264.71 309.34 265.203 309.457 265.643 309.69C266.083 309.923 266.43 310.26 266.683 310.7C266.937 311.133 267.063 311.637 267.063 312.21C267.063 312.783 266.933 313.29 266.673 313.73C266.42 314.163 266.07 314.497 265.623 314.73C265.183 314.963 264.69 315.08 264.143 315.08ZM264.143 313.6C264.47 313.6 264.747 313.48 264.973 313.24C265.207 313 265.323 312.657 265.323 312.21C265.323 311.763 265.21 311.42 264.983 311.18C264.763 310.94 264.49 310.82 264.163 310.82C263.83 310.82 263.553 310.94 263.333 311.18C263.113 311.413 263.003 311.757 263.003 312.21C263.003 312.657 263.11 313 263.323 313.24C263.543 313.48 263.817 313.6 264.143 313.6ZM276.18 309.42L274.67 315H272.78L271.9 311.38L270.99 315H269.11L267.59 309.42H269.3L270.09 313.41L271.03 309.42H272.84L273.79 313.39L274.57 309.42H276.18Z" fill="#5A5A5F"/>
<path d="M320.16 315.07C319.647 315.07 319.187 314.987 318.78 314.82C318.373 314.653 318.047 314.407 317.8 314.08C317.56 313.753 317.433 313.36 317.42 312.9H319.24C319.267 313.16 319.357 313.36 319.51 313.5C319.663 313.633 319.863 313.7 320.11 313.7C320.363 313.7 320.563 313.643 320.71 313.53C320.857 313.41 320.93 313.247 320.93 313.04C320.93 312.867 320.87 312.723 320.75 312.61C320.637 312.497 320.493 312.403 320.32 312.33C320.153 312.257 319.913 312.173 319.6 312.08C319.147 311.94 318.777 311.8 318.49 311.66C318.203 311.52 317.957 311.313 317.75 311.04C317.543 310.767 317.44 310.41 317.44 309.97C317.44 309.317 317.677 308.807 318.15 308.44C318.623 308.067 319.24 307.88 320 307.88C320.773 307.88 321.397 308.067 321.87 308.44C322.343 308.807 322.597 309.32 322.63 309.98H320.78C320.767 309.753 320.683 309.577 320.53 309.45C320.377 309.317 320.18 309.25 319.94 309.25C319.733 309.25 319.567 309.307 319.44 309.42C319.313 309.527 319.25 309.683 319.25 309.89C319.25 310.117 319.357 310.293 319.57 310.42C319.783 310.547 320.117 310.683 320.57 310.83C321.023 310.983 321.39 311.13 321.67 311.27C321.957 311.41 322.203 311.613 322.41 311.88C322.617 312.147 322.72 312.49 322.72 312.91C322.72 313.31 322.617 313.673 322.41 314C322.21 314.327 321.917 314.587 321.53 314.78C321.143 314.973 320.687 315.07 320.16 315.07ZM323.632 312.2C323.632 311.627 323.739 311.123 323.952 310.69C324.172 310.257 324.469 309.923 324.842 309.69C325.216 309.457 325.632 309.34 326.092 309.34C326.486 309.34 326.829 309.42 327.122 309.58C327.422 309.74 327.652 309.95 327.812 310.21V309.42H329.522V315H327.812V314.21C327.646 314.47 327.412 314.68 327.112 314.84C326.819 315 326.476 315.08 326.082 315.08C325.629 315.08 325.216 314.963 324.842 314.73C324.469 314.49 324.172 314.153 323.952 313.72C323.739 313.28 323.632 312.773 323.632 312.2ZM327.812 312.21C327.812 311.783 327.692 311.447 327.452 311.2C327.219 310.953 326.932 310.83 326.592 310.83C326.252 310.83 325.962 310.953 325.722 311.2C325.489 311.44 325.372 311.773 325.372 312.2C325.372 312.627 325.489 312.967 325.722 313.22C325.962 313.467 326.252 313.59 326.592 313.59C326.932 313.59 327.219 313.467 327.452 313.22C327.692 312.973 327.812 312.637 327.812 312.21ZM338.079 309.36C338.773 309.36 339.323 309.57 339.729 309.99C340.143 310.41 340.349 310.993 340.349 311.74V315H338.649V311.97C338.649 311.61 338.553 311.333 338.359 311.14C338.173 310.94 337.913 310.84 337.579 310.84C337.246 310.84 336.983 310.94 336.789 311.14C336.603 311.333 336.509 311.61 336.509 311.97V315H334.809V311.97C334.809 311.61 334.713 311.333 334.519 311.14C334.333 310.94 334.073 310.84 333.739 310.84C333.406 310.84 333.143 310.94 332.949 311.14C332.763 311.333 332.669 311.61 332.669 311.97V315H330.959V309.42H332.669V310.12C332.843 309.887 333.069 309.703 333.349 309.57C333.629 309.43 333.946 309.36 334.299 309.36C334.719 309.36 335.093 309.45 335.419 309.63C335.753 309.81 336.013 310.067 336.199 310.4C336.393 310.093 336.656 309.843 336.989 309.65C337.323 309.457 337.686 309.36 338.079 309.36ZM347.005 312.12C347.005 312.28 346.995 312.447 346.975 312.62H343.105C343.132 312.967 343.242 313.233 343.435 313.42C343.635 313.6 343.879 313.69 344.165 313.69C344.592 313.69 344.889 313.51 345.055 313.15H346.875C346.782 313.517 346.612 313.847 346.365 314.14C346.125 314.433 345.822 314.663 345.455 314.83C345.089 314.997 344.679 315.08 344.225 315.08C343.679 315.08 343.192 314.963 342.765 314.73C342.339 314.497 342.005 314.163 341.765 313.73C341.525 313.297 341.405 312.79 341.405 312.21C341.405 311.63 341.522 311.123 341.755 310.69C341.995 310.257 342.329 309.923 342.755 309.69C343.182 309.457 343.672 309.34 344.225 309.34C344.765 309.34 345.245 309.453 345.665 309.68C346.085 309.907 346.412 310.23 346.645 310.65C346.885 311.07 347.005 311.56 347.005 312.12ZM345.255 311.67C345.255 311.377 345.155 311.143 344.955 310.97C344.755 310.797 344.505 310.71 344.205 310.71C343.919 310.71 343.675 310.793 343.475 310.96C343.282 311.127 343.162 311.363 343.115 311.67H345.255ZM353.057 307.98C353.797 307.98 354.443 308.127 354.997 308.42C355.55 308.713 355.977 309.127 356.277 309.66C356.583 310.187 356.737 310.797 356.737 311.49C356.737 312.177 356.583 312.787 356.277 313.32C355.977 313.853 355.547 314.267 354.987 314.56C354.433 314.853 353.79 315 353.057 315H350.427V307.98H353.057ZM352.947 313.52C353.593 313.52 354.097 313.343 354.457 312.99C354.817 312.637 354.997 312.137 354.997 311.49C354.997 310.843 354.817 310.34 354.457 309.98C354.097 309.62 353.593 309.44 352.947 309.44H352.137V313.52H352.947ZM357.552 312.2C357.552 311.627 357.659 311.123 357.872 310.69C358.092 310.257 358.389 309.923 358.762 309.69C359.136 309.457 359.552 309.34 360.012 309.34C360.406 309.34 360.749 309.42 361.042 309.58C361.342 309.74 361.572 309.95 361.732 310.21V309.42H363.442V315H361.732V314.21C361.566 314.47 361.332 314.68 361.032 314.84C360.739 315 360.396 315.08 360.002 315.08C359.549 315.08 359.136 314.963 358.762 314.73C358.389 314.49 358.092 314.153 357.872 313.72C357.659 313.28 357.552 312.773 357.552 312.2ZM361.732 312.21C361.732 311.783 361.612 311.447 361.372 311.2C361.139 310.953 360.852 310.83 360.512 310.83C360.172 310.83 359.882 310.953 359.642 311.2C359.409 311.44 359.292 311.773 359.292 312.2C359.292 312.627 359.409 312.967 359.642 313.22C359.882 313.467 360.172 313.59 360.512 313.59C360.852 313.59 361.139 313.467 361.372 313.22C361.612 312.973 361.732 312.637 361.732 312.21ZM370.579 309.42L367.079 317.65H365.239L366.519 314.81L364.249 309.42H366.159L367.449 312.91L368.729 309.42H370.579ZM375.427 313.68H377.667V315H373.717V307.98H375.427V313.68ZM378.343 312.2C378.343 311.627 378.449 311.123 378.663 310.69C378.883 310.257 379.179 309.923 379.553 309.69C379.926 309.457 380.343 309.34 380.803 309.34C381.196 309.34 381.539 309.42 381.833 309.58C382.133 309.74 382.363 309.95 382.523 310.21V309.42H384.233V315H382.523V314.21C382.356 314.47 382.123 314.68 381.823 314.84C381.529 315 381.186 315.08 380.793 315.08C380.339 315.08 379.926 314.963 379.553 314.73C379.179 314.49 378.883 314.153 378.663 313.72C378.449 313.28 378.343 312.773 378.343 312.2ZM382.523 312.21C382.523 311.783 382.403 311.447 382.163 311.2C381.929 310.953 381.643 310.83 381.303 310.83C380.963 310.83 380.673 310.953 380.433 311.2C380.199 311.44 380.083 311.773 380.083 312.2C380.083 312.627 380.199 312.967 380.433 313.22C380.673 313.467 380.963 313.59 381.303 313.59C381.643 313.59 381.929 313.467 382.163 313.22C382.403 312.973 382.523 312.637 382.523 312.21ZM387.94 315.08C387.453 315.08 387.02 314.997 386.64 314.83C386.26 314.663 385.96 314.437 385.74 314.15C385.52 313.857 385.396 313.53 385.37 313.17H387.06C387.08 313.363 387.17 313.52 387.33 313.64C387.49 313.76 387.686 313.82 387.92 313.82C388.133 313.82 388.296 313.78 388.41 313.7C388.53 313.613 388.59 313.503 388.59 313.37C388.59 313.21 388.506 313.093 388.34 313.02C388.173 312.94 387.903 312.853 387.53 312.76C387.13 312.667 386.796 312.57 386.53 312.47C386.263 312.363 386.033 312.2 385.84 311.98C385.646 311.753 385.55 311.45 385.55 311.07C385.55 310.75 385.636 310.46 385.81 310.2C385.99 309.933 386.25 309.723 386.59 309.57C386.936 309.417 387.346 309.34 387.82 309.34C388.52 309.34 389.07 309.513 389.47 309.86C389.876 310.207 390.11 310.667 390.17 311.24H388.59C388.563 311.047 388.476 310.893 388.33 310.78C388.19 310.667 388.003 310.61 387.77 310.61C387.57 310.61 387.416 310.65 387.31 310.73C387.203 310.803 387.15 310.907 387.15 311.04C387.15 311.2 387.233 311.32 387.4 311.4C387.573 311.48 387.84 311.56 388.2 311.64C388.613 311.747 388.95 311.853 389.21 311.96C389.47 312.06 389.696 312.227 389.89 312.46C390.09 312.687 390.193 312.993 390.2 313.38C390.2 313.707 390.106 314 389.92 314.26C389.74 314.513 389.476 314.713 389.13 314.86C388.79 315.007 388.393 315.08 387.94 315.08ZM394.556 313.55V315H393.686C393.066 315 392.582 314.85 392.236 314.55C391.889 314.243 391.716 313.747 391.716 313.06V310.84H391.036V309.42H391.716V308.06H393.426V309.42H394.546V310.84H393.426V313.08C393.426 313.247 393.466 313.367 393.546 313.44C393.626 313.513 393.759 313.55 393.946 313.55H394.556ZM407.687 307.98L405.857 315H403.787L402.667 310.38L401.507 315H399.437L397.657 307.98H399.487L400.497 313.09L401.747 307.98H403.627L404.827 313.09L405.847 307.98H407.687ZM414.005 312.12C414.005 312.28 413.995 312.447 413.975 312.62H410.105C410.132 312.967 410.242 313.233 410.435 313.42C410.635 313.6 410.878 313.69 411.165 313.69C411.592 313.69 411.888 313.51 412.055 313.15H413.875C413.782 313.517 413.612 313.847 413.365 314.14C413.125 314.433 412.822 314.663 412.455 314.83C412.088 314.997 411.678 315.08 411.225 315.08C410.678 315.08 410.192 314.963 409.765 314.73C409.338 314.497 409.005 314.163 408.765 313.73C408.525 313.297 408.405 312.79 408.405 312.21C408.405 311.63 408.522 311.123 408.755 310.69C408.995 310.257 409.328 309.923 409.755 309.69C410.182 309.457 410.672 309.34 411.225 309.34C411.765 309.34 412.245 309.453 412.665 309.68C413.085 309.907 413.412 310.23 413.645 310.65C413.885 311.07 414.005 311.56 414.005 312.12ZM412.255 311.67C412.255 311.377 412.155 311.143 411.955 310.97C411.755 310.797 411.505 310.71 411.205 310.71C410.918 310.71 410.675 310.793 410.475 310.96C410.282 311.127 410.162 311.363 410.115 311.67H412.255ZM420.367 312.12C420.367 312.28 420.357 312.447 420.337 312.62H416.467C416.494 312.967 416.604 313.233 416.797 313.42C416.997 313.6 417.24 313.69 417.527 313.69C417.954 313.69 418.25 313.51 418.417 313.15H420.237C420.144 313.517 419.974 313.847 419.727 314.14C419.487 314.433 419.184 314.663 418.817 314.83C418.45 314.997 418.04 315.08 417.587 315.08C417.04 315.08 416.554 314.963 416.127 314.73C415.7 314.497 415.367 314.163 415.127 313.73C414.887 313.297 414.767 312.79 414.767 312.21C414.767 311.63 414.884 311.123 415.117 310.69C415.357 310.257 415.69 309.923 416.117 309.69C416.544 309.457 417.034 309.34 417.587 309.34C418.127 309.34 418.607 309.453 419.027 309.68C419.447 309.907 419.774 310.23 420.007 310.65C420.247 311.07 420.367 311.56 420.367 312.12ZM418.617 311.67C418.617 311.377 418.517 311.143 418.317 310.97C418.117 310.797 417.867 310.71 417.567 310.71C417.28 310.71 417.037 310.793 416.837 310.96C416.644 311.127 416.524 311.363 416.477 311.67H418.617ZM424.879 315L423.179 312.66V315H421.469V307.6H423.179V311.69L424.869 309.42H426.979L424.659 312.22L426.999 315H424.879Z" fill="#5A5A5F"/>
<circle cx="135" cy="312" r="6" fill="#71589F"/>
<circle cx="208" cy="312" r="6" fill="#E0712F"/>
<circle cx="303" cy="312" r="6" fill="#9A8053"/>
<defs>
<filter id="filter0_d_504_405" x="0" y="0" width="558" height="345" filterUnits="userSpaceOnUse" color-interpolation-filters="sRGB">
<feFlood flood-opacity="0" result="BackgroundImageFix"/>
<feColorMatrix in="SourceAlpha" type="matrix" values="0 0 0 0 0 0 0 0 0 0 0 0 0 0 0 0 0 0 127 0" result="hardAlpha"/>
<feOffset dy="2"/>
<feGaussianBlur stdDeviation="4"/>
<feComposite in2="hardAlpha" operator="out"/>
<feColorMatrix type="matrix" values="0 0 0 0 0 0 0 0 0 0 0 0 0 0 0 0 0 0 0.2 0"/>
<feBlend mode="normal" in2="BackgroundImageFix" result="effect1_dropShadow_504_405"/>
<feBlend mode="normal" in="SourceGraphic" in2="effect1_dropShadow_504_405" result="shape"/>
</filter>
<clipPath id="clip0_504_405">
<rect width="502" height="210" fill="white" transform="translate(28 82)"/>
</clipPath>
</defs>
</svg>
