<svg width="583" height="345" viewBox="0 0 583 345" fill="none" xmlns="http://www.w3.org/2000/svg">
<g filter="url(#filter0_d_504_371)">
<rect x="8" y="6" width="542" height="329" rx="4" fill="white"/>
</g>
<mask id="path-2-inside-1_504_371" fill="white">
<path d="M188 18H368V58H188V18Z"/>
</mask>
<path d="M188 18H368V58H188V18Z" fill="white"/>
<path d="M211.904 41.228H207.248L206.448 43.5H204.544L208.528 32.364H210.64L214.624 43.5H212.704L211.904 41.228ZM211.392 39.74L209.584 34.572L207.76 39.74H211.392ZM220.804 34.54C221.498 34.54 222.116 34.684 222.66 34.972C223.215 35.26 223.647 35.6867 223.956 36.252C224.266 36.8173 224.42 37.5 224.42 38.3V43.5H222.612V38.572C222.612 37.7827 222.415 37.18 222.02 36.764C221.626 36.3373 221.087 36.124 220.404 36.124C219.722 36.124 219.178 36.3373 218.772 36.764C218.378 37.18 218.18 37.7827 218.18 38.572V43.5H216.356V34.684H218.18V35.692C218.479 35.3293 218.858 35.0467 219.316 34.844C219.786 34.6413 220.282 34.54 220.804 34.54ZM231.195 34.54C231.888 34.54 232.507 34.684 233.051 34.972C233.606 35.26 234.038 35.6867 234.347 36.252C234.656 36.8173 234.811 37.5 234.811 38.3V43.5H233.003V38.572C233.003 37.7827 232.806 37.18 232.411 36.764C232.016 36.3373 231.478 36.124 230.795 36.124C230.112 36.124 229.568 36.3373 229.163 36.764C228.768 37.18 228.571 37.7827 228.571 38.572V43.5H226.747V34.684H228.571V35.692C228.87 35.3293 229.248 35.0467 229.707 34.844C230.176 34.6413 230.672 34.54 231.195 34.54ZM240.962 43.644C240.13 43.644 239.378 43.4573 238.706 43.084C238.034 42.7 237.506 42.1667 237.122 41.484C236.738 40.7907 236.546 39.9907 236.546 39.084C236.546 38.188 236.743 37.3933 237.138 36.7C237.532 36.0067 238.071 35.4733 238.754 35.1C239.436 34.7267 240.199 34.54 241.042 34.54C241.884 34.54 242.647 34.7267 243.33 35.1C244.012 35.4733 244.551 36.0067 244.946 36.7C245.34 37.3933 245.538 38.188 245.538 39.084C245.538 39.98 245.335 40.7747 244.93 41.468C244.524 42.1613 243.97 42.7 243.266 43.084C242.572 43.4573 241.804 43.644 240.962 43.644ZM240.962 42.06C241.431 42.06 241.868 41.948 242.274 41.724C242.69 41.5 243.026 41.164 243.282 40.716C243.538 40.268 243.666 39.724 243.666 39.084C243.666 38.444 243.543 37.9053 243.298 37.468C243.052 37.02 242.727 36.684 242.322 36.46C241.916 36.236 241.479 36.124 241.01 36.124C240.54 36.124 240.103 36.236 239.698 36.46C239.303 36.684 238.988 37.02 238.754 37.468C238.519 37.9053 238.402 38.444 238.402 39.084C238.402 40.0333 238.642 40.7693 239.122 41.292C239.612 41.804 240.226 42.06 240.962 42.06ZM255.325 34.684V43.5H253.501V42.46C253.213 42.8227 252.834 43.1107 252.365 43.324C251.906 43.5267 251.415 43.628 250.893 43.628C250.199 43.628 249.575 43.484 249.021 43.196C248.477 42.908 248.045 42.4813 247.725 41.916C247.415 41.3507 247.261 40.668 247.261 39.868V34.684H249.069V39.596C249.069 40.3853 249.266 40.9933 249.661 41.42C250.055 41.836 250.594 42.044 251.277 42.044C251.959 42.044 252.498 41.836 252.893 41.42C253.298 40.9933 253.501 40.3853 253.501 39.596V34.684H255.325ZM262.179 34.54C262.873 34.54 263.491 34.684 264.035 34.972C264.59 35.26 265.022 35.6867 265.331 36.252C265.641 36.8173 265.795 37.5 265.795 38.3V43.5H263.987V38.572C263.987 37.7827 263.79 37.18 263.395 36.764C263.001 36.3373 262.462 36.124 261.779 36.124C261.097 36.124 260.553 36.3373 260.147 36.764C259.753 37.18 259.555 37.7827 259.555 38.572V43.5H257.731V34.684H259.555V35.692C259.854 35.3293 260.233 35.0467 260.691 34.844C261.161 34.6413 261.657 34.54 262.179 34.54ZM267.514 39.084C267.514 38.1773 267.695 37.3827 268.058 36.7C268.431 36.0067 268.943 35.4733 269.594 35.1C270.245 34.7267 270.991 34.54 271.834 34.54C272.901 34.54 273.781 34.796 274.474 35.308C275.178 35.8093 275.653 36.5293 275.898 37.468H273.93C273.77 37.0307 273.514 36.6893 273.162 36.444C272.81 36.1987 272.367 36.076 271.834 36.076C271.087 36.076 270.49 36.3427 270.042 36.876C269.605 37.3987 269.386 38.1347 269.386 39.084C269.386 40.0333 269.605 40.7747 270.042 41.308C270.49 41.8413 271.087 42.108 271.834 42.108C272.89 42.108 273.589 41.644 273.93 40.716H275.898C275.642 41.612 275.162 42.3267 274.458 42.86C273.754 43.3827 272.879 43.644 271.834 43.644C270.991 43.644 270.245 43.4573 269.594 43.084C268.943 42.7 268.431 42.1667 268.058 41.484C267.695 40.7907 267.514 39.9907 267.514 39.084ZM285.796 38.876C285.796 39.2067 285.774 39.5053 285.732 39.772H278.996C279.049 40.476 279.31 41.0413 279.78 41.468C280.249 41.8947 280.825 42.108 281.508 42.108C282.489 42.108 283.182 41.6973 283.588 40.876H285.556C285.289 41.6867 284.804 42.3533 284.1 42.876C283.406 43.388 282.542 43.644 281.508 43.644C280.665 43.644 279.908 43.4573 279.236 43.084C278.574 42.7 278.052 42.1667 277.668 41.484C277.294 40.7907 277.108 39.9907 277.108 39.084C277.108 38.1773 277.289 37.3827 277.652 36.7C278.025 36.0067 278.542 35.4733 279.204 35.1C279.876 34.7267 280.644 34.54 281.508 34.54C282.34 34.54 283.081 34.7213 283.732 35.084C284.382 35.4467 284.889 35.9587 285.252 36.62C285.614 37.2707 285.796 38.0227 285.796 38.876ZM283.892 38.3C283.881 37.628 283.641 37.0893 283.172 36.684C282.702 36.2787 282.121 36.076 281.428 36.076C280.798 36.076 280.26 36.2787 279.812 36.684C279.364 37.0787 279.097 37.6173 279.012 38.3H283.892ZM286.983 39.052C286.983 38.1667 287.164 37.3827 287.527 36.7C287.9 36.0173 288.401 35.4893 289.031 35.116C289.671 34.732 290.38 34.54 291.159 34.54C291.735 34.54 292.3 34.668 292.855 34.924C293.42 35.1693 293.868 35.5 294.199 35.916V31.66H296.039V43.5H294.199V42.172C293.9 42.5987 293.484 42.9507 292.951 43.228C292.428 43.5053 291.825 43.644 291.143 43.644C290.375 43.644 289.671 43.452 289.031 43.068C288.401 42.6733 287.9 42.1293 287.527 41.436C287.164 40.732 286.983 39.9373 286.983 39.052ZM294.199 39.084C294.199 38.476 294.071 37.948 293.815 37.5C293.569 37.052 293.244 36.7107 292.839 36.476C292.433 36.2413 291.996 36.124 291.527 36.124C291.057 36.124 290.62 36.2413 290.215 36.476C289.809 36.7 289.479 37.036 289.223 37.484C288.977 37.9213 288.855 38.444 288.855 39.052C288.855 39.66 288.977 40.1933 289.223 40.652C289.479 41.1107 289.809 41.4627 290.215 41.708C290.631 41.9427 291.068 42.06 291.527 42.06C291.996 42.06 292.433 41.9427 292.839 41.708C293.244 41.4733 293.569 41.132 293.815 40.684C294.071 40.2253 294.199 39.692 294.199 39.084ZM309.775 32.38V33.868H306.815V43.5H304.991V33.868H302.015V32.38H309.775ZM315.446 43.644C314.614 43.644 313.862 43.4573 313.19 43.084C312.518 42.7 311.99 42.1667 311.606 41.484C311.222 40.7907 311.03 39.9907 311.03 39.084C311.03 38.188 311.227 37.3933 311.622 36.7C312.017 36.0067 312.555 35.4733 313.238 35.1C313.921 34.7267 314.683 34.54 315.526 34.54C316.369 34.54 317.131 34.7267 317.814 35.1C318.497 35.4733 319.035 36.0067 319.43 36.7C319.825 37.3933 320.022 38.188 320.022 39.084C320.022 39.98 319.819 40.7747 319.414 41.468C319.009 42.1613 318.454 42.7 317.75 43.084C317.057 43.4573 316.289 43.644 315.446 43.644ZM315.446 42.06C315.915 42.06 316.353 41.948 316.758 41.724C317.174 41.5 317.51 41.164 317.766 40.716C318.022 40.268 318.15 39.724 318.15 39.084C318.15 38.444 318.027 37.9053 317.782 37.468C317.537 37.02 317.211 36.684 316.806 36.46C316.401 36.236 315.963 36.124 315.494 36.124C315.025 36.124 314.587 36.236 314.182 36.46C313.787 36.684 313.473 37.02 313.238 37.468C313.003 37.9053 312.886 38.444 312.886 39.084C312.886 40.0333 313.126 40.7693 313.606 41.292C314.097 41.804 314.71 42.06 315.446 42.06ZM321.217 39.052C321.217 38.1667 321.398 37.3827 321.761 36.7C322.134 36.0173 322.636 35.4893 323.265 35.116C323.905 34.732 324.614 34.54 325.393 34.54C325.969 34.54 326.534 34.668 327.089 34.924C327.654 35.1693 328.102 35.5 328.433 35.916V31.66H330.273V43.5H328.433V42.172C328.134 42.5987 327.718 42.9507 327.185 43.228C326.662 43.5053 326.06 43.644 325.377 43.644C324.609 43.644 323.905 43.452 323.265 43.068C322.636 42.6733 322.134 42.1293 321.761 41.436C321.398 40.732 321.217 39.9373 321.217 39.052ZM328.433 39.084C328.433 38.476 328.305 37.948 328.049 37.5C327.804 37.052 327.478 36.7107 327.073 36.476C326.668 36.2413 326.23 36.124 325.761 36.124C325.292 36.124 324.854 36.2413 324.449 36.476C324.044 36.7 323.713 37.036 323.457 37.484C323.212 37.9213 323.089 38.444 323.089 39.052C323.089 39.66 323.212 40.1933 323.457 40.652C323.713 41.1107 324.044 41.4627 324.449 41.708C324.865 41.9427 325.302 42.06 325.761 42.06C326.23 42.06 326.668 41.9427 327.073 41.708C327.478 41.4733 327.804 41.132 328.049 40.684C328.305 40.2253 328.433 39.692 328.433 39.084ZM332.061 39.052C332.061 38.1667 332.242 37.3827 332.605 36.7C332.978 36.0173 333.479 35.4893 334.109 35.116C334.749 34.732 335.453 34.54 336.221 34.54C336.914 34.54 337.517 34.6787 338.029 34.956C338.551 35.2227 338.967 35.5587 339.277 35.964V34.684H341.117V43.5H339.277V42.188C338.967 42.604 338.546 42.9507 338.013 43.228C337.479 43.5053 336.871 43.644 336.189 43.644C335.431 43.644 334.738 43.452 334.109 43.068C333.479 42.6733 332.978 42.1293 332.605 41.436C332.242 40.732 332.061 39.9373 332.061 39.052ZM339.277 39.084C339.277 38.476 339.149 37.948 338.893 37.5C338.647 37.052 338.322 36.7107 337.917 36.476C337.511 36.2413 337.074 36.124 336.605 36.124C336.135 36.124 335.698 36.2413 335.293 36.476C334.887 36.7 334.557 37.036 334.301 37.484C334.055 37.9213 333.933 38.444 333.933 39.052C333.933 39.66 334.055 40.1933 334.301 40.652C334.557 41.1107 334.887 41.4627 335.293 41.708C335.709 41.9427 336.146 42.06 336.605 42.06C337.074 42.06 337.511 41.9427 337.917 41.708C338.322 41.4733 338.647 41.132 338.893 40.684C339.149 40.2253 339.277 39.692 339.277 39.084ZM351.449 34.684L346.041 47.644H344.153L345.945 43.356L342.473 34.684H344.505L346.985 41.404L349.561 34.684H351.449Z" fill="#004EDA"/>
<path d="M368 56H188V60H368V56Z" fill="#004EDA" mask="url(#path-2-inside-1_504_371)"/>
<path d="M438.303 47C443.576 47 447.851 42.9706 447.851 38C447.851 33.0294 443.576 29 438.303 29C433.029 29 428.755 33.0294 428.755 38C428.755 42.9706 433.029 47 438.303 47Z" stroke="#5A5A5F" stroke-width="2" stroke-miterlimit="10"/>
<path d="M434.324 38H442.281" stroke="#5A5A5F" stroke-width="2" stroke-linecap="round" stroke-linejoin="round"/>
<path d="M438.303 34.25V41.75" stroke="#5A5A5F" stroke-width="2" stroke-linecap="round" stroke-linejoin="round"/>
<path d="M480.738 47C486.011 47 490.286 42.9706 490.286 38C490.286 33.0294 486.011 29 480.738 29C475.465 29 471.19 33.0294 471.19 38C471.19 42.9706 475.465 47 480.738 47Z" stroke="#5A5A5F" stroke-width="2" stroke-miterlimit="10"/>
<path d="M476.76 38H484.716" stroke="#5A5A5F" stroke-width="2" stroke-linecap="round" stroke-linejoin="round"/>
<path d="M527.152 37.25V32.375C527.152 31.8777 527.362 31.4008 527.735 31.0492C528.108 30.6975 528.614 30.5 529.141 30.5C529.669 30.5 530.175 30.6975 530.548 31.0492C530.921 31.4008 531.131 31.8777 531.131 32.375V40.25C531.131 41.2349 530.925 42.2102 530.525 43.1201C530.125 44.0301 529.539 44.8569 528.8 45.5533C528.061 46.2497 527.184 46.8022 526.219 47.1791C525.253 47.556 524.219 47.75 523.174 47.75C518.778 47.75 516.809 45.5 513.566 39.0594C513.303 38.628 513.231 38.1155 513.368 37.6346C513.506 37.1538 513.84 36.744 514.297 36.4953C514.755 36.2467 515.299 36.1796 515.809 36.3088C516.319 36.438 516.754 36.753 517.017 37.1844L519.196 40.7469V30.875C519.196 30.3777 519.405 29.9008 519.778 29.5492C520.151 29.1975 520.657 29 521.185 29C521.712 29 522.218 29.1975 522.591 29.5492C522.964 29.9008 523.174 30.3777 523.174 30.875V37.25" stroke="#5A5A5F" stroke-width="2" stroke-linecap="round" stroke-linejoin="round"/>
<path d="M527.152 32.375V29.375C527.152 28.8777 526.942 28.4008 526.569 28.0492C526.196 27.6975 525.69 27.5 525.163 27.5C524.635 27.5 524.129 27.6975 523.756 28.0492C523.383 28.4008 523.173 28.8777 523.173 29.375V30.875" stroke="#5A5A5F" stroke-width="2" stroke-linecap="round" stroke-linejoin="round"/>
<path d="M399.845 30.5H403.824V34.25" stroke="#5A5A5F" stroke-width="2" stroke-linecap="round" stroke-linejoin="round"/>
<path d="M398.254 35.75L403.824 30.5" stroke="#5A5A5F" stroke-width="2" stroke-linecap="round" stroke-linejoin="round"/>
<path d="M391.889 45.5H387.91V41.75" stroke="#5A5A5F" stroke-width="2" stroke-linecap="round" stroke-linejoin="round"/>
<path d="M393.48 40.25L387.91 45.5" stroke="#5A5A5F" stroke-width="2" stroke-linecap="round" stroke-linejoin="round"/>
<path d="M403.824 41.75V45.5H399.845" stroke="#5A5A5F" stroke-width="2" stroke-linecap="round" stroke-linejoin="round"/>
<path d="M398.254 40.25L403.824 45.5" stroke="#5A5A5F" stroke-width="2" stroke-linecap="round" stroke-linejoin="round"/>
<path d="M387.91 34.25V30.5H391.889" stroke="#5A5A5F" stroke-width="2" stroke-linecap="round" stroke-linejoin="round"/>
<path d="M393.48 35.75L387.91 30.5" stroke="#5A5A5F" stroke-width="2" stroke-linecap="round" stroke-linejoin="round"/>
<g clip-path="url(#clip0_504_371)">
<path d="M50.3035 255.246H526.023" stroke="black"/>
<path d="M50.3035 261.546V255.246" stroke="black"/>
<path d="M50.3032 273.662C49.6611 273.662 49.1142 273.488 48.6625 273.138C48.2108 272.786 47.8657 272.276 47.627 271.608C47.3884 270.938 47.2691 270.128 47.2691 269.179C47.2691 268.236 47.3884 267.431 47.627 266.763C47.8685 266.093 48.2151 265.581 48.6668 265.229C49.1213 264.874 49.6668 264.696 50.3032 264.696C50.9395 264.696 51.4836 264.874 51.9353 265.229C52.3898 265.581 52.7364 266.093 52.975 266.763C53.2165 267.431 53.3373 268.236 53.3373 269.179C53.3373 270.128 53.2179 270.938 52.9793 271.608C52.7407 272.276 52.3955 272.786 51.9438 273.138C51.4921 273.488 50.9452 273.662 50.3032 273.662ZM50.3032 272.725C50.9395 272.725 51.4338 272.418 51.7861 271.804C52.1384 271.191 52.3145 270.316 52.3145 269.179C52.3145 268.424 52.2336 267.78 52.0716 267.249C51.9125 266.718 51.6824 266.313 51.3813 266.034C51.083 265.756 50.7236 265.617 50.3032 265.617C49.6725 265.617 49.1796 265.928 48.8245 266.55C48.4694 267.169 48.2918 268.046 48.2918 269.179C48.2918 269.935 48.3713 270.577 48.5304 271.105C48.6895 271.634 48.9182 272.036 49.2165 272.311C49.5177 272.587 49.8799 272.725 50.3032 272.725Z" fill="black"/>
<path d="M145.447 261.546V255.246" stroke="black"/>
<path d="M146.63 264.816V273.543H145.573V265.924H145.522L143.391 267.338V266.265L145.573 264.816H146.63Z" fill="black"/>
<path d="M240.591 261.546V255.246" stroke="black"/>
<path d="M237.862 273.543V272.776L240.742 269.623C241.08 269.253 241.359 268.932 241.578 268.659C241.796 268.384 241.958 268.125 242.063 267.884C242.171 267.64 242.225 267.384 242.225 267.117C242.225 266.81 242.151 266.544 242.004 266.32C241.859 266.096 241.66 265.922 241.407 265.8C241.154 265.678 240.87 265.617 240.555 265.617C240.22 265.617 239.927 265.686 239.677 265.826C239.43 265.962 239.238 266.154 239.102 266.401C238.968 266.648 238.901 266.938 238.901 267.27H237.896C237.896 266.759 238.014 266.31 238.249 265.924C238.485 265.537 238.806 265.236 239.212 265.02C239.622 264.804 240.08 264.696 240.589 264.696C241.1 264.696 241.553 264.804 241.948 265.02C242.343 265.236 242.653 265.527 242.877 265.894C243.102 266.26 243.214 266.668 243.214 267.117C243.214 267.438 243.156 267.752 243.039 268.059C242.926 268.363 242.727 268.702 242.443 269.077C242.161 269.449 241.771 269.904 241.271 270.441L239.31 272.537V272.605H243.367V273.543H237.862Z" fill="black"/>
<path d="M335.735 261.546V255.246" stroke="black"/>
<path d="M335.767 273.662C335.204 273.662 334.703 273.566 334.263 273.373C333.825 273.179 333.477 272.911 333.218 272.567C332.963 272.221 332.824 271.819 332.801 271.361H333.875C333.897 271.642 333.994 271.885 334.164 272.09C334.335 272.292 334.558 272.448 334.834 272.559C335.109 272.669 335.414 272.725 335.75 272.725C336.125 272.725 336.457 272.659 336.747 272.529C337.037 272.398 337.264 272.216 337.429 271.983C337.593 271.75 337.676 271.48 337.676 271.174C337.676 270.853 337.596 270.57 337.437 270.326C337.278 270.078 337.045 269.885 336.738 269.746C336.432 269.607 336.057 269.537 335.613 269.537H334.914V268.6H335.613C335.96 268.6 336.264 268.537 336.525 268.412C336.789 268.287 336.995 268.111 337.143 267.884C337.294 267.657 337.369 267.39 337.369 267.083C337.369 266.787 337.304 266.53 337.173 266.311C337.042 266.093 336.858 265.922 336.619 265.8C336.383 265.678 336.105 265.617 335.784 265.617C335.483 265.617 335.199 265.672 334.932 265.783C334.667 265.891 334.451 266.049 334.284 266.256C334.116 266.461 334.025 266.708 334.011 266.998H332.988C333.005 266.54 333.143 266.14 333.402 265.796C333.66 265.449 333.998 265.179 334.416 264.986C334.836 264.793 335.298 264.696 335.801 264.696C336.341 264.696 336.804 264.806 337.19 265.025C337.576 265.24 337.873 265.526 338.081 265.881C338.288 266.236 338.392 266.62 338.392 267.032C338.392 267.523 338.263 267.942 338.004 268.289C337.748 268.635 337.4 268.875 336.96 269.009V269.077C337.511 269.168 337.941 269.402 338.251 269.78C338.561 270.155 338.716 270.62 338.716 271.174C338.716 271.648 338.586 272.074 338.328 272.452C338.072 272.827 337.723 273.123 337.28 273.338C336.836 273.554 336.332 273.662 335.767 273.662Z" fill="black"/>
<path d="M430.88 261.546V255.246" stroke="black"/>
<path d="M427.729 271.753V270.884L431.564 264.816H432.195V266.162H431.768L428.871 270.748V270.816H434.035V271.753H427.729ZM431.837 273.543V271.489V271.084V264.816H432.842V273.543H431.837Z" fill="black"/>
<path d="M526.022 261.546V255.246" stroke="black"/>
<path d="M526.002 273.662C525.502 273.662 525.052 273.563 524.651 273.364C524.251 273.165 523.93 272.892 523.688 272.546C523.447 272.199 523.315 271.804 523.292 271.361H524.315C524.354 271.756 524.533 272.083 524.852 272.341C525.173 272.597 525.556 272.725 526.002 272.725C526.36 272.725 526.678 272.641 526.957 272.473C527.238 272.306 527.458 272.076 527.617 271.783C527.779 271.488 527.86 271.154 527.86 270.782C527.86 270.401 527.776 270.061 527.609 269.763C527.444 269.462 527.217 269.225 526.927 269.051C526.637 268.878 526.306 268.79 525.934 268.787C525.667 268.784 525.393 268.826 525.112 268.911C524.83 268.993 524.599 269.1 524.417 269.23L523.428 269.111L523.957 264.816H528.491V265.753H524.843L524.536 268.327H524.587C524.766 268.185 524.991 268.067 525.261 267.973C525.531 267.88 525.812 267.833 526.104 267.833C526.639 267.833 527.114 267.961 527.532 268.216C527.952 268.469 528.282 268.816 528.521 269.256C528.762 269.696 528.883 270.199 528.883 270.765C528.883 271.321 528.758 271.819 528.508 272.256C528.261 272.691 527.92 273.034 527.485 273.287C527.051 273.537 526.556 273.662 526.002 273.662Z" fill="black"/>
<path d="M50.3036 87.25V255.25" stroke="black"/>
<path d="M45.5302 255.254H50.3033" stroke="black"/>
<path d="M37.8025 254.772C37.1605 254.772 36.6136 254.597 36.1619 254.248C35.7102 253.895 35.365 253.385 35.1264 252.718C34.8877 252.047 34.7684 251.238 34.7684 250.289C34.7684 249.346 34.8877 248.54 35.1264 247.873C35.3678 247.202 35.7144 246.691 36.1661 246.338C36.6207 245.983 37.1661 245.806 37.8025 245.806C38.4389 245.806 38.9829 245.983 39.4346 246.338C39.8891 246.691 40.2357 247.202 40.4744 247.873C40.7158 248.54 40.8366 249.346 40.8366 250.289C40.8366 251.238 40.7173 252.047 40.4786 252.718C40.24 253.385 39.8948 253.895 39.4431 254.248C38.9914 254.597 38.4445 254.772 37.8025 254.772ZM37.8025 253.834C38.4389 253.834 38.9332 253.527 39.2855 252.914C39.6377 252.3 39.8139 251.425 39.8139 250.289C39.8139 249.533 39.7329 248.89 39.571 248.358C39.4119 247.827 39.1818 247.422 38.8806 247.144C38.5823 246.865 38.223 246.726 37.8025 246.726C37.1718 246.726 36.6789 247.037 36.3238 247.659C35.9687 248.279 35.7911 249.155 35.7911 250.289C35.7911 251.044 35.8707 251.686 36.0298 252.215C36.1889 252.743 36.4176 253.145 36.7158 253.421C37.017 253.696 37.3792 253.834 37.8025 253.834Z" fill="black"/>
<path d="M45.5302 213.25H50.3033" stroke="black"/>
<path d="M35.1903 212.648V211.881L38.071 208.728C38.409 208.359 38.6874 208.038 38.9062 207.765C39.1249 207.489 39.2869 207.231 39.392 206.989C39.4999 206.745 39.5539 206.489 39.5539 206.222C39.5539 205.915 39.4801 205.65 39.3323 205.425C39.1874 205.201 38.9886 205.028 38.7357 204.906C38.4829 204.783 38.1988 204.722 37.8835 204.722C37.5482 204.722 37.2556 204.792 37.0056 204.931C36.7585 205.067 36.5667 205.259 36.4303 205.506C36.2968 205.754 36.2301 206.043 36.2301 206.376H35.2244C35.2244 205.864 35.3423 205.415 35.5781 205.029C35.8139 204.643 36.1349 204.342 36.5411 204.126C36.9502 203.91 37.409 203.802 37.9176 203.802C38.4289 203.802 38.882 203.91 39.2769 204.126C39.6718 204.342 39.9815 204.633 40.2059 204.999C40.4303 205.366 40.5426 205.773 40.5426 206.222C40.5426 206.543 40.4843 206.857 40.3678 207.164C40.2542 207.468 40.0553 207.808 39.7712 208.183C39.49 208.555 39.0994 209.009 38.5994 209.546L36.6391 211.643V211.711H40.696V212.648H35.1903Z" fill="black"/>
<path d="M45.5302 171.254H50.3033" stroke="black"/>
<path d="M34.5521 168.863V167.993L38.3874 161.925H39.0181V163.272H38.5919L35.6942 167.857V167.925H40.859V168.863H34.5521ZM38.6601 170.652V168.598V168.194V161.925H39.6658V170.652H38.6601Z" fill="black"/>
<path d="M45.5302 129.254H50.3033" stroke="black"/>
<path d="M37.8654 128.772C37.5074 128.766 37.1494 128.698 36.7915 128.567C36.4335 128.436 36.1068 128.216 35.8114 127.907C35.5159 127.594 35.2787 127.172 35.0997 126.641C34.9207 126.107 34.8313 125.436 34.8313 124.63C34.8313 123.857 34.9037 123.172 35.0486 122.576C35.1935 121.976 35.4037 121.472 35.6793 121.063C35.9548 120.651 36.2872 120.338 36.6764 120.125C37.0685 119.912 37.5102 119.806 38.0017 119.806C38.4904 119.806 38.925 119.904 39.3057 120.1C39.6892 120.293 40.0017 120.563 40.2432 120.909C40.4847 121.256 40.6409 121.655 40.7119 122.107H39.6722C39.5756 121.715 39.3881 121.39 39.1097 121.131C38.8313 120.873 38.4619 120.743 38.0017 120.743C37.3256 120.743 36.7929 121.037 36.4037 121.625C36.0173 122.213 35.8227 123.039 35.8199 124.101H35.8881C36.0472 123.86 36.2361 123.654 36.4548 123.483C36.6764 123.31 36.9207 123.176 37.1878 123.083C37.4548 122.989 37.7375 122.942 38.0358 122.942C38.5358 122.942 38.9932 123.067 39.408 123.317C39.8227 123.564 40.1551 123.907 40.4051 124.344C40.6551 124.779 40.7801 125.277 40.7801 125.84C40.7801 126.38 40.6594 126.874 40.4179 127.323C40.1764 127.769 39.8369 128.124 39.3994 128.388C38.9648 128.65 38.4534 128.777 37.8654 128.772ZM37.8654 127.834C38.2233 127.834 38.5443 127.745 38.8284 127.566C39.1154 127.387 39.3412 127.147 39.506 126.846C39.6736 126.544 39.7574 126.209 39.7574 125.84C39.7574 125.479 39.6764 125.151 39.5145 124.855C39.3554 124.557 39.1352 124.32 38.854 124.144C38.5756 123.968 38.2574 123.88 37.8994 123.88C37.6296 123.88 37.3781 123.934 37.1452 124.042C36.9122 124.147 36.7077 124.292 36.5315 124.476C36.3582 124.661 36.2219 124.873 36.1225 125.111C36.023 125.347 35.9733 125.596 35.9733 125.857C35.9733 126.203 36.0543 126.527 36.2162 126.828C36.381 127.13 36.6054 127.373 36.8895 127.557C37.1764 127.742 37.5017 127.834 37.8654 127.834Z" fill="black"/>
<path d="M45.5302 87.25H50.3033" stroke="black"/>
<path d="M37.8568 91.1779C37.2716 91.1779 36.7546 91.0742 36.3057 90.8668C35.8597 90.6566 35.5117 90.3683 35.2617 90.0018C35.0117 89.6325 34.8881 89.212 34.8909 88.7404C34.8881 88.3711 34.9605 88.0302 35.1082 87.7177C35.256 87.4023 35.4577 87.1396 35.7134 86.9293C35.9719 86.7163 36.2602 86.5813 36.5784 86.5245V86.4734C36.1608 86.3654 35.8284 86.131 35.5813 85.7702C35.3341 85.4066 35.2119 84.9933 35.2148 84.5302C35.2119 84.087 35.3242 83.6907 35.5514 83.3413C35.7787 82.9918 36.0912 82.7163 36.4889 82.5146C36.8895 82.3129 37.3455 82.212 37.8568 82.212C38.3625 82.212 38.8142 82.3129 39.2119 82.5146C39.6097 82.7163 39.9222 82.9918 40.1494 83.3413C40.3796 83.6907 40.496 84.087 40.4989 84.5302C40.496 84.9933 40.3696 85.4066 40.1196 85.7702C39.8725 86.131 39.5443 86.3654 39.1352 86.4734V86.5245C39.4506 86.5813 39.7347 86.7163 39.9875 86.9293C40.2404 87.1396 40.4421 87.4023 40.5926 87.7177C40.7432 88.0302 40.8199 88.3711 40.8227 88.7404C40.8199 89.212 40.6921 89.6325 40.4392 90.0018C40.1892 90.3683 39.8412 90.6566 39.3952 90.8668C38.952 91.0742 38.4392 91.1779 37.8568 91.1779ZM37.8568 90.2404C38.2517 90.2404 38.5926 90.1765 38.8796 90.0487C39.1665 89.9208 39.3881 89.7404 39.5443 89.5075C39.7006 89.2745 39.7801 89.0018 39.783 88.6893C39.7801 88.3597 39.6949 88.0685 39.5273 87.8157C39.3597 87.5629 39.131 87.364 38.8412 87.2191C38.5543 87.0742 38.2261 87.0018 37.8568 87.0018C37.4847 87.0018 37.1523 87.0742 36.8597 87.2191C36.5699 87.364 36.3412 87.5629 36.1736 87.8157C36.0088 88.0685 35.9279 88.3597 35.9307 88.6893C35.9279 89.0018 36.0031 89.2745 36.1565 89.5075C36.3128 89.7404 36.5358 89.9208 36.8256 90.0487C37.1154 90.1765 37.4591 90.2404 37.8568 90.2404ZM37.8568 86.0984C38.1693 86.0984 38.4463 86.0359 38.6878 85.9109C38.9321 85.7859 39.1239 85.6112 39.2631 85.3867C39.4023 85.1623 39.4733 84.8995 39.4761 84.5984C39.4733 84.3029 39.4037 84.0458 39.2673 83.8271C39.131 83.6055 38.9421 83.435 38.7006 83.3157C38.4591 83.1935 38.1779 83.1325 37.8568 83.1325C37.5301 83.1325 37.2446 83.1935 37.0003 83.3157C36.756 83.435 36.5671 83.6055 36.4335 83.8271C36.3 84.0458 36.2347 84.3029 36.2375 84.5984C36.2347 84.8995 36.3014 85.1623 36.4378 85.3867C36.577 85.6112 36.7688 85.7859 37.0131 85.9109C37.2574 86.0359 37.5386 86.0984 37.8568 86.0984Z" fill="black"/>
<path d="M50.3027 255.254H526.022" stroke="#CCCCCC"/>
<path d="M50.3027 213.25H526.022" stroke="#CCCCCC"/>
<path d="M50.3027 171.25H526.022" stroke="#CCCCCC"/>
<path d="M50.3027 129.246H526.022" stroke="#CCCCCC"/>
<path d="M50.3027 87.25H526.022" stroke="#CCCCCC"/>
<path d="M50.3027 87.25V255.25" stroke="#CCCCCC"/>
<path d="M145.447 87.25V255.25" stroke="#CCCCCC"/>
<path d="M240.591 87.25V255.25" stroke="#CCCCCC"/>
<path d="M335.734 87.25V255.25" stroke="#CCCCCC"/>
<path d="M430.879 87.25V255.25" stroke="#CCCCCC"/>
<path d="M526.021 87.25V255.25" stroke="#CCCCCC"/>
<path d="M50.3027 108.25L145.447 171.25L240.591 213.25L335.734 234.25L430.878 108.25L526.022 171.25" stroke="#71589F"/>
<path d="M50.3026 111.398C51.6206 111.398 52.6891 109.987 52.6891 108.248C52.6891 106.508 51.6206 105.098 50.3026 105.098C48.9845 105.098 47.916 106.508 47.916 108.248C47.916 109.987 48.9845 111.398 50.3026 111.398Z" fill="white" stroke="#71589F"/>
<path d="M145.446 174.402C146.764 174.402 147.833 172.991 147.833 171.252C147.833 169.512 146.764 168.102 145.446 168.102C144.128 168.102 143.06 169.512 143.06 171.252C143.06 172.991 144.128 174.402 145.446 174.402Z" fill="white" stroke="#71589F"/>
<path d="M240.59 216.398C241.908 216.398 242.977 214.987 242.977 213.248C242.977 211.508 241.908 210.098 240.59 210.098C239.272 210.098 238.204 211.508 238.204 213.248C238.204 214.987 239.272 216.398 240.59 216.398Z" fill="white" stroke="#71589F"/>
<path d="M335.734 237.398C337.052 237.398 338.121 235.987 338.121 234.248C338.121 232.508 337.052 231.098 335.734 231.098C334.416 231.098 333.348 232.508 333.348 234.248C333.348 235.987 334.416 237.398 335.734 237.398Z" fill="white" stroke="#71589F"/>
<path d="M430.879 111.398C432.197 111.398 433.265 109.987 433.265 108.248C433.265 106.508 432.197 105.098 430.879 105.098C429.561 105.098 428.492 106.508 428.492 108.248C428.492 109.987 429.561 111.398 430.879 111.398Z" fill="white" stroke="#71589F"/>
<path d="M526.021 174.402C527.339 174.402 528.408 172.991 528.408 171.252C528.408 169.512 527.339 168.102 526.021 168.102C524.703 168.102 523.635 169.512 523.635 171.252C523.635 172.991 524.703 174.402 526.021 174.402Z" fill="white" stroke="#71589F"/>
<path d="M50.3027 150.25L145.447 108.25H240.591L335.734 192.25L430.878 129.25L526.022 171.25" stroke="#9A8053"/>
<path d="M50.3026 153.394C51.6206 153.394 52.6891 151.983 52.6891 150.244C52.6891 148.504 51.6206 147.094 50.3026 147.094C48.9845 147.094 47.916 148.504 47.916 150.244C47.916 151.983 48.9845 153.394 50.3026 153.394Z" fill="white" stroke="#9A8053"/>
<path d="M145.446 111.398C146.764 111.398 147.833 109.987 147.833 108.248C147.833 106.508 146.764 105.098 145.446 105.098C144.128 105.098 143.059 106.508 143.059 108.248C143.059 109.987 144.128 111.398 145.446 111.398Z" fill="white" stroke="#9A8053"/>
<path d="M240.59 111.398C241.908 111.398 242.977 109.987 242.977 108.248C242.977 106.508 241.908 105.098 240.59 105.098C239.272 105.098 238.204 106.508 238.204 108.248C238.204 109.987 239.272 111.398 240.59 111.398Z" fill="white" stroke="#9A8053"/>
<path d="M335.734 195.398C337.052 195.398 338.121 193.987 338.121 192.248C338.121 190.508 337.052 189.098 335.734 189.098C334.416 189.098 333.348 190.508 333.348 192.248C333.348 193.987 334.416 195.398 335.734 195.398Z" fill="white" stroke="#9A8053"/>
<path d="M430.879 132.398C432.197 132.398 433.265 130.987 433.265 129.248C433.265 127.508 432.197 126.098 430.879 126.098C429.561 126.098 428.492 127.508 428.492 129.248C428.492 130.987 429.561 132.398 430.879 132.398Z" fill="white" stroke="#9A8053"/>
<path d="M526.021 174.402C527.339 174.402 528.408 172.991 528.408 171.252C528.408 169.512 527.339 168.102 526.021 168.102C524.703 168.102 523.635 169.512 523.635 171.252C523.635 172.991 524.703 174.402 526.021 174.402Z" fill="white" stroke="#9A8053"/>
<path d="M50.3027 213.25L145.447 129.25L240.591 150.25L335.734 108.25L430.878 192.25L526.022 108.25" stroke="#E0712F"/>
<path d="M50.3026 216.398C51.6206 216.398 52.6891 214.987 52.6891 213.248C52.6891 211.508 51.6206 210.098 50.3026 210.098C48.9845 210.098 47.916 211.508 47.916 213.248C47.916 214.987 48.9845 216.398 50.3026 216.398Z" fill="white" stroke="#E0712F"/>
<path d="M145.446 132.398C146.764 132.398 147.833 130.987 147.833 129.248C147.833 127.508 146.764 126.098 145.446 126.098C144.128 126.098 143.06 127.508 143.06 129.248C143.06 130.987 144.128 132.398 145.446 132.398Z" fill="white" stroke="#E0712F"/>
<path d="M240.591 153.394C241.909 153.394 242.977 151.983 242.977 150.244C242.977 148.504 241.909 147.094 240.591 147.094C239.273 147.094 238.204 148.504 238.204 150.244C238.204 151.983 239.273 153.394 240.591 153.394Z" fill="white" stroke="#E0712F"/>
<path d="M335.734 111.398C337.052 111.398 338.121 109.987 338.121 108.248C338.121 106.508 337.052 105.098 335.734 105.098C334.416 105.098 333.348 106.508 333.348 108.248C333.348 109.987 334.416 111.398 335.734 111.398Z" fill="white" stroke="#E0712F"/>
<path d="M430.879 195.398C432.197 195.398 433.265 193.987 433.265 192.248C433.265 190.508 432.197 189.098 430.879 189.098C429.561 189.098 428.492 190.508 428.492 192.248C428.492 193.987 429.561 195.398 430.879 195.398Z" fill="white" stroke="#E0712F"/>
<path d="M526.021 111.398C527.339 111.398 528.408 109.987 528.408 108.248C528.408 106.508 527.339 105.098 526.021 105.098C524.703 105.098 523.635 106.508 523.635 108.248C523.635 109.987 524.703 111.398 526.021 111.398Z" fill="white" stroke="#E0712F"/>
</g>
<path d="M163.255 307.98V309.35H161.395V315H159.685V309.35H157.825V307.98H163.255ZM166.853 315.08C166.306 315.08 165.813 314.963 165.373 314.73C164.94 314.497 164.596 314.163 164.343 313.73C164.096 313.297 163.973 312.79 163.973 312.21C163.973 311.637 164.1 311.133 164.353 310.7C164.606 310.26 164.953 309.923 165.393 309.69C165.833 309.457 166.326 309.34 166.873 309.34C167.42 309.34 167.913 309.457 168.353 309.69C168.793 309.923 169.14 310.26 169.393 310.7C169.646 311.133 169.773 311.637 169.773 312.21C169.773 312.783 169.643 313.29 169.383 313.73C169.13 314.163 168.78 314.497 168.333 314.73C167.893 314.963 167.4 315.08 166.853 315.08ZM166.853 313.6C167.18 313.6 167.456 313.48 167.683 313.24C167.916 313 168.033 312.657 168.033 312.21C168.033 311.763 167.92 311.42 167.693 311.18C167.473 310.94 167.2 310.82 166.873 310.82C166.54 310.82 166.263 310.94 166.043 311.18C165.823 311.413 165.713 311.757 165.713 312.21C165.713 312.657 165.82 313 166.033 313.24C166.253 313.48 166.526 313.6 166.853 313.6ZM170.54 312.2C170.54 311.627 170.647 311.123 170.86 310.69C171.08 310.257 171.377 309.923 171.75 309.69C172.124 309.457 172.54 309.34 173 309.34C173.367 309.34 173.7 309.417 174 309.57C174.307 309.723 174.547 309.93 174.72 310.19V307.6H176.43V315H174.72V314.2C174.56 314.467 174.33 314.68 174.03 314.84C173.737 315 173.394 315.08 173 315.08C172.54 315.08 172.124 314.963 171.75 314.73C171.377 314.49 171.08 314.153 170.86 313.72C170.647 313.28 170.54 312.773 170.54 312.2ZM174.72 312.21C174.72 311.783 174.6 311.447 174.36 311.2C174.127 310.953 173.84 310.83 173.5 310.83C173.16 310.83 172.87 310.953 172.63 311.2C172.397 311.44 172.28 311.773 172.28 312.2C172.28 312.627 172.397 312.967 172.63 313.22C172.87 313.467 173.16 313.59 173.5 313.59C173.84 313.59 174.127 313.467 174.36 313.22C174.6 312.973 174.72 312.637 174.72 312.21ZM177.527 312.2C177.527 311.627 177.634 311.123 177.847 310.69C178.067 310.257 178.364 309.923 178.737 309.69C179.111 309.457 179.527 309.34 179.987 309.34C180.381 309.34 180.724 309.42 181.017 309.58C181.317 309.74 181.547 309.95 181.707 310.21V309.42H183.417V315H181.707V314.21C181.541 314.47 181.307 314.68 181.007 314.84C180.714 315 180.371 315.08 179.977 315.08C179.524 315.08 179.111 314.963 178.737 314.73C178.364 314.49 178.067 314.153 177.847 313.72C177.634 313.28 177.527 312.773 177.527 312.2ZM181.707 312.21C181.707 311.783 181.587 311.447 181.347 311.2C181.114 310.953 180.827 310.83 180.487 310.83C180.147 310.83 179.857 310.953 179.617 311.2C179.384 311.44 179.267 311.773 179.267 312.2C179.267 312.627 179.384 312.967 179.617 313.22C179.857 313.467 180.147 313.59 180.487 313.59C180.827 313.59 181.114 313.467 181.347 313.22C181.587 312.973 181.707 312.637 181.707 312.21ZM190.554 309.42L187.054 317.65H185.214L186.494 314.81L184.224 309.42H186.134L187.424 312.91L188.704 309.42H190.554Z" fill="#5A5A5F"/>
<path d="M240.7 307.98V309.35H238.84V315H237.13V309.35H235.27V307.98H240.7ZM244.298 315.08C243.751 315.08 243.258 314.963 242.818 314.73C242.384 314.497 242.041 314.163 241.788 313.73C241.541 313.297 241.418 312.79 241.418 312.21C241.418 311.637 241.544 311.133 241.798 310.7C242.051 310.26 242.398 309.923 242.838 309.69C243.278 309.457 243.771 309.34 244.318 309.34C244.864 309.34 245.358 309.457 245.798 309.69C246.238 309.923 246.584 310.26 246.838 310.7C247.091 311.133 247.218 311.637 247.218 312.21C247.218 312.783 247.088 313.29 246.828 313.73C246.574 314.163 246.224 314.497 245.778 314.73C245.338 314.963 244.844 315.08 244.298 315.08ZM244.298 313.6C244.624 313.6 244.901 313.48 245.128 313.24C245.361 313 245.478 312.657 245.478 312.21C245.478 311.763 245.364 311.42 245.138 311.18C244.918 310.94 244.644 310.82 244.318 310.82C243.984 310.82 243.708 310.94 243.488 311.18C243.268 311.413 243.158 311.757 243.158 312.21C243.158 312.657 243.264 313 243.478 313.24C243.698 313.48 243.971 313.6 244.298 313.6ZM255.445 309.36C256.138 309.36 256.688 309.57 257.095 309.99C257.508 310.41 257.715 310.993 257.715 311.74V315H256.015V311.97C256.015 311.61 255.918 311.333 255.725 311.14C255.538 310.94 255.278 310.84 254.945 310.84C254.612 310.84 254.348 310.94 254.155 311.14C253.968 311.333 253.875 311.61 253.875 311.97V315H252.175V311.97C252.175 311.61 252.078 311.333 251.885 311.14C251.698 310.94 251.438 310.84 251.105 310.84C250.772 310.84 250.508 310.94 250.315 311.14C250.128 311.333 250.035 311.61 250.035 311.97V315H248.325V309.42H250.035V310.12C250.208 309.887 250.435 309.703 250.715 309.57C250.995 309.43 251.312 309.36 251.665 309.36C252.085 309.36 252.458 309.45 252.785 309.63C253.118 309.81 253.378 310.067 253.565 310.4C253.758 310.093 254.022 309.843 254.355 309.65C254.688 309.457 255.052 309.36 255.445 309.36ZM261.651 315.08C261.104 315.08 260.611 314.963 260.171 314.73C259.738 314.497 259.394 314.163 259.141 313.73C258.894 313.297 258.771 312.79 258.771 312.21C258.771 311.637 258.898 311.133 259.151 310.7C259.404 310.26 259.751 309.923 260.191 309.69C260.631 309.457 261.124 309.34 261.671 309.34C262.218 309.34 262.711 309.457 263.151 309.69C263.591 309.923 263.938 310.26 264.191 310.7C264.444 311.133 264.571 311.637 264.571 312.21C264.571 312.783 264.441 313.29 264.181 313.73C263.928 314.163 263.578 314.497 263.131 314.73C262.691 314.963 262.198 315.08 261.651 315.08ZM261.651 313.6C261.978 313.6 262.254 313.48 262.481 313.24C262.714 313 262.831 312.657 262.831 312.21C262.831 311.763 262.718 311.42 262.491 311.18C262.271 310.94 261.998 310.82 261.671 310.82C261.338 310.82 261.061 310.94 260.841 311.18C260.621 311.413 260.511 311.757 260.511 312.21C260.511 312.657 260.618 313 260.831 313.24C261.051 313.48 261.324 313.6 261.651 313.6ZM267.388 310.35C267.588 310.043 267.838 309.803 268.138 309.63C268.438 309.45 268.771 309.36 269.138 309.36V311.17H268.668C268.241 311.17 267.921 311.263 267.708 311.45C267.495 311.63 267.388 311.95 267.388 312.41V315H265.678V309.42H267.388V310.35ZM271.865 310.35C272.065 310.043 272.315 309.803 272.615 309.63C272.915 309.45 273.249 309.36 273.615 309.36V311.17H273.145C272.719 311.17 272.399 311.263 272.185 311.45C271.972 311.63 271.865 311.95 271.865 312.41V315H270.155V309.42H271.865V310.35ZM277.173 315.08C276.626 315.08 276.133 314.963 275.693 314.73C275.259 314.497 274.916 314.163 274.663 313.73C274.416 313.297 274.293 312.79 274.293 312.21C274.293 311.637 274.419 311.133 274.673 310.7C274.926 310.26 275.273 309.923 275.713 309.69C276.153 309.457 276.646 309.34 277.193 309.34C277.739 309.34 278.233 309.457 278.673 309.69C279.113 309.923 279.459 310.26 279.713 310.7C279.966 311.133 280.093 311.637 280.093 312.21C280.093 312.783 279.963 313.29 279.703 313.73C279.449 314.163 279.099 314.497 278.653 314.73C278.213 314.963 277.719 315.08 277.173 315.08ZM277.173 313.6C277.499 313.6 277.776 313.48 278.003 313.24C278.236 313 278.353 312.657 278.353 312.21C278.353 311.763 278.239 311.42 278.013 311.18C277.793 310.94 277.519 310.82 277.193 310.82C276.859 310.82 276.583 310.94 276.363 311.18C276.143 311.413 276.033 311.757 276.033 312.21C276.033 312.657 276.139 313 276.353 313.24C276.573 313.48 276.846 313.6 277.173 313.6ZM289.21 309.42L287.7 315H285.81L284.93 311.38L284.02 315H282.14L280.62 309.42H282.33L283.12 313.41L284.06 309.42H285.87L286.82 313.39L287.6 309.42H289.21Z" fill="#5A5A5F"/>
<path d="M338.974 315.07C338.46 315.07 338 314.987 337.594 314.82C337.187 314.653 336.86 314.407 336.614 314.08C336.374 313.753 336.247 313.36 336.234 312.9H338.054C338.08 313.16 338.17 313.36 338.324 313.5C338.477 313.633 338.677 313.7 338.924 313.7C339.177 313.7 339.377 313.643 339.524 313.53C339.67 313.41 339.744 313.247 339.744 313.04C339.744 312.867 339.684 312.723 339.564 312.61C339.45 312.497 339.307 312.403 339.134 312.33C338.967 312.257 338.727 312.173 338.414 312.08C337.96 311.94 337.59 311.8 337.304 311.66C337.017 311.52 336.77 311.313 336.564 311.04C336.357 310.767 336.254 310.41 336.254 309.97C336.254 309.317 336.49 308.807 336.964 308.44C337.437 308.067 338.054 307.88 338.814 307.88C339.587 307.88 340.21 308.067 340.684 308.44C341.157 308.807 341.41 309.32 341.444 309.98H339.594C339.58 309.753 339.497 309.577 339.344 309.45C339.19 309.317 338.994 309.25 338.754 309.25C338.547 309.25 338.38 309.307 338.254 309.42C338.127 309.527 338.064 309.683 338.064 309.89C338.064 310.117 338.17 310.293 338.384 310.42C338.597 310.547 338.93 310.683 339.384 310.83C339.837 310.983 340.204 311.13 340.484 311.27C340.77 311.41 341.017 311.613 341.224 311.88C341.43 312.147 341.534 312.49 341.534 312.91C341.534 313.31 341.43 313.673 341.224 314C341.024 314.327 340.73 314.587 340.344 314.78C339.957 314.973 339.5 315.07 338.974 315.07ZM342.446 312.2C342.446 311.627 342.553 311.123 342.766 310.69C342.986 310.257 343.283 309.923 343.656 309.69C344.029 309.457 344.446 309.34 344.906 309.34C345.299 309.34 345.643 309.42 345.936 309.58C346.236 309.74 346.466 309.95 346.626 310.21V309.42H348.336V315H346.626V314.21C346.459 314.47 346.226 314.68 345.926 314.84C345.633 315 345.289 315.08 344.896 315.08C344.443 315.08 344.029 314.963 343.656 314.73C343.283 314.49 342.986 314.153 342.766 313.72C342.553 313.28 342.446 312.773 342.446 312.2ZM346.626 312.21C346.626 311.783 346.506 311.447 346.266 311.2C346.033 310.953 345.746 310.83 345.406 310.83C345.066 310.83 344.776 310.953 344.536 311.2C344.303 311.44 344.186 311.773 344.186 312.2C344.186 312.627 344.303 312.967 344.536 313.22C344.776 313.467 345.066 313.59 345.406 313.59C345.746 313.59 346.033 313.467 346.266 313.22C346.506 312.973 346.626 312.637 346.626 312.21ZM356.893 309.36C357.587 309.36 358.137 309.57 358.543 309.99C358.957 310.41 359.163 310.993 359.163 311.74V315H357.463V311.97C357.463 311.61 357.367 311.333 357.173 311.14C356.987 310.94 356.727 310.84 356.393 310.84C356.06 310.84 355.797 310.94 355.603 311.14C355.417 311.333 355.323 311.61 355.323 311.97V315H353.623V311.97C353.623 311.61 353.527 311.333 353.333 311.14C353.147 310.94 352.887 310.84 352.553 310.84C352.22 310.84 351.957 310.94 351.763 311.14C351.577 311.333 351.483 311.61 351.483 311.97V315H349.773V309.42H351.483V310.12C351.657 309.887 351.883 309.703 352.163 309.57C352.443 309.43 352.76 309.36 353.113 309.36C353.533 309.36 353.907 309.45 354.233 309.63C354.567 309.81 354.827 310.067 355.013 310.4C355.207 310.093 355.47 309.843 355.803 309.65C356.137 309.457 356.5 309.36 356.893 309.36ZM365.819 312.12C365.819 312.28 365.809 312.447 365.789 312.62H361.919C361.946 312.967 362.056 313.233 362.249 313.42C362.449 313.6 362.692 313.69 362.979 313.69C363.406 313.69 363.702 313.51 363.869 313.15H365.689C365.596 313.517 365.426 313.847 365.179 314.14C364.939 314.433 364.636 314.663 364.269 314.83C363.902 314.997 363.492 315.08 363.039 315.08C362.492 315.08 362.006 314.963 361.579 314.73C361.152 314.497 360.819 314.163 360.579 313.73C360.339 313.297 360.219 312.79 360.219 312.21C360.219 311.63 360.336 311.123 360.569 310.69C360.809 310.257 361.142 309.923 361.569 309.69C361.996 309.457 362.486 309.34 363.039 309.34C363.579 309.34 364.059 309.453 364.479 309.68C364.899 309.907 365.226 310.23 365.459 310.65C365.699 311.07 365.819 311.56 365.819 312.12ZM364.069 311.67C364.069 311.377 363.969 311.143 363.769 310.97C363.569 310.797 363.319 310.71 363.019 310.71C362.732 310.71 362.489 310.793 362.289 310.96C362.096 311.127 361.976 311.363 361.929 311.67H364.069ZM371.87 307.98C372.61 307.98 373.257 308.127 373.81 308.42C374.364 308.713 374.79 309.127 375.09 309.66C375.397 310.187 375.55 310.797 375.55 311.49C375.55 312.177 375.397 312.787 375.09 313.32C374.79 313.853 374.36 314.267 373.8 314.56C373.247 314.853 372.604 315 371.87 315H369.24V307.98H371.87ZM371.76 313.52C372.407 313.52 372.91 313.343 373.27 312.99C373.63 312.637 373.81 312.137 373.81 311.49C373.81 310.843 373.63 310.34 373.27 309.98C372.91 309.62 372.407 309.44 371.76 309.44H370.95V313.52H371.76ZM376.366 312.2C376.366 311.627 376.473 311.123 376.686 310.69C376.906 310.257 377.203 309.923 377.576 309.69C377.949 309.457 378.366 309.34 378.826 309.34C379.219 309.34 379.563 309.42 379.856 309.58C380.156 309.74 380.386 309.95 380.546 310.21V309.42H382.256V315H380.546V314.21C380.379 314.47 380.146 314.68 379.846 314.84C379.553 315 379.209 315.08 378.816 315.08C378.363 315.08 377.949 314.963 377.576 314.73C377.203 314.49 376.906 314.153 376.686 313.72C376.473 313.28 376.366 312.773 376.366 312.2ZM380.546 312.21C380.546 311.783 380.426 311.447 380.186 311.2C379.953 310.953 379.666 310.83 379.326 310.83C378.986 310.83 378.696 310.953 378.456 311.2C378.223 311.44 378.106 311.773 378.106 312.2C378.106 312.627 378.223 312.967 378.456 313.22C378.696 313.467 378.986 313.59 379.326 313.59C379.666 313.59 379.953 313.467 380.186 313.22C380.426 312.973 380.546 312.637 380.546 312.21ZM389.393 309.42L385.893 317.65H384.053L385.333 314.81L383.063 309.42H384.973L386.263 312.91L387.543 309.42H389.393ZM394.241 313.68H396.481V315H392.531V307.98H394.241V313.68ZM397.156 312.2C397.156 311.627 397.263 311.123 397.476 310.69C397.696 310.257 397.993 309.923 398.366 309.69C398.74 309.457 399.156 309.34 399.616 309.34C400.01 309.34 400.353 309.42 400.646 309.58C400.946 309.74 401.176 309.95 401.336 310.21V309.42H403.046V315H401.336V314.21C401.17 314.47 400.936 314.68 400.636 314.84C400.343 315 400 315.08 399.606 315.08C399.153 315.08 398.74 314.963 398.366 314.73C397.993 314.49 397.696 314.153 397.476 313.72C397.263 313.28 397.156 312.773 397.156 312.2ZM401.336 312.21C401.336 311.783 401.216 311.447 400.976 311.2C400.743 310.953 400.456 310.83 400.116 310.83C399.776 310.83 399.486 310.953 399.246 311.2C399.013 311.44 398.896 311.773 398.896 312.2C398.896 312.627 399.013 312.967 399.246 313.22C399.486 313.467 399.776 313.59 400.116 313.59C400.456 313.59 400.743 313.467 400.976 313.22C401.216 312.973 401.336 312.637 401.336 312.21ZM406.753 315.08C406.267 315.08 405.833 314.997 405.453 314.83C405.073 314.663 404.773 314.437 404.553 314.15C404.333 313.857 404.21 313.53 404.183 313.17H405.873C405.893 313.363 405.983 313.52 406.143 313.64C406.303 313.76 406.5 313.82 406.733 313.82C406.947 313.82 407.11 313.78 407.223 313.7C407.343 313.613 407.403 313.503 407.403 313.37C407.403 313.21 407.32 313.093 407.153 313.02C406.987 312.94 406.717 312.853 406.343 312.76C405.943 312.667 405.61 312.57 405.343 312.47C405.077 312.363 404.847 312.2 404.653 311.98C404.46 311.753 404.363 311.45 404.363 311.07C404.363 310.75 404.45 310.46 404.623 310.2C404.803 309.933 405.063 309.723 405.403 309.57C405.75 309.417 406.16 309.34 406.633 309.34C407.333 309.34 407.883 309.513 408.283 309.86C408.69 310.207 408.923 310.667 408.983 311.24H407.403C407.377 311.047 407.29 310.893 407.143 310.78C407.003 310.667 406.817 310.61 406.583 310.61C406.383 310.61 406.23 310.65 406.123 310.73C406.017 310.803 405.963 310.907 405.963 311.04C405.963 311.2 406.047 311.32 406.213 311.4C406.387 311.48 406.653 311.56 407.013 311.64C407.427 311.747 407.763 311.853 408.023 311.96C408.283 312.06 408.51 312.227 408.703 312.46C408.903 312.687 409.007 312.993 409.013 313.38C409.013 313.707 408.92 314 408.733 314.26C408.553 314.513 408.29 314.713 407.943 314.86C407.603 315.007 407.207 315.08 406.753 315.08ZM413.37 313.55V315H412.5C411.88 315 411.396 314.85 411.05 314.55C410.703 314.243 410.53 313.747 410.53 313.06V310.84H409.85V309.42H410.53V308.06H412.24V309.42H413.36V310.84H412.24V313.08C412.24 313.247 412.28 313.367 412.36 313.44C412.44 313.513 412.573 313.55 412.76 313.55H413.37ZM426.501 307.98L424.671 315H422.601L421.481 310.38L420.321 315H418.251L416.471 307.98H418.301L419.311 313.09L420.561 307.98H422.441L423.641 313.09L424.661 307.98H426.501ZM432.819 312.12C432.819 312.28 432.809 312.447 432.789 312.62H428.919C428.945 312.967 429.055 313.233 429.249 313.42C429.449 313.6 429.692 313.69 429.979 313.69C430.405 313.69 430.702 313.51 430.869 313.15H432.689C432.595 313.517 432.425 313.847 432.179 314.14C431.939 314.433 431.635 314.663 431.269 314.83C430.902 314.997 430.492 315.08 430.039 315.08C429.492 315.08 429.005 314.963 428.579 314.73C428.152 314.497 427.819 314.163 427.579 313.73C427.339 313.297 427.219 312.79 427.219 312.21C427.219 311.63 427.335 311.123 427.569 310.69C427.809 310.257 428.142 309.923 428.569 309.69C428.995 309.457 429.485 309.34 430.039 309.34C430.579 309.34 431.059 309.453 431.479 309.68C431.899 309.907 432.225 310.23 432.459 310.65C432.699 311.07 432.819 311.56 432.819 312.12ZM431.069 311.67C431.069 311.377 430.969 311.143 430.769 310.97C430.569 310.797 430.319 310.71 430.019 310.71C429.732 310.71 429.489 310.793 429.289 310.96C429.095 311.127 428.975 311.363 428.929 311.67H431.069ZM439.181 312.12C439.181 312.28 439.171 312.447 439.151 312.62H435.281C435.307 312.967 435.417 313.233 435.611 313.42C435.811 313.6 436.054 313.69 436.341 313.69C436.767 313.69 437.064 313.51 437.231 313.15H439.051C438.957 313.517 438.787 313.847 438.541 314.14C438.301 314.433 437.997 314.663 437.631 314.83C437.264 314.997 436.854 315.08 436.401 315.08C435.854 315.08 435.367 314.963 434.941 314.73C434.514 314.497 434.181 314.163 433.941 313.73C433.701 313.297 433.581 312.79 433.581 312.21C433.581 311.63 433.697 311.123 433.931 310.69C434.171 310.257 434.504 309.923 434.931 309.69C435.357 309.457 435.847 309.34 436.401 309.34C436.941 309.34 437.421 309.453 437.841 309.68C438.261 309.907 438.587 310.23 438.821 310.65C439.061 311.07 439.181 311.56 439.181 312.12ZM437.431 311.67C437.431 311.377 437.331 311.143 437.131 310.97C436.931 310.797 436.681 310.71 436.381 310.71C436.094 310.71 435.851 310.793 435.651 310.96C435.457 311.127 435.337 311.363 435.291 311.67H437.431ZM443.693 315L441.993 312.66V315H440.283V307.6H441.993V311.69L443.683 309.42H445.793L443.473 312.22L445.813 315H443.693Z" fill="#5A5A5F"/>
<circle cx="135" cy="312" r="6" fill="#71589F"/>
<circle cx="208" cy="312" r="6" fill="#E0712F"/>
<circle cx="303" cy="312" r="6" fill="#9A8053"/>
<defs>
<filter id="filter0_d_504_371" x="0" y="0" width="558" height="345" filterUnits="userSpaceOnUse" color-interpolation-filters="sRGB">
<feFlood flood-opacity="0" result="BackgroundImageFix"/>
<feColorMatrix in="SourceAlpha" type="matrix" values="0 0 0 0 0 0 0 0 0 0 0 0 0 0 0 0 0 0 127 0" result="hardAlpha"/>
<feOffset dy="2"/>
<feGaussianBlur stdDeviation="4"/>
<feComposite in2="hardAlpha" operator="out"/>
<feColorMatrix type="matrix" values="0 0 0 0 0 0 0 0 0 0 0 0 0 0 0 0 0 0 0.2 0"/>
<feBlend mode="normal" in2="BackgroundImageFix" result="effect1_dropShadow_504_371"/>
<feBlend mode="normal" in="SourceGraphic" in2="effect1_dropShadow_504_371" result="shape"/>
</filter>
<clipPath id="clip0_504_371">
<rect width="502" height="210" fill="white" transform="translate(28 82)"/>
</clipPath>
</defs>
</svg>
