<svg width="476" height="40" viewBox="0 0 476 40" fill="none" xmlns="http://www.w3.org/2000/svg">
<g clip-path="url(#clip0_5_53)">
<path d="M5.008 14.832C6.18133 14.832 7.21067 15.0613 8.096 15.52C8.992 15.9787 9.68 16.6347 10.16 17.488C10.6507 18.3307 10.896 19.312 10.896 20.432C10.896 21.552 10.6507 22.5333 10.16 23.376C9.68 24.208 8.992 24.8533 8.096 25.312C7.21067 25.7707 6.18133 26 5.008 26H1.104V14.832H5.008ZM4.928 24.096C6.10133 24.096 7.008 23.776 7.648 23.136C8.288 22.496 8.608 21.5947 8.608 20.432C8.608 19.2693 8.288 18.3627 7.648 17.712C7.008 17.0507 6.10133 16.72 4.928 16.72H3.344V24.096H4.928ZM11.9967 21.536C11.9967 20.64 12.1727 19.8453 12.5247 19.152C12.8874 18.4587 13.3728 17.9253 13.9808 17.552C14.5994 17.1787 15.2874 16.992 16.0448 16.992C16.7061 16.992 17.2821 17.1253 17.7728 17.392C18.2741 17.6587 18.6741 17.9947 18.9728 18.4V17.136H21.2288V26H18.9728V24.704C18.6848 25.12 18.2848 25.4667 17.7728 25.744C17.2714 26.0107 16.6901 26.144 16.0288 26.144C15.2821 26.144 14.5994 25.952 13.9808 25.568C13.3728 25.184 12.8874 24.6453 12.5247 23.952C12.1727 23.248 11.9967 22.4427 11.9967 21.536ZM18.9728 21.568C18.9728 21.024 18.8661 20.56 18.6528 20.176C18.4394 19.7813 18.1514 19.4827 17.7888 19.28C17.4261 19.0667 17.0368 18.96 16.6208 18.96C16.2048 18.96 15.8208 19.0613 15.4688 19.264C15.1168 19.4667 14.8288 19.7653 14.6048 20.16C14.3914 20.544 14.2848 21.0027 14.2848 21.536C14.2848 22.0693 14.3914 22.5387 14.6048 22.944C14.8288 23.3387 15.1168 23.6427 15.4688 23.856C15.8314 24.0693 16.2154 24.176 16.6208 24.176C17.0368 24.176 17.4261 24.0747 17.7888 23.872C18.1514 23.6587 18.4394 23.36 18.6528 22.976C18.8661 22.5813 18.9728 22.112 18.9728 21.568ZM26.8085 26.144C26.0832 26.144 25.4325 26.016 24.8565 25.76C24.2805 25.4933 23.8218 25.136 23.4805 24.688C23.1498 24.24 22.9685 23.744 22.9365 23.2H25.1925C25.2352 23.5413 25.4005 23.824 25.6885 24.048C25.9872 24.272 26.3552 24.384 26.7925 24.384C27.2192 24.384 27.5498 24.2987 27.7845 24.128C28.0298 23.9573 28.1525 23.7387 28.1525 23.472C28.1525 23.184 28.0032 22.9707 27.7045 22.832C27.4165 22.6827 26.9525 22.5227 26.3125 22.352C25.6512 22.192 25.1072 22.0267 24.6805 21.856C24.2645 21.6853 23.9018 21.424 23.5925 21.072C23.2938 20.72 23.1445 20.2453 23.1445 19.648C23.1445 19.1573 23.2832 18.7093 23.5605 18.304C23.8485 17.8987 24.2538 17.5787 24.7765 17.344C25.3098 17.1093 25.9338 16.992 26.6485 16.992C27.7045 16.992 28.5472 17.2587 29.1765 17.792C29.8058 18.3147 30.1525 19.024 30.2165 19.92H28.0725C28.0405 19.568 27.8912 19.2907 27.6245 19.088C27.3685 18.8747 27.0218 18.768 26.5845 18.768C26.1792 18.768 25.8645 18.8427 25.6405 18.992C25.4272 19.1413 25.3205 19.3493 25.3205 19.616C25.3205 19.9147 25.4698 20.144 25.7685 20.304C26.0672 20.4533 26.5312 20.608 27.1605 20.768C27.8005 20.928 28.3285 21.0933 28.7445 21.264C29.1605 21.4347 29.5178 21.7013 29.8165 22.064C30.1258 22.416 30.2858 22.8853 30.2965 23.472C30.2965 23.984 30.1525 24.4427 29.8645 24.848C29.5872 25.2533 29.1818 25.5733 28.6485 25.808C28.1258 26.032 27.5125 26.144 26.8085 26.144ZM37.1273 17.008C37.7993 17.008 38.3966 17.1573 38.9193 17.456C39.4419 17.744 39.8473 18.176 40.1353 18.752C40.4339 19.3173 40.5833 20 40.5833 20.8V26H38.3433V21.104C38.3433 20.4 38.1673 19.8613 37.8153 19.488C37.4633 19.104 36.9833 18.912 36.3753 18.912C35.7566 18.912 35.2659 19.104 34.9033 19.488C34.5513 19.8613 34.3753 20.4 34.3753 21.104V26H32.1353V14.16H34.3753V18.24C34.6633 17.856 35.0473 17.5573 35.5273 17.344C36.0073 17.12 36.5406 17.008 37.1273 17.008ZM44.9534 18.432C45.2414 18.0053 45.636 17.6587 46.1374 17.392C46.6494 17.1253 47.2307 16.992 47.8814 16.992C48.6387 16.992 49.3214 17.1787 49.9294 17.552C50.548 17.9253 51.0334 18.4587 51.3854 19.152C51.748 19.8347 51.9294 20.6293 51.9294 21.536C51.9294 22.4427 51.748 23.248 51.3854 23.952C51.0334 24.6453 50.548 25.184 49.9294 25.568C49.3214 25.952 48.6387 26.144 47.8814 26.144C47.22 26.144 46.6387 26.016 46.1374 25.76C45.6467 25.4933 45.252 25.152 44.9534 24.736V26H42.7134V14.16H44.9534V18.432ZM49.6414 21.536C49.6414 21.0027 49.5294 20.544 49.3054 20.16C49.092 19.7653 48.804 19.4667 48.4414 19.264C48.0894 19.0613 47.7054 18.96 47.2894 18.96C46.884 18.96 46.5 19.0667 46.1374 19.28C45.7854 19.4827 45.4974 19.7813 45.2734 20.176C45.06 20.5707 44.9534 21.0347 44.9534 21.568C44.9534 22.1013 45.06 22.5653 45.2734 22.96C45.4974 23.3547 45.7854 23.6587 46.1374 23.872C46.5 24.0747 46.884 24.176 47.2894 24.176C47.7054 24.176 48.0894 24.0693 48.4414 23.856C48.804 23.6427 49.092 23.3387 49.3054 22.944C49.5294 22.5493 49.6414 22.08 49.6414 21.536ZM57.4931 26.144C56.6398 26.144 55.8718 25.9573 55.1891 25.584C54.5065 25.2 53.9678 24.6613 53.5731 23.968C53.1891 23.2747 52.9971 22.4747 52.9971 21.568C52.9971 20.6613 53.1945 19.8613 53.5891 19.168C53.9945 18.4747 54.5438 17.9413 55.2371 17.568C55.9305 17.184 56.7038 16.992 57.5571 16.992C58.4105 16.992 59.1838 17.184 59.8771 17.568C60.5705 17.9413 61.1145 18.4747 61.5091 19.168C61.9145 19.8613 62.1171 20.6613 62.1171 21.568C62.1171 22.4747 61.9091 23.2747 61.4931 23.968C61.0878 24.6613 60.5331 25.2 59.8291 25.584C59.1358 25.9573 58.3571 26.144 57.4931 26.144ZM57.4931 24.192C57.8985 24.192 58.2771 24.096 58.6291 23.904C58.9918 23.7013 59.2798 23.4027 59.4931 23.008C59.7065 22.6133 59.8131 22.1333 59.8131 21.568C59.8131 20.7253 59.5891 20.08 59.1411 19.632C58.7038 19.1733 58.1651 18.944 57.5251 18.944C56.8851 18.944 56.3465 19.1733 55.9091 19.632C55.4825 20.08 55.2691 20.7253 55.2691 21.568C55.2691 22.4107 55.4771 23.0613 55.8931 23.52C56.3198 23.968 56.8531 24.192 57.4931 24.192ZM63.1842 21.536C63.1842 20.64 63.3602 19.8453 63.7122 19.152C64.0749 18.4587 64.5603 17.9253 65.1683 17.552C65.7869 17.1787 66.4749 16.992 67.2323 16.992C67.8936 16.992 68.4696 17.1253 68.9603 17.392C69.4616 17.6587 69.8616 17.9947 70.1603 18.4V17.136H72.4163V26H70.1603V24.704C69.8723 25.12 69.4723 25.4667 68.9603 25.744C68.4589 26.0107 67.8776 26.144 67.2163 26.144C66.4696 26.144 65.7869 25.952 65.1683 25.568C64.5603 25.184 64.0749 24.6453 63.7122 23.952C63.3602 23.248 63.1842 22.4427 63.1842 21.536ZM70.1603 21.568C70.1603 21.024 70.0536 20.56 69.8403 20.176C69.6269 19.7813 69.3389 19.4827 68.9763 19.28C68.6136 19.0667 68.2243 18.96 67.8083 18.96C67.3923 18.96 67.0083 19.0613 66.6562 19.264C66.3043 19.4667 66.0163 19.7653 65.7923 20.16C65.5789 20.544 65.4723 21.0027 65.4723 21.536C65.4723 22.0693 65.5789 22.5387 65.7923 22.944C66.0163 23.3387 66.3043 23.6427 66.6562 23.856C67.0189 24.0693 67.4029 24.176 67.8083 24.176C68.2243 24.176 68.6136 24.0747 68.9763 23.872C69.3389 23.6587 69.6269 23.36 69.8403 22.976C70.0536 22.5813 70.1603 22.112 70.1603 21.568ZM76.844 18.512C77.132 18.0427 77.5053 17.6747 77.964 17.408C78.4333 17.1413 78.9667 17.008 79.564 17.008V19.36H78.972C78.268 19.36 77.7347 19.5253 77.372 19.856C77.02 20.1867 76.844 20.7627 76.844 21.584V26H74.604V17.136H76.844V18.512ZM80.4967 21.536C80.4967 20.64 80.6727 19.8453 81.0247 19.152C81.3874 18.4587 81.8781 17.9253 82.4968 17.552C83.1154 17.1787 83.8034 16.992 84.5608 16.992C85.1368 16.992 85.6861 17.12 86.2088 17.376C86.7314 17.6213 87.1474 17.952 87.4568 18.368V14.16H89.7288V26H87.4568V24.688C87.1794 25.1253 86.7901 25.4773 86.2888 25.744C85.7874 26.0107 85.2061 26.144 84.5448 26.144C83.7981 26.144 83.1154 25.952 82.4968 25.568C81.8781 25.184 81.3874 24.6453 81.0247 23.952C80.6727 23.248 80.4967 22.4427 80.4967 21.536ZM87.4728 21.568C87.4728 21.024 87.3661 20.56 87.1528 20.176C86.9394 19.7813 86.6514 19.4827 86.2888 19.28C85.9261 19.0667 85.5368 18.96 85.1208 18.96C84.7048 18.96 84.3208 19.0613 83.9688 19.264C83.6168 19.4667 83.3288 19.7653 83.1048 20.16C82.8914 20.544 82.7848 21.0027 82.7848 21.536C82.7848 22.0693 82.8914 22.5387 83.1048 22.944C83.3288 23.3387 83.6168 23.6427 83.9688 23.856C84.3314 24.0693 84.7154 24.176 85.1208 24.176C85.5368 24.176 85.9261 24.0747 86.2888 23.872C86.6514 23.6587 86.9394 23.36 87.1528 22.976C87.3661 22.5813 87.4728 22.112 87.4728 21.568Z" fill="#11263C"/>
<path d="M138.952 23.872H134.504L133.768 26H131.416L135.432 14.816H138.04L142.056 26H139.688L138.952 23.872ZM138.344 22.08L136.728 17.408L135.112 22.08H138.344ZM142.981 21.536C142.981 20.64 143.157 19.8453 143.509 19.152C143.872 18.4587 144.362 17.9253 144.981 17.552C145.6 17.1787 146.288 16.992 147.045 16.992C147.621 16.992 148.17 17.12 148.693 17.376C149.216 17.6213 149.632 17.952 149.941 18.368V14.16H152.213V26H149.941V24.688C149.664 25.1253 149.274 25.4773 148.773 25.744C148.272 26.0107 147.69 26.144 147.029 26.144C146.282 26.144 145.6 25.952 144.981 25.568C144.362 25.184 143.872 24.6453 143.509 23.952C143.157 23.248 142.981 22.4427 142.981 21.536ZM149.957 21.568C149.957 21.024 149.85 20.56 149.637 20.176C149.424 19.7813 149.136 19.4827 148.773 19.28C148.41 19.0667 148.021 18.96 147.605 18.96C147.189 18.96 146.805 19.0613 146.453 19.264C146.101 19.4667 145.813 19.7653 145.589 20.16C145.376 20.544 145.269 21.0027 145.269 21.536C145.269 22.0693 145.376 22.5387 145.589 22.944C145.813 23.3387 146.101 23.6427 146.453 23.856C146.816 24.0693 147.2 24.176 147.605 24.176C148.021 24.176 148.41 24.0747 148.773 23.872C149.136 23.6587 149.424 23.36 149.637 22.976C149.85 22.5813 149.957 22.112 149.957 21.568ZM158.097 23.936L160.337 17.136H162.721L159.441 26H156.721L153.457 17.136H155.857L158.097 23.936ZM163.403 21.536C163.403 20.64 163.579 19.8453 163.931 19.152C164.294 18.4587 164.779 17.9253 165.387 17.552C166.006 17.1787 166.694 16.992 167.451 16.992C168.112 16.992 168.688 17.1253 169.179 17.392C169.68 17.6587 170.08 17.9947 170.379 18.4V17.136H172.635V26H170.379V24.704C170.091 25.12 169.691 25.4667 169.179 25.744C168.678 26.0107 168.096 26.144 167.435 26.144C166.688 26.144 166.006 25.952 165.387 25.568C164.779 25.184 164.294 24.6453 163.931 23.952C163.579 23.248 163.403 22.4427 163.403 21.536ZM170.379 21.568C170.379 21.024 170.272 20.56 170.059 20.176C169.846 19.7813 169.558 19.4827 169.195 19.28C168.832 19.0667 168.443 18.96 168.027 18.96C167.611 18.96 167.227 19.0613 166.875 19.264C166.523 19.4667 166.235 19.7653 166.011 20.16C165.798 20.544 165.691 21.0027 165.691 21.536C165.691 22.0693 165.798 22.5387 166.011 22.944C166.235 23.3387 166.523 23.6427 166.875 23.856C167.238 24.0693 167.622 24.176 168.027 24.176C168.443 24.176 168.832 24.0747 169.195 23.872C169.558 23.6587 169.846 23.36 170.059 22.976C170.272 22.5813 170.379 22.112 170.379 21.568ZM179.735 17.008C180.791 17.008 181.644 17.344 182.295 18.016C182.945 18.6773 183.271 19.6053 183.271 20.8V26H181.031V21.104C181.031 20.4 180.855 19.8613 180.503 19.488C180.151 19.104 179.671 18.912 179.063 18.912C178.444 18.912 177.953 19.104 177.591 19.488C177.239 19.8613 177.063 20.4 177.063 21.104V26H174.823V17.136H177.063V18.24C177.361 17.856 177.74 17.5573 178.199 17.344C178.668 17.12 179.18 17.008 179.735 17.008ZM184.825 21.568C184.825 20.6507 185.012 19.8507 185.385 19.168C185.758 18.4747 186.276 17.9413 186.937 17.568C187.598 17.184 188.356 16.992 189.209 16.992C190.308 16.992 191.214 17.2693 191.929 17.824C192.654 18.368 193.14 19.136 193.385 20.128H190.969C190.841 19.744 190.622 19.4453 190.313 19.232C190.014 19.008 189.641 18.896 189.193 18.896C188.553 18.896 188.046 19.1307 187.673 19.6C187.3 20.0587 187.113 20.7147 187.113 21.568C187.113 22.4107 187.3 23.0667 187.673 23.536C188.046 23.9947 188.553 24.224 189.193 24.224C190.1 24.224 190.692 23.8187 190.969 23.008H193.385C193.14 23.968 192.654 24.7307 191.929 25.296C191.204 25.8613 190.297 26.144 189.209 26.144C188.356 26.144 187.598 25.9573 186.937 25.584C186.276 25.2 185.758 24.6667 185.385 23.984C185.012 23.2907 184.825 22.4853 184.825 21.568ZM203.266 21.376C203.266 21.696 203.245 21.984 203.202 22.24H196.722C196.775 22.88 196.999 23.3813 197.394 23.744C197.789 24.1067 198.274 24.288 198.85 24.288C199.682 24.288 200.274 23.9307 200.626 23.216H203.042C202.786 24.0693 202.295 24.7733 201.57 25.328C200.845 25.872 199.954 26.144 198.898 26.144C198.045 26.144 197.277 25.9573 196.594 25.584C195.922 25.2 195.394 24.6613 195.01 23.968C194.637 23.2747 194.45 22.4747 194.45 21.568C194.45 20.6507 194.637 19.8453 195.01 19.152C195.383 18.4587 195.906 17.9253 196.578 17.552C197.25 17.1787 198.023 16.992 198.898 16.992C199.741 16.992 200.493 17.1733 201.154 17.536C201.826 17.8987 202.343 18.416 202.706 19.088C203.079 19.7493 203.266 20.512 203.266 21.376ZM200.946 20.736C200.935 20.16 200.727 19.7013 200.322 19.36C199.917 19.008 199.421 18.832 198.834 18.832C198.279 18.832 197.81 19.0027 197.426 19.344C197.053 19.6747 196.823 20.1387 196.738 20.736H200.946ZM204.325 21.536C204.325 20.64 204.501 19.8453 204.853 19.152C205.216 18.4587 205.706 17.9253 206.325 17.552C206.944 17.1787 207.632 16.992 208.389 16.992C208.965 16.992 209.514 17.12 210.037 17.376C210.56 17.6213 210.976 17.952 211.285 18.368V14.16H213.557V26H211.285V24.688C211.008 25.1253 210.618 25.4773 210.117 25.744C209.616 26.0107 209.034 26.144 208.373 26.144C207.626 26.144 206.944 25.952 206.325 25.568C205.706 25.184 205.216 24.6453 204.853 23.952C204.501 23.248 204.325 22.4427 204.325 21.536ZM211.301 21.568C211.301 21.024 211.194 20.56 210.981 20.176C210.768 19.7813 210.48 19.4827 210.117 19.28C209.754 19.0667 209.365 18.96 208.949 18.96C208.533 18.96 208.149 19.0613 207.797 19.264C207.445 19.4667 207.157 19.7653 206.933 20.16C206.72 20.544 206.613 21.0027 206.613 21.536C206.613 22.0693 206.72 22.5387 206.933 22.944C207.157 23.3387 207.445 23.6427 207.797 23.856C208.16 24.0693 208.544 24.176 208.949 24.176C209.365 24.176 209.754 24.0747 210.117 23.872C210.48 23.6587 210.768 23.36 210.981 22.976C211.194 22.5813 211.301 22.112 211.301 21.568ZM227.877 27.968L226.181 25.936C225.712 26.0533 225.232 26.112 224.741 26.112C223.696 26.112 222.736 25.8667 221.861 25.376C220.986 24.8853 220.293 24.208 219.781 23.344C219.269 22.4693 219.013 21.4827 219.013 20.384C219.013 19.296 219.269 18.32 219.781 17.456C220.293 16.5813 220.986 15.8987 221.861 15.408C222.736 14.9173 223.696 14.672 224.741 14.672C225.797 14.672 226.757 14.9173 227.621 15.408C228.496 15.8987 229.184 16.5813 229.685 17.456C230.197 18.32 230.453 19.296 230.453 20.384C230.453 21.376 230.24 22.2827 229.813 23.104C229.397 23.9147 228.826 24.576 228.101 25.088L230.661 27.968H227.877ZM221.317 20.384C221.317 21.1307 221.461 21.7867 221.749 22.352C222.037 22.9173 222.437 23.3547 222.949 23.664C223.472 23.9627 224.069 24.112 224.741 24.112C225.413 24.112 226.005 23.9627 226.517 23.664C227.029 23.3547 227.429 22.9173 227.717 22.352C228.005 21.7867 228.149 21.1307 228.149 20.384C228.149 19.6373 228.005 18.9867 227.717 18.432C227.429 17.8667 227.029 17.4347 226.517 17.136C226.005 16.8373 225.413 16.688 224.741 16.688C224.069 16.688 223.472 16.8373 222.949 17.136C222.437 17.4347 222.037 17.8667 221.749 18.432C221.461 18.9867 221.317 19.6373 221.317 20.384ZM240.519 17.136V26H238.263V24.88C237.975 25.264 237.596 25.568 237.127 25.792C236.668 26.0053 236.167 26.112 235.623 26.112C234.93 26.112 234.316 25.968 233.783 25.68C233.25 25.3813 232.828 24.9493 232.519 24.384C232.22 23.808 232.071 23.1253 232.071 22.336V17.136H234.311V22.016C234.311 22.72 234.487 23.264 234.839 23.648C235.191 24.0213 235.671 24.208 236.279 24.208C236.898 24.208 237.383 24.0213 237.735 23.648C238.087 23.264 238.263 22.72 238.263 22.016V17.136H240.519ZM242.153 21.536C242.153 20.64 242.329 19.8453 242.681 19.152C243.044 18.4587 243.529 17.9253 244.137 17.552C244.756 17.1787 245.444 16.992 246.201 16.992C246.862 16.992 247.438 17.1253 247.929 17.392C248.43 17.6587 248.83 17.9947 249.129 18.4V17.136H251.385V26H249.129V24.704C248.841 25.12 248.441 25.4667 247.929 25.744C247.428 26.0107 246.846 26.144 246.185 26.144C245.438 26.144 244.756 25.952 244.137 25.568C243.529 25.184 243.044 24.6453 242.681 23.952C242.329 23.248 242.153 22.4427 242.153 21.536ZM249.129 21.568C249.129 21.024 249.022 20.56 248.809 20.176C248.596 19.7813 248.308 19.4827 247.945 19.28C247.582 19.0667 247.193 18.96 246.777 18.96C246.361 18.96 245.977 19.0613 245.625 19.264C245.273 19.4667 244.985 19.7653 244.761 20.16C244.548 20.544 244.441 21.0027 244.441 21.536C244.441 22.0693 244.548 22.5387 244.761 22.944C244.985 23.3387 245.273 23.6427 245.625 23.856C245.988 24.0693 246.372 24.176 246.777 24.176C247.193 24.176 247.582 24.0747 247.945 23.872C248.308 23.6587 248.596 23.36 248.809 22.976C249.022 22.5813 249.129 22.112 249.129 21.568ZM255.813 18.512C256.101 18.0427 256.474 17.6747 256.933 17.408C257.402 17.1413 257.935 17.008 258.533 17.008V19.36H257.941C257.237 19.36 256.703 19.5253 256.341 19.856C255.989 20.1867 255.813 20.7627 255.813 21.584V26H253.573V17.136H255.813V18.512ZM262.282 18.512C262.57 18.0427 262.943 17.6747 263.402 17.408C263.871 17.1413 264.404 17.008 265.002 17.008V19.36H264.41C263.706 19.36 263.172 19.5253 262.81 19.856C262.458 20.1867 262.282 20.7627 262.282 21.584V26H260.042V17.136H262.282V18.512ZM274.99 17.136L269.502 30.192H267.118L269.038 25.776L265.486 17.136H267.998L270.286 23.328L272.606 17.136H274.99Z" fill="#D0D1D2"/>
<path d="M319.344 16.64V19.44H323.104V21.216H319.344V24.176H323.584V26H317.104V14.816H323.584V16.64H319.344ZM329.316 23.936L331.556 17.136H333.94L330.66 26H327.94L324.676 17.136H327.076L329.316 23.936ZM343.438 21.376C343.438 21.696 343.416 21.984 343.374 22.24H336.894C336.947 22.88 337.171 23.3813 337.566 23.744C337.96 24.1067 338.446 24.288 339.022 24.288C339.854 24.288 340.446 23.9307 340.798 23.216H343.214C342.958 24.0693 342.467 24.7733 341.742 25.328C341.016 25.872 340.126 26.144 339.07 26.144C338.216 26.144 337.448 25.9573 336.766 25.584C336.094 25.2 335.566 24.6613 335.182 23.968C334.808 23.2747 334.622 22.4747 334.622 21.568C334.622 20.6507 334.808 19.8453 335.182 19.152C335.555 18.4587 336.078 17.9253 336.75 17.552C337.422 17.1787 338.195 16.992 339.07 16.992C339.912 16.992 340.664 17.1733 341.326 17.536C341.998 17.8987 342.515 18.416 342.878 19.088C343.251 19.7493 343.438 20.512 343.438 21.376ZM341.118 20.736C341.107 20.16 340.899 19.7013 340.494 19.36C340.088 19.008 339.592 18.832 339.006 18.832C338.451 18.832 337.982 19.0027 337.598 19.344C337.224 19.6747 336.995 20.1387 336.91 20.736H341.118ZM349.985 17.008C351.041 17.008 351.894 17.344 352.545 18.016C353.195 18.6773 353.521 19.6053 353.521 20.8V26H351.281V21.104C351.281 20.4 351.105 19.8613 350.753 19.488C350.401 19.104 349.921 18.912 349.313 18.912C348.694 18.912 348.203 19.104 347.841 19.488C347.489 19.8613 347.313 20.4 347.313 21.104V26H345.073V17.136H347.313V18.24C347.611 17.856 347.99 17.5573 348.449 17.344C348.918 17.12 349.43 17.008 349.985 17.008ZM358.259 18.976V23.264C358.259 23.5627 358.328 23.7813 358.467 23.92C358.616 24.048 358.862 24.112 359.203 24.112H360.243V26H358.835C356.947 26 356.003 25.0827 356.003 23.248V18.976H354.947V17.136H356.003V14.944H358.259V17.136H360.243V18.976H358.259ZM365.246 26.144C364.521 26.144 363.87 26.016 363.294 25.76C362.718 25.4933 362.259 25.136 361.918 24.688C361.587 24.24 361.406 23.744 361.374 23.2H363.63C363.673 23.5413 363.838 23.824 364.126 24.048C364.425 24.272 364.793 24.384 365.23 24.384C365.657 24.384 365.987 24.2987 366.222 24.128C366.467 23.9573 366.59 23.7387 366.59 23.472C366.59 23.184 366.441 22.9707 366.142 22.832C365.854 22.6827 365.39 22.5227 364.75 22.352C364.089 22.192 363.545 22.0267 363.118 21.856C362.702 21.6853 362.339 21.424 362.03 21.072C361.731 20.72 361.582 20.2453 361.582 19.648C361.582 19.1573 361.721 18.7093 361.998 18.304C362.286 17.8987 362.691 17.5787 363.214 17.344C363.747 17.1093 364.371 16.992 365.086 16.992C366.142 16.992 366.985 17.2587 367.614 17.792C368.243 18.3147 368.59 19.024 368.654 19.92H366.51C366.478 19.568 366.329 19.2907 366.062 19.088C365.806 18.8747 365.459 18.768 365.022 18.768C364.617 18.768 364.302 18.8427 364.078 18.992C363.865 19.1413 363.758 19.3493 363.758 19.616C363.758 19.9147 363.907 20.144 364.206 20.304C364.505 20.4533 364.969 20.608 365.598 20.768C366.238 20.928 366.766 21.0933 367.182 21.264C367.598 21.4347 367.955 21.7013 368.254 22.064C368.563 22.416 368.723 22.8853 368.734 23.472C368.734 23.984 368.59 24.4427 368.302 24.848C368.025 25.2533 367.619 25.5733 367.086 25.808C366.563 26.032 365.95 26.144 365.246 26.144Z" fill="#D0D1D2"/>
<rect x="410" width="2" height="40" rx="1" fill="url(#paint0_linear_5_53)"/>
<path fill-rule="evenodd" clip-rule="evenodd" d="M462.5 26C466.642 26 470 22.6421 470 18.5C470 14.3579 466.642 11 462.5 11C458.358 11 455 14.3579 455 18.5C455 22.6421 458.358 26 462.5 26Z" stroke="#D0D1D2" stroke-width="2" stroke-linecap="round" stroke-linejoin="round"/>
<path d="M473 29L467.8 23.8" stroke="#D0D1D2" stroke-width="2" stroke-linecap="round" stroke-linejoin="round"/>
</g>
<defs>
<linearGradient id="paint0_linear_5_53" x1="411" y1="0" x2="411" y2="40" gradientUnits="userSpaceOnUse">
<stop stop-color="#EEECFA" stop-opacity="0"/>
<stop offset="0.514425" stop-color="#F9F9F9"/>
<stop offset="1" stop-color="#EEECFA" stop-opacity="0"/>
</linearGradient>
<clipPath id="clip0_5_53">
<rect width="476" height="40" fill="white"/>
</clipPath>
</defs>
</svg>
