<svg width="596" height="345" viewBox="0 0 596 345" fill="none" xmlns="http://www.w3.org/2000/svg">
<g filter="url(#filter0_d_504_399)">
<rect x="8" y="6" width="542" height="329" rx="4" fill="white"/>
</g>
<rect x="358.397" y="118.312" width="35.7259" height="16.3914" fill="#004EDA"/>
<rect x="358.397" y="183.015" width="35.7259" height="20.7049" fill="#FFA600"/>
<rect x="358.397" y="148.506" width="35.7259" height="20.7049" fill="#5A5A5F"/>
<rect x="358.397" y="217.522" width="35.7259" height="20.7049" fill="#EF2637"/>
<rect x="358.397" y="252.03" width="35.7259" height="20.7049" fill="#4BB543"/>
<path d="M411.625 123.154V130.174H409.915V125.964L408.345 130.174H406.965L405.385 125.954V130.174H403.675V123.154H405.695L407.665 128.014L409.615 123.154H411.625ZM413.915 124.014C413.615 124.014 413.368 123.927 413.175 123.754C412.988 123.574 412.895 123.354 412.895 123.094C412.895 122.827 412.988 122.607 413.175 122.434C413.368 122.254 413.615 122.164 413.915 122.164C414.208 122.164 414.448 122.254 414.635 122.434C414.828 122.607 414.925 122.827 414.925 123.094C414.925 123.354 414.828 123.574 414.635 123.754C414.448 123.927 414.208 124.014 413.915 124.014ZM414.765 124.594V130.174H413.055V124.594H414.765ZM418.474 130.254C417.987 130.254 417.554 130.17 417.174 130.004C416.794 129.837 416.494 129.61 416.274 129.324C416.054 129.03 415.931 128.704 415.904 128.344H417.594C417.614 128.537 417.704 128.694 417.864 128.814C418.024 128.934 418.221 128.994 418.454 128.994C418.667 128.994 418.831 128.954 418.944 128.874C419.064 128.787 419.124 128.677 419.124 128.544C419.124 128.384 419.041 128.267 418.874 128.194C418.707 128.114 418.437 128.027 418.064 127.934C417.664 127.84 417.331 127.744 417.064 127.644C416.797 127.537 416.567 127.374 416.374 127.154C416.181 126.927 416.084 126.624 416.084 126.244C416.084 125.924 416.171 125.634 416.344 125.374C416.524 125.107 416.784 124.897 417.124 124.744C417.471 124.59 417.881 124.514 418.354 124.514C419.054 124.514 419.604 124.687 420.004 125.034C420.411 125.38 420.644 125.84 420.704 126.414H419.124C419.097 126.22 419.011 126.067 418.864 125.954C418.724 125.84 418.537 125.784 418.304 125.784C418.104 125.784 417.951 125.824 417.844 125.904C417.737 125.977 417.684 126.08 417.684 126.214C417.684 126.374 417.767 126.494 417.934 126.574C418.107 126.654 418.374 126.734 418.734 126.814C419.147 126.92 419.484 127.027 419.744 127.134C420.004 127.234 420.231 127.4 420.424 127.634C420.624 127.86 420.727 128.167 420.734 128.554C420.734 128.88 420.641 129.174 420.454 129.434C420.274 129.687 420.011 129.887 419.664 130.034C419.324 130.18 418.927 130.254 418.474 130.254ZM424.25 130.254C423.764 130.254 423.33 130.17 422.95 130.004C422.57 129.837 422.27 129.61 422.05 129.324C421.83 129.03 421.707 128.704 421.68 128.344H423.37C423.39 128.537 423.48 128.694 423.64 128.814C423.8 128.934 423.997 128.994 424.23 128.994C424.444 128.994 424.607 128.954 424.72 128.874C424.84 128.787 424.9 128.677 424.9 128.544C424.9 128.384 424.817 128.267 424.65 128.194C424.484 128.114 424.214 128.027 423.84 127.934C423.44 127.84 423.107 127.744 422.84 127.644C422.574 127.537 422.344 127.374 422.15 127.154C421.957 126.927 421.86 126.624 421.86 126.244C421.86 125.924 421.947 125.634 422.12 125.374C422.3 125.107 422.56 124.897 422.9 124.744C423.247 124.59 423.657 124.514 424.13 124.514C424.83 124.514 425.38 124.687 425.78 125.034C426.187 125.38 426.42 125.84 426.48 126.414H424.9C424.874 126.22 424.787 126.067 424.64 125.954C424.5 125.84 424.314 125.784 424.08 125.784C423.88 125.784 423.727 125.824 423.62 125.904C423.514 125.977 423.46 126.08 423.46 126.214C423.46 126.374 423.544 126.494 423.71 126.574C423.884 126.654 424.15 126.734 424.51 126.814C424.924 126.92 425.26 127.027 425.52 127.134C425.78 127.234 426.007 127.4 426.2 127.634C426.4 127.86 426.504 128.167 426.51 128.554C426.51 128.88 426.417 129.174 426.23 129.434C426.05 129.687 425.787 129.887 425.44 130.034C425.1 130.18 424.704 130.254 424.25 130.254ZM430.296 130.254C429.75 130.254 429.256 130.137 428.816 129.904C428.383 129.67 428.04 129.337 427.786 128.904C427.54 128.47 427.416 127.964 427.416 127.384C427.416 126.81 427.543 126.307 427.796 125.874C428.05 125.434 428.396 125.097 428.836 124.864C429.276 124.63 429.77 124.514 430.316 124.514C430.863 124.514 431.356 124.63 431.796 124.864C432.236 125.097 432.583 125.434 432.836 125.874C433.09 126.307 433.216 126.81 433.216 127.384C433.216 127.957 433.086 128.464 432.826 128.904C432.573 129.337 432.223 129.67 431.776 129.904C431.336 130.137 430.843 130.254 430.296 130.254ZM430.296 128.774C430.623 128.774 430.9 128.654 431.126 128.414C431.36 128.174 431.476 127.83 431.476 127.384C431.476 126.937 431.363 126.594 431.136 126.354C430.916 126.114 430.643 125.994 430.316 125.994C429.983 125.994 429.706 126.114 429.486 126.354C429.266 126.587 429.156 126.93 429.156 127.384C429.156 127.83 429.263 128.174 429.476 128.414C429.696 128.654 429.97 128.774 430.296 128.774ZM436.034 125.524C436.234 125.217 436.484 124.977 436.784 124.804C437.084 124.624 437.417 124.534 437.784 124.534V126.344H437.314C436.887 126.344 436.567 126.437 436.354 126.624C436.14 126.804 436.034 127.124 436.034 127.584V130.174H434.324V124.594H436.034V125.524ZM441.911 128.724V130.174H441.041C440.421 130.174 439.938 130.024 439.591 129.724C439.244 129.417 439.071 128.92 439.071 128.234V126.014H438.391V124.594H439.071V123.234H440.781V124.594H441.901V126.014H440.781V128.254C440.781 128.42 440.821 128.54 440.901 128.614C440.981 128.687 441.114 128.724 441.301 128.724H441.911Z" fill="#5A5A5F"/>
<path d="M406.215 163.027C405.702 163.027 405.242 162.944 404.835 162.777C404.429 162.61 404.102 162.364 403.855 162.037C403.615 161.71 403.489 161.317 403.475 160.857H405.295C405.322 161.117 405.412 161.317 405.565 161.457C405.719 161.59 405.919 161.657 406.165 161.657C406.419 161.657 406.619 161.6 406.765 161.487C406.912 161.367 406.985 161.204 406.985 160.997C406.985 160.824 406.925 160.68 406.805 160.567C406.692 160.454 406.549 160.36 406.375 160.287C406.209 160.214 405.969 160.13 405.655 160.037C405.202 159.897 404.832 159.757 404.545 159.617C404.259 159.477 404.012 159.27 403.805 158.997C403.599 158.724 403.495 158.367 403.495 157.927C403.495 157.274 403.732 156.764 404.205 156.397C404.679 156.024 405.295 155.837 406.055 155.837C406.829 155.837 407.452 156.024 407.925 156.397C408.399 156.764 408.652 157.277 408.685 157.937H406.835C406.822 157.71 406.739 157.534 406.585 157.407C406.432 157.274 406.235 157.207 405.995 157.207C405.789 157.207 405.622 157.264 405.495 157.377C405.369 157.484 405.305 157.64 405.305 157.847C405.305 158.074 405.412 158.25 405.625 158.377C405.839 158.504 406.172 158.64 406.625 158.787C407.079 158.94 407.445 159.087 407.725 159.227C408.012 159.367 408.259 159.57 408.465 159.837C408.672 160.104 408.775 160.447 408.775 160.867C408.775 161.267 408.672 161.63 408.465 161.957C408.265 162.284 407.972 162.544 407.585 162.737C407.199 162.93 406.742 163.027 406.215 163.027ZM415.288 160.077C415.288 160.237 415.278 160.404 415.258 160.577H411.388C411.414 160.924 411.524 161.19 411.718 161.377C411.918 161.557 412.161 161.647 412.448 161.647C412.874 161.647 413.171 161.467 413.338 161.107H415.158C415.064 161.474 414.894 161.804 414.648 162.097C414.408 162.39 414.104 162.62 413.738 162.787C413.371 162.954 412.961 163.037 412.508 163.037C411.961 163.037 411.474 162.92 411.048 162.687C410.621 162.454 410.288 162.12 410.048 161.687C409.808 161.254 409.688 160.747 409.688 160.167C409.688 159.587 409.804 159.08 410.038 158.647C410.278 158.214 410.611 157.88 411.038 157.647C411.464 157.414 411.954 157.297 412.508 157.297C413.048 157.297 413.528 157.41 413.948 157.637C414.368 157.864 414.694 158.187 414.928 158.607C415.168 159.027 415.288 159.517 415.288 160.077ZM413.538 159.627C413.538 159.334 413.438 159.1 413.238 158.927C413.038 158.754 412.788 158.667 412.488 158.667C412.201 158.667 411.958 158.75 411.758 158.917C411.564 159.084 411.444 159.32 411.398 159.627H413.538ZM419.79 157.317C420.443 157.317 420.963 157.53 421.35 157.957C421.743 158.377 421.94 158.957 421.94 159.697V162.957H420.24V159.927C420.24 159.554 420.143 159.264 419.95 159.057C419.756 158.85 419.496 158.747 419.17 158.747C418.843 158.747 418.583 158.85 418.39 159.057C418.196 159.264 418.1 159.554 418.1 159.927V162.957H416.39V157.377H418.1V158.117C418.273 157.87 418.506 157.677 418.8 157.537C419.093 157.39 419.423 157.317 419.79 157.317ZM426.438 161.507V162.957H425.568C424.948 162.957 424.465 162.807 424.118 162.507C423.771 162.2 423.598 161.704 423.598 161.017V158.797H422.918V157.377H423.598V156.017H425.308V157.377H426.428V158.797H425.308V161.037C425.308 161.204 425.348 161.324 425.428 161.397C425.508 161.47 425.641 161.507 425.828 161.507H426.438ZM433.02 161.507V162.957H432.15C431.53 162.957 431.046 162.807 430.7 162.507C430.353 162.2 430.18 161.704 430.18 161.017V158.797H429.5V157.377H430.18V156.017H431.89V157.377H433.01V158.797H431.89V161.037C431.89 161.204 431.93 161.324 432.01 161.397C432.09 161.47 432.223 161.507 432.41 161.507H433.02ZM436.712 163.037C436.165 163.037 435.672 162.92 435.232 162.687C434.799 162.454 434.455 162.12 434.202 161.687C433.955 161.254 433.832 160.747 433.832 160.167C433.832 159.594 433.959 159.09 434.212 158.657C434.465 158.217 434.812 157.88 435.252 157.647C435.692 157.414 436.185 157.297 436.732 157.297C437.279 157.297 437.772 157.414 438.212 157.647C438.652 157.88 438.999 158.217 439.252 158.657C439.505 159.09 439.632 159.594 439.632 160.167C439.632 160.74 439.502 161.247 439.242 161.687C438.989 162.12 438.639 162.454 438.192 162.687C437.752 162.92 437.259 163.037 436.712 163.037ZM436.712 161.557C437.039 161.557 437.315 161.437 437.542 161.197C437.775 160.957 437.892 160.614 437.892 160.167C437.892 159.72 437.779 159.377 437.552 159.137C437.332 158.897 437.059 158.777 436.732 158.777C436.399 158.777 436.122 158.897 435.902 159.137C435.682 159.37 435.572 159.714 435.572 160.167C435.572 160.614 435.679 160.957 435.892 161.197C436.112 161.437 436.385 161.557 436.712 161.557ZM447.718 158.157C447.592 157.924 447.408 157.747 447.168 157.627C446.935 157.5 446.658 157.437 446.338 157.437C445.785 157.437 445.342 157.62 445.008 157.987C444.675 158.347 444.508 158.83 444.508 159.437C444.508 160.084 444.682 160.59 445.028 160.957C445.382 161.317 445.865 161.497 446.478 161.497C446.898 161.497 447.252 161.39 447.538 161.177C447.832 160.964 448.045 160.657 448.178 160.257H446.008V158.997H449.728V160.587C449.602 161.014 449.385 161.41 449.078 161.777C448.778 162.144 448.395 162.44 447.928 162.667C447.462 162.894 446.935 163.007 446.348 163.007C445.655 163.007 445.035 162.857 444.488 162.557C443.948 162.25 443.525 161.827 443.218 161.287C442.918 160.747 442.768 160.13 442.768 159.437C442.768 158.744 442.918 158.127 443.218 157.587C443.525 157.04 443.948 156.617 444.488 156.317C445.028 156.01 445.645 155.857 446.338 155.857C447.178 155.857 447.885 156.06 448.458 156.467C449.038 156.874 449.422 157.437 449.608 158.157H447.718ZM456.136 160.077C456.136 160.237 456.126 160.404 456.106 160.577H452.236C452.262 160.924 452.372 161.19 452.566 161.377C452.766 161.557 453.009 161.647 453.296 161.647C453.722 161.647 454.019 161.467 454.186 161.107H456.006C455.912 161.474 455.742 161.804 455.496 162.097C455.256 162.39 454.952 162.62 454.586 162.787C454.219 162.954 453.809 163.037 453.356 163.037C452.809 163.037 452.322 162.92 451.896 162.687C451.469 162.454 451.136 162.12 450.896 161.687C450.656 161.254 450.536 160.747 450.536 160.167C450.536 159.587 450.652 159.08 450.886 158.647C451.126 158.214 451.459 157.88 451.886 157.647C452.312 157.414 452.802 157.297 453.356 157.297C453.896 157.297 454.376 157.41 454.796 157.637C455.216 157.864 455.542 158.187 455.776 158.607C456.016 159.027 456.136 159.517 456.136 160.077ZM454.386 159.627C454.386 159.334 454.286 159.1 454.086 158.927C453.886 158.754 453.636 158.667 453.336 158.667C453.049 158.667 452.806 158.75 452.606 158.917C452.412 159.084 452.292 159.32 452.246 159.627H454.386ZM459.778 163.037C459.231 163.037 458.738 162.92 458.298 162.687C457.864 162.454 457.521 162.12 457.268 161.687C457.021 161.254 456.898 160.747 456.898 160.167C456.898 159.594 457.024 159.09 457.278 158.657C457.531 158.217 457.878 157.88 458.318 157.647C458.758 157.414 459.251 157.297 459.798 157.297C460.344 157.297 460.838 157.414 461.278 157.647C461.718 157.88 462.064 158.217 462.318 158.657C462.571 159.09 462.698 159.594 462.698 160.167C462.698 160.74 462.568 161.247 462.308 161.687C462.054 162.12 461.704 162.454 461.258 162.687C460.818 162.92 460.324 163.037 459.778 163.037ZM459.778 161.557C460.104 161.557 460.381 161.437 460.608 161.197C460.841 160.957 460.958 160.614 460.958 160.167C460.958 159.72 460.844 159.377 460.618 159.137C460.398 158.897 460.124 158.777 459.798 158.777C459.464 158.777 459.188 158.897 458.968 159.137C458.748 159.37 458.638 159.714 458.638 160.167C458.638 160.614 458.744 160.957 458.958 161.197C459.178 161.437 459.451 161.557 459.778 161.557ZM469.704 162.957L468.244 160.307H467.834V162.957H466.124V155.937H468.994C469.547 155.937 470.017 156.034 470.404 156.227C470.797 156.42 471.091 156.687 471.284 157.027C471.477 157.36 471.574 157.734 471.574 158.147C471.574 158.614 471.441 159.03 471.174 159.397C470.914 159.764 470.527 160.024 470.014 160.177L471.634 162.957H469.704ZM467.834 159.097H468.894C469.207 159.097 469.441 159.02 469.594 158.867C469.754 158.714 469.834 158.497 469.834 158.217C469.834 157.95 469.754 157.74 469.594 157.587C469.441 157.434 469.207 157.357 468.894 157.357H467.834V159.097ZM475.387 163.037C474.841 163.037 474.347 162.92 473.907 162.687C473.474 162.454 473.131 162.12 472.877 161.687C472.631 161.254 472.507 160.747 472.507 160.167C472.507 159.594 472.634 159.09 472.887 158.657C473.141 158.217 473.487 157.88 473.927 157.647C474.367 157.414 474.861 157.297 475.407 157.297C475.954 157.297 476.447 157.414 476.887 157.647C477.327 157.88 477.674 158.217 477.927 158.657C478.181 159.09 478.307 159.594 478.307 160.167C478.307 160.74 478.177 161.247 477.917 161.687C477.664 162.12 477.314 162.454 476.867 162.687C476.427 162.92 475.934 163.037 475.387 163.037ZM475.387 161.557C475.714 161.557 475.991 161.437 476.217 161.197C476.451 160.957 476.567 160.614 476.567 160.167C476.567 159.72 476.454 159.377 476.227 159.137C476.007 158.897 475.734 158.777 475.407 158.777C475.074 158.777 474.797 158.897 474.577 159.137C474.357 159.37 474.247 159.714 474.247 160.167C474.247 160.614 474.354 160.957 474.567 161.197C474.787 161.437 475.061 161.557 475.387 161.557ZM484.925 157.377V162.957H483.215V162.197C483.041 162.444 482.805 162.644 482.505 162.797C482.211 162.944 481.885 163.017 481.525 163.017C481.098 163.017 480.721 162.924 480.395 162.737C480.068 162.544 479.815 162.267 479.635 161.907C479.455 161.547 479.365 161.124 479.365 160.637V157.377H481.065V160.407C481.065 160.78 481.161 161.07 481.355 161.277C481.548 161.484 481.808 161.587 482.135 161.587C482.468 161.587 482.731 161.484 482.925 161.277C483.118 161.07 483.215 160.78 483.215 160.407V157.377H484.925ZM489.463 161.507V162.957H488.593C487.973 162.957 487.49 162.807 487.143 162.507C486.796 162.2 486.623 161.704 486.623 161.017V158.797H485.943V157.377H486.623V156.017H488.333V157.377H489.453V158.797H488.333V161.037C488.333 161.204 488.373 161.324 488.453 161.397C488.533 161.47 488.666 161.507 488.853 161.507H489.463ZM495.875 160.077C495.875 160.237 495.865 160.404 495.845 160.577H491.975C492.002 160.924 492.112 161.19 492.305 161.377C492.505 161.557 492.749 161.647 493.035 161.647C493.462 161.647 493.759 161.467 493.925 161.107H495.745C495.652 161.474 495.482 161.804 495.235 162.097C494.995 162.39 494.692 162.62 494.325 162.787C493.959 162.954 493.549 163.037 493.095 163.037C492.549 163.037 492.062 162.92 491.635 162.687C491.209 162.454 490.875 162.12 490.635 161.687C490.395 161.254 490.275 160.747 490.275 160.167C490.275 159.587 490.392 159.08 490.625 158.647C490.865 158.214 491.199 157.88 491.625 157.647C492.052 157.414 492.542 157.297 493.095 157.297C493.635 157.297 494.115 157.41 494.535 157.637C494.955 157.864 495.282 158.187 495.515 158.607C495.755 159.027 495.875 159.517 495.875 160.077ZM494.125 159.627C494.125 159.334 494.025 159.1 493.825 158.927C493.625 158.754 493.375 158.667 493.075 158.667C492.789 158.667 492.545 158.75 492.345 158.917C492.152 159.084 492.032 159.32 491.985 159.627H494.125Z" fill="#5A5A5F"/>
<path d="M409.955 199.19H408.245L405.385 194.86V199.19H403.675V192.17H405.385L408.245 196.52V192.17H409.955V199.19ZM413.935 199.27C413.388 199.27 412.895 199.154 412.455 198.92C412.021 198.687 411.678 198.354 411.425 197.92C411.178 197.487 411.055 196.98 411.055 196.4C411.055 195.827 411.181 195.324 411.435 194.89C411.688 194.45 412.035 194.114 412.475 193.88C412.915 193.647 413.408 193.53 413.955 193.53C414.501 193.53 414.995 193.647 415.435 193.88C415.875 194.114 416.221 194.45 416.475 194.89C416.728 195.324 416.855 195.827 416.855 196.4C416.855 196.974 416.725 197.48 416.465 197.92C416.211 198.354 415.861 198.687 415.415 198.92C414.975 199.154 414.481 199.27 413.935 199.27ZM413.935 197.79C414.261 197.79 414.538 197.67 414.765 197.43C414.998 197.19 415.115 196.847 415.115 196.4C415.115 195.954 415.001 195.61 414.775 195.37C414.555 195.13 414.281 195.01 413.955 195.01C413.621 195.01 413.345 195.13 413.125 195.37C412.905 195.604 412.795 195.947 412.795 196.4C412.795 196.847 412.901 197.19 413.115 197.43C413.335 197.67 413.608 197.79 413.935 197.79ZM422.821 199.26C422.308 199.26 421.848 199.177 421.441 199.01C421.034 198.844 420.708 198.597 420.461 198.27C420.221 197.944 420.094 197.55 420.081 197.09H421.901C421.928 197.35 422.018 197.55 422.171 197.69C422.324 197.824 422.524 197.89 422.771 197.89C423.024 197.89 423.224 197.834 423.371 197.72C423.518 197.6 423.591 197.437 423.591 197.23C423.591 197.057 423.531 196.914 423.411 196.8C423.298 196.687 423.154 196.594 422.981 196.52C422.814 196.447 422.574 196.364 422.261 196.27C421.808 196.13 421.438 195.99 421.151 195.85C420.864 195.71 420.618 195.504 420.411 195.23C420.204 194.957 420.101 194.6 420.101 194.16C420.101 193.507 420.338 192.997 420.811 192.63C421.284 192.257 421.901 192.07 422.661 192.07C423.434 192.07 424.058 192.257 424.531 192.63C425.004 192.997 425.258 193.51 425.291 194.17H423.441C423.428 193.944 423.344 193.767 423.191 193.64C423.038 193.507 422.841 193.44 422.601 193.44C422.394 193.44 422.228 193.497 422.101 193.61C421.974 193.717 421.911 193.874 421.911 194.08C421.911 194.307 422.018 194.484 422.231 194.61C422.444 194.737 422.778 194.874 423.231 195.02C423.684 195.174 424.051 195.32 424.331 195.46C424.618 195.6 424.864 195.804 425.071 196.07C425.278 196.337 425.381 196.68 425.381 197.1C425.381 197.5 425.278 197.864 425.071 198.19C424.871 198.517 424.578 198.777 424.191 198.97C423.804 199.164 423.348 199.26 422.821 199.26ZM426.293 196.4C426.293 195.82 426.41 195.314 426.643 194.88C426.883 194.447 427.213 194.114 427.633 193.88C428.06 193.647 428.547 193.53 429.093 193.53C429.793 193.53 430.377 193.714 430.843 194.08C431.317 194.447 431.627 194.964 431.773 195.63H429.953C429.8 195.204 429.503 194.99 429.063 194.99C428.75 194.99 428.5 195.114 428.313 195.36C428.127 195.6 428.033 195.947 428.033 196.4C428.033 196.854 428.127 197.204 428.313 197.45C428.5 197.69 428.75 197.81 429.063 197.81C429.503 197.81 429.8 197.597 429.953 197.17H431.773C431.627 197.824 431.317 198.337 430.843 198.71C430.37 199.084 429.787 199.27 429.093 199.27C428.547 199.27 428.06 199.154 427.633 198.92C427.213 198.687 426.883 198.354 426.643 197.92C426.41 197.487 426.293 196.98 426.293 196.4ZM432.548 196.39C432.548 195.817 432.655 195.314 432.868 194.88C433.088 194.447 433.385 194.114 433.758 193.88C434.131 193.647 434.548 193.53 435.008 193.53C435.401 193.53 435.745 193.61 436.038 193.77C436.338 193.93 436.568 194.14 436.728 194.4V193.61H438.438V199.19H436.728V198.4C436.561 198.66 436.328 198.87 436.028 199.03C435.735 199.19 435.391 199.27 434.998 199.27C434.545 199.27 434.131 199.154 433.758 198.92C433.385 198.68 433.088 198.344 432.868 197.91C432.655 197.47 432.548 196.964 432.548 196.39ZM436.728 196.4C436.728 195.974 436.608 195.637 436.368 195.39C436.135 195.144 435.848 195.02 435.508 195.02C435.168 195.02 434.878 195.144 434.638 195.39C434.405 195.63 434.288 195.964 434.288 196.39C434.288 196.817 434.405 197.157 434.638 197.41C434.878 197.657 435.168 197.78 435.508 197.78C435.848 197.78 436.135 197.657 436.368 197.41C436.608 197.164 436.728 196.827 436.728 196.4ZM443.275 193.55C443.929 193.55 444.449 193.764 444.835 194.19C445.229 194.61 445.425 195.19 445.425 195.93V199.19H443.725V196.16C443.725 195.787 443.629 195.497 443.435 195.29C443.242 195.084 442.982 194.98 442.655 194.98C442.329 194.98 442.069 195.084 441.875 195.29C441.682 195.497 441.585 195.787 441.585 196.16V199.19H439.875V193.61H441.585V194.35C441.759 194.104 441.992 193.91 442.285 193.77C442.579 193.624 442.909 193.55 443.275 193.55ZM453.503 197.95H450.883L450.463 199.19H448.673L451.213 192.17H453.193L455.733 199.19H453.923L453.503 197.95ZM453.063 196.63L452.193 194.06L451.333 196.63H453.063ZM459.506 195.03H458.586V199.19H456.876V195.03H456.256V193.61H456.876V193.45C456.876 192.764 457.072 192.244 457.466 191.89C457.859 191.53 458.436 191.35 459.196 191.35C459.322 191.35 459.416 191.354 459.476 191.36V192.81C459.149 192.79 458.919 192.837 458.786 192.95C458.652 193.064 458.586 193.267 458.586 193.56V193.61H459.506V195.03ZM463.619 197.74V199.19H462.749C462.129 199.19 461.646 199.04 461.299 198.74C460.952 198.434 460.779 197.937 460.779 197.25V195.03H460.099V193.61H460.779V192.25H462.489V193.61H463.609V195.03H462.489V197.27C462.489 197.437 462.529 197.557 462.609 197.63C462.689 197.704 462.822 197.74 463.009 197.74H463.619ZM470.032 196.31C470.032 196.47 470.022 196.637 470.002 196.81H466.132C466.158 197.157 466.268 197.424 466.462 197.61C466.662 197.79 466.905 197.88 467.192 197.88C467.618 197.88 467.915 197.7 468.082 197.34H469.902C469.808 197.707 469.638 198.037 469.392 198.33C469.152 198.624 468.848 198.854 468.482 199.02C468.115 199.187 467.705 199.27 467.252 199.27C466.705 199.27 466.218 199.154 465.792 198.92C465.365 198.687 465.032 198.354 464.792 197.92C464.552 197.487 464.432 196.98 464.432 196.4C464.432 195.82 464.548 195.314 464.782 194.88C465.022 194.447 465.355 194.114 465.782 193.88C466.208 193.647 466.698 193.53 467.252 193.53C467.792 193.53 468.272 193.644 468.692 193.87C469.112 194.097 469.438 194.42 469.672 194.84C469.912 195.26 470.032 195.75 470.032 196.31ZM468.282 195.86C468.282 195.567 468.182 195.334 467.982 195.16C467.782 194.987 467.532 194.9 467.232 194.9C466.945 194.9 466.702 194.984 466.502 195.15C466.308 195.317 466.188 195.554 466.142 195.86H468.282ZM472.844 194.54C473.044 194.234 473.294 193.994 473.594 193.82C473.894 193.64 474.227 193.55 474.594 193.55V195.36H474.124C473.697 195.36 473.377 195.454 473.164 195.64C472.95 195.82 472.844 196.14 472.844 196.6V199.19H471.134V193.61H472.844V194.54ZM482.98 192.17V193.54H481.12V199.19H479.41V193.54H477.55V192.17H482.98ZM487.618 199.19L486.158 196.54H485.748V199.19H484.038V192.17H486.908C487.462 192.17 487.932 192.267 488.318 192.46C488.712 192.654 489.005 192.92 489.198 193.26C489.392 193.594 489.488 193.967 489.488 194.38C489.488 194.847 489.355 195.264 489.088 195.63C488.828 195.997 488.442 196.257 487.928 196.41L489.548 199.19H487.618ZM485.748 195.33H486.808C487.122 195.33 487.355 195.254 487.508 195.1C487.668 194.947 487.748 194.73 487.748 194.45C487.748 194.184 487.668 193.974 487.508 193.82C487.355 193.667 487.122 193.59 486.808 193.59H485.748V195.33ZM492.472 192.17V199.19H490.762V192.17H492.472Z" fill="#5A5A5F"/>
<path d="M406.995 265.689C406.335 265.689 405.729 265.536 405.175 265.229C404.629 264.922 404.192 264.496 403.865 263.949C403.545 263.396 403.385 262.776 403.385 262.089C403.385 261.402 403.545 260.786 403.865 260.239C404.192 259.692 404.629 259.266 405.175 258.959C405.729 258.652 406.335 258.499 406.995 258.499C407.655 258.499 408.259 258.652 408.805 258.959C409.359 259.266 409.792 259.692 410.105 260.239C410.425 260.786 410.585 261.402 410.585 262.089C410.585 262.776 410.425 263.396 410.105 263.949C409.785 264.496 409.352 264.922 408.805 265.229C408.259 265.536 407.655 265.689 406.995 265.689ZM406.995 264.129C407.555 264.129 408.002 263.942 408.335 263.569C408.675 263.196 408.845 262.702 408.845 262.089C408.845 261.469 408.675 260.976 408.335 260.609C408.002 260.236 407.555 260.049 406.995 260.049C406.429 260.049 405.975 260.232 405.635 260.599C405.302 260.966 405.135 261.462 405.135 262.089C405.135 262.709 405.302 263.206 405.635 263.579C405.975 263.946 406.429 264.129 406.995 264.129ZM413.447 259.969V261.389H415.737V262.709H413.447V264.249H416.037V265.619H411.737V258.599H416.037V259.969H413.447ZM417.057 262.099C417.057 261.406 417.207 260.789 417.507 260.249C417.807 259.702 418.223 259.279 418.757 258.979C419.297 258.672 419.907 258.519 420.587 258.519C421.42 258.519 422.133 258.739 422.727 259.179C423.32 259.619 423.717 260.219 423.917 260.979H422.037C421.897 260.686 421.697 260.462 421.437 260.309C421.183 260.156 420.893 260.079 420.567 260.079C420.04 260.079 419.613 260.262 419.287 260.629C418.96 260.996 418.797 261.486 418.797 262.099C418.797 262.712 418.96 263.202 419.287 263.569C419.613 263.936 420.04 264.119 420.567 264.119C420.893 264.119 421.183 264.042 421.437 263.889C421.697 263.736 421.897 263.512 422.037 263.219H423.917C423.717 263.979 423.32 264.579 422.727 265.019C422.133 265.452 421.42 265.669 420.587 265.669C419.907 265.669 419.297 265.519 418.757 265.219C418.223 264.912 417.807 264.489 417.507 263.949C417.207 263.409 417.057 262.792 417.057 262.099ZM429.303 264.219H432.323V265.619H427.363V264.319L430.363 259.999H427.363V258.599H432.323V259.899L429.303 264.219ZM438.9 262.739C438.9 262.899 438.89 263.066 438.87 263.239H435C435.027 263.586 435.137 263.852 435.33 264.039C435.53 264.219 435.773 264.309 436.06 264.309C436.487 264.309 436.783 264.129 436.95 263.769H438.77C438.677 264.136 438.507 264.466 438.26 264.759C438.02 265.052 437.717 265.282 437.35 265.449C436.983 265.616 436.573 265.699 436.12 265.699C435.573 265.699 435.087 265.582 434.66 265.349C434.233 265.116 433.9 264.782 433.66 264.349C433.42 263.916 433.3 263.409 433.3 262.829C433.3 262.249 433.417 261.742 433.65 261.309C433.89 260.876 434.223 260.542 434.65 260.309C435.077 260.076 435.567 259.959 436.12 259.959C436.66 259.959 437.14 260.072 437.56 260.299C437.98 260.526 438.307 260.849 438.54 261.269C438.78 261.689 438.9 262.179 438.9 262.739ZM437.15 262.289C437.15 261.996 437.05 261.762 436.85 261.589C436.65 261.416 436.4 261.329 436.1 261.329C435.813 261.329 435.57 261.412 435.37 261.579C435.177 261.746 435.057 261.982 435.01 262.289H437.15ZM441.712 260.969C441.912 260.662 442.162 260.422 442.462 260.249C442.762 260.069 443.095 259.979 443.462 259.979V261.789H442.992C442.565 261.789 442.245 261.882 442.032 262.069C441.819 262.249 441.712 262.569 441.712 263.029V265.619H440.002V260.039H441.712V260.969ZM447.019 265.699C446.473 265.699 445.979 265.582 445.539 265.349C445.106 265.116 444.763 264.782 444.509 264.349C444.263 263.916 444.139 263.409 444.139 262.829C444.139 262.256 444.266 261.752 444.519 261.319C444.773 260.879 445.119 260.542 445.559 260.309C445.999 260.076 446.493 259.959 447.039 259.959C447.586 259.959 448.079 260.076 448.519 260.309C448.959 260.542 449.306 260.879 449.559 261.319C449.813 261.752 449.939 262.256 449.939 262.829C449.939 263.402 449.809 263.909 449.549 264.349C449.296 264.782 448.946 265.116 448.499 265.349C448.059 265.582 447.566 265.699 447.019 265.699ZM447.019 264.219C447.346 264.219 447.623 264.099 447.849 263.859C448.083 263.619 448.199 263.276 448.199 262.829C448.199 262.382 448.086 262.039 447.859 261.799C447.639 261.559 447.366 261.439 447.039 261.439C446.706 261.439 446.429 261.559 446.209 261.799C445.989 262.032 445.879 262.376 445.879 262.829C445.879 263.276 445.986 263.619 446.199 263.859C446.419 264.099 446.693 264.219 447.019 264.219ZM453.076 262.099C453.076 261.406 453.226 260.789 453.526 260.249C453.826 259.702 454.242 259.279 454.776 258.979C455.316 258.672 455.926 258.519 456.606 258.519C457.439 258.519 458.152 258.739 458.746 259.179C459.339 259.619 459.736 260.219 459.936 260.979H458.056C457.916 260.686 457.716 260.462 457.456 260.309C457.202 260.156 456.912 260.079 456.586 260.079C456.059 260.079 455.632 260.262 455.306 260.629C454.979 260.996 454.816 261.486 454.816 262.099C454.816 262.712 454.979 263.202 455.306 263.569C455.632 263.936 456.059 264.119 456.586 264.119C456.912 264.119 457.202 264.042 457.456 263.889C457.716 263.736 457.916 263.512 458.056 263.219H459.936C459.736 263.979 459.339 264.579 458.746 265.019C458.152 265.452 457.439 265.669 456.606 265.669C455.926 265.669 455.316 265.519 454.776 265.219C454.242 264.912 453.826 264.489 453.526 263.949C453.226 263.409 453.076 262.792 453.076 262.099ZM463.723 265.699C463.176 265.699 462.683 265.582 462.243 265.349C461.81 265.116 461.466 264.782 461.213 264.349C460.966 263.916 460.843 263.409 460.843 262.829C460.843 262.256 460.97 261.752 461.223 261.319C461.476 260.879 461.823 260.542 462.263 260.309C462.703 260.076 463.196 259.959 463.743 259.959C464.29 259.959 464.783 260.076 465.223 260.309C465.663 260.542 466.01 260.879 466.263 261.319C466.516 261.752 466.643 262.256 466.643 262.829C466.643 263.402 466.513 263.909 466.253 264.349C466 264.782 465.65 265.116 465.203 265.349C464.763 265.582 464.27 265.699 463.723 265.699ZM463.723 264.219C464.05 264.219 464.326 264.099 464.553 263.859C464.786 263.619 464.903 263.276 464.903 262.829C464.903 262.382 464.79 262.039 464.563 261.799C464.343 261.559 464.07 261.439 463.743 261.439C463.41 261.439 463.133 261.559 462.913 261.799C462.693 262.032 462.583 262.376 462.583 262.829C462.583 263.276 462.69 263.619 462.903 263.859C463.123 264.099 463.396 264.219 463.723 264.219ZM473.26 260.039V265.619H471.55V264.859C471.377 265.106 471.14 265.306 470.84 265.459C470.547 265.606 470.22 265.679 469.86 265.679C469.434 265.679 469.057 265.586 468.73 265.399C468.404 265.206 468.15 264.929 467.97 264.569C467.79 264.209 467.7 263.786 467.7 263.299V260.039H469.4V263.069C469.4 263.442 469.497 263.732 469.69 263.939C469.884 264.146 470.144 264.249 470.47 264.249C470.804 264.249 471.067 264.146 471.26 263.939C471.454 263.732 471.55 263.442 471.55 263.069V260.039H473.26ZM478.088 259.979C478.742 259.979 479.262 260.192 479.648 260.619C480.042 261.039 480.238 261.619 480.238 262.359V265.619H478.538V262.589C478.538 262.216 478.442 261.926 478.248 261.719C478.055 261.512 477.795 261.409 477.468 261.409C477.142 261.409 476.882 261.512 476.688 261.719C476.495 261.926 476.398 262.216 476.398 262.589V265.619H474.688V260.039H476.398V260.779C476.572 260.532 476.805 260.339 477.098 260.199C477.392 260.052 477.722 259.979 478.088 259.979ZM484.737 264.169V265.619H483.867C483.247 265.619 482.763 265.469 482.417 265.169C482.07 264.862 481.897 264.366 481.897 263.679V261.459H481.217V260.039H481.897V258.679H483.607V260.039H484.727V261.459H483.607V263.699C483.607 263.866 483.647 263.986 483.727 264.059C483.807 264.132 483.94 264.169 484.127 264.169H484.737ZM488.159 265.699C487.673 265.699 487.239 265.616 486.859 265.449C486.479 265.282 486.179 265.056 485.959 264.769C485.739 264.476 485.616 264.149 485.589 263.789H487.279C487.299 263.982 487.389 264.139 487.549 264.259C487.709 264.379 487.906 264.439 488.139 264.439C488.353 264.439 488.516 264.399 488.629 264.319C488.749 264.232 488.809 264.122 488.809 263.989C488.809 263.829 488.726 263.712 488.559 263.639C488.393 263.559 488.123 263.472 487.749 263.379C487.349 263.286 487.016 263.189 486.749 263.089C486.483 262.982 486.253 262.819 486.059 262.599C485.866 262.372 485.769 262.069 485.769 261.689C485.769 261.369 485.856 261.079 486.029 260.819C486.209 260.552 486.469 260.342 486.809 260.189C487.156 260.036 487.566 259.959 488.039 259.959C488.739 259.959 489.289 260.132 489.689 260.479C490.096 260.826 490.329 261.286 490.389 261.859H488.809C488.783 261.666 488.696 261.512 488.549 261.399C488.409 261.286 488.223 261.229 487.989 261.229C487.789 261.229 487.636 261.269 487.529 261.349C487.423 261.422 487.369 261.526 487.369 261.659C487.369 261.819 487.453 261.939 487.619 262.019C487.793 262.099 488.059 262.179 488.419 262.259C488.833 262.366 489.169 262.472 489.429 262.579C489.689 262.679 489.916 262.846 490.109 263.079C490.309 263.306 490.413 263.612 490.419 263.999C490.419 264.326 490.326 264.619 490.139 264.879C489.959 265.132 489.696 265.332 489.349 265.479C489.009 265.626 488.613 265.699 488.159 265.699Z" fill="#5A5A5F"/>
<path d="M406.215 232.044C405.702 232.044 405.242 231.96 404.835 231.794C404.429 231.627 404.102 231.38 403.855 231.054C403.615 230.727 403.489 230.334 403.475 229.874H405.295C405.322 230.134 405.412 230.334 405.565 230.474C405.719 230.607 405.919 230.674 406.165 230.674C406.419 230.674 406.619 230.617 406.765 230.504C406.912 230.384 406.985 230.22 406.985 230.014C406.985 229.84 406.925 229.697 406.805 229.584C406.692 229.47 406.549 229.377 406.375 229.304C406.209 229.23 405.969 229.147 405.655 229.054C405.202 228.914 404.832 228.774 404.545 228.634C404.259 228.494 404.012 228.287 403.805 228.014C403.599 227.74 403.495 227.384 403.495 226.944C403.495 226.29 403.732 225.78 404.205 225.414C404.679 225.04 405.295 224.854 406.055 224.854C406.829 224.854 407.452 225.04 407.925 225.414C408.399 225.78 408.652 226.294 408.685 226.954H406.835C406.822 226.727 406.739 226.55 406.585 226.424C406.432 226.29 406.235 226.224 405.995 226.224C405.789 226.224 405.622 226.28 405.495 226.394C405.369 226.5 405.305 226.657 405.305 226.864C405.305 227.09 405.412 227.267 405.625 227.394C405.839 227.52 406.172 227.657 406.625 227.804C407.079 227.957 407.445 228.104 407.725 228.244C408.012 228.384 408.259 228.587 408.465 228.854C408.672 229.12 408.775 229.464 408.775 229.884C408.775 230.284 408.672 230.647 408.465 230.974C408.265 231.3 407.972 231.56 407.585 231.754C407.199 231.947 406.742 232.044 406.215 232.044ZM415.078 224.954V226.324H413.218V231.974H411.508V226.324H409.648V224.954H415.078ZM418.676 232.044C418.162 232.044 417.702 231.96 417.296 231.794C416.889 231.627 416.562 231.38 416.316 231.054C416.076 230.727 415.949 230.334 415.936 229.874H417.756C417.782 230.134 417.872 230.334 418.026 230.474C418.179 230.607 418.379 230.674 418.626 230.674C418.879 230.674 419.079 230.617 419.226 230.504C419.372 230.384 419.446 230.22 419.446 230.014C419.446 229.84 419.386 229.697 419.266 229.584C419.152 229.47 419.009 229.377 418.836 229.304C418.669 229.23 418.429 229.147 418.116 229.054C417.662 228.914 417.292 228.774 417.006 228.634C416.719 228.494 416.472 228.287 416.266 228.014C416.059 227.74 415.956 227.384 415.956 226.944C415.956 226.29 416.192 225.78 416.666 225.414C417.139 225.04 417.756 224.854 418.516 224.854C419.289 224.854 419.912 225.04 420.386 225.414C420.859 225.78 421.112 226.294 421.146 226.954H419.296C419.282 226.727 419.199 226.55 419.046 226.424C418.892 226.29 418.696 226.224 418.456 226.224C418.249 226.224 418.082 226.28 417.956 226.394C417.829 226.5 417.766 226.657 417.766 226.864C417.766 227.09 417.872 227.267 418.086 227.394C418.299 227.52 418.632 227.657 419.086 227.804C419.539 227.957 419.906 228.104 420.186 228.244C420.472 228.384 420.719 228.587 420.926 228.854C421.132 229.12 421.236 229.464 421.236 229.884C421.236 230.284 421.132 230.647 420.926 230.974C420.726 231.3 420.432 231.56 420.046 231.754C419.659 231.947 419.202 232.044 418.676 232.044Z" fill="#5A5A5F"/>
<path d="M303.184 195.092C303.184 214.178 298.817 233.012 290.416 250.15C282.016 267.288 269.805 282.277 254.719 293.968C239.633 305.659 222.071 313.744 203.379 317.602C184.687 321.46 165.359 320.99 146.877 316.227L159.544 267.071C170.526 269.901 182.011 270.18 193.118 267.888C204.224 265.595 214.66 260.791 223.624 253.844C232.588 246.897 239.844 237.991 244.835 227.807C249.827 217.624 252.422 206.433 252.422 195.092H303.184Z" fill="#004EDA"/>
<path d="M147.807 316.463C131.868 312.486 116.869 305.408 103.666 295.634C90.4621 285.861 79.3131 273.582 70.8551 259.499L114.372 233.363C119.398 241.731 126.022 249.027 133.868 254.834C141.713 260.642 150.626 264.847 160.097 267.211L147.807 316.463Z" fill="#5A5A5F"/>
<path d="M71.5396 260.625C54.8944 233.561 49.1715 201.177 55.5327 170.048C61.8939 138.918 79.8625 111.375 105.791 93.0111L135.131 134.436C119.724 145.348 109.047 161.714 105.267 180.211C101.488 198.708 104.888 217.951 114.779 234.032L71.5396 260.625Z" fill="#FFA600"/>
<path d="M105.35 93.3249C120.617 82.4117 138.145 75.0737 156.633 71.8543C175.122 68.635 194.098 69.6168 212.156 74.7272L198.333 123.571C187.603 120.535 176.327 119.951 165.341 121.864C154.355 123.777 143.941 128.137 134.869 134.622L105.35 93.3249Z" fill="#EF2637"/>
<path d="M210.608 74.2999C241.289 82.5588 267.677 102.183 284.416 129.189C301.156 156.195 306.991 188.559 300.738 219.71L250.974 209.722C254.69 191.21 251.222 171.978 241.275 155.929C231.328 139.881 215.647 128.219 197.415 123.312L210.608 74.2999Z" fill="#4BB543"/>
<path d="M251.51 144.76C251.537 144.047 251.77 143.497 252.21 143.11C252.65 142.723 253.247 142.53 254 142.53C254.5 142.53 254.927 142.617 255.28 142.79C255.64 142.963 255.91 143.2 256.09 143.5C256.277 143.8 256.37 144.137 256.37 144.51C256.37 144.95 256.26 145.31 256.04 145.59C255.82 145.863 255.563 146.05 255.27 146.15V146.19C255.65 146.317 255.95 146.527 256.17 146.82C256.39 147.113 256.5 147.49 256.5 147.95C256.5 148.363 256.403 148.73 256.21 149.05C256.023 149.363 255.747 149.61 255.38 149.79C255.02 149.97 254.59 150.06 254.09 150.06C253.29 150.06 252.65 149.863 252.17 149.47C251.697 149.077 251.447 148.483 251.42 147.69H253.08C253.087 147.983 253.17 148.217 253.33 148.39C253.49 148.557 253.723 148.64 254.03 148.64C254.29 148.64 254.49 148.567 254.63 148.42C254.777 148.267 254.85 148.067 254.85 147.82C254.85 147.5 254.747 147.27 254.54 147.13C254.34 146.983 254.017 146.91 253.57 146.91H253.25V145.52H253.57C253.91 145.52 254.183 145.463 254.39 145.35C254.603 145.23 254.71 145.02 254.71 144.72C254.71 144.48 254.643 144.293 254.51 144.16C254.377 144.027 254.193 143.96 253.96 143.96C253.707 143.96 253.517 144.037 253.39 144.19C253.27 144.343 253.2 144.533 253.18 144.76H251.51ZM259.545 147.86C259.645 148.387 259.951 148.65 260.465 148.65C260.818 148.65 261.068 148.493 261.215 148.18C261.361 147.867 261.435 147.357 261.435 146.65C261.288 146.857 261.088 147.017 260.835 147.13C260.581 147.243 260.298 147.3 259.985 147.3C259.558 147.3 259.178 147.213 258.845 147.04C258.511 146.86 258.248 146.597 258.055 146.25C257.868 145.897 257.775 145.47 257.775 144.97C257.775 144.477 257.875 144.047 258.075 143.68C258.281 143.313 258.571 143.03 258.945 142.83C259.325 142.63 259.771 142.53 260.285 142.53C261.271 142.53 261.961 142.837 262.355 143.45C262.748 144.063 262.945 144.967 262.945 146.16C262.945 147.027 262.865 147.743 262.705 148.31C262.551 148.87 262.288 149.297 261.915 149.59C261.548 149.883 261.045 150.03 260.405 150.03C259.898 150.03 259.465 149.93 259.105 149.73C258.751 149.53 258.478 149.267 258.285 148.94C258.098 148.613 257.991 148.253 257.965 147.86H259.545ZM260.375 145.95C260.655 145.95 260.878 145.867 261.045 145.7C261.211 145.527 261.295 145.293 261.295 145C261.295 144.68 261.208 144.433 261.035 144.26C260.861 144.087 260.628 144 260.335 144C260.041 144 259.808 144.09 259.635 144.27C259.468 144.443 259.385 144.683 259.385 144.99C259.385 145.277 259.468 145.51 259.635 145.69C259.808 145.863 260.055 145.95 260.375 145.95ZM263.917 144.54C263.917 144 264.07 143.583 264.377 143.29C264.69 142.997 265.094 142.85 265.587 142.85C266.08 142.85 266.48 142.997 266.787 143.29C267.094 143.583 267.247 144 267.247 144.54C267.247 145.08 267.094 145.497 266.787 145.79C266.48 146.083 266.08 146.23 265.587 146.23C265.094 146.23 264.69 146.083 264.377 145.79C264.07 145.497 263.917 145.08 263.917 144.54ZM270.707 142.96L266.857 150H265.207L269.057 142.96H270.707ZM265.577 143.85C265.257 143.85 265.097 144.08 265.097 144.54C265.097 144.993 265.257 145.22 265.577 145.22C265.73 145.22 265.85 145.163 265.937 145.05C266.024 144.937 266.067 144.767 266.067 144.54C266.067 144.08 265.904 143.85 265.577 143.85ZM268.677 148.42C268.677 147.88 268.83 147.463 269.137 147.17C269.444 146.877 269.844 146.73 270.337 146.73C270.83 146.73 271.23 146.877 271.537 147.17C271.844 147.463 271.997 147.88 271.997 148.42C271.997 148.96 271.844 149.377 271.537 149.67C271.23 149.963 270.83 150.11 270.337 150.11C269.844 150.11 269.444 149.963 269.137 149.67C268.83 149.377 268.677 148.96 268.677 148.42ZM270.327 147.73C270.174 147.73 270.054 147.787 269.967 147.9C269.887 148.013 269.847 148.187 269.847 148.42C269.847 148.873 270.007 149.1 270.327 149.1C270.48 149.1 270.6 149.043 270.687 148.93C270.774 148.817 270.817 148.647 270.817 148.42C270.817 148.193 270.774 148.023 270.687 147.91C270.6 147.79 270.48 147.73 270.327 147.73Z" fill="white"/>
<path d="M226.39 277.63C226.617 277.45 226.72 277.367 226.7 277.38C227.353 276.84 227.867 276.397 228.24 276.05C228.62 275.703 228.94 275.34 229.2 274.96C229.46 274.58 229.59 274.21 229.59 273.85C229.59 273.577 229.527 273.363 229.4 273.21C229.273 273.057 229.083 272.98 228.83 272.98C228.577 272.98 228.377 273.077 228.23 273.27C228.09 273.457 228.02 273.723 228.02 274.07H226.37C226.383 273.503 226.503 273.03 226.73 272.65C226.963 272.27 227.267 271.99 227.64 271.81C228.02 271.63 228.44 271.54 228.9 271.54C229.693 271.54 230.29 271.743 230.69 272.15C231.097 272.557 231.3 273.087 231.3 273.74C231.3 274.453 231.057 275.117 230.57 275.73C230.083 276.337 229.463 276.93 228.71 277.51H231.41V278.9H226.39V277.63ZM237.503 273.19H234.383V274.57C234.516 274.423 234.703 274.303 234.943 274.21C235.183 274.117 235.443 274.07 235.723 274.07C236.223 274.07 236.636 274.183 236.963 274.41C237.296 274.637 237.54 274.93 237.693 275.29C237.846 275.65 237.923 276.04 237.923 276.46C237.923 277.24 237.703 277.86 237.263 278.32C236.823 278.773 236.203 279 235.403 279C234.87 279 234.406 278.91 234.013 278.73C233.62 278.543 233.316 278.287 233.103 277.96C232.89 277.633 232.773 277.257 232.753 276.83H234.423C234.463 277.037 234.56 277.21 234.713 277.35C234.866 277.483 235.076 277.55 235.343 277.55C235.656 277.55 235.89 277.45 236.043 277.25C236.196 277.05 236.273 276.783 236.273 276.45C236.273 276.123 236.193 275.873 236.033 275.7C235.873 275.527 235.64 275.44 235.333 275.44C235.106 275.44 234.92 275.497 234.773 275.61C234.626 275.717 234.53 275.86 234.483 276.04H232.833V271.69H237.503V273.19ZM238.927 273.54C238.927 273 239.08 272.583 239.387 272.29C239.7 271.997 240.103 271.85 240.597 271.85C241.09 271.85 241.49 271.997 241.797 272.29C242.103 272.583 242.257 273 242.257 273.54C242.257 274.08 242.103 274.497 241.797 274.79C241.49 275.083 241.09 275.23 240.597 275.23C240.103 275.23 239.7 275.083 239.387 274.79C239.08 274.497 238.927 274.08 238.927 273.54ZM245.717 271.96L241.867 279H240.217L244.067 271.96H245.717ZM240.587 272.85C240.267 272.85 240.107 273.08 240.107 273.54C240.107 273.993 240.267 274.22 240.587 274.22C240.74 274.22 240.86 274.163 240.947 274.05C241.033 273.937 241.077 273.767 241.077 273.54C241.077 273.08 240.913 272.85 240.587 272.85ZM243.687 277.42C243.687 276.88 243.84 276.463 244.147 276.17C244.453 275.877 244.853 275.73 245.347 275.73C245.84 275.73 246.24 275.877 246.547 276.17C246.853 276.463 247.007 276.88 247.007 277.42C247.007 277.96 246.853 278.377 246.547 278.67C246.24 278.963 245.84 279.11 245.347 279.11C244.853 279.11 244.453 278.963 244.147 278.67C243.84 278.377 243.687 277.96 243.687 277.42ZM245.337 276.73C245.183 276.73 245.063 276.787 244.977 276.9C244.897 277.013 244.857 277.187 244.857 277.42C244.857 277.873 245.017 278.1 245.337 278.1C245.49 278.1 245.61 278.043 245.697 277.93C245.783 277.817 245.827 277.647 245.827 277.42C245.827 277.193 245.783 277.023 245.697 276.91C245.61 276.79 245.49 276.73 245.337 276.73Z" fill="white"/>
<path d="M113.27 278.29V276.7H116.04V284H114.26V278.29H113.27ZM119.25 281.86C119.35 282.387 119.656 282.65 120.17 282.65C120.523 282.65 120.773 282.493 120.92 282.18C121.066 281.867 121.14 281.357 121.14 280.65C120.993 280.857 120.793 281.017 120.54 281.13C120.286 281.243 120.003 281.3 119.69 281.3C119.263 281.3 118.883 281.213 118.55 281.04C118.216 280.86 117.953 280.597 117.76 280.25C117.573 279.897 117.48 279.47 117.48 278.97C117.48 278.477 117.58 278.047 117.78 277.68C117.986 277.313 118.276 277.03 118.65 276.83C119.03 276.63 119.476 276.53 119.99 276.53C120.976 276.53 121.666 276.837 122.06 277.45C122.453 278.063 122.65 278.967 122.65 280.16C122.65 281.027 122.57 281.743 122.41 282.31C122.256 282.87 121.993 283.297 121.62 283.59C121.253 283.883 120.75 284.03 120.11 284.03C119.603 284.03 119.17 283.93 118.81 283.73C118.456 283.53 118.183 283.267 117.99 282.94C117.803 282.613 117.696 282.253 117.67 281.86H119.25ZM120.08 279.95C120.36 279.95 120.583 279.867 120.75 279.7C120.916 279.527 121 279.293 121 279C121 278.68 120.913 278.433 120.74 278.26C120.566 278.087 120.333 278 120.04 278C119.746 278 119.513 278.09 119.34 278.27C119.173 278.443 119.09 278.683 119.09 278.99C119.09 279.277 119.173 279.51 119.34 279.69C119.513 279.863 119.76 279.95 120.08 279.95ZM123.622 278.54C123.622 278 123.775 277.583 124.082 277.29C124.395 276.997 124.799 276.85 125.292 276.85C125.785 276.85 126.185 276.997 126.492 277.29C126.799 277.583 126.952 278 126.952 278.54C126.952 279.08 126.799 279.497 126.492 279.79C126.185 280.083 125.785 280.23 125.292 280.23C124.799 280.23 124.395 280.083 124.082 279.79C123.775 279.497 123.622 279.08 123.622 278.54ZM130.412 276.96L126.562 284H124.912L128.762 276.96H130.412ZM125.282 277.85C124.962 277.85 124.802 278.08 124.802 278.54C124.802 278.993 124.962 279.22 125.282 279.22C125.435 279.22 125.555 279.163 125.642 279.05C125.729 278.937 125.772 278.767 125.772 278.54C125.772 278.08 125.609 277.85 125.282 277.85ZM128.382 282.42C128.382 281.88 128.535 281.463 128.842 281.17C129.149 280.877 129.549 280.73 130.042 280.73C130.535 280.73 130.935 280.877 131.242 281.17C131.549 281.463 131.702 281.88 131.702 282.42C131.702 282.96 131.549 283.377 131.242 283.67C130.935 283.963 130.535 284.11 130.042 284.11C129.549 284.11 129.149 283.963 128.842 283.67C128.535 283.377 128.382 282.96 128.382 282.42ZM130.032 281.73C129.879 281.73 129.759 281.787 129.672 281.9C129.592 282.013 129.552 282.187 129.552 282.42C129.552 282.873 129.712 283.1 130.032 283.1C130.185 283.1 130.305 283.043 130.392 282.93C130.479 282.817 130.522 282.647 130.522 282.42C130.522 282.193 130.479 282.023 130.392 281.91C130.305 281.79 130.185 281.73 130.032 281.73Z" fill="white"/>
<path d="M154.59 97.19H151.47V98.57C151.603 98.4233 151.79 98.3033 152.03 98.21C152.27 98.1167 152.53 98.07 152.81 98.07C153.31 98.07 153.723 98.1833 154.05 98.41C154.383 98.6367 154.627 98.93 154.78 99.29C154.933 99.65 155.01 100.04 155.01 100.46C155.01 101.24 154.79 101.86 154.35 102.32C153.91 102.773 153.29 103 152.49 103C151.957 103 151.493 102.91 151.1 102.73C150.707 102.543 150.403 102.287 150.19 101.96C149.977 101.633 149.86 101.257 149.84 100.83H151.51C151.55 101.037 151.647 101.21 151.8 101.35C151.953 101.483 152.163 101.55 152.43 101.55C152.743 101.55 152.977 101.45 153.13 101.25C153.283 101.05 153.36 100.783 153.36 100.45C153.36 100.123 153.28 99.8733 153.12 99.7C152.96 99.5267 152.727 99.44 152.42 99.44C152.193 99.44 152.007 99.4967 151.86 99.61C151.713 99.7167 151.617 99.86 151.57 100.04H149.92V95.69H154.59V97.19ZM156.014 97.54C156.014 97 156.167 96.5833 156.474 96.29C156.787 95.9967 157.191 95.85 157.684 95.85C158.177 95.85 158.577 95.9967 158.884 96.29C159.191 96.5833 159.344 97 159.344 97.54C159.344 98.08 159.191 98.4967 158.884 98.79C158.577 99.0833 158.177 99.23 157.684 99.23C157.191 99.23 156.787 99.0833 156.474 98.79C156.167 98.4967 156.014 98.08 156.014 97.54ZM162.804 95.96L158.954 103H157.304L161.154 95.96H162.804ZM157.674 96.85C157.354 96.85 157.194 97.08 157.194 97.54C157.194 97.9933 157.354 98.22 157.674 98.22C157.827 98.22 157.947 98.1633 158.034 98.05C158.121 97.9367 158.164 97.7667 158.164 97.54C158.164 97.08 158.001 96.85 157.674 96.85ZM160.774 101.42C160.774 100.88 160.927 100.463 161.234 100.17C161.541 99.8767 161.941 99.73 162.434 99.73C162.927 99.73 163.327 99.8767 163.634 100.17C163.941 100.463 164.094 100.88 164.094 101.42C164.094 101.96 163.941 102.377 163.634 102.67C163.327 102.963 162.927 103.11 162.434 103.11C161.941 103.11 161.541 102.963 161.234 102.67C160.927 102.377 160.774 101.96 160.774 101.42ZM162.424 100.73C162.271 100.73 162.151 100.787 162.064 100.9C161.984 101.013 161.944 101.187 161.944 101.42C161.944 101.873 162.104 102.1 162.424 102.1C162.577 102.1 162.697 102.043 162.784 101.93C162.871 101.817 162.914 101.647 162.914 101.42C162.914 101.193 162.871 101.023 162.784 100.91C162.697 100.79 162.577 100.73 162.424 100.73Z" fill="white"/>
<path d="M70.27 173.29V171.7H73.04V179H71.26V173.29H70.27ZM74.3498 177.63C74.5764 177.45 74.6798 177.367 74.6598 177.38C75.3131 176.84 75.8264 176.397 76.1998 176.05C76.5798 175.703 76.8998 175.34 77.1598 174.96C77.4198 174.58 77.5498 174.21 77.5498 173.85C77.5498 173.577 77.4864 173.363 77.3598 173.21C77.2331 173.057 77.0431 172.98 76.7898 172.98C76.5364 172.98 76.3364 173.077 76.1898 173.27C76.0498 173.457 75.9798 173.723 75.9798 174.07H74.3298C74.3431 173.503 74.4631 173.03 74.6898 172.65C74.9231 172.27 75.2264 171.99 75.5998 171.81C75.9798 171.63 76.3998 171.54 76.8598 171.54C77.6531 171.54 78.2498 171.743 78.6498 172.15C79.0564 172.557 79.2598 173.087 79.2598 173.74C79.2598 174.453 79.0164 175.117 78.5298 175.73C78.0431 176.337 77.4231 176.93 76.6698 177.51H79.3698V178.9H74.3498V177.63ZM80.1827 173.54C80.1827 173 80.336 172.583 80.6427 172.29C80.956 171.997 81.3593 171.85 81.8527 171.85C82.346 171.85 82.746 171.997 83.0527 172.29C83.3593 172.583 83.5127 173 83.5127 173.54C83.5127 174.08 83.3593 174.497 83.0527 174.79C82.746 175.083 82.346 175.23 81.8527 175.23C81.3593 175.23 80.956 175.083 80.6427 174.79C80.336 174.497 80.1827 174.08 80.1827 173.54ZM86.9727 171.96L83.1227 179H81.4727L85.3227 171.96H86.9727ZM81.8427 172.85C81.5227 172.85 81.3627 173.08 81.3627 173.54C81.3627 173.993 81.5227 174.22 81.8427 174.22C81.996 174.22 82.116 174.163 82.2027 174.05C82.2893 173.937 82.3327 173.767 82.3327 173.54C82.3327 173.08 82.1693 172.85 81.8427 172.85ZM84.9427 177.42C84.9427 176.88 85.096 176.463 85.4027 176.17C85.7093 175.877 86.1093 175.73 86.6027 175.73C87.096 175.73 87.496 175.877 87.8027 176.17C88.1093 176.463 88.2627 176.88 88.2627 177.42C88.2627 177.96 88.1093 178.377 87.8027 178.67C87.496 178.963 87.096 179.11 86.6027 179.11C86.1093 179.11 85.7093 178.963 85.4027 178.67C85.096 178.377 84.9427 177.96 84.9427 177.42ZM86.5927 176.73C86.4393 176.73 86.3193 176.787 86.2327 176.9C86.1527 177.013 86.1127 177.187 86.1127 177.42C86.1127 177.873 86.2727 178.1 86.5927 178.1C86.746 178.1 86.866 178.043 86.9527 177.93C87.0393 177.817 87.0827 177.647 87.0827 177.42C87.0827 177.193 87.0393 177.023 86.9527 176.91C86.866 176.79 86.746 176.73 86.5927 176.73Z" fill="white"/>
<path d="M158.81 192.75V190.878H162.554V204H160.484V192.75H158.81ZM165.733 197.268C165.733 195.192 166.081 193.572 166.777 192.408C167.485 191.232 168.697 190.644 170.413 190.644C172.129 190.644 173.335 191.232 174.031 192.408C174.739 193.572 175.093 195.192 175.093 197.268C175.093 199.368 174.739 201.012 174.031 202.2C173.335 203.376 172.129 203.964 170.413 203.964C168.697 203.964 167.485 203.376 166.777 202.2C166.081 201.012 165.733 199.368 165.733 197.268ZM173.077 197.268C173.077 196.296 173.011 195.474 172.879 194.802C172.759 194.13 172.507 193.584 172.123 193.164C171.739 192.732 171.169 192.516 170.413 192.516C169.657 192.516 169.087 192.732 168.703 193.164C168.319 193.584 168.061 194.13 167.929 194.802C167.809 195.474 167.749 196.296 167.749 197.268C167.749 198.276 167.809 199.122 167.929 199.806C168.049 200.49 168.301 201.042 168.685 201.462C169.081 201.882 169.657 202.092 170.413 202.092C171.169 202.092 171.739 201.882 172.123 201.462C172.519 201.042 172.777 200.49 172.897 199.806C173.017 199.122 173.077 198.276 173.077 197.268ZM177.624 197.268C177.624 195.192 177.972 193.572 178.668 192.408C179.376 191.232 180.588 190.644 182.304 190.644C184.02 190.644 185.226 191.232 185.922 192.408C186.63 193.572 186.984 195.192 186.984 197.268C186.984 199.368 186.63 201.012 185.922 202.2C185.226 203.376 184.02 203.964 182.304 203.964C180.588 203.964 179.376 203.376 178.668 202.2C177.972 201.012 177.624 199.368 177.624 197.268ZM184.968 197.268C184.968 196.296 184.902 195.474 184.77 194.802C184.65 194.13 184.398 193.584 184.014 193.164C183.63 192.732 183.06 192.516 182.304 192.516C181.548 192.516 180.978 192.732 180.594 193.164C180.21 193.584 179.952 194.13 179.82 194.802C179.7 195.474 179.64 196.296 179.64 197.268C179.64 198.276 179.7 199.122 179.82 199.806C179.94 200.49 180.192 201.042 180.576 201.462C180.972 201.882 181.548 202.092 182.304 202.092C183.06 202.092 183.63 201.882 184.014 201.462C184.41 201.042 184.668 200.49 184.788 199.806C184.908 199.122 184.968 198.276 184.968 197.268ZM189.191 194.046C189.191 193.17 189.443 192.486 189.947 191.994C190.463 191.49 191.123 191.238 191.927 191.238C192.731 191.238 193.385 191.49 193.889 191.994C194.405 192.486 194.663 193.17 194.663 194.046C194.663 194.922 194.405 195.612 193.889 196.116C193.385 196.62 192.731 196.872 191.927 196.872C191.123 196.872 190.463 196.62 189.947 196.116C189.443 195.612 189.191 194.922 189.191 194.046ZM200.171 191.472L192.989 204H190.973L198.155 191.472H200.171ZM191.927 192.48C191.171 192.48 190.793 193.002 190.793 194.046C190.793 195.102 191.171 195.63 191.927 195.63C192.287 195.63 192.563 195.504 192.755 195.252C192.959 194.988 193.061 194.586 193.061 194.046C193.061 193.002 192.683 192.48 191.927 192.48ZM196.517 201.408C196.517 200.532 196.769 199.848 197.273 199.356C197.789 198.852 198.449 198.6 199.253 198.6C200.045 198.6 200.693 198.852 201.197 199.356C201.713 199.848 201.971 200.532 201.971 201.408C201.971 202.284 201.713 202.974 201.197 203.478C200.693 203.982 200.045 204.234 199.253 204.234C198.449 204.234 197.789 203.982 197.273 203.478C196.769 202.974 196.517 202.284 196.517 201.408ZM199.235 199.842C198.479 199.842 198.101 200.364 198.101 201.408C198.101 202.452 198.479 202.974 199.235 202.974C199.991 202.974 200.369 202.452 200.369 201.408C200.369 200.364 199.991 199.842 199.235 199.842Z" fill="#5A5A5F"/>
<path d="M212.976 35.692C212.976 36.2573 212.843 36.7907 212.576 37.292C212.309 37.7933 211.883 38.204 211.296 38.524C210.709 38.8333 209.957 38.988 209.04 38.988H207.024V43.5H205.2V32.38H209.04C209.893 32.38 210.613 32.5293 211.2 32.828C211.797 33.116 212.24 33.5107 212.528 34.012C212.827 34.5133 212.976 35.0733 212.976 35.692ZM209.04 37.5C209.733 37.5 210.251 37.3453 210.592 37.036C210.933 36.716 211.104 36.268 211.104 35.692C211.104 34.476 210.416 33.868 209.04 33.868H207.024V37.5H209.04ZM216.54 35.964C216.806 35.516 217.158 35.1693 217.596 34.924C218.044 34.668 218.572 34.54 219.18 34.54V36.428H218.716C218.001 36.428 217.457 36.6093 217.084 36.972C216.721 37.3347 216.54 37.964 216.54 38.86V43.5H214.716V34.684H216.54V35.964ZM228.936 38.876C228.936 39.2067 228.915 39.5053 228.872 39.772H222.136C222.19 40.476 222.451 41.0413 222.92 41.468C223.39 41.8947 223.966 42.108 224.648 42.108C225.63 42.108 226.323 41.6973 226.728 40.876H228.696C228.43 41.6867 227.944 42.3533 227.24 42.876C226.547 43.388 225.683 43.644 224.648 43.644C223.806 43.644 223.048 43.4573 222.376 43.084C221.715 42.7 221.192 42.1667 220.808 41.484C220.435 40.7907 220.248 39.9907 220.248 39.084C220.248 38.1773 220.43 37.3827 220.792 36.7C221.166 36.0067 221.683 35.4733 222.344 35.1C223.016 34.7267 223.784 34.54 224.648 34.54C225.48 34.54 226.222 34.7213 226.872 35.084C227.523 35.4467 228.03 35.9587 228.392 36.62C228.755 37.2707 228.936 38.0227 228.936 38.876ZM227.032 38.3C227.022 37.628 226.782 37.0893 226.312 36.684C225.843 36.2787 225.262 36.076 224.568 36.076C223.939 36.076 223.4 36.2787 222.952 36.684C222.504 37.0787 222.238 37.6173 222.152 38.3H227.032ZM232.555 35.98C232.865 35.5747 233.286 35.2333 233.819 34.956C234.353 34.6787 234.955 34.54 235.627 34.54C236.395 34.54 237.094 34.732 237.723 35.116C238.363 35.4893 238.865 36.0173 239.227 36.7C239.59 37.3827 239.771 38.1667 239.771 39.052C239.771 39.9373 239.59 40.732 239.227 41.436C238.865 42.1293 238.363 42.6733 237.723 43.068C237.094 43.452 236.395 43.644 235.627 43.644C234.955 43.644 234.358 43.5107 233.835 43.244C233.313 42.9667 232.886 42.6253 232.555 42.22V47.692H230.731V34.684H232.555V35.98ZM237.915 39.052C237.915 38.444 237.787 37.9213 237.531 37.484C237.286 37.036 236.955 36.7 236.539 36.476C236.134 36.2413 235.697 36.124 235.227 36.124C234.769 36.124 234.331 36.2413 233.915 36.476C233.51 36.7107 233.179 37.052 232.923 37.5C232.678 37.948 232.555 38.476 232.555 39.084C232.555 39.692 232.678 40.2253 232.923 40.684C233.179 41.132 233.51 41.4733 233.915 41.708C234.331 41.9427 234.769 42.06 235.227 42.06C235.697 42.06 236.134 41.9427 236.539 41.708C236.955 41.4627 237.286 41.1107 237.531 40.652C237.787 40.1933 237.915 39.66 237.915 39.052ZM240.967 39.052C240.967 38.1667 241.148 37.3827 241.511 36.7C241.884 36.0173 242.386 35.4893 243.015 35.116C243.655 34.732 244.359 34.54 245.127 34.54C245.82 34.54 246.423 34.6787 246.935 34.956C247.458 35.2227 247.874 35.5587 248.183 35.964V34.684H250.023V43.5H248.183V42.188C247.874 42.604 247.452 42.9507 246.919 43.228C246.386 43.5053 245.778 43.644 245.095 43.644C244.338 43.644 243.644 43.452 243.015 43.068C242.386 42.6733 241.884 42.1293 241.511 41.436C241.148 40.732 240.967 39.9373 240.967 39.052ZM248.183 39.084C248.183 38.476 248.055 37.948 247.799 37.5C247.554 37.052 247.228 36.7107 246.823 36.476C246.418 36.2413 245.98 36.124 245.511 36.124C245.042 36.124 244.604 36.2413 244.199 36.476C243.794 36.7 243.463 37.036 243.207 37.484C242.962 37.9213 242.839 38.444 242.839 39.052C242.839 39.66 242.962 40.1933 243.207 40.652C243.463 41.1107 243.794 41.4627 244.199 41.708C244.615 41.9427 245.052 42.06 245.511 42.06C245.98 42.06 246.418 41.9427 246.823 41.708C247.228 41.4733 247.554 41.132 247.799 40.684C248.055 40.2253 248.183 39.692 248.183 39.084ZM254.243 35.964C254.509 35.516 254.861 35.1693 255.299 34.924C255.747 34.668 256.275 34.54 256.883 34.54V36.428H256.419C255.704 36.428 255.16 36.6093 254.787 36.972C254.424 37.3347 254.243 37.964 254.243 38.86V43.5H252.419V34.684H254.243V35.964ZM266.639 38.876C266.639 39.2067 266.618 39.5053 266.575 39.772H259.839C259.893 40.476 260.154 41.0413 260.623 41.468C261.093 41.8947 261.669 42.108 262.351 42.108C263.333 42.108 264.026 41.6973 264.431 40.876H266.399C266.133 41.6867 265.647 42.3533 264.943 42.876C264.25 43.388 263.386 43.644 262.351 43.644C261.509 43.644 260.751 43.4573 260.079 43.084C259.418 42.7 258.895 42.1667 258.511 41.484C258.138 40.7907 257.951 39.9907 257.951 39.084C257.951 38.1773 258.133 37.3827 258.495 36.7C258.869 36.0067 259.386 35.4733 260.047 35.1C260.719 34.7267 261.487 34.54 262.351 34.54C263.183 34.54 263.925 34.7213 264.575 35.084C265.226 35.4467 265.733 35.9587 266.095 36.62C266.458 37.2707 266.639 38.0227 266.639 38.876ZM264.735 38.3C264.725 37.628 264.485 37.0893 264.015 36.684C263.546 36.2787 262.965 36.076 262.271 36.076C261.642 36.076 261.103 36.2787 260.655 36.684C260.207 37.0787 259.941 37.6173 259.855 38.3H264.735ZM267.826 39.052C267.826 38.1667 268.008 37.3827 268.37 36.7C268.744 36.0173 269.245 35.4893 269.874 35.116C270.514 34.732 271.224 34.54 272.002 34.54C272.578 34.54 273.144 34.668 273.698 34.924C274.264 35.1693 274.712 35.5 275.042 35.916V31.66H276.882V43.5H275.042V42.172C274.744 42.5987 274.328 42.9507 273.794 43.228C273.272 43.5053 272.669 43.644 271.986 43.644C271.218 43.644 270.514 43.452 269.874 43.068C269.245 42.6733 268.744 42.1293 268.37 41.436C268.008 40.732 267.826 39.9373 267.826 39.052ZM275.042 39.084C275.042 38.476 274.914 37.948 274.658 37.5C274.413 37.052 274.088 36.7107 273.682 36.476C273.277 36.2413 272.84 36.124 272.37 36.124C271.901 36.124 271.464 36.2413 271.058 36.476C270.653 36.7 270.322 37.036 270.066 37.484C269.821 37.9213 269.698 38.444 269.698 39.052C269.698 39.66 269.821 40.1933 270.066 40.652C270.322 41.1107 270.653 41.4627 271.058 41.708C271.474 41.9427 271.912 42.06 272.37 42.06C272.84 42.06 273.277 41.9427 273.682 41.708C274.088 41.4733 274.413 41.132 274.658 40.684C274.914 40.2253 275.042 39.692 275.042 39.084ZM290.618 32.38V33.868H287.658V43.5H285.834V33.868H282.858V32.38H290.618ZM296.29 43.644C295.458 43.644 294.706 43.4573 294.034 43.084C293.362 42.7 292.834 42.1667 292.45 41.484C292.066 40.7907 291.874 39.9907 291.874 39.084C291.874 38.188 292.071 37.3933 292.466 36.7C292.86 36.0067 293.399 35.4733 294.082 35.1C294.764 34.7267 295.527 34.54 296.37 34.54C297.212 34.54 297.975 34.7267 298.658 35.1C299.34 35.4733 299.879 36.0067 300.274 36.7C300.668 37.3933 300.866 38.188 300.866 39.084C300.866 39.98 300.663 40.7747 300.258 41.468C299.852 42.1613 299.298 42.7 298.594 43.084C297.9 43.4573 297.132 43.644 296.29 43.644ZM296.29 42.06C296.759 42.06 297.196 41.948 297.602 41.724C298.018 41.5 298.354 41.164 298.61 40.716C298.866 40.268 298.994 39.724 298.994 39.084C298.994 38.444 298.871 37.9053 298.626 37.468C298.38 37.02 298.055 36.684 297.65 36.46C297.244 36.236 296.807 36.124 296.338 36.124C295.868 36.124 295.431 36.236 295.026 36.46C294.631 36.684 294.316 37.02 294.082 37.468C293.847 37.9053 293.73 38.444 293.73 39.084C293.73 40.0333 293.97 40.7693 294.45 41.292C294.94 41.804 295.554 42.06 296.29 42.06ZM302.061 39.052C302.061 38.1667 302.242 37.3827 302.605 36.7C302.978 36.0173 303.479 35.4893 304.109 35.116C304.749 34.732 305.458 34.54 306.237 34.54C306.813 34.54 307.378 34.668 307.933 34.924C308.498 35.1693 308.946 35.5 309.277 35.916V31.66H311.117V43.5H309.277V42.172C308.978 42.5987 308.562 42.9507 308.029 43.228C307.506 43.5053 306.903 43.644 306.221 43.644C305.453 43.644 304.749 43.452 304.109 43.068C303.479 42.6733 302.978 42.1293 302.605 41.436C302.242 40.732 302.061 39.9373 302.061 39.052ZM309.277 39.084C309.277 38.476 309.149 37.948 308.893 37.5C308.647 37.052 308.322 36.7107 307.917 36.476C307.511 36.2413 307.074 36.124 306.605 36.124C306.135 36.124 305.698 36.2413 305.293 36.476C304.887 36.7 304.557 37.036 304.301 37.484C304.055 37.9213 303.933 38.444 303.933 39.052C303.933 39.66 304.055 40.1933 304.301 40.652C304.557 41.1107 304.887 41.4627 305.293 41.708C305.709 41.9427 306.146 42.06 306.605 42.06C307.074 42.06 307.511 41.9427 307.917 41.708C308.322 41.4733 308.647 41.132 308.893 40.684C309.149 40.2253 309.277 39.692 309.277 39.084ZM312.905 39.052C312.905 38.1667 313.086 37.3827 313.449 36.7C313.822 36.0173 314.323 35.4893 314.953 35.116C315.593 34.732 316.297 34.54 317.065 34.54C317.758 34.54 318.361 34.6787 318.873 34.956C319.395 35.2227 319.811 35.5587 320.121 35.964V34.684H321.961V43.5H320.121V42.188C319.811 42.604 319.39 42.9507 318.857 43.228C318.323 43.5053 317.715 43.644 317.033 43.644C316.275 43.644 315.582 43.452 314.953 43.068C314.323 42.6733 313.822 42.1293 313.449 41.436C313.086 40.732 312.905 39.9373 312.905 39.052ZM320.121 39.084C320.121 38.476 319.993 37.948 319.737 37.5C319.491 37.052 319.166 36.7107 318.761 36.476C318.355 36.2413 317.918 36.124 317.449 36.124C316.979 36.124 316.542 36.2413 316.137 36.476C315.731 36.7 315.401 37.036 315.145 37.484C314.899 37.9213 314.777 38.444 314.777 39.052C314.777 39.66 314.899 40.1933 315.145 40.652C315.401 41.1107 315.731 41.4627 316.137 41.708C316.553 41.9427 316.99 42.06 317.449 42.06C317.918 42.06 318.355 41.9427 318.761 41.708C319.166 41.4733 319.491 41.132 319.737 40.684C319.993 40.2253 320.121 39.692 320.121 39.084ZM332.292 34.684L326.884 47.644H324.996L326.788 43.356L323.316 34.684H325.348L327.828 41.404L330.404 34.684H332.292Z" fill="#004EDA"/>
<path d="M349 56H188V60H349V56Z" fill="#004EDA" mask="url(#path-23-inside-1_504_399)"/>
<path d="M440 47C444.971 47 449 42.9706 449 38C449 33.0294 444.971 29 440 29C435.029 29 431 33.0294 431 38C431 42.9706 435.029 47 440 47Z" stroke="#5A5A5F" stroke-width="2" stroke-miterlimit="10"/>
<path d="M436.25 38H443.75" stroke="#5A5A5F" stroke-width="2" stroke-linecap="round" stroke-linejoin="round"/>
<path d="M440 34.25V41.75" stroke="#5A5A5F" stroke-width="2" stroke-linecap="round" stroke-linejoin="round"/>
<path d="M480 47C484.971 47 489 42.9706 489 38C489 33.0294 484.971 29 480 29C475.029 29 471 33.0294 471 38C471 42.9706 475.029 47 480 47Z" stroke="#5A5A5F" stroke-width="2" stroke-miterlimit="10"/>
<path d="M476.25 38H483.75" stroke="#5A5A5F" stroke-width="2" stroke-linecap="round" stroke-linejoin="round"/>
<path d="M523.75 37.25V32.375C523.75 31.8777 523.948 31.4008 524.3 31.0492C524.651 30.6975 525.128 30.5 525.625 30.5C526.123 30.5 526.6 30.6975 526.951 31.0492C527.303 31.4008 527.5 31.8777 527.5 32.375V40.25C527.5 41.2349 527.306 42.2102 526.93 43.1201C526.553 44.0301 526 44.8569 525.304 45.5533C524.607 46.2497 523.781 46.8022 522.871 47.1791C521.961 47.556 520.985 47.75 520 47.75C515.857 47.75 514 45.5 510.944 39.0594C510.696 38.628 510.628 38.1155 510.758 37.6346C510.887 37.1538 511.202 36.744 511.633 36.4953C512.065 36.2467 512.577 36.1796 513.058 36.3088C513.539 36.438 513.949 36.753 514.197 37.1844L516.25 40.7469V30.875C516.25 30.3777 516.448 29.9008 516.8 29.5492C517.151 29.1975 517.628 29 518.125 29C518.623 29 519.1 29.1975 519.451 29.5492C519.803 29.9008 520 30.3777 520 30.875V37.25" stroke="#5A5A5F" stroke-width="2" stroke-linecap="round" stroke-linejoin="round"/>
<path d="M523.75 32.375V29.375C523.75 28.8777 523.552 28.4008 523.201 28.0492C522.849 27.6975 522.372 27.5 521.875 27.5C521.378 27.5 520.901 27.6975 520.549 28.0492C520.198 28.4008 520 28.8777 520 29.375V30.875" stroke="#5A5A5F" stroke-width="2" stroke-linecap="round" stroke-linejoin="round"/>
<path d="M403.75 30.5H407.5V34.25" stroke="#5A5A5F" stroke-width="2" stroke-linecap="round" stroke-linejoin="round"/>
<path d="M402.25 35.75L407.5 30.5" stroke="#5A5A5F" stroke-width="2" stroke-linecap="round" stroke-linejoin="round"/>
<path d="M396.25 45.5H392.5V41.75" stroke="#5A5A5F" stroke-width="2" stroke-linecap="round" stroke-linejoin="round"/>
<path d="M397.75 40.25L392.5 45.5" stroke="#5A5A5F" stroke-width="2" stroke-linecap="round" stroke-linejoin="round"/>
<path d="M407.5 41.75V45.5H403.75" stroke="#5A5A5F" stroke-width="2" stroke-linecap="round" stroke-linejoin="round"/>
<path d="M402.25 40.25L407.5 45.5" stroke="#5A5A5F" stroke-width="2" stroke-linecap="round" stroke-linejoin="round"/>
<path d="M392.5 34.25V30.5H396.25" stroke="#5A5A5F" stroke-width="2" stroke-linecap="round" stroke-linejoin="round"/>
<path d="M397.75 35.75L392.5 30.5" stroke="#5A5A5F" stroke-width="2" stroke-linecap="round" stroke-linejoin="round"/>
<defs>
<filter id="filter0_d_504_399" x="0" y="0" width="558" height="345" filterUnits="userSpaceOnUse" color-interpolation-filters="sRGB">
<feFlood flood-opacity="0" result="BackgroundImageFix"/>
<feColorMatrix in="SourceAlpha" type="matrix" values="0 0 0 0 0 0 0 0 0 0 0 0 0 0 0 0 0 0 127 0" result="hardAlpha"/>
<feOffset dy="2"/>
<feGaussianBlur stdDeviation="4"/>
<feComposite in2="hardAlpha" operator="out"/>
<feColorMatrix type="matrix" values="0 0 0 0 0 0 0 0 0 0 0 0 0 0 0 0 0 0 0.2 0"/>
<feBlend mode="normal" in2="BackgroundImageFix" result="effect1_dropShadow_504_399"/>
<feBlend mode="normal" in="SourceGraphic" in2="effect1_dropShadow_504_399" result="shape"/>
</filter>
</defs>
</svg>
