<svg width="292" height="96" viewBox="0 0 292 96" fill="none" xmlns="http://www.w3.org/2000/svg">
<g filter="url(#filter0_d_504_400)">
<rect x="4" y="3" width="256" height="88" rx="4" fill="white"/>
</g>
<path d="M25.936 69.04C27.984 67.2693 29.5947 65.8187 30.768 64.688C31.9627 63.536 32.9547 62.3413 33.744 61.104C34.5333 59.8667 34.928 58.6293 34.928 57.392C34.928 56.112 34.6187 55.1093 34 54.384C33.4027 53.6587 32.4533 53.296 31.152 53.296C29.8933 53.296 28.912 53.7013 28.208 54.512C27.5253 55.3013 27.1627 56.368 27.12 57.712H23.6C23.664 55.28 24.3893 53.424 25.776 52.144C27.184 50.8427 28.9653 50.192 31.12 50.192C33.4453 50.192 35.2587 50.832 36.56 52.112C37.8827 53.392 38.544 55.0987 38.544 57.232C38.544 58.768 38.1493 60.2507 37.36 61.68C36.592 63.088 35.664 64.3573 34.576 65.488C33.5093 66.5973 32.144 67.888 30.48 69.36L29.04 70.64H39.184V73.68H23.632V71.024L25.936 69.04ZM42.3248 56.432C42.4528 54.448 43.2101 52.9013 44.5968 51.792C46.0048 50.6827 47.7968 50.128 49.9728 50.128C51.4661 50.128 52.7568 50.3947 53.8448 50.928C54.9328 51.4613 55.7541 52.1867 56.3088 53.104C56.8634 54.0213 57.1408 55.056 57.1408 56.208C57.1408 57.5307 56.7888 58.6613 56.0848 59.6C55.3808 60.5387 54.5381 61.168 53.5568 61.488V61.616C54.8154 62 55.7968 62.704 56.5008 63.728C57.2048 64.7307 57.5568 66.0213 57.5568 67.6C57.5568 68.8587 57.2688 69.9787 56.6928 70.96C56.1168 71.9413 55.2634 72.72 54.1328 73.296C53.0021 73.8507 51.6474 74.128 50.0688 74.128C47.7648 74.128 45.8661 73.5413 44.3728 72.368C42.9008 71.1733 42.1114 69.4667 42.0048 67.248H45.5248C45.6101 68.3787 46.0474 69.3067 46.8368 70.032C47.6261 70.736 48.6928 71.088 50.0368 71.088C51.3381 71.088 52.3408 70.736 53.0448 70.032C53.7488 69.3067 54.1008 68.3787 54.1008 67.248C54.1008 65.7547 53.6208 64.6987 52.6608 64.08C51.7221 63.44 50.2714 63.12 48.3088 63.12H47.4768V60.112H48.3408C50.0688 60.0907 51.3808 59.8027 52.2768 59.248C53.1941 58.6933 53.6528 57.8187 53.6528 56.624C53.6528 55.6 53.3221 54.7893 52.6608 54.192C51.9994 53.5733 51.0608 53.264 49.8448 53.264C48.6501 53.264 47.7221 53.5733 47.0608 54.192C46.3994 54.7893 46.0048 55.536 45.8768 56.432H42.3248ZM76.4288 53.808H65.7088V60.176C66.1568 59.5787 66.8181 59.0773 67.6927 58.672C68.5888 58.2667 69.5381 58.064 70.5408 58.064C72.3328 58.064 73.7834 58.448 74.8928 59.216C76.0234 59.984 76.8234 60.9547 77.2928 62.128C77.7834 63.3013 78.0288 64.5387 78.0288 65.84C78.0288 67.4187 77.7194 68.8267 77.1007 70.064C76.5034 71.28 75.5968 72.24 74.3808 72.944C73.1861 73.648 71.7141 74 69.9648 74C67.6394 74 65.7728 73.424 64.3648 72.272C62.9568 71.12 62.1141 69.5947 61.8368 67.696H65.3888C65.6234 68.6987 66.1461 69.4987 66.9568 70.096C67.7674 70.672 68.7808 70.96 69.9968 70.96C71.5114 70.96 72.6421 70.5013 73.3888 69.584C74.1568 68.6667 74.5408 67.4507 74.5408 65.936C74.5408 64.4 74.1568 63.2267 73.3888 62.416C72.6208 61.584 71.4901 61.168 69.9968 61.168C68.9514 61.168 68.0661 61.4347 67.3408 61.968C66.6368 62.48 66.1248 63.184 65.8048 64.08H62.3488V50.608H76.4288V53.808ZM94.3703 56.08C94.1356 55.0987 93.7089 54.3627 93.0903 53.872C92.4716 53.3813 91.6076 53.136 90.4983 53.136C88.8129 53.136 87.5543 53.7867 86.7223 55.088C85.8903 56.368 85.4529 58.5013 85.4103 61.488C85.9649 60.5493 86.7756 59.824 87.8423 59.312C88.9089 58.8 90.0609 58.544 91.2983 58.544C92.7063 58.544 93.9436 58.8533 95.0103 59.472C96.0983 60.0693 96.9409 60.944 97.5382 62.096C98.1569 63.248 98.4663 64.624 98.4663 66.224C98.4663 67.7173 98.1676 69.0507 97.5703 70.224C96.9943 71.3973 96.1303 72.3253 94.9783 73.008C93.8263 73.6693 92.4396 74 90.8183 74C88.6209 74 86.8929 73.52 85.6343 72.56C84.3969 71.5787 83.5223 70.2027 83.0103 68.432C82.5196 66.6613 82.2743 64.4533 82.2743 61.808C82.2743 54 85.0263 50.096 90.5303 50.096C92.6636 50.096 94.3383 50.672 95.5543 51.824C96.7916 52.976 97.5169 54.3947 97.7303 56.08H94.3703ZM90.4983 61.616C89.1969 61.616 88.0876 62.0107 87.1703 62.8C86.2743 63.568 85.8263 64.688 85.8263 66.16C85.8263 67.632 86.2423 68.8053 87.0743 69.68C87.9276 70.5333 89.1116 70.96 90.6263 70.96C91.9703 70.96 93.0263 70.544 93.7943 69.712C94.5836 68.88 94.9783 67.7707 94.9783 66.384C94.9783 64.9333 94.5943 63.7813 93.8263 62.928C93.0796 62.0533 91.9703 61.616 90.4983 61.616ZM102.358 62.032C102.358 58.3413 102.976 55.4613 104.214 53.392C105.472 51.3013 107.627 50.256 110.678 50.256C113.728 50.256 115.872 51.3013 117.11 53.392C118.368 55.4613 118.998 58.3413 118.998 62.032C118.998 65.7653 118.368 68.688 117.11 70.8C115.872 72.8907 113.728 73.936 110.678 73.936C107.627 73.936 105.472 72.8907 104.214 70.8C102.976 68.688 102.358 65.7653 102.358 62.032ZM115.414 62.032C115.414 60.304 115.296 58.8427 115.062 57.648C114.848 56.4533 114.4 55.4827 113.718 54.736C113.035 53.968 112.022 53.584 110.678 53.584C109.334 53.584 108.32 53.968 107.638 54.736C106.955 55.4827 106.496 56.4533 106.262 57.648C106.048 58.8427 105.942 60.304 105.942 62.032C105.942 63.824 106.048 65.328 106.262 66.544C106.475 67.76 106.923 68.7413 107.606 69.488C108.31 70.2347 109.334 70.608 110.678 70.608C112.022 70.608 113.035 70.2347 113.718 69.488C114.422 68.7413 114.88 67.76 115.094 66.544C115.307 65.328 115.414 63.824 115.414 62.032ZM122.858 62.032C122.858 58.3413 123.476 55.4613 124.714 53.392C125.972 51.3013 128.127 50.256 131.178 50.256C134.228 50.256 136.372 51.3013 137.61 53.392C138.868 55.4613 139.498 58.3413 139.498 62.032C139.498 65.7653 138.868 68.688 137.61 70.8C136.372 72.8907 134.228 73.936 131.178 73.936C128.127 73.936 125.972 72.8907 124.714 70.8C123.476 68.688 122.858 65.7653 122.858 62.032ZM135.914 62.032C135.914 60.304 135.796 58.8427 135.562 57.648C135.348 56.4533 134.9 55.4827 134.218 54.736C133.535 53.968 132.522 53.584 131.178 53.584C129.834 53.584 128.82 53.968 128.138 54.736C127.455 55.4827 126.996 56.4533 126.762 57.648C126.548 58.8427 126.442 60.304 126.442 62.032C126.442 63.824 126.548 65.328 126.762 66.544C126.975 67.76 127.423 68.7413 128.106 69.488C128.81 70.2347 129.834 70.608 131.178 70.608C132.522 70.608 133.535 70.2347 134.218 69.488C134.922 68.7413 135.38 67.76 135.594 66.544C135.807 65.328 135.914 63.824 135.914 62.032Z" fill="#004EDA"/>
<path d="M30.892 28.444H25.654L24.754 31H22.612L27.094 18.472H29.47L33.952 31H31.792L30.892 28.444ZM30.316 26.77L28.282 20.956L26.23 26.77H30.316ZM41.2648 20.92C42.0448 20.92 42.7408 21.082 43.3528 21.406C43.9768 21.73 44.4628 22.21 44.8108 22.846C45.1588 23.482 45.3328 24.25 45.3328 25.15V31H43.2988V25.456C43.2988 24.568 43.0768 23.89 42.6328 23.422C42.1888 22.942 41.5828 22.702 40.8148 22.702C40.0468 22.702 39.4348 22.942 38.9788 23.422C38.5348 23.89 38.3128 24.568 38.3128 25.456V31H36.2608V21.082H38.3128V22.216C38.6488 21.808 39.0748 21.49 39.5908 21.262C40.1188 21.034 40.6768 20.92 41.2648 20.92ZM53.3142 20.92C54.0942 20.92 54.7902 21.082 55.4022 21.406C56.0262 21.73 56.5122 22.21 56.8602 22.846C57.2082 23.482 57.3822 24.25 57.3822 25.15V31H55.3482V25.456C55.3482 24.568 55.1262 23.89 54.6822 23.422C54.2382 22.942 53.6322 22.702 52.8642 22.702C52.0962 22.702 51.4842 22.942 51.0282 23.422C50.5842 23.89 50.3622 24.568 50.3622 25.456V31H48.3102V21.082H50.3622V22.216C50.6982 21.808 51.1242 21.49 51.6402 21.262C52.1682 21.034 52.7262 20.92 53.3142 20.92ZM64.6617 31.162C63.7257 31.162 62.8797 30.952 62.1237 30.532C61.3677 30.1 60.7737 29.5 60.3417 28.732C59.9097 27.952 59.6937 27.052 59.6937 26.032C59.6937 25.024 59.9157 24.13 60.3597 23.35C60.8037 22.57 61.4097 21.97 62.1777 21.55C62.9457 21.13 63.8037 20.92 64.7517 20.92C65.6997 20.92 66.5577 21.13 67.3257 21.55C68.0937 21.97 68.6997 22.57 69.1437 23.35C69.5877 24.13 69.8097 25.024 69.8097 26.032C69.8097 27.04 69.5817 27.934 69.1257 28.714C68.6697 29.494 68.0457 30.1 67.2537 30.532C66.4737 30.952 65.6097 31.162 64.6617 31.162ZM64.6617 29.38C65.1897 29.38 65.6817 29.254 66.1377 29.002C66.6057 28.75 66.9837 28.372 67.2717 27.868C67.5597 27.364 67.7037 26.752 67.7037 26.032C67.7037 25.312 67.5657 24.706 67.2897 24.214C67.0137 23.71 66.6477 23.332 66.1917 23.08C65.7357 22.828 65.2437 22.702 64.7157 22.702C64.1877 22.702 63.6957 22.828 63.2397 23.08C62.7957 23.332 62.4417 23.71 62.1777 24.214C61.9137 24.706 61.7817 25.312 61.7817 26.032C61.7817 27.1 62.0517 27.928 62.5917 28.516C63.1437 29.092 63.8337 29.38 64.6617 29.38ZM81.1802 21.082V31H79.1282V29.83C78.8042 30.238 78.3782 30.562 77.8502 30.802C77.3342 31.03 76.7822 31.144 76.1942 31.144C75.4142 31.144 74.7122 30.982 74.0882 30.658C73.4762 30.334 72.9902 29.854 72.6302 29.218C72.2822 28.582 72.1082 27.814 72.1082 26.914V21.082H74.1422V26.608C74.1422 27.496 74.3642 28.18 74.8082 28.66C75.2522 29.128 75.8582 29.362 76.6262 29.362C77.3942 29.362 78.0002 29.128 78.4442 28.66C78.9002 28.18 79.1282 27.496 79.1282 26.608V21.082H81.1802ZM89.2517 20.92C90.0317 20.92 90.7277 21.082 91.3397 21.406C91.9637 21.73 92.4497 22.21 92.7977 22.846C93.1457 23.482 93.3197 24.25 93.3197 25.15V31H91.2857V25.456C91.2857 24.568 91.0637 23.89 90.6197 23.422C90.1757 22.942 89.5697 22.702 88.8017 22.702C88.0337 22.702 87.4217 22.942 86.9657 23.422C86.5217 23.89 86.2997 24.568 86.2997 25.456V31H84.2477V21.082H86.2997V22.216C86.6357 21.808 87.0617 21.49 87.5777 21.262C88.1057 21.034 88.6637 20.92 89.2517 20.92ZM95.6131 26.032C95.6131 25.012 95.8171 24.118 96.2251 23.35C96.6451 22.57 97.2211 21.97 97.9531 21.55C98.6851 21.13 99.5251 20.92 100.473 20.92C101.673 20.92 102.663 21.208 103.443 21.784C104.235 22.348 104.769 23.158 105.045 24.214H102.831C102.651 23.722 102.363 23.338 101.967 23.062C101.571 22.786 101.073 22.648 100.473 22.648C99.6331 22.648 98.9611 22.948 98.4571 23.548C97.9651 24.136 97.7191 24.964 97.7191 26.032C97.7191 27.1 97.9651 27.934 98.4571 28.534C98.9611 29.134 99.6331 29.434 100.473 29.434C101.661 29.434 102.447 28.912 102.831 27.868H105.045C104.757 28.876 104.217 29.68 103.425 30.28C102.633 30.868 101.649 31.162 100.473 31.162C99.5251 31.162 98.6851 30.952 97.9531 30.532C97.2211 30.1 96.6451 29.5 96.2251 28.732C95.8171 27.952 95.6131 27.052 95.6131 26.032ZM116.54 25.798C116.54 26.17 116.516 26.506 116.468 26.806H108.89C108.95 27.598 109.244 28.234 109.772 28.714C110.3 29.194 110.948 29.434 111.716 29.434C112.82 29.434 113.6 28.972 114.056 28.048H116.27C115.97 28.96 115.424 29.71 114.632 30.298C113.852 30.874 112.88 31.162 111.716 31.162C110.768 31.162 109.916 30.952 109.16 30.532C108.416 30.1 107.828 29.5 107.396 28.732C106.976 27.952 106.766 27.052 106.766 26.032C106.766 25.012 106.97 24.118 107.378 23.35C107.798 22.57 108.38 21.97 109.124 21.55C109.88 21.13 110.744 20.92 111.716 20.92C112.652 20.92 113.486 21.124 114.218 21.532C114.95 21.94 115.52 22.516 115.928 23.26C116.336 23.992 116.54 24.838 116.54 25.798ZM114.398 25.15C114.386 24.394 114.116 23.788 113.588 23.332C113.06 22.876 112.406 22.648 111.626 22.648C110.918 22.648 110.312 22.876 109.808 23.332C109.304 23.776 109.004 24.382 108.908 25.15H114.398ZM118.235 25.996C118.235 25 118.439 24.118 118.847 23.35C119.267 22.582 119.831 21.988 120.539 21.568C121.259 21.136 122.057 20.92 122.933 20.92C123.581 20.92 124.217 21.064 124.841 21.352C125.477 21.628 125.981 22 126.353 22.468V17.68H128.423V31H126.353V29.506C126.017 29.986 125.549 30.382 124.949 30.694C124.361 31.006 123.683 31.162 122.915 31.162C122.051 31.162 121.259 30.946 120.539 30.514C119.831 30.07 119.267 29.458 118.847 28.678C118.439 27.886 118.235 26.992 118.235 25.996ZM126.353 26.032C126.353 25.348 126.209 24.754 125.921 24.25C125.645 23.746 125.279 23.362 124.823 23.098C124.367 22.834 123.875 22.702 123.347 22.702C122.819 22.702 122.327 22.834 121.871 23.098C121.415 23.35 121.043 23.728 120.755 24.232C120.479 24.724 120.341 25.312 120.341 25.996C120.341 26.68 120.479 27.28 120.755 27.796C121.043 28.312 121.415 28.708 121.871 28.984C122.339 29.248 122.831 29.38 123.347 29.38C123.875 29.38 124.367 29.248 124.823 28.984C125.279 28.72 125.645 28.336 125.921 27.832C126.209 27.316 126.353 26.716 126.353 26.032ZM144.596 18.49V20.164H141.266V31H139.214V20.164H135.866V18.49H144.596ZM151.337 31.162C150.401 31.162 149.555 30.952 148.799 30.532C148.043 30.1 147.449 29.5 147.017 28.732C146.585 27.952 146.369 27.052 146.369 26.032C146.369 25.024 146.591 24.13 147.035 23.35C147.479 22.57 148.085 21.97 148.853 21.55C149.621 21.13 150.479 20.92 151.427 20.92C152.375 20.92 153.233 21.13 154.001 21.55C154.769 21.97 155.375 22.57 155.819 23.35C156.263 24.13 156.485 25.024 156.485 26.032C156.485 27.04 156.257 27.934 155.801 28.714C155.345 29.494 154.721 30.1 153.929 30.532C153.149 30.952 152.285 31.162 151.337 31.162ZM151.337 29.38C151.865 29.38 152.357 29.254 152.813 29.002C153.281 28.75 153.659 28.372 153.947 27.868C154.235 27.364 154.379 26.752 154.379 26.032C154.379 25.312 154.241 24.706 153.965 24.214C153.689 23.71 153.323 23.332 152.867 23.08C152.411 22.828 151.919 22.702 151.391 22.702C150.863 22.702 150.371 22.828 149.915 23.08C149.471 23.332 149.117 23.71 148.853 24.214C148.589 24.706 148.457 25.312 148.457 26.032C148.457 27.1 148.727 27.928 149.267 28.516C149.819 29.092 150.509 29.38 151.337 29.38ZM158.189 25.996C158.189 25 158.393 24.118 158.801 23.35C159.221 22.582 159.785 21.988 160.493 21.568C161.213 21.136 162.011 20.92 162.887 20.92C163.535 20.92 164.171 21.064 164.795 21.352C165.431 21.628 165.935 22 166.307 22.468V17.68H168.377V31H166.307V29.506C165.971 29.986 165.503 30.382 164.903 30.694C164.315 31.006 163.637 31.162 162.869 31.162C162.005 31.162 161.213 30.946 160.493 30.514C159.785 30.07 159.221 29.458 158.801 28.678C158.393 27.886 158.189 26.992 158.189 25.996ZM166.307 26.032C166.307 25.348 166.163 24.754 165.875 24.25C165.599 23.746 165.233 23.362 164.777 23.098C164.321 22.834 163.829 22.702 163.301 22.702C162.773 22.702 162.281 22.834 161.825 23.098C161.369 23.35 160.997 23.728 160.709 24.232C160.433 24.724 160.295 25.312 160.295 25.996C160.295 26.68 160.433 27.28 160.709 27.796C160.997 28.312 161.369 28.708 161.825 28.984C162.293 29.248 162.785 29.38 163.301 29.38C163.829 29.38 164.321 29.248 164.777 28.984C165.233 28.72 165.599 28.336 165.875 27.832C166.163 27.316 166.307 26.716 166.307 26.032ZM170.748 25.996C170.748 25 170.952 24.118 171.36 23.35C171.78 22.582 172.344 21.988 173.052 21.568C173.772 21.136 174.564 20.92 175.428 20.92C176.208 20.92 176.886 21.076 177.462 21.388C178.05 21.688 178.518 22.066 178.866 22.522V21.082H180.936V31H178.866V29.524C178.518 29.992 178.044 30.382 177.444 30.694C176.844 31.006 176.16 31.162 175.392 31.162C174.54 31.162 173.76 30.946 173.052 30.514C172.344 30.07 171.78 29.458 171.36 28.678C170.952 27.886 170.748 26.992 170.748 25.996ZM178.866 26.032C178.866 25.348 178.722 24.754 178.434 24.25C178.158 23.746 177.792 23.362 177.336 23.098C176.88 22.834 176.388 22.702 175.86 22.702C175.332 22.702 174.84 22.834 174.384 23.098C173.928 23.35 173.556 23.728 173.268 24.232C172.992 24.724 172.854 25.312 172.854 25.996C172.854 26.68 172.992 27.28 173.268 27.796C173.556 28.312 173.928 28.708 174.384 28.984C174.852 29.248 175.344 29.38 175.86 29.38C176.388 29.38 176.88 29.248 177.336 28.984C177.792 28.72 178.158 28.336 178.434 27.832C178.722 27.316 178.866 26.716 178.866 26.032ZM192.92 21.082L186.836 35.662H184.712L186.728 30.838L182.822 21.082H185.108L187.898 28.642L190.796 21.082H192.92Z" fill="#5A5A5F"/>
<defs>
<filter id="filter0_d_504_400" x="0" y="0" width="264" height="96" filterUnits="userSpaceOnUse" color-interpolation-filters="sRGB">
<feFlood flood-opacity="0" result="BackgroundImageFix"/>
<feColorMatrix in="SourceAlpha" type="matrix" values="0 0 0 0 0 0 0 0 0 0 0 0 0 0 0 0 0 0 127 0" result="hardAlpha"/>
<feOffset dy="1"/>
<feGaussianBlur stdDeviation="2"/>
<feComposite in2="hardAlpha" operator="out"/>
<feColorMatrix type="matrix" values="0 0 0 0 0 0 0 0 0 0 0 0 0 0 0 0 0 0 0.2 0"/>
<feBlend mode="normal" in2="BackgroundImageFix" result="effect1_dropShadow_504_400"/>
<feBlend mode="normal" in="SourceGraphic" in2="effect1_dropShadow_504_400" result="shape"/>
</filter>
</defs>
</svg>
