<svg width="292" height="96" viewBox="0 0 292 96" fill="none" xmlns="http://www.w3.org/2000/svg">
<g filter="url(#filter0_d_504_402)">
<rect x="4" y="3" width="256" height="88" rx="4" fill="white"/>
</g>
<path d="M25.936 69.04C27.984 67.2693 29.5947 65.8187 30.768 64.688C31.9627 63.536 32.9547 62.3413 33.744 61.104C34.5333 59.8667 34.928 58.6293 34.928 57.392C34.928 56.112 34.6187 55.1093 34 54.384C33.4027 53.6587 32.4533 53.296 31.152 53.296C29.8933 53.296 28.912 53.7013 28.208 54.512C27.5253 55.3013 27.1627 56.368 27.12 57.712H23.6C23.664 55.28 24.3893 53.424 25.776 52.144C27.184 50.8427 28.9653 50.192 31.12 50.192C33.4453 50.192 35.2587 50.832 36.56 52.112C37.8827 53.392 38.544 55.0987 38.544 57.232C38.544 58.768 38.1493 60.2507 37.36 61.68C36.592 63.088 35.664 64.3573 34.576 65.488C33.5093 66.5973 32.144 67.888 30.48 69.36L29.04 70.64H39.184V73.68H23.632V71.024L25.936 69.04ZM46.3248 61.808C44.1061 60.6987 42.9968 58.9493 42.9968 56.56C42.9968 55.408 43.2848 54.352 43.8608 53.392C44.4368 52.432 45.3008 51.6747 46.4528 51.12C47.6048 50.544 49.0128 50.256 50.6768 50.256C52.3194 50.256 53.7168 50.544 54.8688 51.12C56.0421 51.6747 56.9167 52.432 57.4928 53.392C58.0688 54.352 58.3568 55.408 58.3568 56.56C58.3568 57.7547 58.0474 58.8107 57.4288 59.728C56.8314 60.624 56.0314 61.3173 55.0288 61.808C56.2448 62.256 57.2048 62.992 57.9088 64.016C58.6128 65.0187 58.9648 66.2027 58.9648 67.568C58.9648 68.9547 58.6128 70.1813 57.9088 71.248C57.2048 72.3147 56.2234 73.136 54.9648 73.712C53.7061 74.288 52.2768 74.576 50.6768 74.576C49.0768 74.576 47.6474 74.288 46.3888 73.712C45.1514 73.136 44.1808 72.3147 43.4768 71.248C42.7728 70.1813 42.4208 68.9547 42.4208 67.568C42.4208 66.1813 42.7728 64.9867 43.4768 63.984C44.1808 62.9813 45.1301 62.256 46.3248 61.808ZM54.8688 57.008C54.8688 55.8133 54.4954 54.896 53.7488 54.256C53.0021 53.616 51.9781 53.296 50.6768 53.296C49.3968 53.296 48.3834 53.616 47.6368 54.256C46.8901 54.896 46.5168 55.824 46.5168 57.04C46.5168 58.1067 46.9008 58.9813 47.6688 59.664C48.4581 60.3253 49.4608 60.656 50.6768 60.656C51.8928 60.656 52.8954 60.3147 53.6848 59.632C54.4741 58.9493 54.8688 58.0747 54.8688 57.008ZM50.6768 63.408C49.2688 63.408 48.1168 63.76 47.2208 64.464C46.3461 65.1467 45.9088 66.1387 45.9088 67.44C45.9088 68.656 46.3354 69.648 47.1888 70.416C48.0421 71.1627 49.2048 71.536 50.6768 71.536C52.1274 71.536 53.2688 71.152 54.1008 70.384C54.9541 69.616 55.3808 68.6347 55.3808 67.44C55.3808 66.16 54.9434 65.168 54.0688 64.464C53.2154 63.76 52.0848 63.408 50.6768 63.408ZM75.339 56.08C75.1043 55.0987 74.6777 54.3627 74.059 53.872C73.4403 53.3813 72.5763 53.136 71.467 53.136C69.7817 53.136 68.523 53.7867 67.691 55.088C66.859 56.368 66.4217 58.5013 66.379 61.488C66.9337 60.5493 67.7443 59.824 68.811 59.312C69.8777 58.8 71.0297 58.544 72.267 58.544C73.675 58.544 74.9123 58.8533 75.979 59.472C77.067 60.0693 77.9097 60.944 78.507 62.096C79.1257 63.248 79.435 64.624 79.435 66.224C79.435 67.7173 79.1363 69.0507 78.539 70.224C77.963 71.3973 77.099 72.3253 75.947 73.008C74.795 73.6693 73.4083 74 71.787 74C69.5897 74 67.8617 73.52 66.603 72.56C65.3657 71.5787 64.491 70.2027 63.979 68.432C63.4883 66.6613 63.243 64.4533 63.243 61.808C63.243 54 65.995 50.096 71.499 50.096C73.6323 50.096 75.307 50.672 76.523 51.824C77.7603 52.976 78.4857 54.3947 78.699 56.08H75.339ZM71.467 61.616C70.1657 61.616 69.0563 62.0107 68.139 62.8C67.243 63.568 66.795 64.688 66.795 66.16C66.795 67.632 67.211 68.8053 68.043 69.68C68.8963 70.5333 70.0803 70.96 71.595 70.96C72.939 70.96 73.995 70.544 74.763 69.712C75.5523 68.88 75.947 67.7707 75.947 66.384C75.947 64.9333 75.563 63.7813 74.795 62.928C74.0483 62.0533 72.939 61.616 71.467 61.616ZM83.2623 56.432C83.3903 54.448 84.1476 52.9013 85.5343 51.792C86.9423 50.6827 88.7343 50.128 90.9103 50.128C92.4036 50.128 93.6943 50.3947 94.7823 50.928C95.8703 51.4613 96.6916 52.1867 97.2463 53.104C97.8009 54.0213 98.0783 55.056 98.0783 56.208C98.0783 57.5307 97.7263 58.6613 97.0223 59.6C96.3183 60.5387 95.4756 61.168 94.4943 61.488V61.616C95.7529 62 96.7343 62.704 97.4383 63.728C98.1423 64.7307 98.4943 66.0213 98.4943 67.6C98.4943 68.8587 98.2063 69.9787 97.6303 70.96C97.0543 71.9413 96.2009 72.72 95.0703 73.296C93.9396 73.8507 92.5849 74.128 91.0063 74.128C88.7023 74.128 86.8036 73.5413 85.3103 72.368C83.8383 71.1733 83.0489 69.4667 82.9423 67.248H86.4623C86.5476 68.3787 86.9849 69.3067 87.7743 70.032C88.5636 70.736 89.6303 71.088 90.9743 71.088C92.2756 71.088 93.2783 70.736 93.9823 70.032C94.6863 69.3067 95.0383 68.3787 95.0383 67.248C95.0383 65.7547 94.5583 64.6987 93.5983 64.08C92.6596 63.44 91.2089 63.12 89.2463 63.12H88.4143V60.112H89.2783C91.0063 60.0907 92.3183 59.8027 93.2143 59.248C94.1316 58.6933 94.5903 57.8187 94.5903 56.624C94.5903 55.6 94.2596 54.7893 93.5983 54.192C92.9369 53.5733 91.9983 53.264 90.7823 53.264C89.5876 53.264 88.6596 53.5733 87.9983 54.192C87.3369 54.7893 86.9423 55.536 86.8143 56.432H83.2623ZM104.342 69.04C106.39 67.2693 108.001 65.8187 109.174 64.688C110.369 63.536 111.361 62.3413 112.15 61.104C112.94 59.8667 113.334 58.6293 113.334 57.392C113.334 56.112 113.025 55.1093 112.406 54.384C111.809 53.6587 110.86 53.296 109.558 53.296C108.3 53.296 107.318 53.7013 106.614 54.512C105.932 55.3013 105.569 56.368 105.526 57.712H102.006C102.07 55.28 102.796 53.424 104.182 52.144C105.59 50.8427 107.372 50.192 109.526 50.192C111.852 50.192 113.665 50.832 114.966 52.112C116.289 53.392 116.95 55.0987 116.95 57.232C116.95 58.768 116.556 60.2507 115.766 61.68C114.998 63.088 114.07 64.3573 112.982 65.488C111.916 66.5973 110.55 67.888 108.886 69.36L107.446 70.64H117.59V73.68H102.038V71.024L104.342 69.04ZM120.795 62.032C120.795 58.3413 121.414 55.4613 122.651 53.392C123.91 51.3013 126.064 50.256 129.115 50.256C132.166 50.256 134.31 51.3013 135.547 53.392C136.806 55.4613 137.435 58.3413 137.435 62.032C137.435 65.7653 136.806 68.688 135.547 70.8C134.31 72.8907 132.166 73.936 129.115 73.936C126.064 73.936 123.91 72.8907 122.651 70.8C121.414 68.688 120.795 65.7653 120.795 62.032ZM133.851 62.032C133.851 60.304 133.734 58.8427 133.499 57.648C133.286 56.4533 132.838 55.4827 132.155 54.736C131.472 53.968 130.459 53.584 129.115 53.584C127.771 53.584 126.758 53.968 126.075 54.736C125.392 55.4827 124.934 56.4533 124.699 57.648C124.486 58.8427 124.379 60.304 124.379 62.032C124.379 63.824 124.486 65.328 124.699 66.544C124.912 67.76 125.36 68.7413 126.043 69.488C126.747 70.2347 127.771 70.608 129.115 70.608C130.459 70.608 131.472 70.2347 132.155 69.488C132.859 68.7413 133.318 67.76 133.531 66.544C133.744 65.328 133.851 63.824 133.851 62.032Z" fill="#004EDA"/>
<path d="M27.472 31.126C26.632 31.126 25.876 30.982 25.204 30.694C24.532 30.394 24.004 29.974 23.62 29.434C23.236 28.894 23.044 28.264 23.044 27.544H25.24C25.288 28.084 25.498 28.528 25.87 28.876C26.254 29.224 26.788 29.398 27.472 29.398C28.18 29.398 28.732 29.23 29.128 28.894C29.524 28.546 29.722 28.102 29.722 27.562C29.722 27.142 29.596 26.8 29.344 26.536C29.104 26.272 28.798 26.068 28.426 25.924C28.066 25.78 27.562 25.624 26.914 25.456C26.098 25.24 25.432 25.024 24.916 24.808C24.412 24.58 23.98 24.232 23.62 23.764C23.26 23.296 23.08 22.672 23.08 21.892C23.08 21.172 23.26 20.542 23.62 20.002C23.98 19.462 24.484 19.048 25.132 18.76C25.78 18.472 26.53 18.328 27.382 18.328C28.594 18.328 29.584 18.634 30.352 19.246C31.132 19.846 31.564 20.674 31.648 21.73H29.38C29.344 21.274 29.128 20.884 28.732 20.56C28.336 20.236 27.814 20.074 27.166 20.074C26.578 20.074 26.098 20.224 25.726 20.524C25.354 20.824 25.168 21.256 25.168 21.82C25.168 22.204 25.282 22.522 25.51 22.774C25.75 23.014 26.05 23.206 26.41 23.35C26.77 23.494 27.262 23.65 27.886 23.818C28.714 24.046 29.386 24.274 29.902 24.502C30.43 24.73 30.874 25.084 31.234 25.564C31.606 26.032 31.792 26.662 31.792 27.454C31.792 28.09 31.618 28.69 31.27 29.254C30.934 29.818 30.436 30.274 29.776 30.622C29.128 30.958 28.36 31.126 27.472 31.126ZM38.8753 31.162C37.9393 31.162 37.0933 30.952 36.3373 30.532C35.5813 30.1 34.9873 29.5 34.5553 28.732C34.1233 27.952 33.9073 27.052 33.9073 26.032C33.9073 25.024 34.1293 24.13 34.5733 23.35C35.0173 22.57 35.6233 21.97 36.3913 21.55C37.1593 21.13 38.0173 20.92 38.9653 20.92C39.9133 20.92 40.7713 21.13 41.5393 21.55C42.3073 21.97 42.9133 22.57 43.3573 23.35C43.8013 24.13 44.0233 25.024 44.0233 26.032C44.0233 27.04 43.7953 27.934 43.3393 28.714C42.8833 29.494 42.2593 30.1 41.4673 30.532C40.6873 30.952 39.8233 31.162 38.8753 31.162ZM38.8753 29.38C39.4033 29.38 39.8953 29.254 40.3513 29.002C40.8193 28.75 41.1973 28.372 41.4853 27.868C41.7733 27.364 41.9173 26.752 41.9173 26.032C41.9173 25.312 41.7793 24.706 41.5033 24.214C41.2273 23.71 40.8613 23.332 40.4053 23.08C39.9493 22.828 39.4573 22.702 38.9293 22.702C38.4013 22.702 37.9093 22.828 37.4533 23.08C37.0093 23.332 36.6553 23.71 36.3913 24.214C36.1273 24.706 35.9953 25.312 35.9953 26.032C35.9953 27.1 36.2653 27.928 36.8053 28.516C37.3573 29.092 38.0473 29.38 38.8753 29.38ZM48.4638 22.522C48.7638 22.018 49.1598 21.628 49.6518 21.352C50.1558 21.064 50.7498 20.92 51.4338 20.92V23.044H50.9118C50.1078 23.044 49.4958 23.248 49.0758 23.656C48.6678 24.064 48.4638 24.772 48.4638 25.78V31H46.4118V21.082H48.4638V22.522ZM56.074 22.756V28.246C56.074 28.618 56.158 28.888 56.326 29.056C56.506 29.212 56.806 29.29 57.226 29.29H58.486V31H56.866C55.942 31 55.234 30.784 54.742 30.352C54.25 29.92 54.004 29.218 54.004 28.246V22.756H52.834V21.082H54.004V18.616H56.074V21.082H58.486V22.756H56.074ZM69.8273 25.798C69.8273 26.17 69.8033 26.506 69.7553 26.806H62.1773C62.2373 27.598 62.5313 28.234 63.0593 28.714C63.5873 29.194 64.2353 29.434 65.0033 29.434C66.1073 29.434 66.8873 28.972 67.3433 28.048H69.5573C69.2573 28.96 68.7113 29.71 67.9193 30.298C67.1393 30.874 66.1673 31.162 65.0033 31.162C64.0553 31.162 63.2033 30.952 62.4473 30.532C61.7033 30.1 61.1153 29.5 60.6833 28.732C60.2633 27.952 60.0533 27.052 60.0533 26.032C60.0533 25.012 60.2573 24.118 60.6653 23.35C61.0853 22.57 61.6673 21.97 62.4113 21.55C63.1673 21.13 64.0313 20.92 65.0033 20.92C65.9393 20.92 66.7733 21.124 67.5053 21.532C68.2373 21.94 68.8073 22.516 69.2153 23.26C69.6233 23.992 69.8273 24.838 69.8273 25.798ZM67.6853 25.15C67.6733 24.394 67.4033 23.788 66.8753 23.332C66.3473 22.876 65.6933 22.648 64.9133 22.648C64.2053 22.648 63.5993 22.876 63.0953 23.332C62.5913 23.776 62.2913 24.382 62.1953 25.15H67.6853ZM71.5226 25.996C71.5226 25 71.7266 24.118 72.1346 23.35C72.5546 22.582 73.1186 21.988 73.8266 21.568C74.5466 21.136 75.3446 20.92 76.2206 20.92C76.8686 20.92 77.5046 21.064 78.1286 21.352C78.7646 21.628 79.2686 22 79.6406 22.468V17.68H81.7106V31H79.6406V29.506C79.3046 29.986 78.8366 30.382 78.2366 30.694C77.6486 31.006 76.9706 31.162 76.2026 31.162C75.3386 31.162 74.5466 30.946 73.8266 30.514C73.1186 30.07 72.5546 29.458 72.1346 28.678C71.7266 27.886 71.5226 26.992 71.5226 25.996ZM79.6406 26.032C79.6406 25.348 79.4966 24.754 79.2086 24.25C78.9326 23.746 78.5666 23.362 78.1106 23.098C77.6546 22.834 77.1626 22.702 76.6346 22.702C76.1066 22.702 75.6146 22.834 75.1586 23.098C74.7026 23.35 74.3306 23.728 74.0426 24.232C73.7666 24.724 73.6286 25.312 73.6286 25.996C73.6286 26.68 73.7666 27.28 74.0426 27.796C74.3306 28.312 74.7026 28.708 75.1586 28.984C75.6266 29.248 76.1186 29.38 76.6346 29.38C77.1626 29.38 77.6546 29.248 78.1106 28.984C78.5666 28.72 78.9326 28.336 79.2086 27.832C79.4966 27.316 79.6406 26.716 79.6406 26.032ZM97.8836 18.49V20.164H94.5536V31H92.5016V20.164H89.1536V18.49H97.8836ZM104.624 31.162C103.688 31.162 102.842 30.952 102.086 30.532C101.33 30.1 100.736 29.5 100.304 28.732C99.8718 27.952 99.6558 27.052 99.6558 26.032C99.6558 25.024 99.8778 24.13 100.322 23.35C100.766 22.57 101.372 21.97 102.14 21.55C102.908 21.13 103.766 20.92 104.714 20.92C105.662 20.92 106.52 21.13 107.288 21.55C108.056 21.97 108.662 22.57 109.106 23.35C109.55 24.13 109.772 25.024 109.772 26.032C109.772 27.04 109.544 27.934 109.088 28.714C108.632 29.494 108.008 30.1 107.216 30.532C106.436 30.952 105.572 31.162 104.624 31.162ZM104.624 29.38C105.152 29.38 105.644 29.254 106.1 29.002C106.568 28.75 106.946 28.372 107.234 27.868C107.522 27.364 107.666 26.752 107.666 26.032C107.666 25.312 107.528 24.706 107.252 24.214C106.976 23.71 106.61 23.332 106.154 23.08C105.698 22.828 105.206 22.702 104.678 22.702C104.15 22.702 103.658 22.828 103.202 23.08C102.758 23.332 102.404 23.71 102.14 24.214C101.876 24.706 101.744 25.312 101.744 26.032C101.744 27.1 102.014 27.928 102.554 28.516C103.106 29.092 103.796 29.38 104.624 29.38ZM111.476 25.996C111.476 25 111.68 24.118 112.088 23.35C112.508 22.582 113.072 21.988 113.78 21.568C114.5 21.136 115.298 20.92 116.174 20.92C116.822 20.92 117.458 21.064 118.082 21.352C118.718 21.628 119.222 22 119.594 22.468V17.68H121.664V31H119.594V29.506C119.258 29.986 118.79 30.382 118.19 30.694C117.602 31.006 116.924 31.162 116.156 31.162C115.292 31.162 114.5 30.946 113.78 30.514C113.072 30.07 112.508 29.458 112.088 28.678C111.68 27.886 111.476 26.992 111.476 25.996ZM119.594 26.032C119.594 25.348 119.45 24.754 119.162 24.25C118.886 23.746 118.52 23.362 118.064 23.098C117.608 22.834 117.116 22.702 116.588 22.702C116.06 22.702 115.568 22.834 115.112 23.098C114.656 23.35 114.284 23.728 113.996 24.232C113.72 24.724 113.582 25.312 113.582 25.996C113.582 26.68 113.72 27.28 113.996 27.796C114.284 28.312 114.656 28.708 115.112 28.984C115.58 29.248 116.072 29.38 116.588 29.38C117.116 29.38 117.608 29.248 118.064 28.984C118.52 28.72 118.886 28.336 119.162 27.832C119.45 27.316 119.594 26.716 119.594 26.032ZM124.036 25.996C124.036 25 124.24 24.118 124.648 23.35C125.068 22.582 125.632 21.988 126.34 21.568C127.06 21.136 127.852 20.92 128.716 20.92C129.496 20.92 130.174 21.076 130.75 21.388C131.338 21.688 131.806 22.066 132.154 22.522V21.082H134.224V31H132.154V29.524C131.806 29.992 131.332 30.382 130.732 30.694C130.132 31.006 129.448 31.162 128.68 31.162C127.828 31.162 127.048 30.946 126.34 30.514C125.632 30.07 125.068 29.458 124.648 28.678C124.24 27.886 124.036 26.992 124.036 25.996ZM132.154 26.032C132.154 25.348 132.01 24.754 131.722 24.25C131.446 23.746 131.08 23.362 130.624 23.098C130.168 22.834 129.676 22.702 129.148 22.702C128.62 22.702 128.128 22.834 127.672 23.098C127.216 23.35 126.844 23.728 126.556 24.232C126.28 24.724 126.142 25.312 126.142 25.996C126.142 26.68 126.28 27.28 126.556 27.796C126.844 28.312 127.216 28.708 127.672 28.984C128.14 29.248 128.632 29.38 129.148 29.38C129.676 29.38 130.168 29.248 130.624 28.984C131.08 28.72 131.446 28.336 131.722 27.832C132.01 27.316 132.154 26.716 132.154 26.032ZM146.207 21.082L140.123 35.662H137.999L140.015 30.838L136.109 21.082H138.395L141.185 28.642L144.083 21.082H146.207Z" fill="#5A5A5F"/>
<defs>
<filter id="filter0_d_504_402" x="0" y="0" width="264" height="96" filterUnits="userSpaceOnUse" color-interpolation-filters="sRGB">
<feFlood flood-opacity="0" result="BackgroundImageFix"/>
<feColorMatrix in="SourceAlpha" type="matrix" values="0 0 0 0 0 0 0 0 0 0 0 0 0 0 0 0 0 0 127 0" result="hardAlpha"/>
<feOffset dy="1"/>
<feGaussianBlur stdDeviation="2"/>
<feComposite in2="hardAlpha" operator="out"/>
<feColorMatrix type="matrix" values="0 0 0 0 0 0 0 0 0 0 0 0 0 0 0 0 0 0 0.2 0"/>
<feBlend mode="normal" in2="BackgroundImageFix" result="effect1_dropShadow_504_402"/>
<feBlend mode="normal" in="SourceGraphic" in2="effect1_dropShadow_504_402" result="shape"/>
</filter>
</defs>
</svg>
