<svg width="292" height="96" viewBox="0 0 292 96" fill="none" xmlns="http://www.w3.org/2000/svg">
<g filter="url(#filter0_d_504_401)">
<rect x="4" y="3" width="256" height="88" rx="4" fill="white"/>
</g>
<path d="M23.44 54V50.672H30.096V74H26.416V54H23.44ZM47.6515 56.08C47.4168 55.0987 46.9902 54.3627 46.3715 53.872C45.7528 53.3813 44.8888 53.136 43.7795 53.136C42.0942 53.136 40.8355 53.7867 40.0035 55.088C39.1715 56.368 38.7342 58.5013 38.6915 61.488C39.2462 60.5493 40.0568 59.824 41.1235 59.312C42.1902 58.8 43.3422 58.544 44.5795 58.544C45.9875 58.544 47.2248 58.8533 48.2915 59.472C49.3795 60.0693 50.2222 60.944 50.8195 62.096C51.4382 63.248 51.7475 64.624 51.7475 66.224C51.7475 67.7173 51.4488 69.0507 50.8515 70.224C50.2755 71.3973 49.4115 72.3253 48.2595 73.008C47.1075 73.6693 45.7208 74 44.0995 74C41.9022 74 40.1742 73.52 38.9155 72.56C37.6782 71.5787 36.8035 70.2027 36.2915 68.432C35.8008 66.6613 35.5555 64.4533 35.5555 61.808C35.5555 54 38.3075 50.096 43.8115 50.096C45.9448 50.096 47.6195 50.672 48.8355 51.824C50.0728 52.976 50.7982 54.3947 51.0115 56.08H47.6515ZM43.7795 61.616C42.4782 61.616 41.3688 62.0107 40.4515 62.8C39.5555 63.568 39.1075 64.688 39.1075 66.16C39.1075 67.632 39.5235 68.8053 40.3555 69.68C41.2088 70.5333 42.3928 70.96 43.9075 70.96C45.2515 70.96 46.3075 70.544 47.0755 69.712C47.8648 68.88 48.2595 67.7707 48.2595 66.384C48.2595 64.9333 47.8755 63.7813 47.1075 62.928C46.3608 62.0533 45.2515 61.616 43.7795 61.616ZM70.4228 53.488L61.5268 74H57.8468L66.8388 53.872H54.9988V50.768H70.4228V53.488ZM73.481 56.432C73.609 54.448 74.3663 52.9013 75.753 51.792C77.161 50.6827 78.953 50.128 81.129 50.128C82.6223 50.128 83.913 50.3947 85.001 50.928C86.089 51.4613 86.9103 52.1867 87.465 53.104C88.0197 54.0213 88.297 55.056 88.297 56.208C88.297 57.5307 87.945 58.6613 87.241 59.6C86.537 60.5387 85.6943 61.168 84.713 61.488V61.616C85.9717 62 86.953 62.704 87.657 63.728C88.361 64.7307 88.713 66.0213 88.713 67.6C88.713 68.8587 88.425 69.9787 87.849 70.96C87.273 71.9413 86.4197 72.72 85.289 73.296C84.1583 73.8507 82.8037 74.128 81.225 74.128C78.921 74.128 77.0223 73.5413 75.529 72.368C74.057 71.1733 73.2677 69.4667 73.161 67.248H76.681C76.7663 68.3787 77.2037 69.3067 77.993 70.032C78.7823 70.736 79.849 71.088 81.193 71.088C82.4943 71.088 83.497 70.736 84.201 70.032C84.905 69.3067 85.257 68.3787 85.257 67.248C85.257 65.7547 84.777 64.6987 83.817 64.08C82.8783 63.44 81.4277 63.12 79.465 63.12H78.633V60.112H79.497C81.225 60.0907 82.537 59.8027 83.433 59.248C84.3503 58.6933 84.809 57.8187 84.809 56.624C84.809 55.6 84.4783 54.7893 83.817 54.192C83.1557 53.5733 82.217 53.264 81.001 53.264C79.8063 53.264 78.8783 53.5733 78.217 54.192C77.5557 54.7893 77.161 55.536 77.033 56.432H73.481ZM96.481 61.808C94.2623 60.6987 93.153 58.9493 93.153 56.56C93.153 55.408 93.441 54.352 94.017 53.392C94.593 52.432 95.457 51.6747 96.609 51.12C97.761 50.544 99.169 50.256 100.833 50.256C102.476 50.256 103.873 50.544 105.025 51.12C106.198 51.6747 107.073 52.432 107.649 53.392C108.225 54.352 108.513 55.408 108.513 56.56C108.513 57.7547 108.204 58.8107 107.585 59.728C106.988 60.624 106.188 61.3173 105.185 61.808C106.401 62.256 107.361 62.992 108.065 64.016C108.769 65.0187 109.121 66.2027 109.121 67.568C109.121 68.9547 108.769 70.1813 108.065 71.248C107.361 72.3147 106.38 73.136 105.121 73.712C103.862 74.288 102.433 74.576 100.833 74.576C99.233 74.576 97.8037 74.288 96.545 73.712C95.3077 73.136 94.337 72.3147 93.633 71.248C92.929 70.1813 92.577 68.9547 92.577 67.568C92.577 66.1813 92.929 64.9867 93.633 63.984C94.337 62.9813 95.2863 62.256 96.481 61.808ZM105.025 57.008C105.025 55.8133 104.652 54.896 103.905 54.256C103.158 53.616 102.134 53.296 100.833 53.296C99.553 53.296 98.5397 53.616 97.793 54.256C97.0463 54.896 96.673 55.824 96.673 57.04C96.673 58.1067 97.057 58.9813 97.825 59.664C98.6143 60.3253 99.617 60.656 100.833 60.656C102.049 60.656 103.052 60.3147 103.841 59.632C104.63 58.9493 105.025 58.0747 105.025 57.008ZM100.833 63.408C99.425 63.408 98.273 63.76 97.377 64.464C96.5023 65.1467 96.065 66.1387 96.065 67.44C96.065 68.656 96.4917 69.648 97.345 70.416C98.1983 71.1627 99.361 71.536 100.833 71.536C102.284 71.536 103.425 71.152 104.257 70.384C105.11 69.616 105.537 68.6347 105.537 67.44C105.537 66.16 105.1 65.168 104.225 64.464C103.372 63.76 102.241 63.408 100.833 63.408Z" fill="#004EDA"/>
<path d="M32.098 22.216C32.098 22.852 31.948 23.452 31.648 24.016C31.348 24.58 30.868 25.042 30.208 25.402C29.548 25.75 28.702 25.924 27.67 25.924H25.402V31H23.35V18.49H27.67C28.63 18.49 29.44 18.658 30.1 18.994C30.772 19.318 31.27 19.762 31.594 20.326C31.93 20.89 32.098 21.52 32.098 22.216ZM27.67 24.25C28.45 24.25 29.032 24.076 29.416 23.728C29.8 23.368 29.992 22.864 29.992 22.216C29.992 20.848 29.218 20.164 27.67 20.164H25.402V24.25H27.67ZM36.4671 22.522C36.7671 22.018 37.1631 21.628 37.6551 21.352C38.1591 21.064 38.7531 20.92 39.4371 20.92V23.044H38.9151C38.1111 23.044 37.4991 23.248 37.0791 23.656C36.6711 24.064 36.4671 24.772 36.4671 25.78V31H34.4151V21.082H36.4671V22.522ZM50.7733 25.798C50.7733 26.17 50.7493 26.506 50.7013 26.806H43.1233C43.1833 27.598 43.4773 28.234 44.0053 28.714C44.5333 29.194 45.1813 29.434 45.9493 29.434C47.0533 29.434 47.8333 28.972 48.2893 28.048H50.5033C50.2033 28.96 49.6573 29.71 48.8653 30.298C48.0853 30.874 47.1133 31.162 45.9493 31.162C45.0013 31.162 44.1493 30.952 43.3933 30.532C42.6493 30.1 42.0613 29.5 41.6293 28.732C41.2093 27.952 40.9993 27.052 40.9993 26.032C40.9993 25.012 41.2033 24.118 41.6113 23.35C42.0313 22.57 42.6133 21.97 43.3573 21.55C44.1133 21.13 44.9773 20.92 45.9493 20.92C46.8853 20.92 47.7193 21.124 48.4513 21.532C49.1833 21.94 49.7533 22.516 50.1613 23.26C50.5693 23.992 50.7733 24.838 50.7733 25.798ZM48.6313 25.15C48.6193 24.394 48.3493 23.788 47.8213 23.332C47.2933 22.876 46.6393 22.648 45.8593 22.648C45.1513 22.648 44.5453 22.876 44.0413 23.332C43.5373 23.776 43.2373 24.382 43.1413 25.15H48.6313ZM55.2047 22.54C55.5527 22.084 56.0267 21.7 56.6267 21.388C57.2267 21.076 57.9047 20.92 58.6607 20.92C59.5247 20.92 60.3107 21.136 61.0187 21.568C61.7387 21.988 62.3027 22.582 62.7107 23.35C63.1187 24.118 63.3227 25 63.3227 25.996C63.3227 26.992 63.1187 27.886 62.7107 28.678C62.3027 29.458 61.7387 30.07 61.0187 30.514C60.3107 30.946 59.5247 31.162 58.6607 31.162C57.9047 31.162 57.2327 31.012 56.6447 30.712C56.0567 30.4 55.5767 30.016 55.2047 29.56V35.716H53.1527V21.082H55.2047V22.54ZM61.2347 25.996C61.2347 25.312 61.0907 24.724 60.8027 24.232C60.5267 23.728 60.1547 23.35 59.6867 23.098C59.2307 22.834 58.7387 22.702 58.2107 22.702C57.6947 22.702 57.2027 22.834 56.7347 23.098C56.2787 23.362 55.9067 23.746 55.6187 24.25C55.3427 24.754 55.2047 25.348 55.2047 26.032C55.2047 26.716 55.3427 27.316 55.6187 27.832C55.9067 28.336 56.2787 28.72 56.7347 28.984C57.2027 29.248 57.6947 29.38 58.2107 29.38C58.7387 29.38 59.2307 29.248 59.6867 28.984C60.1547 28.708 60.5267 28.312 60.8027 27.796C61.0907 27.28 61.2347 26.68 61.2347 25.996ZM65.0279 25.996C65.0279 25 65.2319 24.118 65.6399 23.35C66.0599 22.582 66.6239 21.988 67.3319 21.568C68.0519 21.136 68.8439 20.92 69.7079 20.92C70.4879 20.92 71.1659 21.076 71.7419 21.388C72.3299 21.688 72.7979 22.066 73.1459 22.522V21.082H75.2159V31H73.1459V29.524C72.7979 29.992 72.3239 30.382 71.7239 30.694C71.1239 31.006 70.4399 31.162 69.6719 31.162C68.8199 31.162 68.0399 30.946 67.3319 30.514C66.6239 30.07 66.0599 29.458 65.6399 28.678C65.2319 27.886 65.0279 26.992 65.0279 25.996ZM73.1459 26.032C73.1459 25.348 73.0019 24.754 72.7139 24.25C72.4379 23.746 72.0719 23.362 71.6159 23.098C71.1599 22.834 70.6679 22.702 70.1399 22.702C69.6119 22.702 69.1199 22.834 68.6639 23.098C68.2079 23.35 67.8359 23.728 67.5479 24.232C67.2719 24.724 67.1339 25.312 67.1339 25.996C67.1339 26.68 67.2719 27.28 67.5479 27.796C67.8359 28.312 68.2079 28.708 68.6639 28.984C69.1319 29.248 69.6239 29.38 70.1399 29.38C70.6679 29.38 71.1599 29.248 71.6159 28.984C72.0719 28.72 72.4379 28.336 72.7139 27.832C73.0019 27.316 73.1459 26.716 73.1459 26.032ZM80.3231 22.522C80.6231 22.018 81.0191 21.628 81.5111 21.352C82.0151 21.064 82.6091 20.92 83.2931 20.92V23.044H82.7711C81.9671 23.044 81.3551 23.248 80.9351 23.656C80.5271 24.064 80.3231 24.772 80.3231 25.78V31H78.2711V21.082H80.3231V22.522ZM94.6293 25.798C94.6293 26.17 94.6053 26.506 94.5573 26.806H86.9793C87.0393 27.598 87.3333 28.234 87.8613 28.714C88.3893 29.194 89.0373 29.434 89.8053 29.434C90.9093 29.434 91.6893 28.972 92.1453 28.048H94.3593C94.0593 28.96 93.5133 29.71 92.7213 30.298C91.9413 30.874 90.9693 31.162 89.8053 31.162C88.8573 31.162 88.0053 30.952 87.2493 30.532C86.5053 30.1 85.9173 29.5 85.4853 28.732C85.0653 27.952 84.8553 27.052 84.8553 26.032C84.8553 25.012 85.0593 24.118 85.4673 23.35C85.8873 22.57 86.4693 21.97 87.2133 21.55C87.9693 21.13 88.8333 20.92 89.8053 20.92C90.7413 20.92 91.5753 21.124 92.3073 21.532C93.0393 21.94 93.6093 22.516 94.0173 23.26C94.4253 23.992 94.6293 24.838 94.6293 25.798ZM92.4873 25.15C92.4753 24.394 92.2053 23.788 91.6773 23.332C91.1493 22.876 90.4953 22.648 89.7153 22.648C89.0073 22.648 88.4013 22.876 87.8973 23.332C87.3933 23.776 87.0933 24.382 86.9973 25.15H92.4873ZM96.3247 25.996C96.3247 25 96.5287 24.118 96.9367 23.35C97.3567 22.582 97.9207 21.988 98.6287 21.568C99.3487 21.136 100.147 20.92 101.023 20.92C101.671 20.92 102.307 21.064 102.931 21.352C103.567 21.628 104.071 22 104.443 22.468V17.68H106.513V31H104.443V29.506C104.107 29.986 103.639 30.382 103.039 30.694C102.451 31.006 101.773 31.162 101.005 31.162C100.141 31.162 99.3487 30.946 98.6287 30.514C97.9207 30.07 97.3567 29.458 96.9367 28.678C96.5287 27.886 96.3247 26.992 96.3247 25.996ZM104.443 26.032C104.443 25.348 104.299 24.754 104.011 24.25C103.735 23.746 103.369 23.362 102.913 23.098C102.457 22.834 101.965 22.702 101.437 22.702C100.909 22.702 100.417 22.834 99.9607 23.098C99.5047 23.35 99.1327 23.728 98.8447 24.232C98.5687 24.724 98.4307 25.312 98.4307 25.996C98.4307 26.68 98.5687 27.28 98.8447 27.796C99.1327 28.312 99.5047 28.708 99.9607 28.984C100.429 29.248 100.921 29.38 101.437 29.38C101.965 29.38 102.457 29.248 102.913 28.984C103.369 28.72 103.735 28.336 104.011 27.832C104.299 27.316 104.443 26.716 104.443 26.032ZM122.686 18.49V20.164H119.356V31H117.304V20.164H113.956V18.49H122.686ZM129.426 31.162C128.49 31.162 127.644 30.952 126.888 30.532C126.132 30.1 125.538 29.5 125.106 28.732C124.674 27.952 124.458 27.052 124.458 26.032C124.458 25.024 124.68 24.13 125.124 23.35C125.568 22.57 126.174 21.97 126.942 21.55C127.71 21.13 128.568 20.92 129.516 20.92C130.464 20.92 131.322 21.13 132.09 21.55C132.858 21.97 133.464 22.57 133.908 23.35C134.352 24.13 134.574 25.024 134.574 26.032C134.574 27.04 134.346 27.934 133.89 28.714C133.434 29.494 132.81 30.1 132.018 30.532C131.238 30.952 130.374 31.162 129.426 31.162ZM129.426 29.38C129.954 29.38 130.446 29.254 130.902 29.002C131.37 28.75 131.748 28.372 132.036 27.868C132.324 27.364 132.468 26.752 132.468 26.032C132.468 25.312 132.33 24.706 132.054 24.214C131.778 23.71 131.412 23.332 130.956 23.08C130.5 22.828 130.008 22.702 129.48 22.702C128.952 22.702 128.46 22.828 128.004 23.08C127.56 23.332 127.206 23.71 126.942 24.214C126.678 24.706 126.546 25.312 126.546 26.032C126.546 27.1 126.816 27.928 127.356 28.516C127.908 29.092 128.598 29.38 129.426 29.38ZM136.278 25.996C136.278 25 136.482 24.118 136.89 23.35C137.31 22.582 137.874 21.988 138.582 21.568C139.302 21.136 140.1 20.92 140.976 20.92C141.624 20.92 142.26 21.064 142.884 21.352C143.52 21.628 144.024 22 144.396 22.468V17.68H146.466V31H144.396V29.506C144.06 29.986 143.592 30.382 142.992 30.694C142.404 31.006 141.726 31.162 140.958 31.162C140.094 31.162 139.302 30.946 138.582 30.514C137.874 30.07 137.31 29.458 136.89 28.678C136.482 27.886 136.278 26.992 136.278 25.996ZM144.396 26.032C144.396 25.348 144.252 24.754 143.964 24.25C143.688 23.746 143.322 23.362 142.866 23.098C142.41 22.834 141.918 22.702 141.39 22.702C140.862 22.702 140.37 22.834 139.914 23.098C139.458 23.35 139.086 23.728 138.798 24.232C138.522 24.724 138.384 25.312 138.384 25.996C138.384 26.68 138.522 27.28 138.798 27.796C139.086 28.312 139.458 28.708 139.914 28.984C140.382 29.248 140.874 29.38 141.39 29.38C141.918 29.38 142.41 29.248 142.866 28.984C143.322 28.72 143.688 28.336 143.964 27.832C144.252 27.316 144.396 26.716 144.396 26.032ZM148.838 25.996C148.838 25 149.042 24.118 149.45 23.35C149.87 22.582 150.434 21.988 151.142 21.568C151.862 21.136 152.654 20.92 153.518 20.92C154.298 20.92 154.976 21.076 155.552 21.388C156.14 21.688 156.608 22.066 156.956 22.522V21.082H159.026V31H156.956V29.524C156.608 29.992 156.134 30.382 155.534 30.694C154.934 31.006 154.25 31.162 153.482 31.162C152.63 31.162 151.85 30.946 151.142 30.514C150.434 30.07 149.87 29.458 149.45 28.678C149.042 27.886 148.838 26.992 148.838 25.996ZM156.956 26.032C156.956 25.348 156.812 24.754 156.524 24.25C156.248 23.746 155.882 23.362 155.426 23.098C154.97 22.834 154.478 22.702 153.95 22.702C153.422 22.702 152.93 22.834 152.474 23.098C152.018 23.35 151.646 23.728 151.358 24.232C151.082 24.724 150.944 25.312 150.944 25.996C150.944 26.68 151.082 27.28 151.358 27.796C151.646 28.312 152.018 28.708 152.474 28.984C152.942 29.248 153.434 29.38 153.95 29.38C154.478 29.38 154.97 29.248 155.426 28.984C155.882 28.72 156.248 28.336 156.524 27.832C156.812 27.316 156.956 26.716 156.956 26.032ZM171.009 21.082L164.925 35.662H162.801L164.817 30.838L160.911 21.082H163.197L165.987 28.642L168.885 21.082H171.009Z" fill="#5A5A5F"/>
<defs>
<filter id="filter0_d_504_401" x="0" y="0" width="264" height="96" filterUnits="userSpaceOnUse" color-interpolation-filters="sRGB">
<feFlood flood-opacity="0" result="BackgroundImageFix"/>
<feColorMatrix in="SourceAlpha" type="matrix" values="0 0 0 0 0 0 0 0 0 0 0 0 0 0 0 0 0 0 127 0" result="hardAlpha"/>
<feOffset dy="1"/>
<feGaussianBlur stdDeviation="2"/>
<feComposite in2="hardAlpha" operator="out"/>
<feColorMatrix type="matrix" values="0 0 0 0 0 0 0 0 0 0 0 0 0 0 0 0 0 0 0.2 0"/>
<feBlend mode="normal" in2="BackgroundImageFix" result="effect1_dropShadow_504_401"/>
<feBlend mode="normal" in="SourceGraphic" in2="effect1_dropShadow_504_401" result="shape"/>
</filter>
</defs>
</svg>
