<svg width="304" height="96" viewBox="0 0 304 96" fill="none" xmlns="http://www.w3.org/2000/svg">
<g filter="url(#filter0_d_504_403)">
<rect x="4" y="3" width="256" height="88" rx="4" fill="white"/>
</g>
<path d="M29.214 67.664C29.4273 68.7307 29.886 69.5413 30.59 70.096C31.294 70.6507 32.2433 70.928 33.438 70.928C34.9527 70.928 36.062 70.3307 36.766 69.136C37.47 67.9413 37.822 65.904 37.822 63.024C37.31 63.7493 36.5847 64.3147 35.646 64.72C34.7287 65.104 33.726 65.296 32.638 65.296C31.2513 65.296 29.9927 65.0187 28.862 64.464C27.7313 63.888 26.8353 63.0453 26.174 61.936C25.534 60.8053 25.214 59.44 25.214 57.84C25.214 55.4933 25.8967 53.6267 27.262 52.24C28.6487 50.832 30.5473 50.128 32.958 50.128C35.8593 50.128 37.918 51.0987 39.134 53.04C40.3713 54.96 40.99 57.9147 40.99 61.904C40.99 64.656 40.7553 66.9067 40.286 68.656C39.838 70.4053 39.0487 71.728 37.918 72.624C36.7873 73.52 35.2193 73.968 33.214 73.968C30.9313 73.968 29.1713 73.3707 27.934 72.176C26.6967 70.9813 26.0033 69.4773 25.854 67.664H29.214ZM33.278 62.224C34.558 62.224 35.5607 61.8293 36.286 61.04C37.0327 60.2293 37.406 59.1627 37.406 57.84C37.406 56.368 37.0113 55.2267 36.222 54.416C35.454 53.584 34.398 53.168 33.054 53.168C31.71 53.168 30.6433 53.5947 29.854 54.448C29.086 55.28 28.702 56.3787 28.702 57.744C28.702 59.0453 29.0753 60.1227 29.822 60.976C30.59 61.808 31.742 62.224 33.278 62.224ZM46.9985 69.04C49.0465 67.2693 50.6572 65.8187 51.8305 64.688C53.0252 63.536 54.0172 62.3413 54.8065 61.104C55.5958 59.8667 55.9905 58.6293 55.9905 57.392C55.9905 56.112 55.6812 55.1093 55.0625 54.384C54.4652 53.6587 53.5158 53.296 52.2145 53.296C50.9558 53.296 49.9745 53.7013 49.2705 54.512C48.5878 55.3013 48.2252 56.368 48.1825 57.712H44.6625C44.7265 55.28 45.4518 53.424 46.8385 52.144C48.2465 50.8427 50.0278 50.192 52.1825 50.192C54.5078 50.192 56.3212 50.832 57.6225 52.112C58.9452 53.392 59.6065 55.0987 59.6065 57.232C59.6065 58.768 59.2118 60.2507 58.4225 61.68C57.6545 63.088 56.7265 64.3573 55.6385 65.488C54.5718 66.5973 53.2065 67.888 51.5425 69.36L50.1025 70.64H60.2465V73.68H44.6945V71.024L46.9985 69.04ZM67.3873 61.808C65.1686 60.6987 64.0593 58.9493 64.0593 56.56C64.0593 55.408 64.3473 54.352 64.9233 53.392C65.4993 52.432 66.3633 51.6747 67.5153 51.12C68.6673 50.544 70.0753 50.256 71.7393 50.256C73.3819 50.256 74.7793 50.544 75.9313 51.12C77.1046 51.6747 77.9792 52.432 78.5553 53.392C79.1313 54.352 79.4193 55.408 79.4193 56.56C79.4193 57.7547 79.1099 58.8107 78.4913 59.728C77.8939 60.624 77.0939 61.3173 76.0913 61.808C77.3073 62.256 78.2673 62.992 78.9713 64.016C79.6753 65.0187 80.0273 66.2027 80.0273 67.568C80.0273 68.9547 79.6753 70.1813 78.9713 71.248C78.2673 72.3147 77.2859 73.136 76.0273 73.712C74.7686 74.288 73.3393 74.576 71.7393 74.576C70.1393 74.576 68.7099 74.288 67.4513 73.712C66.2139 73.136 65.2433 72.3147 64.5393 71.248C63.8353 70.1813 63.4833 68.9547 63.4833 67.568C63.4833 66.1813 63.8353 64.9867 64.5393 63.984C65.2433 62.9813 66.1926 62.256 67.3873 61.808ZM75.9313 57.008C75.9313 55.8133 75.5579 54.896 74.8113 54.256C74.0646 53.616 73.0406 53.296 71.7393 53.296C70.4593 53.296 69.4459 53.616 68.6993 54.256C67.9526 54.896 67.5793 55.824 67.5793 57.04C67.5793 58.1067 67.9633 58.9813 68.7313 59.664C69.5206 60.3253 70.5233 60.656 71.7393 60.656C72.9553 60.656 73.9579 60.3147 74.7473 59.632C75.5366 58.9493 75.9313 58.0747 75.9313 57.008ZM71.7393 63.408C70.3313 63.408 69.1793 63.76 68.2833 64.464C67.4086 65.1467 66.9713 66.1387 66.9713 67.44C66.9713 68.656 67.3979 69.648 68.2513 70.416C69.1046 71.1627 70.2673 71.536 71.7393 71.536C73.1899 71.536 74.3313 71.152 75.1633 70.384C76.0166 69.616 76.4433 68.6347 76.4433 67.44C76.4433 66.16 76.0059 65.168 75.1313 64.464C74.2779 63.76 73.1473 63.408 71.7393 63.408ZM96.4015 56.08C96.1668 55.0987 95.7402 54.3627 95.1215 53.872C94.5028 53.3813 93.6388 53.136 92.5295 53.136C90.8442 53.136 89.5855 53.7867 88.7535 55.088C87.9215 56.368 87.4842 58.5013 87.4415 61.488C87.9962 60.5493 88.8068 59.824 89.8735 59.312C90.9402 58.8 92.0922 58.544 93.3295 58.544C94.7375 58.544 95.9748 58.8533 97.0415 59.472C98.1295 60.0693 98.9722 60.944 99.5695 62.096C100.188 63.248 100.498 64.624 100.498 66.224C100.498 67.7173 100.199 69.0507 99.6015 70.224C99.0255 71.3973 98.1615 72.3253 97.0095 73.008C95.8575 73.6693 94.4708 74 92.8495 74C90.6522 74 88.9242 73.52 87.6655 72.56C86.4282 71.5787 85.5535 70.2027 85.0415 68.432C84.5508 66.6613 84.3055 64.4533 84.3055 61.808C84.3055 54 87.0575 50.096 92.5615 50.096C94.6948 50.096 96.3695 50.672 97.5855 51.824C98.8228 52.976 99.5482 54.3947 99.7615 56.08H96.4015ZM92.5295 61.616C91.2282 61.616 90.1188 62.0107 89.2015 62.8C88.3055 63.568 87.8575 64.688 87.8575 66.16C87.8575 67.632 88.2735 68.8053 89.1055 69.68C89.9588 70.5333 91.1428 70.96 92.6575 70.96C94.0015 70.96 95.0575 70.544 95.8255 69.712C96.6148 68.88 97.0095 67.7707 97.0095 66.384C97.0095 64.9333 96.6255 63.7813 95.8575 62.928C95.1108 62.0533 94.0015 61.616 92.5295 61.616ZM103.909 54V50.672H110.565V74H106.885V54H103.909Z" fill="#004EDA"/>
<path d="M28.186 18.49C29.518 18.49 30.682 18.748 31.678 19.264C32.686 19.768 33.46 20.5 34 21.46C34.552 22.408 34.828 23.518 34.828 24.79C34.828 26.062 34.552 27.166 34 28.102C33.46 29.038 32.686 29.758 31.678 30.262C30.682 30.754 29.518 31 28.186 31H24.1V18.49H28.186ZM28.186 29.326C29.65 29.326 30.772 28.93 31.552 28.138C32.332 27.346 32.722 26.23 32.722 24.79C32.722 23.338 32.332 22.204 31.552 21.388C30.772 20.572 29.65 20.164 28.186 20.164H26.152V29.326H28.186ZM38.2657 19.768C37.8937 19.768 37.5817 19.642 37.3297 19.39C37.0777 19.138 36.9517 18.826 36.9517 18.454C36.9517 18.082 37.0777 17.77 37.3297 17.518C37.5817 17.266 37.8937 17.14 38.2657 17.14C38.6257 17.14 38.9317 17.266 39.1837 17.518C39.4357 17.77 39.5617 18.082 39.5617 18.454C39.5617 18.826 39.4357 19.138 39.1837 19.39C38.9317 19.642 38.6257 19.768 38.2657 19.768ZM39.2737 21.082V31H37.2217V21.082H39.2737ZM45.9278 31.162C45.1478 31.162 44.4458 31.024 43.8218 30.748C43.2098 30.46 42.7238 30.076 42.3638 29.596C42.0038 29.104 41.8118 28.558 41.7878 27.958H43.9118C43.9478 28.378 44.1458 28.732 44.5058 29.02C44.8778 29.296 45.3398 29.434 45.8918 29.434C46.4678 29.434 46.9118 29.326 47.2238 29.11C47.5478 28.882 47.7098 28.594 47.7098 28.246C47.7098 27.874 47.5298 27.598 47.1698 27.418C46.8218 27.238 46.2638 27.04 45.4958 26.824C44.7518 26.62 44.1458 26.422 43.6778 26.23C43.2098 26.038 42.8018 25.744 42.4538 25.348C42.1178 24.952 41.9498 24.43 41.9498 23.782C41.9498 23.254 42.1058 22.774 42.4178 22.342C42.7298 21.898 43.1738 21.55 43.7498 21.298C44.3378 21.046 45.0098 20.92 45.7658 20.92C46.8938 20.92 47.7998 21.208 48.4838 21.784C49.1798 22.348 49.5518 23.122 49.5998 24.106H47.5478C47.5118 23.662 47.3318 23.308 47.0078 23.044C46.6838 22.78 46.2458 22.648 45.6938 22.648C45.1538 22.648 44.7398 22.75 44.4518 22.954C44.1638 23.158 44.0198 23.428 44.0198 23.764C44.0198 24.028 44.1158 24.25 44.3078 24.43C44.4998 24.61 44.7338 24.754 45.0098 24.862C45.2858 24.958 45.6938 25.084 46.2338 25.24C46.9538 25.432 47.5418 25.63 47.9978 25.834C48.4658 26.026 48.8678 26.314 49.2038 26.698C49.5398 27.082 49.7138 27.592 49.7258 28.228C49.7258 28.792 49.5698 29.296 49.2578 29.74C48.9458 30.184 48.5018 30.532 47.9258 30.784C47.3618 31.036 46.6958 31.162 45.9278 31.162ZM54.697 22.756V28.246C54.697 28.618 54.781 28.888 54.949 29.056C55.129 29.212 55.429 29.29 55.849 29.29H57.109V31H55.489C54.565 31 53.857 30.784 53.365 30.352C52.873 29.92 52.627 29.218 52.627 28.246V22.756H51.457V21.082H52.627V18.616H54.697V21.082H57.109V22.756H54.697ZM61.4123 22.522C61.7123 22.018 62.1083 21.628 62.6003 21.352C63.1043 21.064 63.6983 20.92 64.3823 20.92V23.044H63.8603C63.0563 23.044 62.4443 23.248 62.0243 23.656C61.6163 24.064 61.4123 24.772 61.4123 25.78V31H59.3603V21.082H61.4123V22.522ZM67.6725 19.768C67.3005 19.768 66.9885 19.642 66.7365 19.39C66.4845 19.138 66.3585 18.826 66.3585 18.454C66.3585 18.082 66.4845 17.77 66.7365 17.518C66.9885 17.266 67.3005 17.14 67.6725 17.14C68.0325 17.14 68.3385 17.266 68.5905 17.518C68.8425 17.77 68.9685 18.082 68.9685 18.454C68.9685 18.826 68.8425 19.138 68.5905 19.39C68.3385 19.642 68.0325 19.768 67.6725 19.768ZM68.6805 21.082V31H66.6285V21.082H68.6805ZM73.7866 22.558C74.1346 22.078 74.6086 21.688 75.2086 21.388C75.8206 21.076 76.4986 20.92 77.2426 20.92C78.1186 20.92 78.9106 21.13 79.6186 21.55C80.3266 21.97 80.8846 22.57 81.2926 23.35C81.7006 24.118 81.9046 25 81.9046 25.996C81.9046 26.992 81.7006 27.886 81.2926 28.678C80.8846 29.458 80.3206 30.07 79.6006 30.514C78.8926 30.946 78.1066 31.162 77.2426 31.162C76.4746 31.162 75.7906 31.012 75.1906 30.712C74.6026 30.412 74.1346 30.028 73.7866 29.56V31H71.7346V17.68H73.7866V22.558ZM79.8166 25.996C79.8166 25.312 79.6726 24.724 79.3846 24.232C79.1086 23.728 78.7366 23.35 78.2686 23.098C77.8126 22.834 77.3206 22.702 76.7926 22.702C76.2766 22.702 75.7846 22.834 75.3166 23.098C74.8606 23.362 74.4886 23.746 74.2006 24.25C73.9246 24.754 73.7866 25.348 73.7866 26.032C73.7866 26.716 73.9246 27.316 74.2006 27.832C74.4886 28.336 74.8606 28.72 75.3166 28.984C75.7846 29.248 76.2766 29.38 76.7926 29.38C77.3206 29.38 77.8126 29.248 78.2686 28.984C78.7366 28.708 79.1086 28.312 79.3846 27.796C79.6726 27.28 79.8166 26.68 79.8166 25.996ZM93.2758 21.082V31H91.2238V29.83C90.8998 30.238 90.4738 30.562 89.9458 30.802C89.4298 31.03 88.8778 31.144 88.2898 31.144C87.5098 31.144 86.8078 30.982 86.1838 30.658C85.5718 30.334 85.0858 29.854 84.7258 29.218C84.3778 28.582 84.2038 27.814 84.2038 26.914V21.082H86.2378V26.608C86.2378 27.496 86.4598 28.18 86.9038 28.66C87.3478 29.128 87.9538 29.362 88.7218 29.362C89.4898 29.362 90.0958 29.128 90.5398 28.66C90.9958 28.18 91.2238 27.496 91.2238 26.608V21.082H93.2758ZM98.7373 22.756V28.246C98.7373 28.618 98.8213 28.888 98.9893 29.056C99.1693 29.212 99.4693 29.29 99.8893 29.29H101.149V31H99.5293C98.6053 31 97.8973 30.784 97.4053 30.352C96.9133 29.92 96.6673 29.218 96.6673 28.246V22.756H95.4973V21.082H96.6673V18.616H98.7373V21.082H101.149V22.756H98.7373ZM112.491 25.798C112.491 26.17 112.467 26.506 112.419 26.806H104.841C104.901 27.598 105.195 28.234 105.723 28.714C106.251 29.194 106.899 29.434 107.667 29.434C108.771 29.434 109.551 28.972 110.007 28.048H112.221C111.921 28.96 111.375 29.71 110.583 30.298C109.803 30.874 108.831 31.162 107.667 31.162C106.719 31.162 105.867 30.952 105.111 30.532C104.367 30.1 103.779 29.5 103.347 28.732C102.927 27.952 102.717 27.052 102.717 26.032C102.717 25.012 102.921 24.118 103.329 23.35C103.749 22.57 104.331 21.97 105.075 21.55C105.831 21.13 106.695 20.92 107.667 20.92C108.603 20.92 109.437 21.124 110.169 21.532C110.901 21.94 111.471 22.516 111.879 23.26C112.287 23.992 112.491 24.838 112.491 25.798ZM110.349 25.15C110.337 24.394 110.067 23.788 109.539 23.332C109.011 22.876 108.357 22.648 107.577 22.648C106.869 22.648 106.263 22.876 105.759 23.332C105.255 23.776 104.955 24.382 104.859 25.15H110.349ZM114.186 25.996C114.186 25 114.39 24.118 114.798 23.35C115.218 22.582 115.782 21.988 116.49 21.568C117.21 21.136 118.008 20.92 118.884 20.92C119.532 20.92 120.168 21.064 120.792 21.352C121.428 21.628 121.932 22 122.304 22.468V17.68H124.374V31H122.304V29.506C121.968 29.986 121.5 30.382 120.9 30.694C120.312 31.006 119.634 31.162 118.866 31.162C118.002 31.162 117.21 30.946 116.49 30.514C115.782 30.07 115.218 29.458 114.798 28.678C114.39 27.886 114.186 26.992 114.186 25.996ZM122.304 26.032C122.304 25.348 122.16 24.754 121.872 24.25C121.596 23.746 121.23 23.362 120.774 23.098C120.318 22.834 119.826 22.702 119.298 22.702C118.77 22.702 118.278 22.834 117.822 23.098C117.366 23.35 116.994 23.728 116.706 24.232C116.43 24.724 116.292 25.312 116.292 25.996C116.292 26.68 116.43 27.28 116.706 27.796C116.994 28.312 117.366 28.708 117.822 28.984C118.29 29.248 118.782 29.38 119.298 29.38C119.826 29.38 120.318 29.248 120.774 28.984C121.23 28.72 121.596 28.336 121.872 27.832C122.16 27.316 122.304 26.716 122.304 26.032ZM140.547 18.49V20.164H137.217V31H135.165V20.164H131.817V18.49H140.547ZM147.287 31.162C146.351 31.162 145.505 30.952 144.749 30.532C143.993 30.1 143.399 29.5 142.967 28.732C142.535 27.952 142.319 27.052 142.319 26.032C142.319 25.024 142.541 24.13 142.985 23.35C143.429 22.57 144.035 21.97 144.803 21.55C145.571 21.13 146.429 20.92 147.377 20.92C148.325 20.92 149.183 21.13 149.951 21.55C150.719 21.97 151.325 22.57 151.769 23.35C152.213 24.13 152.435 25.024 152.435 26.032C152.435 27.04 152.207 27.934 151.751 28.714C151.295 29.494 150.671 30.1 149.879 30.532C149.099 30.952 148.235 31.162 147.287 31.162ZM147.287 29.38C147.815 29.38 148.307 29.254 148.763 29.002C149.231 28.75 149.609 28.372 149.897 27.868C150.185 27.364 150.329 26.752 150.329 26.032C150.329 25.312 150.191 24.706 149.915 24.214C149.639 23.71 149.273 23.332 148.817 23.08C148.361 22.828 147.869 22.702 147.341 22.702C146.813 22.702 146.321 22.828 145.865 23.08C145.421 23.332 145.067 23.71 144.803 24.214C144.539 24.706 144.407 25.312 144.407 26.032C144.407 27.1 144.677 27.928 145.217 28.516C145.769 29.092 146.459 29.38 147.287 29.38ZM154.14 25.996C154.14 25 154.344 24.118 154.752 23.35C155.172 22.582 155.736 21.988 156.444 21.568C157.164 21.136 157.962 20.92 158.838 20.92C159.486 20.92 160.122 21.064 160.746 21.352C161.382 21.628 161.886 22 162.258 22.468V17.68H164.328V31H162.258V29.506C161.922 29.986 161.454 30.382 160.854 30.694C160.266 31.006 159.588 31.162 158.82 31.162C157.956 31.162 157.164 30.946 156.444 30.514C155.736 30.07 155.172 29.458 154.752 28.678C154.344 27.886 154.14 26.992 154.14 25.996ZM162.258 26.032C162.258 25.348 162.114 24.754 161.826 24.25C161.55 23.746 161.184 23.362 160.728 23.098C160.272 22.834 159.78 22.702 159.252 22.702C158.724 22.702 158.232 22.834 157.776 23.098C157.32 23.35 156.948 23.728 156.66 24.232C156.384 24.724 156.246 25.312 156.246 25.996C156.246 26.68 156.384 27.28 156.66 27.796C156.948 28.312 157.32 28.708 157.776 28.984C158.244 29.248 158.736 29.38 159.252 29.38C159.78 29.38 160.272 29.248 160.728 28.984C161.184 28.72 161.55 28.336 161.826 27.832C162.114 27.316 162.258 26.716 162.258 26.032ZM166.699 25.996C166.699 25 166.903 24.118 167.311 23.35C167.731 22.582 168.295 21.988 169.003 21.568C169.723 21.136 170.515 20.92 171.379 20.92C172.159 20.92 172.837 21.076 173.413 21.388C174.001 21.688 174.469 22.066 174.817 22.522V21.082H176.887V31H174.817V29.524C174.469 29.992 173.995 30.382 173.395 30.694C172.795 31.006 172.111 31.162 171.343 31.162C170.491 31.162 169.711 30.946 169.003 30.514C168.295 30.07 167.731 29.458 167.311 28.678C166.903 27.886 166.699 26.992 166.699 25.996ZM174.817 26.032C174.817 25.348 174.673 24.754 174.385 24.25C174.109 23.746 173.743 23.362 173.287 23.098C172.831 22.834 172.339 22.702 171.811 22.702C171.283 22.702 170.791 22.834 170.335 23.098C169.879 23.35 169.507 23.728 169.219 24.232C168.943 24.724 168.805 25.312 168.805 25.996C168.805 26.68 168.943 27.28 169.219 27.796C169.507 28.312 169.879 28.708 170.335 28.984C170.803 29.248 171.295 29.38 171.811 29.38C172.339 29.38 172.831 29.248 173.287 28.984C173.743 28.72 174.109 28.336 174.385 27.832C174.673 27.316 174.817 26.716 174.817 26.032ZM188.87 21.082L182.786 35.662H180.662L182.678 30.838L178.772 21.082H181.058L183.848 28.642L186.746 21.082H188.87Z" fill="#5A5A5F"/>
<defs>
<filter id="filter0_d_504_403" x="0" y="0" width="264" height="96" filterUnits="userSpaceOnUse" color-interpolation-filters="sRGB">
<feFlood flood-opacity="0" result="BackgroundImageFix"/>
<feColorMatrix in="SourceAlpha" type="matrix" values="0 0 0 0 0 0 0 0 0 0 0 0 0 0 0 0 0 0 127 0" result="hardAlpha"/>
<feOffset dy="1"/>
<feGaussianBlur stdDeviation="2"/>
<feComposite in2="hardAlpha" operator="out"/>
<feColorMatrix type="matrix" values="0 0 0 0 0 0 0 0 0 0 0 0 0 0 0 0 0 0 0.2 0"/>
<feBlend mode="normal" in2="BackgroundImageFix" result="effect1_dropShadow_504_403"/>
<feBlend mode="normal" in="SourceGraphic" in2="effect1_dropShadow_504_403" result="shape"/>
</filter>
</defs>
</svg>
